<svg xmlns="http://www.w3.org/2000/svg" xmlns:xlink="http://www.w3.org/1999/xlink" width="365" zoomAndPan="magnify" viewBox="0 0 273.75 50.249999" height="67" preserveAspectRatio="xMidYMid meet" version="1.0"><defs><clipPath id="147c709bd8"><path d="M 1.980469 28 L 21 28 L 21 44 L 1.980469 44 Z M 1.980469 28 " clip-rule="nonzero"/></clipPath><clipPath id="1c96e12620"><path d="M 247 29 L 268 29 L 268 47.28125 L 247 47.28125 Z M 247 29 " clip-rule="nonzero"/></clipPath></defs><path fill="#b8bcd3" d="M 23.746094 3.1875 L 23.746094 7.761719 L 9.511719 7.761719 L 9.511719 11.042969 L 22.683594 11.042969 L 22.683594 15.617188 L 9.511719 15.617188 L 9.511719 18.785156 L 24.097656 18.785156 L 24.097656 23.355469 L 2.214844 23.355469 L 2.214844 3.1875 Z M 26.097656 3.1875 L 35.859375 3.1875 L 41.035156 16.320312 L 46.214844 3.1875 L 55.859375 3.1875 L 55.859375 23.355469 L 48.566406 23.355469 L 48.566406 10.457031 L 43.742188 23.355469 L 38.097656 23.355469 L 33.273438 10.457031 L 33.273438 23.355469 L 26.097656 23.355469 Z M 65.859375 10.808594 L 72.683594 10.808594 C 73.742188 10.808594 73.976562 10.691406 74.210938 10.691406 C 74.800781 10.457031 75.152344 9.988281 75.152344 9.285156 C 75.152344 8.699219 74.917969 8.230469 74.210938 7.996094 C 73.976562 7.878906 73.386719 7.878906 72.683594 7.878906 L 65.742188 7.878906 C 65.859375 7.761719 65.859375 10.808594 65.859375 10.808594 Z M 65.859375 18.785156 L 73.269531 18.785156 C 73.976562 18.785156 74.5625 18.785156 74.800781 18.667969 C 75.742188 18.316406 75.976562 17.613281 75.976562 16.90625 C 75.976562 16.085938 75.621094 15.617188 75.035156 15.5 C 74.5625 15.382812 74.09375 15.382812 73.152344 15.382812 L 65.859375 15.382812 C 65.859375 15.265625 65.859375 18.785156 65.859375 18.785156 Z M 58.566406 3.1875 L 75.742188 3.1875 C 77.152344 3.1875 79.152344 3.1875 80.5625 4.242188 C 82.09375 5.296875 82.328125 7.058594 82.328125 7.878906 C 82.328125 10.339844 80.917969 11.75 78.328125 12.453125 C 79.503906 12.570312 81.035156 12.804688 82.210938 13.976562 C 83.035156 14.914062 83.386719 15.96875 83.386719 17.375 C 83.386719 20.191406 81.738281 21.832031 79.738281 22.652344 C 77.976562 23.238281 75.976562 23.355469 74.445312 23.355469 L 58.566406 23.355469 Z M 92.796875 11.394531 L 98.328125 11.394531 C 99.503906 11.394531 101.269531 11.394531 101.269531 9.519531 C 101.269531 9.050781 101.148438 8.582031 100.796875 8.230469 C 100.210938 7.761719 99.503906 7.644531 98.914062 7.644531 L 92.796875 7.644531 C 92.796875 7.761719 92.796875 11.394531 92.796875 11.394531 Z M 85.503906 3.1875 L 100.5625 3.1875 C 102.328125 3.1875 104.5625 3.1875 106.324219 4.476562 C 107.855469 5.648438 108.679688 7.527344 108.679688 9.636719 C 108.679688 11.042969 108.207031 12.453125 107.386719 13.507812 C 106.207031 14.914062 104.796875 15.148438 103.972656 15.382812 L 109.148438 23.472656 L 101.03125 23.472656 L 96.796875 16.085938 L 92.914062 16.085938 L 92.914062 23.472656 L 85.503906 23.472656 Z M 116.441406 3.1875 L 119.855469 9.285156 C 120.324219 10.339844 120.441406 10.457031 120.914062 11.628906 C 121.382812 10.574219 121.5 10.222656 122.207031 8.933594 L 125.382812 3.304688 L 133.851562 3.304688 L 124.558594 17.492188 L 124.558594 23.472656 L 117.265625 23.472656 L 117.265625 17.492188 L 107.855469 3.304688 Z M 146.910156 11.394531 L 152.441406 11.394531 C 153.617188 11.394531 155.382812 11.394531 155.382812 9.519531 C 155.382812 9.050781 155.265625 8.582031 154.910156 8.230469 C 154.324219 7.761719 153.617188 7.644531 153.027344 7.644531 L 146.910156 7.644531 C 146.910156 7.761719 146.910156 11.394531 146.910156 11.394531 Z M 139.617188 3.1875 L 154.675781 3.1875 C 156.441406 3.1875 158.675781 3.1875 160.441406 4.476562 C 161.96875 5.648438 162.792969 7.527344 162.792969 9.636719 C 162.792969 11.042969 162.320312 12.453125 161.5 13.507812 C 160.324219 14.914062 158.910156 15.148438 158.085938 15.382812 L 163.261719 23.472656 L 155.144531 23.472656 L 150.910156 16.085938 L 147.027344 16.085938 L 147.027344 23.472656 L 139.617188 23.472656 Z M 139.617188 3.1875 " fill-opacity="1" fill-rule="evenodd"/><path fill="#b8bcd3" d="M 164.792969 23.359375 L 172.085938 23.359375 L 172.085938 3.1875 L 164.792969 3.1875 Z M 182.203125 18.785156 L 185.378906 18.785156 C 187.847656 18.785156 189.261719 18.316406 190.085938 17.613281 C 191.027344 16.789062 191.730469 15.03125 191.730469 13.390625 C 191.730469 11.515625 190.90625 9.988281 189.847656 9.167969 C 188.554688 8.113281 186.789062 7.996094 185.496094 7.996094 L 182.085938 7.996094 Z M 175.144531 3.1875 L 186.789062 3.1875 C 188.910156 3.1875 194.789062 3.070312 197.730469 7.996094 C 198.203125 8.699219 199.144531 10.457031 199.144531 13.507812 C 199.144531 15.03125 198.90625 16.671875 198.203125 18.082031 C 197.730469 19.253906 196.671875 20.894531 194.320312 22.066406 C 192.085938 23.242188 190.085938 23.359375 188.085938 23.359375 L 175.144531 23.359375 Z M 207.964844 18.785156 L 211.140625 18.785156 C 213.613281 18.785156 215.023438 18.316406 215.847656 17.613281 C 216.789062 16.789062 217.496094 15.03125 217.496094 13.390625 C 217.496094 11.515625 216.671875 9.988281 215.613281 9.167969 C 214.316406 8.113281 212.554688 7.996094 211.257812 7.996094 L 207.847656 7.996094 L 207.847656 18.785156 Z M 200.789062 3.1875 L 212.433594 3.1875 C 214.554688 3.1875 220.550781 3.070312 223.375 7.996094 C 223.847656 8.699219 224.789062 10.457031 224.789062 13.507812 C 224.789062 15.03125 224.550781 16.671875 223.847656 18.082031 C 223.375 19.253906 222.316406 20.894531 219.964844 22.066406 C 217.730469 23.242188 215.730469 23.359375 213.730469 23.359375 L 200.789062 23.359375 Z M 200.789062 3.1875 " fill-opacity="1" fill-rule="evenodd"/><path fill="#b8bcd3" d="M 233.847656 3.1875 L 233.847656 18.433594 L 244.316406 18.433594 L 244.316406 23.355469 L 226.550781 23.355469 L 226.550781 3.1875 Z M 267.726562 3.1875 L 267.726562 7.761719 L 253.492188 7.761719 L 253.492188 11.042969 L 266.667969 11.042969 L 266.667969 15.617188 L 253.492188 15.617188 L 253.492188 18.785156 L 268.078125 18.785156 L 268.078125 23.355469 L 246.199219 23.355469 L 246.199219 3.1875 Z M 267.726562 3.1875 " fill-opacity="1" fill-rule="evenodd"/><path fill="#b8bcd3" d="M 140.558594 11.414062 L 132.558594 11.414062 L 129.617188 15.871094 L 140.558594 15.871094 Z M 140.558594 11.414062 " fill-opacity="1" fill-rule="evenodd"/><g clip-path="url(#147c709bd8)"><path fill="#b8bcd3" d="M 11.628906 31.703125 C 11.511719 31.46875 11.390625 31.230469 11.273438 30.878906 C 11.15625 30.644531 11.15625 30.527344 11.15625 30.292969 C 11.039062 30.527344 11.039062 30.644531 10.921875 30.878906 C 10.804688 31.113281 10.6875 31.46875 10.570312 31.703125 L 7.15625 38.152344 L 14.804688 38.152344 Z M 9.980469 28.417969 L 12.332031 28.417969 L 20.214844 43.664062 L 17.746094 43.664062 L 15.863281 39.910156 L 6.453125 39.910156 L 4.570312 43.664062 L 1.980469 43.664062 Z M 9.980469 28.417969 " fill-opacity="1" fill-rule="evenodd"/></g><path fill="#b8bcd3" d="M 30.921875 37.078125 C 30.683594 36.375 29.863281 34.261719 26.804688 34.261719 C 23.507812 34.261719 22.683594 36.492188 22.449219 37.078125 Z M 33.039062 40.597656 C 32.683594 41.300781 32.332031 42.003906 31.273438 42.707031 C 29.625 43.761719 27.742188 43.878906 26.804688 43.878906 C 23.390625 43.878906 20.332031 42.003906 20.332031 38.25 C 20.332031 34.96875 22.921875 32.738281 26.804688 32.738281 C 30.800781 32.738281 33.273438 35.203125 33.390625 38.601562 L 22.449219 38.601562 C 22.566406 39.1875 22.683594 40.007812 23.273438 40.714844 C 24.097656 41.652344 25.507812 42.355469 27.15625 42.355469 C 28.097656 42.355469 29.15625 42.121094 29.863281 41.535156 C 30.566406 41.066406 30.921875 40.597656 31.15625 40.007812 Z M 34.683594 33.089844 L 36.800781 33.089844 L 36.800781 34.261719 C 38.332031 32.855469 40.449219 32.738281 40.917969 32.738281 C 41.507812 32.738281 41.742188 32.855469 42.214844 32.855469 L 42.214844 34.851562 C 41.625 34.730469 41.273438 34.613281 40.566406 34.613281 C 39.859375 34.613281 39.273438 34.730469 38.683594 34.851562 C 36.917969 35.554688 36.917969 36.960938 36.917969 37.78125 L 36.917969 43.527344 L 34.800781 43.527344 Z M 44.214844 38.484375 C 44.214844 40.714844 46.214844 42.238281 49.152344 42.238281 C 51.625 42.238281 53.859375 40.832031 53.859375 38.367188 C 53.859375 35.90625 51.742188 34.496094 48.917969 34.496094 C 45.859375 34.613281 44.214844 36.375 44.214844 38.484375 Z M 49.035156 32.855469 C 52.683594 32.855469 55.976562 34.613281 55.976562 38.367188 C 55.976562 41.886719 52.800781 43.878906 49.035156 43.878906 C 44.566406 43.878906 42.097656 41.535156 42.097656 38.484375 C 42.097656 35.085938 45.035156 32.855469 49.035156 32.855469 Z M 59.507812 34.378906 C 59.976562 34.027344 60.328125 33.675781 61.269531 33.324219 C 62.210938 32.972656 63.152344 32.855469 64.210938 32.855469 C 66.09375 32.855469 67.976562 33.441406 69.035156 34.730469 C 69.859375 35.789062 69.859375 36.84375 69.859375 38.015625 L 69.859375 43.644531 L 67.859375 43.644531 L 67.859375 38.132812 C 67.859375 37.195312 67.859375 36.257812 66.800781 35.4375 C 65.859375 34.613281 64.566406 34.613281 63.859375 34.613281 C 63.152344 34.613281 62.445312 34.730469 61.507812 35.085938 C 59.507812 36.023438 59.507812 37.546875 59.507812 38.71875 L 59.507812 43.761719 L 57.390625 43.761719 L 57.390625 33.324219 L 59.507812 33.324219 Z M 77.621094 38.71875 C 76.445312 38.71875 75.269531 38.71875 74.5625 38.953125 C 73.859375 39.1875 73.503906 39.773438 73.503906 40.359375 C 73.503906 41.300781 74.328125 42.472656 76.5625 42.472656 C 76.917969 42.472656 78.796875 42.472656 80.09375 41.535156 C 81.503906 40.597656 81.621094 39.421875 81.621094 38.601562 C 81.503906 38.71875 77.621094 38.71875 77.621094 38.71875 Z M 72.09375 35.4375 C 72.5625 34.261719 73.152344 32.738281 77.859375 32.738281 C 78.796875 32.738281 80.09375 32.855469 81.035156 33.089844 C 83.386719 33.675781 83.386719 35.203125 83.386719 36.375 L 83.386719 40.242188 C 83.386719 41.652344 83.386719 42.238281 84.5625 42.238281 C 84.796875 42.238281 85.035156 42.238281 85.386719 42.121094 L 85.386719 43.527344 C 84.679688 43.644531 84.09375 43.644531 83.503906 43.644531 C 81.621094 43.644531 81.503906 42.589844 81.503906 41.886719 C 81.269531 42.238281 80.917969 42.707031 80.09375 43.175781 C 79.152344 43.644531 77.859375 43.996094 76.445312 43.996094 C 72.09375 43.996094 71.386719 41.535156 71.386719 40.359375 C 71.386719 39.070312 72.09375 37.78125 73.859375 37.3125 C 74.917969 37.078125 77.035156 36.960938 78.445312 36.960938 L 81.503906 36.960938 C 81.503906 35.789062 81.503906 34.96875 80.445312 34.496094 C 79.976562 34.261719 79.152344 34.144531 78.09375 34.144531 C 77.152344 34.144531 76.328125 34.261719 75.503906 34.496094 C 74.679688 34.851562 74.445312 35.203125 74.328125 35.4375 Z M 86.328125 33.089844 L 88.328125 33.089844 L 88.328125 38.367188 C 88.328125 39.539062 88.328125 40.359375 89.035156 41.066406 C 89.738281 41.886719 91.035156 42.121094 92.328125 42.121094 C 94.796875 42.121094 95.972656 40.949219 96.328125 40.359375 C 96.679688 39.773438 96.679688 39.1875 96.679688 38.601562 L 96.679688 33.089844 L 98.796875 33.089844 L 98.796875 43.527344 L 96.796875 43.527344 L 96.796875 42.238281 C 95.972656 42.941406 94.796875 43.878906 92.09375 43.878906 C 91.035156 43.878906 89.855469 43.761719 88.796875 43.292969 C 86.328125 42.238281 86.328125 40.242188 86.328125 38.601562 Z M 102.5625 29.574219 L 104.5625 29.574219 L 104.5625 33.207031 L 107.503906 33.207031 L 107.503906 34.613281 L 104.445312 34.613281 L 104.445312 40.242188 C 104.445312 41.300781 104.445312 42.121094 105.855469 42.121094 C 106.324219 42.121094 106.796875 42.003906 107.386719 42.003906 L 107.386719 43.761719 C 106.796875 43.644531 106.207031 43.761719 105.503906 43.761719 C 102.5625 43.761719 102.5625 42.355469 102.5625 40.714844 L 102.5625 34.496094 L 100.679688 34.496094 L 100.679688 33.089844 L 102.5625 33.089844 Z M 109.972656 43.644531 L 112.089844 43.644531 L 112.089844 33.207031 L 109.972656 33.207031 Z M 109.855469 31.332031 L 111.855469 31.332031 L 111.855469 29.222656 L 109.855469 29.222656 Z M 127.5 40.832031 C 127.148438 41.535156 126.914062 41.886719 126.207031 42.472656 C 124.679688 43.644531 122.558594 43.996094 121.03125 43.996094 C 119.855469 43.996094 118.679688 43.878906 117.621094 43.527344 C 115.265625 42.707031 113.972656 40.832031 113.972656 38.367188 C 113.972656 34.851562 117.148438 32.855469 121.03125 32.855469 C 122.207031 32.855469 123.972656 33.089844 125.382812 33.910156 C 126.558594 34.613281 127.03125 35.4375 127.382812 36.023438 L 125.382812 36.609375 C 125.148438 36.257812 124.914062 35.789062 124.207031 35.320312 C 123.621094 34.96875 122.558594 34.496094 121.148438 34.496094 C 118.679688 34.496094 116.207031 35.789062 116.207031 38.484375 C 116.207031 40.949219 118.324219 42.355469 121.148438 42.355469 C 122.089844 42.355469 123.382812 42.121094 124.324219 41.535156 C 125.03125 41.066406 125.265625 40.714844 125.617188 40.242188 Z M 134.914062 38.71875 C 133.734375 38.71875 132.558594 38.71875 131.855469 38.953125 C 131.148438 39.1875 130.792969 39.773438 130.792969 40.359375 C 130.792969 41.300781 131.617188 42.472656 133.851562 42.472656 C 134.207031 42.472656 136.089844 42.472656 137.382812 41.535156 C 138.792969 40.597656 138.910156 39.421875 138.910156 38.601562 C 138.792969 38.71875 134.914062 38.71875 134.914062 38.71875 Z M 129.382812 35.4375 C 129.855469 34.261719 130.441406 32.738281 135.148438 32.738281 C 136.089844 32.738281 137.382812 32.855469 138.324219 33.089844 C 140.675781 33.675781 140.675781 35.203125 140.675781 36.375 L 140.675781 40.242188 C 140.675781 41.652344 140.675781 42.238281 141.851562 42.238281 C 142.089844 42.238281 142.324219 42.238281 142.675781 42.121094 L 142.675781 43.527344 C 141.96875 43.644531 141.382812 43.644531 140.792969 43.644531 C 138.910156 43.644531 138.792969 42.589844 138.792969 41.886719 C 138.558594 42.238281 138.207031 42.707031 137.382812 43.175781 C 136.441406 43.644531 135.148438 43.996094 133.734375 43.996094 C 129.382812 43.996094 128.675781 41.535156 128.675781 40.359375 C 128.675781 39.070312 129.382812 37.78125 131.148438 37.3125 C 132.207031 37.078125 134.324219 36.960938 135.734375 36.960938 L 138.792969 36.960938 C 138.792969 35.789062 138.792969 34.96875 137.734375 34.496094 C 137.265625 34.261719 136.441406 34.144531 135.382812 34.144531 C 134.441406 34.144531 133.617188 34.261719 132.796875 34.496094 C 131.972656 34.851562 131.734375 35.203125 131.617188 35.4375 Z M 144.558594 43.644531 L 146.558594 43.644531 L 146.558594 28.398438 L 144.558594 28.398438 Z M 160.441406 28.398438 L 160.441406 37.429688 C 160.441406 39.1875 160.675781 40.242188 161.96875 41.066406 C 162.558594 41.417969 163.734375 42.121094 166.203125 42.121094 C 167.734375 42.121094 169.027344 41.886719 169.851562 41.417969 C 171.851562 40.476562 171.851562 38.953125 171.851562 37.664062 L 171.851562 28.398438 L 174.085938 28.398438 L 174.085938 37.546875 C 174.085938 39.070312 174.085938 41.183594 171.734375 42.707031 C 170.671875 43.410156 168.910156 43.996094 166.203125 43.996094 C 164.203125 43.996094 162.203125 43.644531 160.558594 42.589844 C 158.324219 41.066406 158.324219 39.1875 158.324219 37.429688 L 158.324219 28.515625 Z M 177.96875 34.378906 C 178.4375 34.027344 178.789062 33.675781 179.734375 33.324219 C 180.671875 32.972656 181.613281 32.855469 182.671875 32.855469 C 184.554688 32.855469 186.4375 33.441406 187.496094 34.730469 C 188.320312 35.789062 188.320312 36.84375 188.320312 38.015625 L 188.320312 43.644531 L 186.320312 43.644531 L 186.320312 38.132812 C 186.320312 37.195312 186.320312 36.257812 185.261719 35.4375 C 184.320312 34.613281 183.027344 34.613281 182.320312 34.613281 C 181.613281 34.613281 180.910156 34.730469 179.96875 35.085938 C 177.96875 36.023438 177.96875 37.546875 177.96875 38.71875 L 177.96875 43.761719 L 175.851562 43.761719 L 175.851562 33.324219 L 177.96875 33.324219 Z M 190.4375 43.644531 L 192.554688 43.644531 L 192.554688 33.207031 L 190.4375 33.207031 Z M 190.4375 31.332031 L 192.4375 31.332031 L 192.4375 29.222656 L 190.4375 29.222656 Z M 196.082031 33.089844 L 200.320312 41.535156 L 204.554688 33.089844 L 206.90625 33.089844 L 201.496094 43.527344 L 199.140625 43.527344 L 193.730469 33.089844 Z M 217.375 37.078125 C 217.140625 36.375 216.316406 34.261719 213.257812 34.261719 C 209.964844 34.261719 209.140625 36.492188 208.90625 37.078125 Z M 219.496094 40.597656 C 219.140625 41.300781 218.789062 42.003906 217.730469 42.707031 C 216.082031 43.761719 214.199219 43.878906 213.257812 43.878906 C 209.847656 43.878906 206.789062 42.003906 206.789062 38.25 C 206.789062 34.96875 209.378906 32.738281 213.257812 32.738281 C 217.257812 32.738281 219.730469 35.203125 219.847656 38.601562 L 208.90625 38.601562 C 209.023438 39.1875 209.140625 40.007812 209.730469 40.714844 C 210.554688 41.652344 211.964844 42.355469 213.613281 42.355469 C 214.554688 42.355469 215.613281 42.121094 216.316406 41.535156 C 217.023438 41.066406 217.375 40.597656 217.613281 40.007812 Z M 221.023438 33.089844 L 223.140625 33.089844 L 223.140625 34.261719 C 224.671875 32.855469 226.789062 32.738281 227.257812 32.738281 C 227.847656 32.738281 228.082031 32.855469 228.550781 32.855469 L 228.550781 34.851562 C 227.964844 34.730469 227.609375 34.613281 226.90625 34.613281 C 226.199219 34.613281 225.609375 34.730469 225.023438 34.851562 C 223.257812 35.554688 223.257812 36.960938 223.257812 37.78125 L 223.257812 43.527344 L 221.140625 43.527344 L 221.140625 33.089844 M 229.964844 40.714844 C 230.671875 41.183594 232.082031 42.355469 235.257812 42.355469 C 235.964844 42.355469 237.140625 42.238281 237.84375 42.003906 C 238.550781 41.769531 239.023438 41.300781 239.023438 40.597656 C 239.023438 39.65625 237.726562 39.421875 237.375 39.304688 C 236.785156 39.1875 233.726562 38.953125 233.140625 38.953125 C 231.964844 38.835938 229.140625 38.601562 229.140625 36.023438 C 229.140625 32.972656 233.140625 32.738281 235.023438 32.738281 C 238.785156 32.738281 240.667969 34.144531 241.257812 34.730469 L 239.492188 35.671875 C 238.433594 34.96875 236.90625 34.496094 234.90625 34.496094 C 234.082031 34.496094 233.257812 34.496094 232.433594 34.851562 C 231.726562 35.085938 231.375 35.554688 231.375 36.023438 C 231.375 36.960938 232.785156 37.195312 234.082031 37.3125 C 235.140625 37.429688 236.199219 37.429688 237.257812 37.546875 C 237.84375 37.546875 238.433594 37.664062 238.90625 37.78125 C 239.375 37.898438 241.257812 38.367188 241.257812 40.597656 C 241.257812 43.292969 238.316406 44.113281 235.375 44.113281 C 232.785156 44.113281 229.84375 43.527344 228.082031 41.886719 Z M 243.140625 43.644531 L 245.257812 43.644531 L 245.257812 33.207031 L 243.140625 33.207031 Z M 243.140625 31.332031 L 245.140625 31.332031 L 245.140625 29.222656 L 243.140625 29.222656 Z M 243.140625 31.332031 " fill-opacity="1" fill-rule="evenodd"/><g clip-path="url(#1c96e12620)"><path fill="#b8bcd3" d="M 248.894531 29.582031 L 250.894531 29.582031 L 250.894531 33.21875 L 253.835938 33.21875 L 253.835938 34.625 L 250.894531 34.625 L 250.894531 40.253906 C 250.894531 41.308594 250.894531 42.128906 252.304688 42.128906 C 252.777344 42.128906 253.25 42.011719 253.835938 42.011719 L 253.835938 43.769531 C 253.128906 43.886719 252.542969 43.886719 251.835938 43.886719 C 248.894531 43.886719 248.894531 42.480469 248.894531 40.839844 L 248.894531 34.507812 L 247.011719 34.507812 L 247.011719 33.101562 L 248.894531 33.101562 Z M 254.777344 33.101562 L 257.128906 33.101562 L 261.246094 41.542969 L 265.601562 33.101562 L 267.953125 33.101562 L 261.953125 44.59375 C 261.246094 45.882812 260.542969 47.289062 257.953125 47.289062 C 257.128906 47.289062 256.308594 47.171875 255.484375 47.054688 L 255.484375 45.179688 C 256.1875 45.296875 256.894531 45.53125 257.71875 45.53125 C 259.246094 45.53125 259.71875 44.710938 260.304688 43.769531 Z M 254.777344 33.101562 " fill-opacity="1" fill-rule="evenodd"/></g></svg>