<svg xmlns="http://www.w3.org/2000/svg" xmlns:xlink="http://www.w3.org/1999/xlink" width="384" zoomAndPan="magnify" viewBox="0 0 288 72" height="96" preserveAspectRatio="xMidYMid meet" version="1.0"><path fill="#b8bcd3" d="M 107.234375 15.488281 L 108.75 15.488281 L 108.75 56.511719 L 107.234375 56.511719 Z M 107.234375 15.488281 " fill-opacity="1" fill-rule="nonzero"/><path fill="#b8bcd3" d="M 91.015625 47.75 L 91.015625 18.59375 L 83.582031 18.59375 L 83.582031 45.917969 C 82.792969 46.015625 80.5625 46.066406 79.074219 46.066406 C 77.4375 46.066406 75.011719 46.015625 74.464844 45.917969 L 74.464844 18.59375 L 64.800781 18.59375 C 64.800781 18.59375 67.132812 20.230469 67.132812 22.707031 L 67.132812 52.160156 L 67.578125 52.308594 C 67.726562 52.359375 71.640625 53.398438 79.074219 53.398438 C 85.8125 53.398438 91.957031 52.0625 92.007812 52.011719 L 93.296875 51.761719 C 93.296875 51.761719 91.015625 51.21875 91.015625 47.75 Z M 87.992188 49.929688 C 87.992188 49.929688 85.714844 50.574219 79.023438 50.574219 C 73.769531 50.574219 69.957031 49.929688 69.957031 49.929688 L 69.957031 21.417969 L 71.542969 21.417969 L 71.542969 48.492188 C 71.542969 48.492188 75.058594 48.988281 79.023438 48.988281 C 84.722656 48.988281 86.40625 48.492188 86.40625 48.492188 L 86.40625 21.417969 L 87.992188 21.417969 Z M 87.992188 49.929688 " fill-opacity="1" fill-rule="nonzero"/><path fill="#b8bcd3" d="M 21.648438 17.425781 C 13.867188 17.425781 7.722656 18.863281 7.671875 18.863281 L 6.433594 19.160156 L 7.472656 19.902344 C 8.613281 20.746094 9.0625 21.589844 9.109375 22.925781 C 9.109375 22.925781 9.0625 48.144531 9.109375 49.484375 C 9.109375 50.722656 8.613281 51.464844 7.472656 52.359375 L 6.039062 53.398438 L 19.566406 53.398438 L 18.128906 52.359375 C 18.128906 52.359375 16.542969 51.019531 16.59375 49.484375 L 16.59375 40.515625 L 30.863281 40.515625 C 31.359375 40.566406 32.105469 40.863281 32.105469 40.863281 L 33.046875 41.460938 L 33.046875 32.242188 L 32.152344 32.789062 C 32.152344 32.789062 31.660156 33.085938 30.960938 33.085938 L 16.59375 33.085938 L 16.59375 24.960938 C 16.59375 24.960938 19.515625 24.5625 21.101562 24.5625 C 22.683594 24.5625 26.898438 25.007812 28.878906 25.753906 C 31.160156 26.648438 33.042969 28.332031 33.042969 28.332031 L 33.042969 18.667969 L 32.550781 18.570312 C 32.5 18.570312 27.84375 17.429688 21.648438 17.429688 Z M 30.667969 23.472656 C 30.667969 23.472656 29.378906 22.828125 27.25 22.480469 C 25.066406 22.085938 24.175781 21.988281 21.15625 21.933594 C 16.992188 21.835938 13.722656 22.433594 13.722656 22.433594 L 13.722656 35.910156 L 30.226562 35.910156 L 30.226562 37.640625 L 13.722656 37.640625 L 13.722656 50.820312 L 11.941406 50.820312 L 11.988281 20.945312 C 11.988281 20.945312 15.507812 20.152344 21.105469 20.152344 C 24.128906 20.152344 27.199219 20.351562 30.667969 20.945312 Z M 30.667969 23.472656 " fill-opacity="1" fill-rule="nonzero"/><path fill="#c6cbe4" d="M 11.984375 20.945312 L 11.933594 50.820312 L 13.71875 50.820312 L 13.71875 37.640625 L 30.21875 37.640625 L 30.21875 35.910156 L 13.71875 35.910156 L 13.71875 22.433594 C 13.71875 22.433594 16.988281 21.835938 21.148438 21.933594 C 24.171875 21.984375 25.066406 22.085938 27.246094 22.480469 C 29.375 22.828125 30.664062 23.472656 30.664062 23.472656 L 30.664062 20.945312 C 27.195312 20.347656 24.121094 20.152344 21.097656 20.152344 C 15.5 20.152344 11.980469 20.945312 11.980469 20.945312 Z M 11.984375 20.945312 " fill-opacity="1" fill-rule="nonzero"/><path fill="#c6cbe4" d="M 86.40625 48.492188 C 86.40625 48.492188 84.722656 48.988281 79.023438 48.988281 C 75.058594 48.988281 71.542969 48.492188 71.542969 48.492188 L 71.542969 21.417969 L 69.957031 21.417969 L 69.957031 49.929688 C 69.957031 49.929688 73.769531 50.574219 79.023438 50.574219 C 85.714844 50.574219 87.992188 49.929688 87.992188 49.929688 L 87.992188 21.417969 L 86.40625 21.417969 Z M 86.40625 48.492188 " fill-opacity="1" fill-rule="nonzero"/><path fill="#b8bcd3" d="M 62.054688 48 L 62.054688 39.972656 C 62.054688 38.285156 60.917969 37.789062 60.917969 37.789062 L 45.507812 28.273438 L 45.507812 24.90625 C 46.449219 24.757812 47.339844 24.609375 51.253906 24.757812 C 53.785156 24.855469 55.566406 25.15625 57.203125 25.699219 C 59.828125 26.542969 60.820312 27.335938 60.820312 27.335938 L 62.058594 28.375 L 62.007812 18.613281 L 61.414062 18.515625 C 61.214844 18.46875 55.714844 17.425781 49.867188 17.425781 C 42.484375 17.425781 37.132812 18.765625 36.886719 18.8125 L 35.398438 19.160156 L 36.640625 20.101562 C 37.628906 20.847656 38.074219 21.640625 38.125 22.828125 L 38.074219 29.714844 C 38.074219 31.898438 39.710938 32.789062 39.710938 32.789062 L 54.625 42.105469 L 54.625 45.917969 C 53.734375 46.066406 52.496094 46.214844 48.632812 46.066406 C 46.054688 45.96875 44.617188 45.621094 42.933594 45.125 C 40.207031 44.382812 38.074219 42.449219 38.074219 42.449219 L 38.074219 52.160156 L 38.671875 52.308594 C 38.917969 52.359375 44.121094 53.398438 50.019531 53.398438 C 57.402344 53.398438 63 52.0625 63.25 52.011719 L 64.785156 51.664062 L 63.496094 50.722656 C 62.507812 49.980469 62.109375 49.1875 62.0625 48 Z M 59.179688 49.878906 C 59.179688 49.878906 55.8125 50.621094 50.558594 50.621094 C 47.636719 50.621094 44.265625 50.421875 40.996094 49.878906 L 40.996094 47.5 C 40.996094 47.5 42.285156 48.097656 44.265625 48.445312 C 46.347656 48.789062 47.636719 48.890625 50.460938 48.9375 C 54.425781 49.035156 57.496094 48.492188 57.496094 48.492188 L 57.496094 42.003906 C 57.496094 40.566406 56.0625 39.773438 56.0625 39.773438 L 42.382812 31.199219 C 42.382812 31.199219 40.996094 30.355469 40.996094 28.773438 L 40.996094 20.941406 C 40.996094 20.941406 44.070312 20.199219 49.320312 20.199219 C 52.195312 20.199219 55.8125 20.398438 59.132812 20.941406 L 59.132812 23.320312 C 59.132812 23.320312 57.894531 22.726562 55.910156 22.378906 C 53.832031 21.980469 52.242188 21.933594 49.367188 21.882812 C 45.453125 21.78125 42.628906 22.328125 42.628906 22.328125 L 42.628906 28.222656 C 42.628906 29.5625 43.96875 30.304688 43.96875 30.304688 L 57.894531 38.925781 C 57.894531 38.925781 59.179688 39.621094 59.179688 41.15625 Z M 59.179688 49.878906 " fill-opacity="1" fill-rule="nonzero"/><path fill="#c6cbe4" d="M 57.894531 38.929688 L 43.96875 30.308594 C 43.96875 30.308594 42.628906 29.566406 42.628906 28.226562 L 42.628906 22.332031 C 42.628906 22.332031 45.453125 21.785156 49.367188 21.886719 C 52.242188 21.933594 53.828125 21.984375 55.910156 22.382812 C 57.894531 22.730469 59.132812 23.324219 59.132812 23.324219 L 59.132812 20.945312 C 55.8125 20.402344 52.195312 20.203125 49.320312 20.203125 C 44.070312 20.203125 40.996094 20.945312 40.996094 20.945312 L 40.996094 28.777344 C 40.996094 30.363281 42.382812 31.203125 42.382812 31.203125 L 56.0625 39.777344 C 56.0625 39.777344 57.496094 40.570312 57.496094 42.007812 L 57.496094 48.496094 C 57.496094 48.496094 54.425781 49.042969 50.460938 48.941406 C 47.636719 48.894531 46.347656 48.792969 44.265625 48.449219 C 42.285156 48.101562 40.996094 47.507812 40.996094 47.507812 L 40.996094 49.882812 C 44.265625 50.429688 47.636719 50.628906 50.558594 50.628906 C 55.8125 50.628906 59.179688 49.882812 59.179688 49.882812 L 59.179688 41.164062 C 59.179688 39.628906 57.894531 38.933594 57.894531 38.933594 Z M 57.894531 38.929688 " fill-opacity="1" fill-rule="nonzero"/><path fill="#b8bcd3" d="M 128.84375 38.671875 L 124.988281 38.671875 L 124.988281 18.601562 L 133.953125 18.601562 L 133.953125 21.882812 L 128.84375 21.882812 L 128.84375 27.347656 L 133.621094 27.347656 L 133.621094 30.628906 L 128.84375 30.628906 Z M 128.84375 38.671875 " fill-opacity="1" fill-rule="nonzero"/><path fill="#b8bcd3" d="M 136.628906 38.671875 L 136.628906 18.601562 L 140.484375 18.601562 L 140.484375 35.324219 L 145.824219 35.324219 L 145.824219 38.675781 L 136.625 38.675781 Z M 136.628906 38.671875 " fill-opacity="1" fill-rule="nonzero"/><path fill="#b8bcd3" d="M 161.695312 28.613281 C 161.695312 30.207031 161.550781 31.640625 161.253906 32.917969 C 160.960938 34.195312 160.523438 35.28125 159.9375 36.179688 C 159.351562 37.074219 158.613281 37.761719 157.722656 38.238281 C 156.828125 38.714844 155.785156 38.953125 154.585938 38.953125 C 153.386719 38.953125 152.324219 38.710938 151.425781 38.230469 C 150.53125 37.75 149.789062 37.058594 149.203125 36.148438 C 148.617188 35.242188 148.175781 34.152344 147.886719 32.882812 C 147.59375 31.609375 147.445312 30.179688 147.445312 28.585938 C 147.445312 26.332031 147.714844 24.441406 148.257812 22.914062 C 148.796875 21.386719 149.597656 20.234375 150.660156 19.453125 C 151.71875 18.675781 153.027344 18.289062 154.585938 18.289062 C 156.140625 18.289062 157.539062 18.703125 158.585938 19.535156 C 159.632812 20.371094 160.414062 21.554688 160.925781 23.101562 C 161.441406 24.640625 161.695312 26.476562 161.695312 28.613281 Z M 151.441406 28.613281 C 151.441406 30.148438 151.558594 31.433594 151.796875 32.464844 C 152.035156 33.492188 152.386719 34.269531 152.855469 34.785156 C 153.320312 35.300781 153.894531 35.558594 154.582031 35.558594 C 155.269531 35.558594 155.855469 35.308594 156.320312 34.804688 C 156.78125 34.300781 157.128906 33.539062 157.363281 32.511719 C 157.597656 31.488281 157.710938 30.1875 157.710938 28.613281 C 157.710938 26.261719 157.449219 24.511719 156.929688 23.363281 C 156.40625 22.214844 155.621094 21.640625 154.582031 21.640625 C 153.894531 21.640625 153.316406 21.898438 152.851562 22.421875 C 152.386719 22.945312 152.03125 23.722656 151.792969 24.757812 C 151.554688 25.789062 151.4375 27.074219 151.4375 28.613281 Z M 151.441406 28.613281 " fill-opacity="1" fill-rule="nonzero"/><path fill="#b8bcd3" d="M 169.371094 18.601562 C 170.855469 18.601562 172.085938 18.820312 173.0625 19.246094 C 174.042969 19.679688 174.773438 20.324219 175.253906 21.183594 C 175.734375 22.042969 175.976562 23.125 175.976562 24.421875 C 175.976562 25.25 175.875 25.996094 175.675781 26.667969 C 175.472656 27.339844 175.160156 27.941406 174.734375 28.46875 C 174.308594 28.996094 173.765625 29.453125 173.109375 29.847656 L 177.242188 38.675781 L 173 38.675781 L 169.71875 30.808594 L 168.566406 30.808594 L 168.566406 38.675781 L 164.710938 38.675781 L 164.710938 18.605469 L 169.375 18.605469 Z M 169.34375 21.859375 L 168.5625 21.859375 L 168.5625 27.761719 L 169.425781 27.761719 C 170.285156 27.761719 170.9375 27.503906 171.382812 26.980469 C 171.824219 26.457031 172.046875 25.671875 172.046875 24.617188 C 172.046875 23.675781 171.824219 22.980469 171.382812 22.53125 C 170.9375 22.082031 170.257812 21.859375 169.34375 21.859375 Z M 169.34375 21.859375 " fill-opacity="1" fill-rule="nonzero"/><path fill="#b8bcd3" d="M 179.105469 18.601562 L 182.960938 18.601562 L 182.960938 38.671875 L 179.105469 38.671875 Z M 179.105469 18.601562 " fill-opacity="1" fill-rule="nonzero"/><path fill="#b8bcd3" d="M 199.269531 28.269531 C 199.269531 30.511719 198.960938 32.40625 198.34375 33.953125 C 197.722656 35.5 196.824219 36.671875 195.636719 37.472656 C 194.453125 38.273438 193 38.675781 191.28125 38.675781 L 186.558594 38.675781 L 186.558594 18.605469 L 191.570312 18.605469 C 193.214844 18.605469 194.613281 18.976562 195.761719 19.71875 C 196.910156 20.460938 197.78125 21.546875 198.378906 22.988281 C 198.972656 24.421875 199.269531 26.183594 199.269531 28.273438 Z M 195.304688 28.445312 C 195.304688 26.945312 195.160156 25.714844 194.878906 24.753906 C 194.59375 23.792969 194.167969 23.082031 193.605469 22.625 C 193.046875 22.167969 192.347656 21.941406 191.511719 21.941406 L 190.414062 21.941406 L 190.414062 35.296875 L 191.25 35.296875 C 192.640625 35.296875 193.664062 34.734375 194.320312 33.609375 C 194.972656 32.484375 195.300781 30.761719 195.300781 28.445312 Z M 195.304688 28.445312 " fill-opacity="1" fill-rule="nonzero"/><path fill="#b8bcd3" d="M 211.160156 38.671875 L 210.117188 33.84375 L 205.65625 33.84375 L 204.613281 38.671875 L 200.480469 38.671875 L 205.339844 18.601562 L 210.324219 18.601562 L 215.265625 38.671875 Z M 209.527344 30.492188 L 208.441406 25.179688 C 208.367188 24.738281 208.296875 24.308594 208.226562 23.886719 C 208.160156 23.464844 208.09375 23.0625 208.035156 22.671875 C 207.976562 22.28125 207.921875 21.917969 207.878906 21.578125 C 207.851562 21.898438 207.808594 22.25 207.753906 22.636719 C 207.699219 23.019531 207.632812 23.421875 207.5625 23.84375 C 207.488281 24.265625 207.40625 24.691406 207.316406 25.121094 L 206.246094 30.488281 L 209.527344 30.488281 Z M 209.527344 30.492188 " fill-opacity="1" fill-rule="nonzero"/><path fill="#b8bcd3" d="M 231.777344 32.800781 C 231.777344 34.007812 231.535156 35.074219 231.050781 35.996094 C 230.566406 36.921875 229.882812 37.644531 228.996094 38.167969 C 228.113281 38.691406 227.074219 38.949219 225.875 38.949219 C 225.316406 38.949219 224.777344 38.914062 224.253906 38.847656 C 223.734375 38.777344 223.21875 38.664062 222.71875 38.503906 C 222.214844 38.34375 221.710938 38.132812 221.207031 37.867188 L 221.207031 33.925781 C 221.9375 34.402344 222.699219 34.761719 223.488281 35.011719 C 224.273438 35.257812 225 35.382812 225.671875 35.382812 C 226.164062 35.382812 226.574219 35.285156 226.898438 35.09375 C 227.222656 34.902344 227.464844 34.640625 227.628906 34.3125 C 227.785156 33.980469 227.867188 33.609375 227.867188 33.199219 C 227.867188 32.757812 227.800781 32.375 227.664062 32.039062 C 227.523438 31.703125 227.261719 31.371094 226.871094 31.035156 C 226.484375 30.699219 225.914062 30.3125 225.164062 29.875 C 224.578125 29.527344 224.050781 29.171875 223.578125 28.804688 C 223.109375 28.4375 222.703125 28.035156 222.371094 27.589844 C 222.035156 27.144531 221.78125 26.628906 221.609375 26.042969 C 221.433594 25.460938 221.347656 24.769531 221.347656 23.972656 C 221.339844 22.835938 221.5625 21.84375 222.011719 20.992188 C 222.464844 20.144531 223.121094 19.480469 223.976562 19.007812 C 224.832031 18.539062 225.859375 18.304688 227.058594 18.316406 C 227.875 18.316406 228.667969 18.425781 229.453125 18.644531 C 230.234375 18.867188 230.988281 19.175781 231.710938 19.578125 L 230.65625 22.984375 C 230.003906 22.589844 229.390625 22.296875 228.816406 22.109375 C 228.238281 21.921875 227.699219 21.828125 227.195312 21.828125 C 226.753906 21.828125 226.386719 21.914062 226.089844 22.082031 C 225.792969 22.25 225.566406 22.484375 225.417969 22.777344 C 225.269531 23.070312 225.191406 23.402344 225.191406 23.777344 C 225.191406 24.253906 225.261719 24.65625 225.410156 24.988281 C 225.554688 25.320312 225.835938 25.640625 226.238281 25.957031 C 226.648438 26.273438 227.234375 26.648438 228.003906 27.085938 C 228.835938 27.574219 229.53125 28.085938 230.09375 28.632812 C 230.648438 29.175781 231.070312 29.785156 231.355469 30.457031 C 231.636719 31.128906 231.78125 31.910156 231.78125 32.796875 Z M 231.777344 32.800781 " fill-opacity="1" fill-rule="nonzero"/><path fill="#b8bcd3" d="M 240.976562 38.671875 L 237.171875 38.671875 L 237.171875 21.9375 L 233.4375 21.9375 L 233.4375 18.601562 L 244.683594 18.601562 L 244.683594 21.9375 L 240.976562 21.9375 Z M 240.976562 38.671875 " fill-opacity="1" fill-rule="nonzero"/><path fill="#b8bcd3" d="M 255.367188 38.671875 L 254.324219 33.84375 L 249.863281 33.84375 L 248.820312 38.671875 L 244.6875 38.671875 L 249.546875 18.601562 L 254.527344 18.601562 L 259.46875 38.671875 Z M 253.734375 30.492188 L 252.648438 25.179688 C 252.574219 24.738281 252.503906 24.308594 252.433594 23.886719 C 252.367188 23.464844 252.300781 23.0625 252.242188 22.671875 C 252.183594 22.28125 252.128906 21.917969 252.085938 21.578125 C 252.058594 21.898438 252.019531 22.25 251.960938 22.636719 C 251.90625 23.019531 251.84375 23.421875 251.769531 23.84375 C 251.695312 24.265625 251.613281 24.691406 251.523438 25.121094 L 250.453125 30.488281 L 253.734375 30.488281 Z M 253.734375 30.492188 " fill-opacity="1" fill-rule="nonzero"/><path fill="#b8bcd3" d="M 266.980469 38.671875 L 263.179688 38.671875 L 263.179688 21.9375 L 259.445312 21.9375 L 259.445312 18.601562 L 270.6875 18.601562 L 270.6875 21.9375 L 266.980469 21.9375 Z M 266.980469 38.671875 " fill-opacity="1" fill-rule="nonzero"/><path fill="#b8bcd3" d="M 281.933594 38.671875 L 272.914062 38.671875 L 272.914062 18.601562 L 281.933594 18.601562 L 281.933594 21.882812 L 276.769531 21.882812 L 276.769531 26.605469 L 281.578125 26.605469 L 281.578125 29.902344 L 276.769531 29.902344 L 276.769531 35.324219 L 281.933594 35.324219 Z M 281.933594 38.671875 " fill-opacity="1" fill-rule="nonzero"/><path fill="#b8bcd3" d="M 132.1875 44.390625 L 132.1875 50.234375 C 132.1875 50.863281 132.054688 51.429688 131.789062 51.925781 C 131.527344 52.425781 131.121094 52.816406 130.585938 53.109375 C 130.050781 53.398438 129.371094 53.542969 128.558594 53.542969 C 127.394531 53.542969 126.511719 53.238281 125.90625 52.632812 C 125.300781 52.027344 124.996094 51.21875 124.996094 50.207031 L 124.996094 44.386719 L 126.523438 44.386719 L 126.523438 50.058594 C 126.523438 50.816406 126.699219 51.371094 127.046875 51.726562 C 127.398438 52.078125 127.917969 52.253906 128.609375 52.253906 C 129.089844 52.253906 129.480469 52.167969 129.78125 52 C 130.085938 51.832031 130.308594 51.582031 130.453125 51.253906 C 130.59375 50.925781 130.667969 50.527344 130.667969 50.058594 L 130.667969 44.386719 L 132.1875 44.386719 Z M 132.1875 44.390625 " fill-opacity="1" fill-rule="nonzero"/><path fill="#b8bcd3" d="M 151.644531 53.421875 L 149.761719 53.421875 L 145.386719 46.25 L 145.332031 46.25 C 145.347656 46.496094 145.359375 46.757812 145.371094 47.03125 C 145.382812 47.308594 145.398438 47.589844 145.410156 47.875 C 145.421875 48.164062 145.433594 48.457031 145.441406 48.753906 L 145.441406 53.421875 L 144.054688 53.421875 L 144.054688 44.390625 L 145.929688 44.390625 L 150.296875 51.511719 L 150.335938 51.511719 C 150.328125 51.296875 150.320312 51.050781 150.308594 50.777344 C 150.296875 50.503906 150.285156 50.222656 150.273438 49.933594 C 150.261719 49.644531 150.253906 49.363281 150.242188 49.097656 L 150.242188 44.390625 L 151.640625 44.390625 L 151.640625 53.421875 Z M 151.644531 53.421875 " fill-opacity="1" fill-rule="nonzero"/><path fill="#b8bcd3" d="M 163.582031 44.390625 L 165.105469 44.390625 L 165.105469 53.421875 L 163.582031 53.421875 Z M 163.582031 44.390625 " fill-opacity="1" fill-rule="nonzero"/><path fill="#b8bcd3" d="M 183.785156 44.390625 L 180.640625 53.421875 L 179.015625 53.421875 L 175.875 44.390625 L 177.429688 44.390625 L 179.3125 50.023438 C 179.371094 50.183594 179.433594 50.375 179.496094 50.609375 C 179.5625 50.84375 179.625 51.085938 179.691406 51.332031 C 179.75 51.578125 179.800781 51.789062 179.832031 51.976562 C 179.867188 51.792969 179.910156 51.578125 179.96875 51.332031 C 180.027344 51.085938 180.089844 50.84375 180.15625 50.609375 C 180.222656 50.375 180.285156 50.175781 180.339844 50.019531 L 182.222656 44.390625 Z M 183.785156 44.390625 " fill-opacity="1" fill-rule="nonzero"/><path fill="#b8bcd3" d="M 199.671875 53.421875 L 194.542969 53.421875 L 194.542969 44.390625 L 199.671875 44.390625 L 199.671875 45.667969 L 196.070312 45.667969 L 196.070312 48.078125 L 199.445312 48.078125 L 199.445312 49.351562 L 196.070312 49.351562 L 196.070312 52.136719 L 199.671875 52.136719 Z M 199.671875 53.421875 " fill-opacity="1" fill-rule="nonzero"/><path fill="#b8bcd3" d="M 213.726562 44.390625 C 214.511719 44.390625 215.164062 44.488281 215.671875 44.679688 C 216.183594 44.871094 216.5625 45.160156 216.8125 45.546875 C 217.0625 45.933594 217.1875 46.425781 217.1875 47.019531 C 217.1875 47.460938 217.105469 47.839844 216.941406 48.15625 C 216.78125 48.472656 216.566406 48.730469 216.300781 48.9375 C 216.03125 49.144531 215.746094 49.308594 215.4375 49.433594 L 218.015625 53.421875 L 216.300781 53.421875 L 214.117188 49.820312 L 212.710938 49.820312 L 212.710938 53.421875 L 211.183594 53.421875 L 211.183594 44.390625 L 213.730469 44.390625 Z M 213.628906 45.664062 L 212.707031 45.664062 L 212.707031 48.566406 L 213.695312 48.566406 C 214.375 48.566406 214.867188 48.4375 215.175781 48.1875 C 215.480469 47.933594 215.632812 47.558594 215.632812 47.070312 C 215.632812 46.582031 215.46875 46.195312 215.140625 45.984375 C 214.8125 45.769531 214.308594 45.664062 213.625 45.664062 Z M 213.628906 45.664062 " fill-opacity="1" fill-rule="nonzero"/><path fill="#b8bcd3" d="M 234.089844 50.964844 C 234.089844 51.5 233.960938 51.960938 233.699219 52.347656 C 233.4375 52.734375 233.066406 53.035156 232.574219 53.238281 C 232.089844 53.445312 231.503906 53.550781 230.824219 53.550781 C 230.496094 53.550781 230.179688 53.53125 229.882812 53.492188 C 229.582031 53.457031 229.296875 53.402344 229.03125 53.328125 C 228.765625 53.257812 228.523438 53.167969 228.300781 53.058594 L 228.300781 51.625 C 228.675781 51.789062 229.089844 51.9375 229.542969 52.070312 C 229.992188 52.203125 230.457031 52.265625 230.925781 52.265625 C 231.300781 52.265625 231.613281 52.21875 231.859375 52.121094 C 232.105469 52.019531 232.289062 51.878906 232.410156 51.695312 C 232.527344 51.511719 232.585938 51.296875 232.585938 51.050781 C 232.585938 50.785156 232.515625 50.5625 232.371094 50.382812 C 232.226562 50.199219 232.011719 50.03125 231.722656 49.878906 C 231.433594 49.722656 231.074219 49.554688 230.648438 49.378906 C 230.359375 49.265625 230.082031 49.132812 229.8125 48.984375 C 229.546875 48.832031 229.308594 48.65625 229.097656 48.449219 C 228.886719 48.242188 228.71875 48 228.59375 47.710938 C 228.46875 47.425781 228.410156 47.09375 228.410156 46.710938 C 228.410156 46.195312 228.53125 45.757812 228.777344 45.390625 C 229.019531 45.023438 229.371094 44.742188 229.816406 44.550781 C 230.269531 44.355469 230.789062 44.257812 231.386719 44.257812 C 231.867188 44.257812 232.3125 44.3125 232.734375 44.410156 C 233.148438 44.511719 233.5625 44.652344 233.972656 44.835938 L 233.488281 46.058594 C 233.113281 45.90625 232.753906 45.785156 232.410156 45.691406 C 232.066406 45.597656 231.707031 45.550781 231.34375 45.550781 C 231.039062 45.550781 230.78125 45.597656 230.570312 45.691406 C 230.355469 45.785156 230.195312 45.914062 230.085938 46.082031 C 229.976562 46.25 229.917969 46.449219 229.917969 46.683594 C 229.917969 46.941406 229.984375 47.15625 230.113281 47.332031 C 230.242188 47.507812 230.445312 47.671875 230.714844 47.816406 C 230.988281 47.964844 231.335938 48.128906 231.761719 48.304688 C 232.253906 48.515625 232.675781 48.734375 233.019531 48.960938 C 233.367188 49.1875 233.632812 49.457031 233.816406 49.773438 C 234.003906 50.089844 234.097656 50.484375 234.097656 50.960938 Z M 234.089844 50.964844 " fill-opacity="1" fill-rule="nonzero"/><path fill="#b8bcd3" d="M 245.398438 44.390625 L 246.925781 44.390625 L 246.925781 53.421875 L 245.398438 53.421875 Z M 245.398438 44.390625 " fill-opacity="1" fill-rule="nonzero"/><path fill="#b8bcd3" d="M 262.03125 53.421875 L 260.507812 53.421875 L 260.507812 45.679688 L 257.878906 45.679688 L 257.878906 44.390625 L 264.65625 44.390625 L 264.65625 45.679688 L 262.027344 45.679688 L 262.027344 53.421875 Z M 262.03125 53.421875 " fill-opacity="1" fill-rule="nonzero"/><path fill="#b8bcd3" d="M 278.191406 48.472656 L 280.3125 44.390625 L 281.953125 44.390625 L 278.953125 49.914062 L 278.953125 53.421875 L 277.433594 53.421875 L 277.433594 49.96875 L 274.429688 44.390625 L 276.085938 44.390625 Z M 278.191406 48.472656 " fill-opacity="1" fill-rule="nonzero"/></svg>