<svg xmlns="http://www.w3.org/2000/svg" xmlns:xlink="http://www.w3.org/1999/xlink" width="365" zoomAndPan="magnify" viewBox="0 0 273.75 64.499998" height="86" preserveAspectRatio="xMidYMid meet" version="1.0"><defs><clipPath id="b3179eb773"><path d="M 2.53125 3.273438 L 270.417969 3.273438 L 270.417969 61 L 2.53125 61 Z M 2.53125 3.273438 " clip-rule="nonzero"/></clipPath></defs><g clip-path="url(#b3179eb773)"><path fill="#b8bcd3" d="M 6.691406 43.976562 L 6.691406 54.359375 C 6.691406 56.089844 7.253906 58.546875 10.300781 58.546875 C 13.09375 58.546875 14.101562 56.613281 14.101562 54.160156 L 14.054688 43.972656 C 14.066406 43.746094 14.011719 43.523438 13.898438 43.324219 C 13.785156 43.128906 13.621094 42.964844 13.421875 42.855469 L 16.144531 42.855469 C 15.789062 43.058594 15.535156 43.40625 15.535156 43.976562 L 15.460938 54.109375 C 15.460938 58.320312 13.09375 59.957031 9.902344 59.957031 C 7.160156 59.957031 3.660156 58.667969 3.660156 54.277344 L 3.660156 43.972656 C 3.660156 43.40625 3.285156 43.054688 2.914062 42.855469 L 7.414062 42.855469 C 7.039062 43.054688 6.6875 43.402344 6.6875 43.972656 Z M 46.332031 43.976562 C 46.332031 43.40625 46.09375 43.058594 45.722656 42.855469 L 48.324219 42.855469 C 47.972656 43.058594 47.714844 43.40625 47.714844 43.976562 L 47.714844 60.402344 C 47.714844 60.402344 36.453125 46.378906 36.453125 46.179688 L 36.453125 58.597656 C 36.453125 59.140625 36.714844 59.488281 37.113281 59.710938 L 34.507812 59.710938 C 34.859375 59.484375 35.117188 59.140625 35.117188 58.59375 L 35.117188 45.363281 C 35.117188 44.394531 35.140625 44.371094 34.695312 43.800781 C 34.402344 43.425781 34.046875 43.105469 33.640625 42.855469 L 37.675781 42.855469 L 46.332031 53.761719 Z M 71.238281 42.855469 C 70.839844 43.058594 70.628906 43.40625 70.628906 43.976562 L 70.628906 58.59375 C 70.628906 59.140625 70.839844 59.488281 71.238281 59.710938 L 66.992188 59.710938 C 67.367188 59.484375 67.601562 59.140625 67.601562 58.59375 L 67.601562 43.976562 C 67.601562 43.40625 67.367188 43.058594 66.992188 42.855469 Z M 99.832031 44.097656 C 100.042969 43.453125 99.949219 43.105469 99.339844 42.855469 L 102.199219 42.855469 C 101.589844 43.28125 101.542969 43.453125 101.308594 44.046875 C 100.910156 45.015625 95.257812 60.230469 95.257812 60.230469 C 95.257812 60.230469 89.136719 44.964844 88.691406 44.046875 C 88.410156 43.550781 88.128906 43.15625 87.421875 42.855469 L 92.609375 42.855469 C 91.996094 43.105469 91.949219 43.625 92.113281 44.222656 C 92.160156 44.445312 96.078125 54.628906 96.078125 54.628906 C 96.078125 54.628906 99.808594 44.273438 99.832031 44.097656 Z M 128.304688 45.039062 C 127.859375 44.394531 127.367188 44.199219 126.476562 44.148438 C 125.773438 44.097656 122.488281 44.097656 122.488281 44.097656 L 122.488281 49.800781 L 126.03125 49.800781 C 126.359375 49.800781 126.757812 49.398438 126.875 49.101562 L 126.875 51.730469 C 126.757812 51.382812 126.359375 51.011719 126.03125 51.011719 L 122.488281 51.011719 L 122.488281 58.296875 C 122.957031 58.371094 124.386719 58.46875 125.535156 58.417969 C 127.578125 58.371094 128.515625 58.417969 129.382812 56.859375 L 128.890625 59.710938 L 118.804688 59.710938 C 119.207031 59.460938 119.511719 59.1875 119.511719 58.59375 L 119.511719 43.972656 C 119.511719 43.402344 119.179688 43.054688 118.804688 42.855469 L 128.234375 42.855469 Z M 154.015625 51.160156 C 155.609375 51.335938 156.3125 52.472656 156.664062 53.023438 C 156.664062 53.023438 159.480469 57.726562 160.300781 58.71875 C 160.746094 59.3125 161.800781 59.710938 161.800781 59.710938 L 158.75 59.761719 C 157.859375 59.761719 157.085938 59.191406 156.664062 58.597656 C 155.609375 57.035156 154.578125 55.226562 153.730469 53.839844 C 153.121094 52.851562 152.582031 51.78125 151.574219 51.78125 C 151.292969 51.78125 150.542969 51.835938 150.542969 51.835938 L 150.542969 58.597656 C 150.542969 59.144531 150.800781 59.492188 151.199219 59.714844 L 146.953125 59.714844 C 147.328125 59.492188 147.5625 59.144531 147.5625 58.597656 L 147.5625 43.980469 C 147.5625 43.410156 147.328125 43.0625 146.953125 42.859375 L 152.019531 42.859375 C 156.875 42.859375 157.976562 45.367188 157.976562 47.027344 C 157.976562 49.699219 155.679688 51.035156 154.015625 51.160156 Z M 150.542969 44.097656 L 150.542969 50.566406 C 150.542969 50.566406 151.199219 50.617188 151.597656 50.617188 C 153.191406 50.617188 154.882812 49.671875 154.882812 47.171875 C 154.882812 46.035156 154.222656 44.050781 151.90625 44.050781 C 151.199219 44.050781 150.542969 44.097656 150.542969 44.097656 Z M 187.53125 54.753906 C 187.53125 57.851562 184.953125 59.957031 182.066406 59.957031 C 179.929688 59.957031 178.386719 59.1875 177.5625 58.765625 L 177.449219 54.578125 C 177.890625 56.339844 179.300781 58.667969 181.738281 58.667969 C 184.0625 58.667969 184.765625 56.910156 184.765625 55.695312 C 184.765625 53.316406 182.722656 52.992188 180.589844 51.777344 C 178.429688 50.515625 177.492188 49.179688 177.492188 47.292969 C 177.492188 43.921875 180.472656 42.585938 182.609375 42.585938 C 183.40625 42.585938 184.953125 42.761719 186.148438 43.503906 L 186.265625 47.167969 C 185.9375 45.855469 184.601562 43.875 182.347656 43.875 C 180.566406 43.875 179.863281 45.1875 179.863281 46.253906 C 179.863281 47.761719 180.871094 48.335938 183.078125 49.398438 C 185.257812 50.492188 187.53125 51.308594 187.53125 54.753906 Z M 210.097656 42.855469 C 209.695312 43.058594 209.488281 43.40625 209.488281 43.976562 L 209.488281 58.59375 C 209.488281 59.140625 209.699219 59.488281 210.097656 59.710938 L 205.851562 59.710938 C 206.226562 59.484375 206.460938 59.140625 206.460938 58.59375 L 206.460938 43.976562 C 206.460938 43.40625 206.226562 43.058594 205.851562 42.855469 Z M 235.570312 44.097656 L 235.570312 58.59375 C 235.570312 59.140625 235.828125 59.488281 236.179688 59.710938 L 231.980469 59.710938 C 232.355469 59.484375 232.589844 59.140625 232.589844 58.59375 L 232.589844 44.097656 C 230.855469 44.097656 228.835938 44.273438 228.835938 44.273438 C 228.277344 44.273438 227.875 44.84375 227.667969 45.261719 L 227.667969 42.859375 L 240.523438 42.859375 L 240.523438 45.261719 C 240.308594 44.84375 239.980469 44.324219 239.417969 44.273438 C 239.417969 44.273438 237.28125 44.097656 235.566406 44.097656 Z M 270.164062 42.855469 C 269.4375 43.105469 268.898438 43.804688 268.617188 44.367188 L 264.863281 51.902344 L 264.863281 58.59375 C 264.863281 59.136719 265.308594 59.484375 265.683594 59.710938 L 260.992188 59.710938 C 261.347656 59.484375 261.789062 59.1875 261.789062 58.59375 L 261.789062 52 L 257.191406 44.046875 C 256.863281 43.453125 256.605469 43.203125 255.972656 42.855469 L 261.273438 42.855469 C 260.6875 43.105469 260.289062 43.226562 260.898438 44.394531 L 264.203125 50.492188 L 267.300781 44.097656 C 267.628906 43.550781 267.460938 43.03125 266.808594 42.855469 Z M 2.53125 33.46875 L 269.675781 33.46875 L 269.675781 35.277344 L 2.53125 35.277344 Z M 21.136719 3.996094 L 26.640625 3.996094 C 26.121094 4.269531 25.796875 4.753906 25.796875 5.542969 L 25.796875 25.851562 C 25.796875 26.605469 26.121094 27.089844 26.640625 27.398438 L 20.808594 27.398438 C 21.332031 27.085938 21.65625 26.605469 21.65625 25.851562 L 21.65625 8.539062 C 21.65625 8.125 21.722656 7.75 21.722656 7.75 L 21.429688 8.539062 L 13.609375 27.878906 L 5.722656 9.089844 L 5.496094 8.160156 L 5.496094 25.851562 C 5.496094 26.609375 5.855469 27.089844 6.410156 27.398438 L 2.792969 27.398438 C 3.28125 27.089844 3.640625 26.609375 3.640625 25.851562 L 3.640625 5.546875 C 3.640625 4.890625 3.117188 4.269531 2.597656 3.996094 L 8.328125 3.996094 L 14.84375 19.792969 Z M 37.8125 3.996094 C 37.257812 4.269531 36.964844 4.753906 36.964844 5.542969 L 36.964844 25.851562 C 36.964844 26.605469 37.257812 27.089844 37.8125 27.398438 L 31.917969 27.398438 C 32.4375 27.085938 32.761719 26.605469 32.761719 25.851562 L 32.761719 5.546875 C 32.761719 4.753906 32.4375 4.269531 31.917969 3.996094 Z M 62.800781 10.742188 C 60.8125 5.957031 57 5.476562 55.4375 5.476562 C 49.867188 5.476562 46.707031 9.777344 46.707031 15.320312 C 46.707031 20.035156 48.957031 25.851562 55.664062 25.851562 C 57.195312 25.851562 60.878906 25.300781 63.027344 20.585938 C 63.09375 20.449219 62.734375 25.542969 62.734375 25.542969 C 60.03125 27.160156 57.132812 27.742188 54.457031 27.742188 C 48.042969 27.742188 42.339844 23.097656 42.339844 15.769531 C 42.339844 9.746094 46.574219 3.621094 54.851562 3.621094 C 57.519531 3.621094 59.964844 4.171875 62.507812 5.410156 C 62.507812 5.40625 62.867188 10.878906 62.800781 10.742188 Z M 81.890625 3.996094 L 87.789062 3.996094 C 87.230469 4.269531 86.875 4.753906 86.875 5.542969 L 86.875 25.851562 C 86.875 26.605469 87.230469 27.089844 87.789062 27.398438 L 81.890625 27.398438 C 82.410156 27.085938 82.738281 26.605469 82.738281 25.851562 L 82.738281 15.320312 L 72.605469 15.320312 L 72.605469 25.851562 C 72.605469 26.609375 72.898438 27.09375 73.453125 27.402344 L 67.554688 27.402344 C 68.078125 27.089844 68.402344 26.609375 68.402344 25.851562 L 68.402344 5.546875 C 68.402344 4.753906 68.078125 4.269531 67.554688 3.996094 L 73.453125 3.996094 C 72.898438 4.269531 72.605469 4.753906 72.605469 5.546875 L 72.605469 13.632812 L 82.738281 13.632812 L 82.738281 5.546875 C 82.738281 4.753906 82.414062 4.269531 81.890625 3.996094 Z M 98.925781 3.996094 C 98.375 4.269531 98.082031 4.753906 98.082031 5.542969 L 98.082031 25.851562 C 98.082031 26.605469 98.375 27.089844 98.925781 27.398438 L 93.03125 27.398438 C 93.550781 27.085938 93.875 26.605469 93.875 25.851562 L 93.875 5.546875 C 93.875 4.753906 93.550781 4.269531 93.03125 3.996094 Z M 123.71875 5.40625 L 123.949219 10.878906 C 122.285156 6.199219 118.148438 5.476562 116.617188 5.476562 C 111.078125 5.476562 107.886719 9.777344 107.886719 15.320312 C 107.886719 20.035156 110.101562 25.851562 116.84375 25.851562 C 117.53125 25.851562 119.453125 25.78125 120.984375 24.714844 L 120.984375 18.726562 C 120.984375 17.933594 120.65625 17.453125 120.136719 17.144531 L 125.96875 17.144531 C 125.480469 17.453125 125.121094 17.933594 125.121094 18.726562 L 125.121094 23.820312 C 125.121094 24.507812 125.480469 25.125 125.640625 25.230469 C 122.902344 26.847656 118.28125 27.742188 115.671875 27.742188 C 109.1875 27.742188 103.457031 23.09375 103.457031 15.765625 C 103.457031 9.742188 107.722656 3.617188 116.0625 3.617188 C 118.734375 3.617188 121.144531 4.238281 123.71875 5.40625 Z M 147.5 25.710938 C 147.824219 26.433594 148.054688 26.8125 149.128906 27.398438 L 142.15625 27.398438 C 143.003906 26.917969 143.167969 26.4375 142.9375 25.710938 C 142.839844 25.367188 141.992188 23.269531 141.082031 20.929688 L 133.097656 20.929688 C 132.121094 23.269531 131.339844 25.300781 131.273438 25.675781 C 130.980469 26.503906 131.144531 26.984375 132.023438 27.398438 L 127.527344 27.398438 C 128.441406 26.742188 128.730469 26.367188 129.058594 25.710938 C 129.679688 24.40625 138.246094 3.273438 138.246094 3.273438 C 138.246094 3.273438 146.914062 24.40625 147.5 25.710938 Z M 140.332031 19.140625 C 139.210938 16.335938 138.105469 13.523438 137.007812 10.707031 C 137.007812 10.707031 134.796875 16.558594 133.753906 19.140625 Z M 167.566406 5.546875 C 167.566406 4.753906 167.242188 4.269531 166.71875 3.996094 L 170.335938 3.996094 C 169.847656 4.269531 169.488281 4.753906 169.488281 5.546875 L 169.488281 28.363281 C 169.488281 28.363281 153.847656 8.882812 153.847656 8.605469 L 153.847656 25.851562 C 153.847656 26.609375 154.207031 27.089844 154.761719 27.398438 L 151.144531 27.398438 C 151.632812 27.089844 151.992188 26.609375 151.992188 25.851562 L 151.992188 7.472656 C 151.992188 6.128906 152.023438 6.097656 151.40625 5.304688 C 151.003906 4.78125 150.503906 4.339844 149.941406 3.996094 L 155.546875 3.996094 L 167.566406 19.140625 Z M 197.046875 20.515625 C 197.046875 24.816406 193.464844 27.742188 189.457031 27.742188 C 186.492188 27.742188 184.339844 26.675781 183.199219 26.09375 L 183.039062 20.277344 C 183.65625 22.71875 185.613281 25.953125 189 25.953125 C 192.222656 25.953125 193.203125 23.507812 193.203125 21.824219 C 193.203125 18.519531 190.367188 18.070312 187.402344 16.386719 C 184.40625 14.632812 183.101562 12.773438 183.101562 10.160156 C 183.101562 5.476562 187.242188 3.617188 190.203125 3.617188 C 191.3125 3.617188 193.464844 3.859375 195.121094 4.890625 L 195.28125 9.984375 C 194.832031 8.160156 192.972656 5.40625 189.84375 5.40625 C 187.367188 5.40625 186.390625 7.234375 186.390625 8.710938 C 186.390625 10.8125 187.792969 11.605469 190.855469 13.082031 C 193.890625 14.597656 197.046875 15.734375 197.046875 20.515625 Z M 210.050781 5.71875 L 210.050781 25.851562 C 210.050781 26.609375 210.40625 27.089844 210.898438 27.398438 L 205.066406 27.398438 C 205.585938 27.089844 205.910156 26.609375 205.910156 25.851562 L 205.910156 5.71875 C 203.5 5.71875 200.699219 5.957031 200.699219 5.957031 C 199.917969 5.957031 199.363281 6.746094 199.070312 7.332031 L 199.070312 3.996094 L 216.921875 3.996094 L 216.921875 7.332031 C 216.632812 6.746094 216.175781 6.023438 215.394531 5.957031 C 215.394531 5.957031 212.425781 5.714844 210.050781 5.714844 Z M 233.894531 25.710938 C 234.222656 26.433594 234.449219 26.8125 235.523438 27.398438 L 228.550781 27.398438 C 229.398438 26.917969 229.5625 26.4375 229.332031 25.710938 C 229.234375 25.367188 228.386719 23.269531 227.476562 20.929688 L 219.492188 20.929688 C 218.515625 23.269531 217.734375 25.300781 217.667969 25.675781 C 217.371094 26.503906 217.539062 26.984375 218.417969 27.398438 L 213.921875 27.398438 C 214.832031 26.742188 215.125 26.367188 215.453125 25.710938 C 216.074219 24.40625 224.640625 3.273438 224.640625 3.273438 C 224.640625 3.273438 233.308594 24.40625 233.894531 25.710938 Z M 226.726562 19.140625 C 225.605469 16.335938 224.5 13.523438 223.40625 10.707031 C 223.40625 10.707031 221.191406 16.558594 220.144531 19.140625 Z M 244.03125 5.71875 L 244.03125 25.851562 C 244.03125 26.609375 244.386719 27.089844 244.875 27.398438 L 239.042969 27.398438 C 239.566406 27.089844 239.890625 26.609375 239.890625 25.851562 L 239.890625 5.71875 C 237.480469 5.71875 234.679688 5.957031 234.679688 5.957031 C 233.898438 5.957031 233.34375 6.746094 233.050781 7.332031 L 233.050781 3.996094 L 250.902344 3.996094 L 250.902344 7.332031 C 250.613281 6.746094 250.15625 6.023438 249.371094 5.957031 C 249.371094 5.957031 246.40625 5.714844 244.03125 5.714844 Z M 267.613281 7.027344 C 266.996094 6.128906 266.3125 5.855469 265.074219 5.785156 C 264.09375 5.714844 259.535156 5.714844 259.535156 5.714844 L 259.535156 13.632812 L 264.453125 13.632812 C 264.90625 13.632812 265.460938 13.082031 265.625 12.667969 L 265.625 16.316406 C 265.460938 15.832031 264.90625 15.320312 264.453125 15.320312 L 259.535156 15.320312 L 259.535156 25.4375 C 260.1875 25.539062 262.171875 25.675781 263.769531 25.609375 C 266.605469 25.539062 267.90625 25.609375 269.109375 23.441406 L 268.425781 27.398438 L 254.417969 27.398438 C 254.972656 27.050781 255.398438 26.675781 255.398438 25.851562 L 255.398438 5.546875 C 255.398438 4.753906 254.9375 4.269531 254.417969 3.996094 L 267.515625 3.996094 Z M 267.613281 7.027344 " fill-opacity="1" fill-rule="nonzero"/></g></svg>