<svg xmlns="http://www.w3.org/2000/svg" xmlns:xlink="http://www.w3.org/1999/xlink" width="163" zoomAndPan="magnify" viewBox="0 0 122.25 72" height="96" preserveAspectRatio="xMidYMid meet" version="1.0"><defs><clipPath id="23465904ea"><path d="M 11 13 L 113 13 L 113 71.316406 L 11 71.316406 Z M 11 13 " clip-rule="nonzero"/></clipPath><clipPath id="996cf027f4"><path d="M 0 0.5 L 121.503906 0.5 L 121.503906 71.316406 L 0 71.316406 Z M 0 0.5 " clip-rule="nonzero"/></clipPath></defs><g clip-path="url(#23465904ea)"><path fill="#b8bcd3" d="M 11.320312 53.414062 L 112.46875 53.414062 L 112.46875 54.164062 L 11.320312 54.164062 Z M 18.515625 58.957031 L 18.515625 59.222656 C 18.933594 59.222656 19.617188 59.355469 19.617188 60.042969 L 19.617188 67.488281 C 19.617188 69.484375 18.402344 70.496094 16.835938 70.496094 C 15.273438 70.496094 14.082031 69.503906 14.082031 67.488281 L 14.082031 60.042969 C 14.082031 59.375 14.746094 59.242188 15.1875 59.222656 L 15.1875 58.957031 C 14.59375 58.957031 13.980469 59.078125 13.011719 59.078125 C 12.496094 59.078125 11.914062 58.957031 11.320312 58.957031 L 11.320312 59.222656 C 12.097656 59.304688 12.210938 59.355469 12.210938 60.195312 L 12.210938 67.121094 C 12.210938 70.078125 13.929688 71.449219 16.871094 71.449219 C 19.8125 71.449219 21.527344 70.078125 21.527344 67.121094 L 21.527344 60.195312 C 21.527344 59.355469 21.648438 59.304688 22.425781 59.222656 L 22.425781 58.957031 C 21.835938 58.957031 21.242188 59.078125 20.730469 59.078125 C 19.710938 59.101562 19.105469 58.957031 18.515625 58.957031 Z M 31.902344 58.957031 L 31.902344 59.222656 C 32.929688 59.394531 33.234375 59.683594 33.234375 60.960938 L 33.234375 67.847656 L 33.195312 67.847656 L 26.726562 58.957031 C 26.246094 58.957031 25.828125 59.078125 25.316406 59.078125 C 24.800781 59.078125 24.230469 58.957031 23.699219 58.957031 L 23.699219 59.222656 C 24.4375 59.34375 24.667969 59.496094 24.667969 60.023438 L 24.667969 70.191406 C 24.667969 70.722656 24.4375 70.855469 23.699219 70.988281 L 23.699219 71.253906 C 24.324219 71.253906 24.957031 71.140625 25.582031 71.140625 C 26.207031 71.140625 26.644531 71.253906 27.179688 71.253906 L 27.179688 70.988281 C 26.152344 70.816406 25.847656 70.53125 25.847656 69.253906 L 25.847656 61.054688 L 25.886719 61.054688 L 33.273438 71.253906 L 34.398438 71.253906 L 34.398438 60.023438 C 34.398438 59.496094 34.625 59.355469 35.371094 59.222656 L 35.371094 58.957031 C 34.707031 58.957031 34.113281 59.078125 33.488281 59.078125 C 32.863281 59.078125 32.4375 58.957031 31.902344 58.957031 Z M 37.265625 58.957031 L 37.265625 59.222656 C 38.007812 59.34375 38.230469 59.496094 38.230469 60.023438 L 38.230469 70.191406 C 38.230469 70.722656 38.007812 70.855469 37.265625 70.988281 L 37.265625 71.253906 C 37.667969 71.253906 38.445312 71.140625 39.171875 71.140625 C 39.894531 71.140625 40.675781 71.253906 41.074219 71.253906 L 41.074219 70.988281 C 40.328125 70.875 40.101562 70.722656 40.101562 70.191406 L 40.101562 60.023438 C 40.101562 59.496094 40.328125 59.355469 41.074219 59.222656 L 41.074219 58.957031 C 40.675781 58.957031 39.890625 59.078125 39.171875 59.078125 C 38.453125 59.078125 37.648438 58.957031 37.265625 58.957031 Z M 49.972656 58.957031 L 49.972656 59.222656 C 50.355469 59.304688 50.871094 59.417969 50.871094 59.796875 C 50.832031 60.160156 50.75 60.515625 50.625 60.859375 L 47.914062 69.046875 L 44.867188 60.59375 C 44.738281 60.332031 44.644531 60.054688 44.585938 59.769531 C 44.585938 59.410156 44.832031 59.238281 45.550781 59.214844 L 45.550781 58.949219 C 44.988281 58.949219 44.453125 59.070312 43.902344 59.070312 C 43.136719 59.070312 42.359375 58.949219 41.597656 58.949219 L 41.597656 59.214844 C 41.871094 59.203125 42.121094 59.273438 42.339844 59.4375 C 42.5625 59.597656 42.707031 59.808594 42.777344 60.074219 L 46.964844 71.25 L 48.242188 71.25 L 51.96875 60.25 C 52.03125 59.972656 52.164062 59.738281 52.375 59.550781 C 52.585938 59.359375 52.832031 59.25 53.113281 59.214844 L 53.113281 58.949219 C 52.632812 58.949219 52.160156 59.070312 51.6875 59.070312 C 51.136719 59.101562 50.578125 58.957031 49.972656 58.957031 Z M 60.558594 70.078125 L 56.492188 70.078125 L 56.492188 65.277344 L 59.226562 65.277344 C 59.894531 65.277344 60.292969 65.332031 60.425781 66.382812 L 60.804688 66.382812 C 60.738281 65.832031 60.703125 65.28125 60.691406 64.726562 C 60.691406 64.175781 60.753906 63.660156 60.804688 63.109375 L 60.425781 63.109375 C 60.292969 64.15625 59.914062 64.214844 59.226562 64.214844 L 56.492188 64.214844 L 56.492188 60.140625 L 60.851562 60.140625 C 61.683594 60.140625 62.335938 60.367188 62.5625 61.890625 L 62.941406 61.890625 C 62.867188 60.960938 62.828125 60.007812 62.828125 59.078125 L 53.652344 59.078125 L 53.652344 59.34375 C 54.398438 59.457031 54.625 59.601562 54.625 60.140625 L 54.625 70.078125 C 54.625 70.609375 54.398438 70.742188 53.652344 70.875 L 53.652344 71.140625 L 63.320312 71.140625 C 63.320312 70.097656 63.421875 69.066406 63.515625 68.019531 L 63.15625 68.019531 C 62.808594 69.75 62.125 70.078125 60.558594 70.078125 Z M 74.363281 69.75 L 70.855469 65.226562 C 72.683594 65.074219 74.320312 63.894531 74.320312 61.984375 C 74.320312 60.40625 73.429688 59.097656 70.894531 59.097656 L 65.378906 59.097656 L 65.378906 59.363281 C 66.117188 59.476562 66.347656 59.621094 66.347656 60.160156 L 66.347656 70.210938 C 66.347656 70.742188 66.117188 70.875 65.378906 71.007812 L 65.378906 71.273438 C 65.777344 71.273438 66.554688 71.160156 67.28125 71.160156 C 68.007812 71.160156 68.785156 71.273438 69.183594 71.273438 L 69.183594 71.007812 C 68.4375 70.894531 68.210938 70.742188 68.210938 70.210938 L 68.210938 60.140625 L 69.210938 60.140625 C 70.816406 60.140625 72.429688 60.40625 72.429688 62.21875 C 72.429688 63.886719 71.039062 64.707031 69.058594 64.707031 C 68.910156 64.707031 68.699219 64.78125 68.699219 64.894531 C 68.699219 65.007812 68.851562 65.144531 69.078125 65.453125 L 71.53125 68.738281 C 73.078125 70.890625 73.269531 71.195312 73.476562 71.253906 C 73.957031 71.253906 74.449219 71.140625 74.941406 71.140625 C 75.265625 71.140625 75.605469 71.253906 75.933594 71.253906 L 75.933594 70.988281 C 75.40625 70.9375 74.933594 70.457031 74.363281 69.75 Z M 81.628906 64.0625 C 79.285156 63.582031 78.546875 63.394531 78.546875 62.003906 C 78.546875 60.808594 79.585938 59.835938 81.640625 59.835938 C 82.972656 59.835938 84.535156 60.386719 84.804688 62.042969 L 85.183594 62.042969 C 85.121094 61.167969 85.082031 60.273438 85.101562 59.382812 C 84.089844 58.960938 83.039062 58.75 81.941406 58.757812 C 78.878906 58.757812 76.898438 60.394531 76.898438 62.277344 C 76.898438 64.601562 78.675781 65.191406 81.941406 65.839844 C 83.273438 66.105469 84.171875 66.410156 84.171875 67.929688 C 84.171875 69.625 82.59375 70.371094 81.203125 70.371094 C 80.777344 70.398438 80.359375 70.355469 79.949219 70.234375 C 79.539062 70.113281 79.164062 69.925781 78.820312 69.671875 C 78.476562 69.417969 78.191406 69.109375 77.957031 68.75 C 77.726562 68.394531 77.5625 68.003906 77.46875 67.589844 L 77.089844 67.589844 C 77.164062 68.578125 77.203125 69.542969 77.203125 70.535156 C 78.269531 71.164062 79.425781 71.464844 80.664062 71.433594 C 84.210938 71.433594 85.808594 69.644531 85.808594 67.527344 C 85.847656 65.011719 84.003906 64.535156 81.628906 64.0625 Z M 87.484375 58.957031 L 87.484375 59.222656 C 88.230469 59.34375 88.457031 59.496094 88.457031 60.023438 L 88.457031 70.191406 C 88.457031 70.722656 88.230469 70.855469 87.484375 70.988281 L 87.484375 71.253906 C 87.882812 71.253906 88.667969 71.140625 89.386719 71.140625 C 90.105469 71.140625 90.890625 71.253906 91.292969 71.253906 L 91.292969 70.988281 C 90.554688 70.875 90.320312 70.722656 90.320312 70.191406 L 90.320312 60.023438 C 90.320312 59.496094 90.554688 59.355469 91.292969 59.222656 L 91.292969 58.957031 C 90.890625 58.957031 90.113281 59.078125 89.386719 59.078125 C 88.664062 59.078125 87.882812 58.957031 87.484375 58.957031 Z M 91.949219 59.101562 C 91.898438 60.148438 91.785156 61.179688 91.652344 62.21875 L 92.03125 62.21875 C 92.371094 60.507812 92.910156 60.167969 93.972656 60.167969 L 95.722656 60.167969 L 95.722656 69.882812 C 95.722656 70.550781 95.496094 70.875 94.527344 70.988281 L 94.527344 71.253906 C 95.269531 71.253906 96.089844 71.140625 96.65625 71.140625 C 97.222656 71.140625 98.046875 71.253906 98.785156 71.253906 L 98.785156 70.988281 C 97.8125 70.875 97.585938 70.53125 97.585938 69.882812 L 97.585938 60.140625 L 99.335938 60.140625 C 100.402344 60.140625 100.941406 60.480469 101.28125 62.191406 L 101.660156 62.191406 C 101.535156 61.152344 101.414062 60.121094 101.359375 59.078125 Z M 111.035156 60.5 C 111.496094 59.589844 111.742188 59.261719 112.46875 59.222656 L 112.46875 58.957031 C 111.855469 58.957031 111.402344 59.078125 110.941406 59.078125 C 110.332031 59.078125 109.574219 58.957031 109.078125 58.957031 L 109.078125 59.222656 C 109.746094 59.261719 109.992188 59.394531 109.992188 59.714844 C 110 59.949219 109.957031 60.171875 109.859375 60.382812 L 107.4375 65.480469 L 104.855469 60.433594 C 104.71875 60.203125 104.640625 59.957031 104.628906 59.6875 C 104.628906 59.382812 104.90625 59.269531 105.519531 59.25 L 105.519531 58.984375 C 104.855469 58.984375 104.1875 59.101562 103.554688 59.101562 C 102.925781 59.101562 102.226562 58.984375 101.558594 58.984375 L 101.558594 59.25 C 101.839844 59.285156 102.089844 59.390625 102.3125 59.566406 C 102.535156 59.738281 102.695312 59.957031 102.796875 60.222656 L 106.226562 66.503906 L 106.226562 69.910156 C 106.226562 70.578125 106 70.902344 105.019531 71.015625 L 105.019531 71.28125 C 105.765625 71.28125 106.585938 71.167969 107.15625 71.167969 C 107.730469 71.167969 108.546875 71.28125 109.285156 71.28125 L 109.285156 71.015625 C 108.316406 70.902344 108.089844 70.554688 108.089844 69.910156 L 108.089844 66.476562 Z M 76.691406 49.425781 C 87.511719 49.425781 94.453125 40.191406 94.453125 30.792969 C 94.453125 22.808594 89.640625 13.03125 77.507812 13.03125 C 69.039062 13.03125 59.582031 20.625 59.582031 31.339844 C 59.582031 41.226562 65.703125 49.425781 76.691406 49.425781 Z M 75.925781 16.746094 C 82.867188 16.746094 89.421875 23.195312 89.421875 32.757812 C 89.421875 41.449219 83.796875 45.714844 78 45.714844 C 69.582031 45.714844 64.613281 37.675781 64.613281 29.96875 C 64.613281 19.914062 71.933594 16.746094 75.925781 16.746094 Z M 75.925781 16.746094 " fill-opacity="1" fill-rule="nonzero"/></g><g clip-path="url(#996cf027f4)"><path fill="#b8bcd3" d="M 117.273438 13.898438 C 115.523438 13.898438 113.332031 13.570312 111.914062 13.570312 L 111.914062 14.335938 C 113.773438 14.449219 114.535156 14.828125 114.535156 15.761719 C 114.558594 16.410156 114.429688 17.027344 114.15625 17.617188 L 107.214844 32.257812 L 99.777344 17.722656 C 99.382812 17.066406 99.164062 16.355469 99.109375 15.59375 C 99.109375 14.722656 99.929688 14.394531 101.679688 14.335938 L 101.679688 13.570312 C 99.761719 13.570312 97.90625 13.898438 96.050781 13.898438 C 94.191406 13.898438 92.222656 13.570312 90.253906 13.570312 L 90.253906 14.335938 C 92.25 14.667969 92.914062 15.539062 93.808594 17.125 L 103.664062 35.144531 L 103.664062 44.929688 C 103.664062 46.792969 102.996094 47.769531 100.214844 48.101562 L 100.214844 48.863281 C 102.351562 48.863281 104.699219 48.535156 106.339844 48.535156 C 107.976562 48.535156 110.332031 48.863281 112.460938 48.863281 L 112.460938 48.117188 C 109.671875 47.785156 109.011719 46.785156 109.011719 44.941406 L 109.011719 35.144531 L 117.546875 17.984375 C 118.875 15.359375 119.542969 14.4375 121.644531 14.324219 L 121.644531 13.570312 C 119.894531 13.570312 118.582031 13.898438 117.273438 13.898438 Z M 16.125 43.339844 C 16.125 45.898438 15.21875 47.257812 11.378906 47.710938 L 11.378906 48.761719 C 14.316406 48.761719 17.5625 48.316406 19.816406 48.316406 C 22.074219 48.316406 25.308594 48.921875 28.25 48.921875 C 28.25 48.921875 31.03125 48.921875 32.335938 48.875 C 33.480469 48.875 35.714844 48.546875 37.792969 48.546875 C 39.871094 48.546875 42.113281 48.875 43.261719 48.875 L 43.261719 47.863281 C 41.128906 47.539062 40.476562 47.097656 40.476562 45.566406 L 40.476562 16.953125 L 43.421875 16.953125 C 48.015625 16.953125 52.660156 17.714844 52.660156 22.941406 C 52.660156 27.746094 48.667969 30.101562 42.992188 30.101562 C 42.550781 30.101562 41.945312 30.316406 41.945312 30.640625 C 41.945312 30.859375 42.390625 31.351562 43.042969 32.230469 L 50.089844 41.679688 C 54.523438 47.863281 55.070312 48.734375 55.667969 48.894531 C 57 48.894531 58.457031 48.570312 59.875 48.570312 C 60.804688 48.570312 61.738281 48.894531 62.714844 48.894531 L 62.714844 48.117188 C 61.132812 47.949219 59.765625 46.585938 58.128906 44.507812 L 48.066406 31.5 C 53.320312 31.058594 58.050781 27.777344 58.050781 22.183594 C 58.050781 17.644531 55.480469 13.871094 48.214844 13.871094 L 32.328125 13.871094 L 32.328125 14.640625 C 34.464844 14.96875 35.117188 15.402344 35.117188 16.929688 L 35.117188 43.550781 C 35.117188 46.171875 34.097656 47.246094 31.046875 47.742188 C 30.113281 47.832031 29.183594 47.8125 28.257812 47.683594 C 24.417969 47.230469 23.519531 46.171875 23.511719 43.558594 L 23.511719 4.757812 L 30.445312 4.757812 C 34.664062 4.757812 36.773438 6.089844 38.125 12.898438 L 39.636719 12.898438 C 39.109375 8.753906 38.65625 4.6875 38.433594 0.539062 L 1.210938 0.539062 C 0.976562 4.6875 0.527344 8.753906 0 12.898438 L 1.511719 12.898438 C 2.863281 6.117188 4.972656 4.757812 9.191406 4.757812 L 16.125 4.757812 Z M 111.214844 68.914062 L 112.054688 68.914062 L 112.054688 71.449219 L 112.359375 71.449219 L 112.359375 68.914062 L 113.238281 68.914062 L 113.238281 68.605469 L 111.214844 68.605469 Z M 114.863281 70.914062 L 114.136719 68.605469 L 113.652344 68.605469 L 113.652344 71.449219 L 113.953125 71.449219 L 113.953125 69.039062 L 114.714844 71.449219 L 115.015625 71.449219 L 115.773438 69.039062 L 115.773438 71.449219 L 116.082031 71.449219 L 116.082031 68.605469 L 115.59375 68.605469 Z M 114.863281 70.914062 " fill-opacity="1" fill-rule="nonzero"/></g></svg>