<svg xmlns="http://www.w3.org/2000/svg" xmlns:xlink="http://www.w3.org/1999/xlink" width="384" zoomAndPan="magnify" viewBox="0 0 288 36.000001" height="48" preserveAspectRatio="xMidYMid meet" version="1.0"><defs><clipPath id="6c2a2be463"><path d="M 6 3.246094 L 47 3.246094 L 47 31.707031 L 6 31.707031 Z M 6 3.246094 " clip-rule="nonzero"/></clipPath></defs><path fill="#b8bcd3" d="M 262.972656 23.613281 L 262.972656 22.921875 C 263.808594 22.871094 264.460938 22.800781 264.460938 22.117188 C 264.453125 21.863281 264.40625 21.613281 264.320312 21.375 L 263.957031 20.117188 L 259.601562 20.117188 L 259.222656 21.179688 C 259.132812 21.417969 259.078125 21.667969 259.066406 21.925781 C 259.066406 22.792969 259.992188 22.847656 260.742188 22.882812 L 260.742188 23.546875 L 255.660156 23.546875 L 255.660156 22.921875 C 256.945312 22.871094 257.371094 22.609375 257.839844 21.3125 L 261.179688 12.15625 L 260.988281 11.855469 C 261.875 11.636719 262.691406 11.257812 263.433594 10.726562 C 263.679688 11.558594 263.710938 11.664062 263.992188 12.542969 L 266.695312 20.957031 C 267.183594 22.445312 267.4375 22.808594 268.726562 22.949219 L 268.726562 23.613281 Z M 261.867188 13.710938 L 260.050781 18.820312 L 263.597656 18.820312 Z M 261.867188 13.710938 " fill-opacity="1" fill-rule="nonzero"/><path fill="#b8bcd3" d="M 223.589844 20.867188 C 223.339844 21.347656 223.03125 21.78125 222.65625 22.171875 C 222.285156 22.5625 221.867188 22.894531 221.398438 23.167969 C 220.933594 23.441406 220.441406 23.644531 219.917969 23.777344 C 219.394531 23.90625 218.863281 23.964844 218.320312 23.949219 C 214.601562 23.949219 212.199219 21.203125 212.199219 17.601562 C 212.199219 14.269531 214.246094 10.980469 218.410156 10.980469 C 219.957031 10.953125 221.3125 11.449219 222.472656 12.46875 L 223.320312 11.722656 L 223.390625 15.445312 L 222.839844 15.546875 C 222.578125 14.714844 222.136719 13.992188 221.515625 13.382812 C 220.816406 12.621094 219.953125 12.21875 218.925781 12.175781 C 216.691406 12.175781 214.9375 13.992188 214.9375 17.191406 C 214.9375 19.902344 216.378906 22.453125 219.238281 22.453125 C 221.394531 22.453125 222.214844 21.246094 222.851562 20.324219 Z M 223.589844 20.867188 " fill-opacity="1" fill-rule="nonzero"/><path fill="#b8bcd3" d="M 224.496094 23.613281 L 224.496094 22.921875 C 225.898438 22.800781 225.910156 22.496094 225.910156 21.3125 C 225.910156 20.875 225.910156 20.4375 225.910156 20.003906 L 225.910156 14.832031 C 225.910156 14.023438 225.910156 13.21875 225.859375 12.839844 C 225.785156 12.09375 225.433594 12 224.476562 11.910156 L 224.476562 11.246094 L 229.757812 11.246094 L 229.757812 11.910156 C 228.722656 12.011719 228.34375 12.050781 228.21875 12.734375 C 228.132812 13.410156 228.097656 14.089844 228.113281 14.773438 L 228.113281 16.476562 C 229.179688 16.53125 229.921875 16.566406 230.957031 16.566406 C 231.992188 16.566406 232.832031 16.53125 233.878906 16.476562 L 233.878906 14.4375 C 233.878906 12.207031 233.878906 12.09375 232.167969 11.9375 L 232.167969 11.277344 L 237.519531 11.277344 L 237.519531 11.9375 C 236.082031 12.117188 236.082031 12.132812 236.082031 14.476562 L 236.082031 19.683594 C 236.082031 20.167969 236.082031 21.722656 236.15625 22.09375 C 236.246094 22.742188 236.613281 22.839844 237.519531 22.949219 L 237.519531 23.613281 L 232.167969 23.613281 L 232.167969 22.921875 C 233.410156 22.78125 233.746094 22.742188 233.851562 21.886719 C 233.851562 21.539062 233.851562 21.070312 233.851562 20.175781 L 233.851562 17.945312 C 232.875 17.90625 232.066406 17.855469 231.046875 17.855469 C 230.027344 17.855469 229.148438 17.890625 228.070312 17.945312 L 228.070312 20.175781 C 228.070312 22.742188 228.121094 22.742188 229.714844 22.921875 L 229.714844 23.582031 Z M 224.496094 23.613281 " fill-opacity="1" fill-rule="nonzero"/><path fill="#b8bcd3" d="M 238.5625 23.613281 L 238.5625 22.921875 C 239.765625 22.765625 240.011719 22.625 240.050781 21.328125 L 240.050781 14.757812 C 240.050781 12.191406 240.050781 12.117188 238.5625 11.910156 L 238.5625 11.246094 L 243.6875 11.246094 L 243.6875 11.910156 C 242.199219 12.050781 242.199219 12.117188 242.199219 14.757812 L 242.199219 19.738281 C 242.199219 20.175781 242.199219 21.558594 242.25 21.925781 C 242.339844 22.667969 242.691406 22.855469 243.652344 22.921875 L 243.652344 23.582031 Z M 238.5625 23.613281 " fill-opacity="1" fill-rule="nonzero"/><path fill="#b8bcd3" d="M 206.90625 23.613281 L 206.90625 22.921875 C 208.113281 22.765625 208.394531 22.625 208.394531 21.328125 L 208.394531 14.757812 C 208.394531 12.191406 208.394531 12.117188 206.90625 11.910156 L 206.90625 11.246094 L 212.027344 11.246094 L 212.027344 11.910156 C 210.578125 12.050781 210.578125 12.117188 210.578125 14.757812 L 210.578125 19.738281 C 210.578125 20.175781 210.578125 21.558594 210.636719 21.925781 C 210.71875 22.667969 211.066406 22.855469 212.027344 22.921875 L 212.027344 23.582031 Z M 206.90625 23.613281 " fill-opacity="1" fill-rule="nonzero"/><path fill="#b8bcd3" d="M 200.300781 23.613281 L 200.300781 22.921875 C 201.855469 22.816406 201.855469 22.742188 201.871094 20.457031 L 201.871094 14.253906 L 197.554688 23.738281 L 196.46875 23.738281 L 192.511719 14.125 L 192.414062 21.382812 C 192.414062 22.585938 192.554688 22.816406 193.902344 22.921875 L 193.902344 23.582031 L 189.617188 23.582031 L 189.617188 22.921875 C 190.613281 22.871094 191 22.726562 191.066406 21.886719 C 191.105469 21.558594 191.15625 20.527344 191.171875 19.839844 L 191.347656 14.667969 C 191.347656 14.269531 191.347656 13.679688 191.347656 13.242188 C 191.347656 12.011719 191.105469 11.929688 190.003906 11.910156 L 190.003906 11.246094 L 193.886719 11.246094 L 197.726562 20.613281 L 201.960938 11.277344 L 205.679688 11.277344 L 205.679688 12.019531 C 204.191406 12.101562 204.191406 12.265625 204.191406 14.1875 L 204.191406 19.269531 C 204.191406 20.109375 204.191406 21.15625 204.265625 21.78125 C 204.332031 22.699219 204.683594 22.871094 205.65625 22.957031 L 205.65625 23.621094 Z M 200.300781 23.613281 " fill-opacity="1" fill-rule="nonzero"/><path fill="#b8bcd3" d="M 268.390625 23.613281 L 268.390625 22.921875 C 269.402344 22.871094 269.789062 22.855469 269.929688 22.175781 C 270.101562 21.359375 270.15625 14.035156 270.175781 12.765625 C 269.707031 12.222656 269.109375 11.945312 268.390625 11.9375 L 268.390625 11.277344 L 272.109375 11.277344 C 273.144531 12.765625 273.367188 13.078125 275.183594 15.332031 L 278.628906 19.59375 L 278.628906 14.074219 C 278.628906 12.117188 278.5625 12.011719 276.597656 11.9375 L 276.597656 11.277344 L 281.457031 11.277344 L 281.457031 11.9375 C 280.117188 11.9375 279.96875 12.238281 279.96875 14.246094 L 279.789062 23.769531 L 279.046875 23.769531 L 277.945312 22.394531 C 277.386719 21.695312 276.820312 20.996094 276.261719 20.308594 L 271.390625 14.296875 L 271.390625 20.6875 C 271.390625 22.683594 271.53125 22.75 273.414062 22.921875 L 273.414062 23.582031 Z M 268.390625 23.613281 " fill-opacity="1" fill-rule="nonzero"/><path fill="#b8bcd3" d="M 174.769531 17.429688 C 174.769531 21.695312 171.871094 23.925781 168.59375 23.925781 C 168.167969 23.9375 167.742188 23.90625 167.320312 23.832031 C 166.898438 23.753906 166.488281 23.636719 166.09375 23.476562 C 165.695312 23.316406 165.316406 23.117188 164.960938 22.878906 C 164.605469 22.640625 164.277344 22.367188 163.976562 22.0625 C 163.679688 21.757812 163.414062 21.421875 163.183594 21.0625 C 162.953125 20.703125 162.761719 20.320312 162.609375 19.921875 C 162.457031 19.519531 162.347656 19.109375 162.28125 18.683594 C 162.210938 18.261719 162.191406 17.835938 162.210938 17.40625 C 162.210938 14.035156 164.445312 11 168.433594 11.015625 C 168.855469 11 169.277344 11.027344 169.695312 11.101562 C 170.113281 11.171875 170.515625 11.285156 170.910156 11.441406 C 171.304688 11.597656 171.679688 11.792969 172.03125 12.027344 C 172.386719 12.261719 172.710938 12.53125 173.011719 12.832031 C 173.308594 13.132812 173.570312 13.460938 173.800781 13.816406 C 174.03125 14.171875 174.222656 14.550781 174.375 14.945312 C 174.523438 15.339844 174.632812 15.75 174.703125 16.167969 C 174.769531 16.585938 174.792969 17.007812 174.769531 17.429688 Z M 168.609375 22.792969 C 169.117188 22.761719 169.589844 22.605469 170.019531 22.335938 C 170.453125 22.066406 170.796875 21.710938 171.050781 21.269531 C 171.871094 19.996094 172.203125 18.601562 172.054688 17.09375 C 172.089844 15.609375 171.625 14.296875 170.65625 13.167969 C 170.523438 13 170.371094 12.855469 170.203125 12.722656 C 170.035156 12.59375 169.855469 12.484375 169.664062 12.394531 C 169.46875 12.304688 169.269531 12.238281 169.0625 12.195312 C 168.851562 12.152344 168.644531 12.128906 168.429688 12.132812 C 168.21875 12.136719 168.007812 12.167969 167.800781 12.21875 C 167.597656 12.269531 167.398438 12.34375 167.210938 12.441406 C 167.019531 12.535156 166.84375 12.652344 166.679688 12.789062 C 166.519531 12.925781 166.371094 13.078125 166.246094 13.25 C 165.316406 14.40625 164.886719 15.730469 164.964844 17.214844 C 164.863281 18.726562 165.242188 20.109375 166.09375 21.359375 C 166.367188 21.792969 166.726562 22.136719 167.171875 22.390625 C 167.617188 22.644531 168.097656 22.78125 168.609375 22.792969 Z M 168.609375 22.792969 " fill-opacity="1" fill-rule="nonzero"/><path fill="#b8bcd3" d="M 176.320312 21.34375 C 176.320312 21.046875 176.320312 19.558594 176.320312 19.230469 L 176.320312 14.894531 C 176.328125 14.144531 176.292969 13.402344 176.207031 12.660156 C 176.089844 12.082031 175.703125 12.027344 174.816406 11.917969 L 174.816406 11.253906 L 183.863281 11.253906 L 184.058594 14.273438 L 183.445312 14.273438 C 183.121094 12.347656 182.347656 12.355469 179.933594 12.355469 C 179.4375 12.34375 178.941406 12.363281 178.445312 12.421875 L 178.445312 16.699219 L 180.070312 16.699219 C 181.558594 16.699219 181.945312 16.566406 182.011719 15.210938 L 182.605469 15.210938 L 182.605469 19.28125 L 182.011719 19.28125 C 181.921875 17.898438 181.191406 17.792969 179.777344 17.792969 L 178.417969 17.792969 L 178.417969 21.3125 C 178.417969 22.660156 178.609375 22.800781 179.90625 22.898438 L 179.90625 23.582031 L 174.792969 23.582031 L 174.792969 22.921875 C 176.125 22.808594 176.28125 22.691406 176.320312 21.34375 Z M 176.320312 21.34375 " fill-opacity="1" fill-rule="nonzero"/><path fill="#b8bcd3" d="M 78.0625 23.523438 L 78.0625 22.863281 C 79.269531 22.707031 79.515625 22.5625 79.550781 21.277344 L 79.550781 14.738281 C 79.550781 12.167969 79.550781 12.101562 78.0625 11.894531 L 78.0625 11.222656 L 83.191406 11.222656 L 83.191406 11.894531 C 81.738281 12.027344 81.738281 12.101562 81.738281 14.738281 L 81.738281 19.722656 C 81.738281 20.152344 81.738281 21.539062 81.792969 21.902344 C 81.875 22.644531 82.222656 22.832031 83.191406 22.898438 L 83.191406 23.5625 Z M 78.0625 23.523438 " fill-opacity="1" fill-rule="nonzero"/><path fill="#b8bcd3" d="M 126.601562 23.523438 L 126.601562 22.863281 C 127.804688 22.707031 128.050781 22.5625 128.089844 21.277344 L 128.089844 14.738281 C 128.089844 12.167969 128.089844 12.101562 126.601562 11.894531 L 126.601562 11.222656 L 131.71875 11.222656 L 131.71875 11.894531 C 130.277344 12.027344 130.277344 12.101562 130.277344 14.738281 L 130.277344 19.722656 C 130.277344 20.152344 130.277344 21.539062 130.328125 21.902344 C 130.410156 22.644531 130.757812 22.832031 131.71875 22.898438 L 131.71875 23.5625 Z M 126.601562 23.523438 " fill-opacity="1" fill-rule="nonzero"/><path fill="#b8bcd3" d="M 64.203125 23.523438 L 64.203125 22.863281 C 65.222656 22.808594 65.601562 22.792969 65.742188 22.117188 C 65.914062 21.300781 65.972656 13.96875 65.988281 12.699219 C 65.515625 12.152344 64.921875 11.878906 64.203125 11.878906 L 64.203125 11.210938 L 67.921875 11.210938 C 68.957031 12.699219 69.179688 13.011719 71.003906 15.265625 L 74.441406 19.527344 L 74.441406 13.992188 C 74.441406 12.035156 74.375 11.929688 72.417969 11.863281 L 72.417969 11.195312 L 77.273438 11.195312 L 77.273438 11.863281 C 75.929688 11.863281 75.785156 12.15625 75.785156 14.171875 L 75.617188 23.695312 L 74.871094 23.695312 L 73.769531 22.3125 C 73.210938 21.613281 72.652344 20.914062 72.097656 20.234375 L 67.214844 14.214844 L 67.214844 20.613281 C 67.214844 22.609375 67.355469 22.675781 69.246094 22.847656 L 69.246094 23.507812 Z M 64.203125 23.523438 " fill-opacity="1" fill-rule="nonzero"/><path fill="#b8bcd3" d="M 117.558594 19.683594 L 118.191406 19.609375 C 118.867188 21.621094 120.007812 22.707031 121.859375 22.707031 C 123.167969 22.707031 124.324219 22.148438 124.324219 20.816406 C 124.324219 19.484375 122.976562 18.859375 122.382812 18.582031 C 121.785156 18.308594 121.367188 18.234375 120.894531 18.046875 C 119.878906 17.675781 117.976562 16.894531 117.976562 14.5 C 117.976562 12.101562 119.800781 10.898438 121.914062 10.898438 C 122.9375 10.894531 123.882812 11.175781 124.738281 11.738281 L 125.484375 11.195312 L 125.886719 14.863281 L 125.273438 14.988281 C 125.136719 14.308594 124.851562 13.699219 124.417969 13.160156 C 124.132812 12.789062 123.773438 12.503906 123.351562 12.304688 C 122.925781 12.109375 122.476562 12.019531 122.007812 12.035156 C 120.699219 12.035156 119.925781 12.660156 119.925781 13.644531 C 119.925781 15.128906 121.375 15.601562 122.761719 16.054688 C 123.382812 16.234375 123.972656 16.484375 124.539062 16.796875 C 125.097656 17.121094 125.539062 17.566406 125.859375 18.128906 C 126.175781 18.691406 126.332031 19.296875 126.324219 19.945312 C 126.324219 22.074219 124.574219 23.84375 121.972656 23.84375 C 120.800781 23.851562 119.734375 23.523438 118.773438 22.863281 L 117.746094 22.117188 Z M 117.558594 19.683594 " fill-opacity="1" fill-rule="nonzero"/><path fill="#b8bcd3" d="M 135.535156 23.523438 L 135.535156 23.003906 C 136.675781 23.003906 136.988281 22.5625 136.988281 21.589844 L 136.988281 12.503906 L 135.445312 12.503906 C 134.046875 12.503906 133.125 12.453125 133.019531 14.65625 L 132.375 14.65625 L 132.476562 11.195312 L 143.699219 11.195312 L 143.804688 14.65625 L 143.179688 14.65625 C 143.074219 12.421875 142.152344 12.503906 140.753906 12.503906 L 139.210938 12.503906 L 139.210938 21.597656 C 139.210938 22.570312 139.523438 22.996094 140.664062 23.011719 L 140.664062 23.53125 Z M 135.535156 23.523438 " fill-opacity="1" fill-rule="nonzero"/><path fill="#b8bcd3" d="M 55.933594 11.1875 L 55.933594 11.855469 C 54.289062 11.976562 54.289062 12.027344 54.269531 14.648438 L 54.269531 17.550781 C 54.269531 19.039062 54.269531 20.347656 55.09375 21.5 C 55.359375 21.84375 55.6875 22.109375 56.082031 22.292969 C 56.476562 22.480469 56.890625 22.5625 57.328125 22.542969 C 57.6875 22.570312 58.042969 22.535156 58.394531 22.433594 C 58.742188 22.332031 59.0625 22.171875 59.355469 21.953125 C 59.644531 21.734375 59.886719 21.472656 60.082031 21.164062 C 60.273438 20.855469 60.410156 20.523438 60.480469 20.167969 C 60.785156 18.601562 60.90625 17.015625 60.847656 15.421875 C 60.847656 14.96875 60.847656 13.492188 60.847656 13.09375 C 60.777344 11.976562 60.207031 11.9375 59.105469 11.855469 L 59.105469 11.1875 L 63.800781 11.1875 L 63.800781 11.855469 C 62.644531 11.855469 62.410156 12.09375 62.3125 13.34375 C 62.3125 13.644531 62.15625 17.066406 62.140625 17.59375 C 62.128906 18.523438 62.027344 19.445312 61.84375 20.355469 C 61.003906 23.671875 57.773438 23.84375 56.910156 23.84375 C 55.75 23.863281 54.671875 23.574219 53.679688 22.972656 C 51.84375 21.730469 51.828125 19.878906 51.828125 17.882812 L 51.828125 15.09375 C 51.828125 13.761719 51.828125 13.167969 51.777344 12.863281 C 51.671875 12.117188 51.285156 11.9375 50.363281 11.886719 L 50.363281 11.21875 Z M 55.933594 11.1875 " fill-opacity="1" fill-rule="nonzero"/><path fill="#b8bcd3" d="M 96.175781 11.1875 L 96.175781 11.855469 C 94.984375 12.027344 94.828125 12.363281 93.816406 14.832031 L 90.058594 23.800781 L 89.386719 23.800781 L 86.019531 14.699219 C 85.175781 12.355469 85.074219 12.074219 83.835938 11.886719 L 83.835938 11.21875 L 89.6875 11.21875 L 89.6875 11.886719 C 88.695312 11.886719 88.050781 11.953125 88.050781 12.667969 C 88.101562 13.25 88.238281 13.8125 88.464844 14.347656 L 90.617188 20.621094 L 93.132812 14.140625 C 93.3125 13.71875 93.433594 13.28125 93.496094 12.824219 C 93.496094 11.9375 92.625 11.902344 91.859375 11.886719 L 91.859375 11.21875 Z M 96.175781 11.1875 " fill-opacity="1" fill-rule="nonzero"/><path fill="#b8bcd3" d="M 147.722656 23.523438 L 147.722656 22.863281 C 148.683594 22.757812 149.046875 22.71875 149.292969 22.476562 C 149.539062 22.230469 149.578125 21.886719 149.589844 20.539062 L 149.589844 18.375 L 146.304688 13.285156 C 145.417969 11.960938 145.394531 11.925781 144.203125 11.855469 L 144.203125 11.171875 L 150.617188 11.171875 L 150.617188 11.855469 C 149.324219 11.855469 148.742188 11.925781 148.742188 12.519531 C 148.824219 12.976562 149.007812 13.390625 149.285156 13.761719 L 151.175781 16.851562 L 152.925781 13.777344 C 153.171875 13.390625 153.335938 12.972656 153.417969 12.519531 C 153.417969 11.925781 152.902344 11.910156 152.046875 11.855469 L 152.046875 11.171875 L 156.875 11.171875 L 156.875 11.855469 C 155.632812 11.855469 155.261719 12.257812 153.847656 14.566406 L 151.929688 17.78125 L 151.929688 20.347656 C 151.929688 22.578125 151.929688 22.757812 153.78125 22.863281 L 153.78125 23.523438 Z M 147.722656 23.523438 " fill-opacity="1" fill-rule="nonzero"/><path fill="#b8bcd3" d="M 96.175781 23.523438 L 96.175781 22.847656 C 97.453125 22.71875 97.609375 22.601562 97.664062 21.253906 C 97.664062 20.957031 97.699219 19.476562 97.699219 19.140625 L 97.699219 14.804688 C 97.710938 14.058594 97.675781 13.3125 97.59375 12.570312 C 97.476562 11.992188 97.089844 11.9375 96.195312 11.828125 L 96.195312 11.164062 L 104.984375 11.164062 L 105.058594 14.105469 L 104.484375 14.105469 C 104.203125 12.421875 103.453125 12.265625 101.351562 12.265625 L 99.863281 12.265625 L 99.863281 16.613281 L 101.210938 16.613281 C 102.804688 16.613281 103.027344 16.253906 103.152344 15.125 L 103.742188 15.125 L 103.742188 19.195312 L 103.152344 19.195312 C 103.152344 17.808594 102.714844 17.707031 101.195312 17.707031 L 99.863281 17.707031 L 99.863281 21.15625 C 99.863281 21.960938 100.199219 22.394531 101.835938 22.394531 C 103.621094 22.394531 104.867188 22.496094 105.28125 20.300781 L 105.878906 20.300781 C 105.738281 21.363281 105.648438 22.425781 105.617188 23.496094 Z M 96.175781 23.523438 " fill-opacity="1" fill-rule="nonzero"/><path fill="#b8bcd3" d="M 256.210938 18.160156 L 256.210938 18.820312 C 255.09375 18.894531 255.09375 19.207031 255.066406 21.550781 L 255.066406 22.476562 C 253.640625 23.476562 252.058594 23.972656 250.316406 23.964844 C 246.070312 23.964844 244.039062 20.75 244.039062 17.519531 C 244.039062 13.566406 246.714844 11 250.0625 11 C 251.65625 11.003906 253.097656 11.472656 254.386719 12.398438 L 255.035156 11.65625 L 255.132812 15.519531 L 254.625 15.605469 C 254.3125 14.644531 253.796875 13.808594 253.070312 13.097656 C 252.382812 12.453125 251.570312 12.148438 250.628906 12.175781 C 248.472656 12.175781 246.679688 14 246.679688 17.542969 C 246.679688 20.375 248.078125 22.800781 250.488281 22.800781 C 250.902344 22.800781 251.296875 22.710938 251.671875 22.53125 C 252.046875 22.351562 252.363281 22.101562 252.625 21.777344 C 252.851562 21.414062 252.9375 21.023438 252.875 20.601562 C 252.824219 19.03125 252.609375 18.992188 251.238281 18.851562 L 251.238281 18.1875 Z M 256.210938 18.160156 " fill-opacity="1" fill-rule="nonzero"/><path fill="#b8bcd3" d="M 110.140625 16.910156 C 110.523438 16.988281 110.910156 17.03125 111.300781 17.035156 C 111.601562 17.042969 111.894531 16.996094 112.175781 16.898438 C 112.460938 16.800781 112.71875 16.65625 112.949219 16.464844 C 113.179688 16.273438 113.371094 16.046875 113.519531 15.789062 C 113.667969 15.527344 113.769531 15.25 113.816406 14.953125 C 113.890625 13.515625 113.167969 12.28125 110.898438 12.28125 C 110.648438 12.273438 110.402344 12.296875 110.15625 12.347656 Z M 110.140625 19.59375 C 110.140625 22.429688 110.140625 22.808594 111.628906 22.847656 L 111.628906 23.523438 L 106.496094 23.523438 L 106.496094 22.847656 C 107.820312 22.742188 107.984375 22.527344 107.984375 21.203125 C 107.984375 20.695312 107.984375 20.125 107.984375 19.617188 L 107.984375 15.152344 C 108.011719 14.347656 107.984375 13.542969 107.910156 12.742188 C 107.828125 12.058594 107.492188 11.9375 106.480469 11.847656 L 106.480469 11.1875 L 112.066406 11.1875 C 115.109375 11.1875 116.070312 12.628906 116.070312 14.347656 C 116.066406 14.714844 116.007812 15.070312 115.890625 15.414062 C 115.773438 15.761719 115.605469 16.078125 115.386719 16.371094 C 115.167969 16.664062 114.910156 16.917969 114.613281 17.128906 C 114.316406 17.339844 113.992188 17.5 113.644531 17.609375 L 115.824219 21.402344 C 116.613281 22.855469 117.03125 23.1875 118.058594 23.332031 L 118.058594 23.746094 C 117.796875 23.746094 117.535156 23.785156 117.253906 23.785156 C 114.933594 23.785156 113.964844 22.980469 112.992188 20.898438 L 112.304688 19.445312 C 111.5625 17.890625 111.332031 17.957031 110.15625 17.957031 Z M 110.140625 19.59375 " fill-opacity="1" fill-rule="nonzero"/><g clip-path="url(#6c2a2be463)"><path fill="#b8bcd3" d="M 26.460938 26.796875 L 18.335938 15.636719 L 18.335938 23.761719 L 21.589844 23.761719 L 21.589844 31.777344 L 6.558594 31.777344 L 6.558594 23.753906 L 9.601562 23.753906 L 9.601562 11.269531 L 6.558594 11.269531 L 6.558594 3.246094 L 18.359375 3.246094 L 26.5 14.511719 L 34.683594 3.246094 L 46.449219 3.246094 L 46.449219 11.269531 L 43.398438 11.269531 L 43.398438 23.753906 L 46.449219 23.753906 L 46.449219 31.777344 L 31.417969 31.777344 L 31.417969 23.753906 L 34.667969 23.753906 L 34.667969 15.628906 Z M 26.460938 26.796875 " fill-opacity="1" fill-rule="nonzero"/></g></svg>