<svg xmlns="http://www.w3.org/2000/svg" xmlns:xlink="http://www.w3.org/1999/xlink" width="326" zoomAndPan="magnify" viewBox="0 0 244.5 72" height="96" preserveAspectRatio="xMidYMid meet" version="1.0"><defs><clipPath id="b31c100fee"><path d="M 41 0.0742188 L 48 0.0742188 L 48 15 L 41 15 Z M 41 0.0742188 " clip-rule="nonzero"/></clipPath><clipPath id="b171eb36f5"><path d="M 19 30 L 67 30 L 67 71.925781 L 19 71.925781 Z M 19 30 " clip-rule="nonzero"/></clipPath></defs><path fill="#b8bcd3" d="M 80.601562 63.699219 L 134.082031 63.699219 L 134.082031 66.925781 L 80.601562 66.925781 Z M 80.601562 63.699219 " fill-opacity="1" fill-rule="nonzero"/><path fill="#b8bcd3" d="M 80.601562 37.652344 L 83.582031 37.652344 L 85.449219 51.792969 L 87.695312 37.652344 L 90.363281 37.652344 L 92.582031 51.792969 L 94.476562 37.652344 L 97.371094 37.652344 L 94.160156 58.195312 L 91.179688 58.195312 L 88.980469 44.347656 L 86.820312 58.195312 L 83.839844 58.195312 Z M 80.601562 37.652344 " fill-opacity="1" fill-rule="nonzero"/><path fill="#b8bcd3" d="M 101.90625 37.652344 L 109.476562 37.652344 L 109.476562 40.367188 L 104.800781 40.367188 L 104.800781 46.453125 L 108.980469 46.453125 L 108.980469 49.164062 L 104.800781 49.164062 L 104.800781 55.394531 L 109.5625 55.394531 L 109.5625 58.109375 L 101.90625 58.109375 Z M 101.90625 37.652344 " fill-opacity="1" fill-rule="nonzero"/><path fill="#b8bcd3" d="M 113.953125 57.347656 L 113.953125 54.367188 C 114.925781 55.085938 116.015625 55.488281 117.226562 55.566406 C 117.535156 55.585938 117.835938 55.539062 118.121094 55.425781 C 118.410156 55.316406 118.660156 55.148438 118.875 54.925781 C 119.089844 54.703125 119.246094 54.445312 119.347656 54.152344 C 119.445312 53.859375 119.480469 53.558594 119.445312 53.25 C 119.445312 52.300781 119.121094 51.300781 117.226562 49.042969 C 114.644531 46.03125 113.769531 44.691406 113.769531 42.472656 C 113.75 42.148438 113.765625 41.828125 113.8125 41.507812 C 113.859375 41.1875 113.9375 40.875 114.046875 40.570312 C 114.160156 40.269531 114.300781 39.980469 114.472656 39.707031 C 114.640625 39.429688 114.839844 39.175781 115.0625 38.945312 C 115.285156 38.710938 115.53125 38.503906 115.800781 38.320312 C 116.066406 38.136719 116.347656 37.984375 116.648438 37.859375 C 116.945312 37.734375 117.253906 37.640625 117.570312 37.582031 C 117.886719 37.519531 118.207031 37.492188 118.53125 37.5 C 119.617188 37.480469 120.640625 37.726562 121.597656 38.234375 L 121.597656 41.214844 C 120.746094 40.597656 119.792969 40.261719 118.742188 40.214844 C 118.453125 40.203125 118.175781 40.253906 117.910156 40.359375 C 117.640625 40.46875 117.40625 40.625 117.207031 40.832031 C 117.007812 41.039062 116.855469 41.277344 116.757812 41.546875 C 116.65625 41.820312 116.617188 42.097656 116.636719 42.386719 C 116.636719 43.433594 117.019531 44.195312 118.894531 46.414062 C 121.609375 49.632812 122.3125 51.0625 122.3125 53.25 C 122.332031 53.574219 122.316406 53.898438 122.269531 54.21875 C 122.222656 54.539062 122.140625 54.851562 122.03125 55.15625 C 121.917969 55.460938 121.777344 55.75 121.605469 56.027344 C 121.4375 56.300781 121.238281 56.558594 121.015625 56.792969 C 120.792969 57.027344 120.546875 57.238281 120.28125 57.421875 C 120.015625 57.609375 119.734375 57.765625 119.4375 57.894531 C 119.140625 58.019531 118.832031 58.117188 118.515625 58.183594 C 118.195312 58.246094 117.875 58.28125 117.550781 58.28125 C 116.273438 58.273438 115.074219 57.957031 113.960938 57.328125 " fill-opacity="1" fill-rule="nonzero"/><path fill="#b8bcd3" d="M 128.4375 40.367188 L 125.664062 40.367188 L 125.664062 37.652344 L 134.082031 37.652344 L 134.082031 40.367188 L 131.300781 40.367188 L 131.300781 58.109375 L 128.4375 58.109375 Z M 128.4375 40.367188 " fill-opacity="1" fill-rule="nonzero"/><path fill="#b8bcd3" d="M 146.265625 37.652344 L 153.480469 37.652344 L 153.480469 40.367188 L 149.160156 40.367188 L 149.160156 46.566406 L 152.988281 46.566406 L 152.988281 49.308594 L 149.160156 49.308594 L 149.160156 58.109375 L 146.265625 58.109375 Z M 146.265625 37.652344 " fill-opacity="1" fill-rule="nonzero"/><path fill="#b8bcd3" d="M 158.226562 37.652344 L 161.121094 37.652344 L 161.121094 55.394531 L 165.292969 55.394531 L 165.292969 58.109375 L 158.226562 58.109375 Z M 158.226562 37.652344 " fill-opacity="1" fill-rule="nonzero"/><path fill="#b8bcd3" d="M 176.222656 48.316406 L 176.222656 47.421875 C 176.222656 41.957031 175.273438 39.996094 173.890625 39.996094 C 172.511719 39.996094 171.546875 41.957031 171.546875 47.421875 L 171.546875 48.300781 C 171.546875 53.757812 172.5 55.71875 173.890625 55.71875 C 175.28125 55.71875 176.222656 53.757812 176.222656 48.300781 M 168.605469 48.300781 L 168.605469 47.421875 C 168.605469 40.671875 170.765625 37.367188 173.871094 37.367188 C 176.976562 37.367188 179.128906 40.671875 179.128906 47.421875 L 179.128906 48.300781 C 179.128906 55.050781 176.964844 58.347656 173.871094 58.347656 C 170.777344 58.347656 168.625 55.042969 168.625 48.316406 " fill-opacity="1" fill-rule="nonzero"/><path fill="#b8bcd3" d="M 187.507812 48.050781 C 189.414062 48.050781 190.746094 46.878906 190.746094 44.242188 L 190.746094 44.070312 C 190.746094 41.214844 189.347656 40.328125 187.414062 40.328125 L 187.003906 40.328125 L 187.003906 48.042969 Z M 184.117188 37.644531 L 187.453125 37.644531 C 188.28125 37.597656 189.089844 37.714844 189.875 37.992188 C 190.660156 38.273438 191.359375 38.691406 191.976562 39.253906 C 192.5625 39.902344 193 40.640625 193.289062 41.464844 C 193.578125 42.289062 193.695312 43.140625 193.640625 44.015625 L 193.640625 44.222656 C 193.679688 44.761719 193.644531 45.292969 193.539062 45.820312 C 193.433594 46.347656 193.261719 46.851562 193.019531 47.332031 C 192.78125 47.8125 192.480469 48.253906 192.117188 48.652344 C 191.757812 49.054688 191.351562 49.398438 190.898438 49.691406 L 193.996094 58.109375 L 190.898438 58.109375 L 188.148438 50.621094 L 187.003906 50.621094 L 187.003906 58.078125 L 184.148438 58.078125 Z M 184.117188 37.644531 " fill-opacity="1" fill-rule="nonzero"/><path fill="#b8bcd3" d="M 198.671875 37.652344 L 201.535156 37.652344 L 201.535156 58.109375 L 198.671875 58.109375 Z M 198.671875 37.652344 " fill-opacity="1" fill-rule="nonzero"/><path fill="#b8bcd3" d="M 209.925781 40.28125 L 209.925781 55.519531 L 210.363281 55.519531 C 212.46875 55.519531 214.175781 53.554688 214.175781 48.234375 L 214.175781 47.59375 C 214.175781 42.269531 212.480469 40.320312 210.363281 40.320312 Z M 207.070312 37.644531 L 210.136719 37.644531 C 214.460938 37.644531 217.089844 40.976562 217.089844 47.554688 L 217.089844 48.195312 C 217.089844 54.773438 214.460938 58.109375 210.136719 58.109375 L 207.070312 58.109375 Z M 207.070312 37.644531 " fill-opacity="1" fill-rule="nonzero"/><path fill="#b8bcd3" d="M 227.628906 50.945312 L 226.144531 42.738281 L 224.648438 50.945312 Z M 224.648438 37.613281 L 227.746094 37.613281 L 231.8125 58.136719 L 228.886719 58.136719 L 228.070312 53.574219 L 224.210938 53.574219 L 223.394531 58.136719 L 220.582031 58.136719 Z M 224.648438 37.613281 " fill-opacity="1" fill-rule="nonzero"/><path fill="#b8bcd3" d="M 80.621094 22.378906 L 80.621094 7.683594 L 83.476562 7.683594 L 83.476562 22.664062 C 83.476562 24.765625 84.296875 25.730469 85.496094 25.730469 C 86.695312 25.730469 87.476562 24.777344 87.476562 22.664062 L 87.476562 7.683594 L 90.332031 7.683594 L 90.332031 22.378906 C 90.332031 26.414062 88.285156 28.40625 85.457031 28.40625 C 82.628906 28.40625 80.542969 26.414062 80.542969 22.378906 " fill-opacity="1" fill-rule="nonzero"/><path fill="#b8bcd3" d="M 95.695312 7.683594 L 98.449219 7.683594 L 102.914062 20.253906 L 102.914062 7.683594 L 105.695312 7.683594 L 105.695312 28.136719 L 103.125 28.136719 L 98.476562 15.109375 L 98.476562 28.136719 L 95.695312 28.136719 Z M 95.695312 7.683594 " fill-opacity="1" fill-rule="nonzero"/><path fill="#b8bcd3" d="M 111.191406 7.683594 L 114.054688 7.683594 L 114.054688 28.136719 L 111.191406 28.136719 Z M 111.191406 7.683594 " fill-opacity="1" fill-rule="nonzero"/><path fill="#b8bcd3" d="M 118.578125 7.683594 L 121.53125 7.683594 L 123.960938 22.472656 L 126.386719 7.683594 L 129.226562 7.683594 L 125.390625 28.234375 L 122.40625 28.234375 Z M 118.578125 7.683594 " fill-opacity="1" fill-rule="nonzero"/><path fill="#b8bcd3" d="M 133.636719 7.683594 L 141.207031 7.683594 L 141.207031 10.40625 L 136.53125 10.40625 L 136.53125 16.480469 L 140.710938 16.480469 L 140.710938 19.195312 L 136.53125 19.195312 L 136.53125 25.425781 L 141.292969 25.425781 L 141.292969 28.136719 L 133.636719 28.136719 Z M 133.636719 7.683594 " fill-opacity="1" fill-rule="nonzero"/><path fill="#b8bcd3" d="M 149.566406 18.082031 C 151.472656 18.082031 152.816406 16.921875 152.816406 14.273438 L 152.816406 14.089844 C 152.816406 11.28125 151.40625 10.347656 149.484375 10.347656 L 149.074219 10.347656 L 149.074219 18.0625 Z M 146.179688 7.683594 L 149.511719 7.683594 C 150.34375 7.640625 151.15625 7.761719 151.941406 8.046875 C 152.722656 8.335938 153.421875 8.761719 154.035156 9.332031 C 154.621094 9.980469 155.058594 10.714844 155.347656 11.542969 C 155.636719 12.367188 155.753906 13.21875 155.703125 14.089844 L 155.703125 14.292969 C 155.742188 14.828125 155.707031 15.359375 155.601562 15.890625 C 155.5 16.417969 155.324219 16.921875 155.085938 17.402344 C 154.84375 17.882812 154.542969 18.324219 154.179688 18.726562 C 153.820312 19.125 153.414062 19.46875 152.957031 19.757812 L 156.054688 28.175781 L 152.957031 28.175781 L 150.207031 20.691406 C 150.09375 20.691406 149.949219 20.691406 149.835938 20.691406 L 149.074219 20.691406 L 149.074219 28.136719 L 146.214844 28.136719 Z M 146.179688 7.683594 " fill-opacity="1" fill-rule="nonzero"/><path fill="#b8bcd3" d="M 160.121094 27.425781 L 160.121094 24.394531 C 161.09375 25.117188 162.1875 25.519531 163.394531 25.597656 C 163.703125 25.617188 164 25.570312 164.289062 25.457031 C 164.574219 25.347656 164.828125 25.179688 165.039062 24.957031 C 165.253906 24.734375 165.410156 24.480469 165.511719 24.1875 C 165.613281 23.898438 165.644531 23.597656 165.613281 23.292969 C 165.613281 22.339844 165.292969 21.328125 163.394531 19.082031 C 160.824219 16.074219 159.9375 14.71875 159.9375 12.5 C 159.917969 12.179688 159.933594 11.855469 159.980469 11.539062 C 160.027344 11.21875 160.105469 10.90625 160.214844 10.601562 C 160.328125 10.296875 160.46875 10.011719 160.640625 9.734375 C 160.8125 9.460938 161.007812 9.207031 161.230469 8.972656 C 161.457031 8.742188 161.699219 8.53125 161.96875 8.347656 C 162.234375 8.167969 162.515625 8.011719 162.816406 7.890625 C 163.113281 7.765625 163.421875 7.671875 163.738281 7.613281 C 164.058594 7.550781 164.378906 7.523438 164.699219 7.53125 C 165.785156 7.511719 166.808594 7.757812 167.765625 8.261719 L 167.765625 11.234375 C 166.90625 10.636719 165.957031 10.320312 164.910156 10.28125 C 164.625 10.273438 164.347656 10.320312 164.078125 10.429688 C 163.8125 10.535156 163.578125 10.691406 163.378906 10.898438 C 163.179688 11.101562 163.027344 11.339844 162.929688 11.609375 C 162.828125 11.878906 162.789062 12.15625 162.804688 12.445312 C 162.804688 13.492188 163.1875 14.253906 165.0625 16.472656 C 167.777344 19.691406 168.480469 21.121094 168.480469 23.308594 C 168.5 23.632812 168.484375 23.957031 168.433594 24.277344 C 168.386719 24.59375 168.308594 24.90625 168.195312 25.210938 C 168.082031 25.515625 167.941406 25.804688 167.773438 26.078125 C 167.601562 26.355469 167.402344 26.609375 167.179688 26.84375 C 166.957031 27.078125 166.714844 27.289062 166.449219 27.476562 C 166.183594 27.660156 165.902344 27.816406 165.601562 27.945312 C 165.304688 28.070312 165 28.167969 164.679688 28.230469 C 164.363281 28.296875 164.042969 28.328125 163.71875 28.328125 C 162.441406 28.328125 161.242188 28.007812 160.128906 27.375 " fill-opacity="1" fill-rule="nonzero"/><path fill="#b8bcd3" d="M 173.203125 7.683594 L 176.070312 7.683594 L 176.070312 28.136719 L 173.203125 28.136719 Z M 173.203125 7.683594 " fill-opacity="1" fill-rule="nonzero"/><path fill="#b8bcd3" d="M 183.527344 10.40625 L 180.746094 10.40625 L 180.746094 7.683594 L 189.167969 7.683594 L 189.167969 10.40625 L 186.394531 10.40625 L 186.394531 28.136719 L 183.527344 28.136719 Z M 183.527344 10.40625 " fill-opacity="1" fill-rule="nonzero"/><path fill="#b8bcd3" d="M 196.214844 19.84375 L 192.261719 7.683594 L 195.269531 7.683594 L 197.699219 16.042969 L 200.128906 7.683594 L 203.050781 7.683594 L 199.097656 19.84375 L 199.097656 28.136719 L 196.214844 28.136719 Z M 196.214844 19.84375 " fill-opacity="1" fill-rule="nonzero"/><path fill="#b8bcd3" d="M 214.601562 21.566406 C 215.75 19.765625 216.445312 17.804688 216.6875 15.683594 C 216.6875 15.007812 216.59375 14.339844 215.898438 14.339844 C 215.449219 14.339844 214.945312 14.617188 214.277344 15.433594 C 212.894531 17.304688 212.078125 19.398438 211.820312 21.710938 C 211.820312 22.460938 212.144531 23.003906 212.71875 23.003906 C 213.289062 23.003906 213.859375 22.605469 214.621094 21.539062 M 212.164062 15.082031 C 212.664062 14.558594 213.242188 14.15625 213.902344 13.867188 C 214.5625 13.578125 215.253906 13.425781 215.972656 13.414062 C 218.183594 13.414062 219.050781 14.929688 219.03125 16.796875 C 218.976562 17.816406 218.742188 18.789062 218.320312 19.722656 C 217.898438 20.652344 217.324219 21.472656 216.59375 22.1875 C 216.085938 22.730469 215.492188 23.152344 214.808594 23.453125 C 214.128906 23.75 213.414062 23.898438 212.667969 23.902344 C 212.457031 23.914062 212.242188 23.902344 212.03125 23.871094 C 211.820312 23.835938 211.617188 23.78125 211.417969 23.703125 C 211.21875 23.625 211.03125 23.527344 210.851562 23.40625 C 210.675781 23.285156 210.511719 23.148438 210.367188 22.992188 C 210.21875 22.839844 210.089844 22.667969 209.980469 22.484375 C 209.871094 22.300781 209.78125 22.109375 209.714844 21.90625 C 209.644531 21.703125 209.601562 21.496094 209.578125 21.28125 C 209.558594 21.070312 209.558594 20.855469 209.582031 20.644531 C 209.664062 19.589844 209.933594 18.582031 210.382812 17.625 C 210.832031 16.667969 211.433594 15.820312 212.191406 15.082031 " fill-opacity="1" fill-rule="nonzero"/><path fill="#b8bcd3" d="M 227.070312 14.882812 C 226.222656 17.367188 225.164062 21.890625 224.355469 24.328125 C 223.992188 25.871094 223.339844 27.277344 222.394531 28.546875 C 221.460938 29.582031 220.304688 30.152344 218.917969 30.261719 C 217.527344 30.261719 216.632812 29.472656 216.632812 28.59375 C 216.65625 28.257812 216.789062 27.96875 217.023438 27.726562 C 217.257812 27.484375 217.542969 27.347656 217.878906 27.308594 C 218.238281 27.308594 218.484375 27.472656 218.621094 27.804688 C 219.117188 28.671875 219.660156 29.167969 220.089844 29.167969 C 220.515625 29.167969 220.800781 28.777344 221.308594 27.0625 C 222.144531 24.082031 223.335938 19.253906 224.582031 14.882812 L 222.375 14.882812 C 222.261719 14.691406 222.238281 14.488281 222.292969 14.277344 C 222.351562 14.066406 222.476562 13.90625 222.667969 13.796875 L 224.878906 13.796875 C 225.328125 11.988281 226.042969 10.289062 227.019531 8.703125 C 228.257812 6.882812 229.820312 5.84375 231.640625 5.84375 C 231.921875 5.8125 232.203125 5.835938 232.476562 5.914062 C 232.75 5.996094 232.996094 6.125 233.21875 6.304688 C 233.441406 6.484375 233.617188 6.699219 233.753906 6.949219 C 233.890625 7.199219 233.972656 7.464844 234 7.75 C 233.972656 8.121094 233.828125 8.441406 233.570312 8.710938 C 233.308594 8.976562 232.992188 9.128906 232.621094 9.167969 C 232.269531 9.167969 232.117188 9.023438 232.066406 8.671875 C 231.867188 7.234375 231.277344 6.710938 230.726562 6.710938 C 230.355469 6.710938 229.886719 7.035156 229.238281 8.332031 C 228.4375 10.09375 227.804688 11.917969 227.335938 13.796875 L 230.296875 13.796875 C 230.398438 13.988281 230.421875 14.191406 230.359375 14.398438 C 230.300781 14.609375 230.179688 14.769531 229.992188 14.882812 Z M 227.070312 14.882812 " fill-opacity="1" fill-rule="nonzero"/><path fill="#b8bcd3" d="M 16.726562 57.183594 L 30.671875 48.082031 C 30.882812 47.917969 30.9375 47.710938 30.839844 47.460938 C 30.738281 47.210938 30.554688 47.101562 30.289062 47.128906 L 13.328125 50.097656 C 13.226562 50.117188 13.132812 50.160156 13.046875 50.222656 C 12.960938 50.28125 12.894531 50.359375 12.84375 50.453125 C 12.792969 50.542969 12.761719 50.644531 12.757812 50.746094 C 12.75 50.851562 12.765625 50.953125 12.804688 51.050781 C 13.605469 53.109375 14.59375 55.074219 15.765625 56.945312 C 15.867188 57.113281 16.007812 57.21875 16.199219 57.265625 C 16.386719 57.3125 16.5625 57.285156 16.726562 57.183594 Z M 16.726562 57.183594 " fill-opacity="1" fill-rule="nonzero"/><path fill="#b8bcd3" d="M 41.925781 20.757812 L 37.164062 3.082031 C 36.925781 2.179688 36.347656 1.988281 35.449219 2.273438 C 33.75 2.824219 32.089844 3.476562 30.46875 4.234375 C 29.519531 4.664062 29.042969 5.378906 29.613281 6.207031 L 41.363281 20.988281 C 41.460938 21.113281 41.585938 21.148438 41.734375 21.085938 C 41.882812 21.027344 41.945312 20.917969 41.925781 20.757812 Z M 41.925781 20.757812 " fill-opacity="1" fill-rule="nonzero"/><path fill="#b8bcd3" d="M 37.128906 26.578125 L 25.011719 11.074219 C 24.355469 10.246094 23.546875 9.691406 22.785156 10.425781 C 21.613281 11.550781 19.691406 13.480469 18.640625 14.757812 C 17.945312 15.605469 18.558594 16.664062 19.5 17.1875 L 36.640625 27.070312 C 36.710938 27.140625 36.792969 27.171875 36.886719 27.171875 C 36.984375 27.171875 37.066406 27.136719 37.132812 27.066406 C 37.199219 27 37.230469 26.917969 37.230469 26.820312 C 37.230469 26.726562 37.195312 26.644531 37.128906 26.578125 Z M 37.128906 26.578125 " fill-opacity="1" fill-rule="nonzero"/><g clip-path="url(#b31c100fee)"><path fill="#b8bcd3" d="M 41.765625 1.195312 L 46.414062 14.40625 C 46.429688 14.492188 46.472656 14.558594 46.542969 14.609375 C 46.613281 14.65625 46.695312 14.675781 46.777344 14.660156 C 46.863281 14.640625 46.933594 14.597656 46.980469 14.527344 C 47.03125 14.457031 47.046875 14.378906 47.03125 14.292969 L 47.230469 0.550781 C 47.234375 0.417969 47.191406 0.308594 47.097656 0.214844 C 47.007812 0.121094 46.894531 0.0742188 46.765625 0.0742188 C 45.203125 0.117188 43.652344 0.277344 42.117188 0.558594 C 41.972656 0.585938 41.863281 0.667969 41.792969 0.796875 C 41.722656 0.925781 41.710938 1.058594 41.765625 1.195312 Z M 41.765625 1.195312 " fill-opacity="1" fill-rule="nonzero"/></g><path fill="#b8bcd3" d="M 31.679688 40.136719 L 11.929688 36.421875 C 11.734375 36.386719 11.542969 36.394531 11.351562 36.441406 C 11.160156 36.488281 10.988281 36.574219 10.832031 36.699219 C 10.679688 36.824219 10.558594 36.972656 10.46875 37.148438 C 10.382812 37.324219 10.335938 37.511719 10.328125 37.710938 C 10.246094 39.519531 10.3125 41.320312 10.527344 43.117188 C 10.546875 43.304688 10.601562 43.480469 10.691406 43.644531 C 10.785156 43.804688 10.90625 43.945312 11.054688 44.058594 C 11.203125 44.171875 11.367188 44.25 11.550781 44.292969 C 11.734375 44.335938 11.914062 44.339844 12.101562 44.308594 L 31.679688 40.957031 C 31.898438 40.910156 32.011719 40.773438 32.011719 40.546875 C 32.011719 40.320312 31.898438 40.1875 31.679688 40.136719 Z M 31.679688 40.136719 " fill-opacity="1" fill-rule="nonzero"/><path fill="#b8bcd3" d="M 33.433594 33.578125 L 15.566406 22.664062 C 15.417969 22.574219 15.257812 22.519531 15.085938 22.5 C 14.914062 22.480469 14.746094 22.496094 14.582031 22.546875 C 14.417969 22.597656 14.269531 22.679688 14.140625 22.792969 C 14.007812 22.90625 13.90625 23.039062 13.832031 23.195312 C 12.996094 24.960938 12.300781 26.78125 11.738281 28.652344 C 11.683594 28.839844 11.667969 29.027344 11.695312 29.222656 C 11.722656 29.414062 11.785156 29.59375 11.886719 29.761719 C 11.988281 29.925781 12.117188 30.0625 12.277344 30.175781 C 12.4375 30.285156 12.613281 30.359375 12.804688 30.394531 L 33.203125 34.203125 C 33.382812 34.226562 33.507812 34.152344 33.570312 33.980469 C 33.632812 33.808594 33.585938 33.675781 33.433594 33.578125 Z M 33.433594 33.578125 " fill-opacity="1" fill-rule="nonzero"/><g clip-path="url(#b171eb36f5)"><path fill="#b8bcd3" d="M 45.574219 30.757812 C 37.441406 32.796875 33.898438 41.003906 35.613281 46.472656 C 35.746094 46.941406 35.921875 47.402344 36.128906 47.84375 C 36.339844 48.289062 36.585938 48.714844 36.863281 49.117188 C 37.144531 49.523438 37.453125 49.898438 37.792969 50.253906 C 38.136719 50.605469 38.503906 50.929688 38.898438 51.222656 C 39.292969 51.515625 39.707031 51.777344 40.144531 52 C 40.578125 52.226562 41.03125 52.414062 41.5 52.566406 C 41.964844 52.71875 42.441406 52.828125 42.929688 52.902344 C 43.414062 52.976562 43.902344 53.011719 44.394531 53.003906 C 46.992188 53.003906 49.820312 51.300781 50.25 48.519531 C 50.714844 45.460938 48.34375 42.976562 46.15625 43.089844 C 45.8125 43.097656 45.484375 43.164062 45.164062 43.289062 C 44.847656 43.417969 44.5625 43.59375 44.304688 43.824219 C 44.050781 44.050781 43.84375 44.316406 43.6875 44.621094 C 43.527344 44.925781 43.425781 45.246094 43.382812 45.585938 C 43.367188 45.757812 43.386719 45.925781 43.4375 46.089844 C 43.488281 46.253906 43.566406 46.402344 43.675781 46.539062 C 43.785156 46.671875 43.914062 46.78125 44.0625 46.863281 C 44.214844 46.949219 44.375 47 44.546875 47.023438 C 44.761719 47.027344 44.949219 46.960938 45.109375 46.820312 C 45.273438 46.679688 45.367188 46.503906 45.394531 46.289062 C 45.394531 46.15625 45.59375 46.175781 45.648438 46.289062 C 45.773438 46.589844 45.78125 46.890625 45.671875 47.195312 C 45.566406 47.5 45.371094 47.734375 45.089844 47.890625 C 43.839844 48.527344 41.964844 47.175781 41.945312 45.421875 C 41.957031 45.128906 41.996094 44.839844 42.0625 44.554688 C 42.132812 44.269531 42.226562 43.992188 42.347656 43.726562 C 42.472656 43.460938 42.621094 43.207031 42.792969 42.972656 C 42.964844 42.734375 43.160156 42.515625 43.375 42.316406 C 43.59375 42.117188 43.828125 41.945312 44.078125 41.792969 C 44.328125 41.640625 44.59375 41.515625 44.867188 41.414062 C 45.144531 41.316406 45.425781 41.242188 45.71875 41.199219 C 46.007812 41.15625 46.300781 41.140625 46.59375 41.15625 C 49.9375 41.15625 52.648438 44.234375 52.90625 47.824219 C 53.136719 51.03125 50.640625 54.621094 46.765625 55.765625 C 43.25 56.792969 38.566406 55.632812 34.859375 52.621094 C 34.625 52.421875 34.359375 52.265625 34.070312 52.15625 C 33.777344 52.042969 33.476562 51.984375 33.167969 51.976562 C 32.855469 51.96875 32.550781 52.011719 32.257812 52.109375 C 31.960938 52.207031 31.6875 52.347656 31.441406 52.539062 L 19.300781 61.8125 C 19.238281 61.863281 19.210938 61.929688 19.210938 62.007812 C 19.210938 62.085938 19.238281 62.152344 19.300781 62.203125 C 20.789062 63.742188 22.417969 65.121094 24.183594 66.332031 C 25.949219 67.542969 27.820312 68.566406 29.792969 69.402344 C 31.769531 70.234375 33.804688 70.863281 35.90625 71.289062 C 38.003906 71.710938 40.128906 71.921875 42.269531 71.917969 L 43.222656 71.917969 C 56.324219 71.191406 68.269531 60.488281 66.667969 46.738281 C 65.410156 36.710938 56.679688 27.96875 45.574219 30.757812 Z M 45.574219 30.757812 " fill-opacity="1" fill-rule="nonzero"/></g></svg>