<svg xmlns="http://www.w3.org/2000/svg" xmlns:xlink="http://www.w3.org/1999/xlink" width="288" zoomAndPan="magnify" viewBox="0 0 216 72" height="96" preserveAspectRatio="xMidYMid meet" version="1.0"><defs><clipPath id="ffb7cf5175"><path d="M 0 1.636719 L 65 1.636719 L 65 70.636719 L 0 70.636719 Z M 0 1.636719 " clip-rule="nonzero"/></clipPath></defs><path fill="#b8bcd3" d="M 79.269531 10.753906 C 79.457031 10.816406 79.578125 11 79.703125 11.1875 C 79.765625 11.375 79.828125 11.621094 79.828125 11.992188 L 79.828125 22.785156 C 79.828125 24.273438 80.136719 25.515625 80.695312 26.507812 C 81.253906 27.5 82.058594 28.304688 83.113281 28.800781 C 84.167969 29.296875 85.40625 29.546875 86.832031 29.546875 C 88.382812 29.546875 89.683594 29.234375 90.738281 28.675781 C 91.726562 28.117188 92.472656 27.3125 92.96875 26.320312 C 93.464844 25.328125 93.648438 24.148438 93.648438 22.785156 L 93.648438 11.992188 C 93.648438 11.683594 93.710938 11.375 93.773438 11.1875 C 93.898438 11 94.023438 10.878906 94.207031 10.753906 C 94.394531 10.691406 94.640625 10.628906 94.953125 10.628906 L 96.128906 10.566406 L 96.128906 9.015625 L 89.125 9.015625 L 89.125 10.566406 L 90.550781 10.628906 C 90.859375 10.628906 91.171875 10.691406 91.355469 10.753906 C 91.542969 10.816406 91.667969 11 91.789062 11.1875 C 91.914062 11.375 91.914062 11.621094 91.914062 11.992188 L 91.914062 22.722656 C 91.914062 23.902344 91.726562 24.832031 91.355469 25.578125 C 90.984375 26.320312 90.425781 26.878906 89.808594 27.25 C 89.125 27.621094 88.320312 27.808594 87.390625 27.808594 C 86.398438 27.808594 85.53125 27.621094 84.910156 27.1875 C 84.289062 26.753906 83.792969 26.195312 83.484375 25.515625 C 83.175781 24.769531 83.050781 23.902344 83.050781 22.847656 L 83.050781 11.992188 C 83.050781 11.683594 83.113281 11.375 83.175781 11.1875 C 83.296875 11 83.421875 10.878906 83.609375 10.753906 C 83.792969 10.691406 84.042969 10.628906 84.414062 10.628906 L 85.589844 10.566406 L 85.589844 9.015625 L 77.347656 9.015625 L 77.347656 10.566406 L 78.523438 10.628906 C 78.835938 10.628906 79.082031 10.691406 79.269531 10.753906 Z M 79.269531 10.753906 " fill-opacity="1" fill-rule="nonzero"/><path fill="#b8bcd3" d="M 107.039062 27.066406 C 106.914062 27.25 106.789062 27.375 106.605469 27.5 C 106.417969 27.5625 106.171875 27.625 105.859375 27.683594 L 105.304688 27.683594 L 105.304688 29.050781 L 112.433594 29.050781 L 112.433594 27.683594 L 111.6875 27.683594 C 111.316406 27.683594 111.066406 27.625 110.882812 27.5 C 110.695312 27.375 110.511719 27.25 110.449219 27.066406 C 110.324219 26.878906 110.324219 26.570312 110.324219 26.195312 L 110.324219 18.132812 C 110.324219 17.140625 110.136719 16.335938 109.828125 15.714844 C 109.519531 15.09375 109.085938 14.597656 108.464844 14.289062 C 107.90625 13.980469 107.226562 13.855469 106.417969 13.855469 C 105.488281 13.855469 104.558594 14.039062 103.753906 14.476562 C 102.949219 14.910156 102.203125 15.527344 101.523438 16.335938 L 101.523438 13.855469 L 96.625 15.09375 L 96.625 16.398438 L 97.308594 16.460938 C 97.617188 16.523438 97.863281 16.582031 98.113281 16.644531 C 98.296875 16.769531 98.484375 16.894531 98.609375 17.078125 C 98.734375 17.265625 98.734375 17.574219 98.734375 17.886719 L 98.734375 26.195312 C 98.734375 26.570312 98.671875 26.878906 98.609375 27.066406 C 98.484375 27.25 98.359375 27.4375 98.175781 27.5 C 97.988281 27.5625 97.679688 27.625 97.367188 27.625 L 96.5 27.625 L 96.5 28.988281 L 103.753906 28.988281 L 103.753906 27.683594 L 103.195312 27.683594 C 102.886719 27.683594 102.636719 27.625 102.453125 27.5 C 102.265625 27.375 102.078125 27.25 102.019531 27.066406 C 101.894531 26.878906 101.894531 26.570312 101.894531 26.195312 L 101.894531 17.328125 C 102.328125 16.894531 102.824219 16.523438 103.320312 16.273438 C 103.816406 16.023438 104.375 15.902344 104.929688 15.902344 C 105.488281 15.902344 105.921875 16.023438 106.296875 16.273438 C 106.667969 16.523438 106.914062 16.832031 107.101562 17.265625 C 107.285156 17.699219 107.347656 18.257812 107.347656 18.878906 L 107.347656 26.132812 C 107.164062 26.570312 107.164062 26.878906 107.039062 27.066406 Z M 107.039062 27.066406 " fill-opacity="1" fill-rule="nonzero"/><path fill="#b8bcd3" d="M 116.460938 10.441406 C 116.769531 10.628906 117.144531 10.691406 117.578125 10.691406 C 118.011719 10.691406 118.382812 10.628906 118.691406 10.441406 C 119.003906 10.257812 119.25 10.070312 119.4375 9.761719 C 119.621094 9.449219 119.683594 9.078125 119.683594 8.707031 C 119.683594 8.335938 119.621094 7.960938 119.4375 7.652344 C 119.25 7.34375 119.003906 7.09375 118.691406 6.96875 C 118.382812 6.785156 118.011719 6.722656 117.578125 6.722656 C 117.144531 6.722656 116.769531 6.785156 116.460938 6.96875 C 116.152344 7.15625 115.839844 7.40625 115.65625 7.714844 C 115.46875 8.023438 115.40625 8.335938 115.40625 8.769531 C 115.40625 9.140625 115.46875 9.511719 115.65625 9.824219 C 115.839844 10.007812 116.089844 10.257812 116.460938 10.441406 Z M 116.460938 10.441406 " fill-opacity="1" fill-rule="nonzero"/><path fill="#b8bcd3" d="M 121.605469 27.683594 L 120.738281 27.683594 C 120.367188 27.683594 120.117188 27.621094 119.933594 27.5 C 119.746094 27.375 119.558594 27.25 119.5 27.066406 C 119.375 26.878906 119.375 26.570312 119.375 26.195312 L 119.375 13.792969 L 114.167969 15.09375 L 114.167969 16.398438 L 114.847656 16.460938 C 115.160156 16.519531 115.40625 16.582031 115.65625 16.644531 C 115.839844 16.707031 116.027344 16.894531 116.152344 17.078125 C 116.273438 17.265625 116.273438 17.574219 116.273438 17.886719 L 116.273438 26.195312 C 116.273438 26.570312 116.214844 26.878906 116.152344 27.066406 C 116.027344 27.25 115.902344 27.4375 115.71875 27.5 C 115.53125 27.5625 115.222656 27.621094 114.910156 27.621094 L 114.042969 27.621094 L 114.042969 28.988281 L 121.667969 28.988281 L 121.667969 27.683594 Z M 121.605469 27.683594 " fill-opacity="1" fill-rule="nonzero"/><path fill="#b8bcd3" d="M 123.15625 16.210938 C 123.28125 16.460938 123.464844 16.769531 123.652344 17.203125 L 128.488281 29.050781 L 129.910156 29.050781 L 134.5625 17.511719 C 134.808594 16.957031 134.996094 16.519531 135.179688 16.273438 C 135.367188 16.023438 135.554688 15.839844 135.800781 15.714844 C 136.046875 15.589844 136.421875 15.527344 136.855469 15.46875 L 136.855469 14.101562 L 131.214844 14.101562 L 131.214844 15.46875 L 132.144531 15.527344 C 132.515625 15.527344 132.824219 15.652344 133.011719 15.777344 C 133.199219 15.902344 133.257812 16.085938 133.320312 16.335938 C 133.382812 16.582031 133.257812 16.894531 133.074219 17.265625 L 130.097656 25.265625 L 127.121094 17.203125 C 126.9375 16.832031 126.875 16.519531 126.9375 16.273438 C 127 16.023438 127.0625 15.839844 127.246094 15.714844 C 127.433594 15.589844 127.617188 15.527344 127.929688 15.527344 L 128.734375 15.46875 L 128.734375 14.101562 L 121.792969 14.101562 L 121.792969 15.46875 C 122.226562 15.46875 122.535156 15.589844 122.785156 15.714844 C 122.84375 15.839844 123.03125 16.023438 123.15625 16.210938 Z M 123.15625 16.210938 " fill-opacity="1" fill-rule="nonzero"/><path fill="#b8bcd3" d="M 139.890625 28.429688 C 140.820312 29.050781 141.9375 29.359375 143.238281 29.359375 C 144.292969 29.359375 145.160156 29.171875 145.90625 28.800781 C 146.648438 28.429688 147.269531 27.871094 147.703125 27.25 C 148.136719 26.570312 148.445312 25.761719 148.632812 24.894531 L 147.453125 24.523438 C 147.328125 25.019531 147.082031 25.453125 146.835938 25.886719 C 146.585938 26.257812 146.214844 26.570312 145.71875 26.753906 C 145.222656 26.941406 144.664062 27.066406 144.042969 27.066406 C 143.113281 27.066406 142.433594 26.816406 141.875 26.382812 C 141.378906 25.949219 140.945312 25.265625 140.757812 24.460938 C 140.511719 23.652344 140.449219 22.597656 140.449219 21.359375 L 148.816406 21.359375 C 148.816406 19.621094 148.632812 18.257812 148.320312 17.140625 C 147.949219 16.023438 147.390625 15.21875 146.648438 14.660156 C 145.90625 14.101562 144.851562 13.855469 143.609375 13.855469 C 142.183594 13.855469 140.945312 14.164062 140.015625 14.847656 C 139.085938 15.527344 138.34375 16.460938 137.910156 17.636719 C 137.472656 18.816406 137.226562 20.242188 137.226562 21.792969 C 137.226562 23.34375 137.472656 24.707031 137.910156 25.886719 C 138.34375 27.066406 138.960938 27.808594 139.890625 28.429688 Z M 141.628906 15.902344 C 142.0625 15.40625 142.558594 15.15625 143.300781 15.15625 C 143.921875 15.15625 144.355469 15.34375 144.664062 15.714844 C 144.976562 16.085938 145.222656 16.582031 145.347656 17.265625 C 145.46875 17.949219 145.53125 18.816406 145.53125 19.933594 L 140.511719 19.933594 C 140.574219 19.1875 140.636719 18.566406 140.757812 18.011719 C 140.882812 17.078125 141.195312 16.398438 141.628906 15.902344 Z M 141.628906 15.902344 " fill-opacity="1" fill-rule="nonzero"/><path fill="#b8bcd3" d="M 158.175781 27.683594 L 157.0625 27.683594 C 156.753906 27.683594 156.441406 27.625 156.257812 27.5 C 156.070312 27.4375 155.882812 27.25 155.824219 27.066406 C 155.699219 26.878906 155.699219 26.570312 155.699219 26.195312 L 155.699219 19.25 C 156.070312 18.507812 156.566406 18.011719 157.183594 17.636719 C 157.804688 17.265625 158.550781 17.078125 159.417969 17.078125 C 159.601562 17.078125 159.851562 17.078125 160.101562 17.078125 C 160.347656 17.078125 160.59375 17.140625 160.90625 17.203125 L 160.90625 14.039062 C 160.78125 14.039062 160.65625 13.980469 160.472656 13.980469 C 160.285156 13.980469 160.101562 13.980469 159.914062 13.980469 C 159.230469 13.980469 158.613281 14.164062 158.054688 14.535156 C 157.496094 14.910156 157 15.40625 156.566406 16.085938 C 156.132812 16.769531 155.761719 17.574219 155.449219 18.566406 L 155.449219 13.855469 L 150.554688 15.09375 L 150.554688 16.398438 L 151.234375 16.460938 C 151.546875 16.523438 151.792969 16.582031 152.042969 16.644531 C 152.226562 16.769531 152.414062 16.894531 152.535156 17.078125 C 152.660156 17.265625 152.660156 17.574219 152.660156 17.886719 L 152.660156 26.195312 C 152.660156 26.570312 152.597656 26.878906 152.535156 27.066406 C 152.414062 27.25 152.289062 27.4375 152.101562 27.5 C 151.917969 27.5625 151.605469 27.625 151.296875 27.625 L 150.429688 27.625 L 150.429688 28.988281 L 158.363281 28.988281 L 158.363281 27.683594 Z M 158.175781 27.683594 " fill-opacity="1" fill-rule="nonzero"/><path fill="#b8bcd3" d="M 164.253906 21.421875 C 164.75 21.730469 165.246094 22.042969 165.863281 22.289062 L 167.847656 23.09375 C 168.28125 23.28125 168.589844 23.46875 168.902344 23.652344 C 169.210938 23.839844 169.460938 24.085938 169.644531 24.460938 C 169.832031 24.832031 169.953125 25.203125 169.953125 25.761719 C 169.953125 26.195312 169.832031 26.628906 169.644531 27.003906 C 169.460938 27.375 169.210938 27.683594 168.902344 27.871094 C 168.589844 28.121094 168.15625 28.179688 167.660156 28.179688 C 167.105469 28.179688 166.546875 27.996094 166.113281 27.683594 C 165.617188 27.375 165.246094 26.878906 164.933594 26.257812 C 164.625 25.636719 164.4375 24.894531 164.375 24.027344 L 162.890625 24.027344 L 162.890625 28.179688 C 163.507812 28.554688 164.191406 28.863281 164.933594 29.113281 C 165.679688 29.359375 166.546875 29.484375 167.414062 29.484375 C 168.53125 29.484375 169.523438 29.296875 170.328125 28.863281 C 171.132812 28.429688 171.691406 27.933594 172.125 27.1875 C 172.558594 26.445312 172.683594 25.636719 172.683594 24.707031 C 172.683594 23.839844 172.496094 23.09375 172.1875 22.539062 C 171.878906 21.980469 171.503906 21.546875 171.070312 21.234375 C 170.636719 20.925781 170.140625 20.675781 169.523438 20.492188 L 167.597656 19.621094 C 167.105469 19.4375 166.734375 19.25 166.421875 19.0625 C 166.113281 18.878906 165.863281 18.628906 165.679688 18.320312 C 165.492188 18.011719 165.367188 17.636719 165.367188 17.140625 C 165.367188 16.769531 165.429688 16.398438 165.617188 16.085938 C 165.800781 15.777344 165.988281 15.527344 166.296875 15.40625 C 166.609375 15.21875 166.980469 15.15625 167.351562 15.15625 C 167.847656 15.15625 168.34375 15.28125 168.714844 15.589844 C 169.085938 15.902344 169.460938 16.335938 169.707031 16.832031 C 169.953125 17.328125 170.203125 18.011719 170.328125 18.691406 L 171.816406 18.691406 L 171.816406 15.15625 C 171.195312 14.722656 170.515625 14.414062 169.769531 14.164062 C 169.023438 13.917969 168.28125 13.792969 167.414062 13.792969 C 166.359375 13.792969 165.492188 13.980469 164.75 14.289062 C 164.003906 14.597656 163.445312 15.09375 163.074219 15.714844 C 162.703125 16.335938 162.515625 17.078125 162.515625 17.949219 C 162.515625 18.753906 162.703125 19.5 163.011719 20.054688 C 163.324219 20.613281 163.757812 21.109375 164.253906 21.421875 Z M 164.253906 21.421875 " fill-opacity="1" fill-rule="nonzero"/><path fill="#b8bcd3" d="M 177.085938 10.441406 C 177.394531 10.628906 177.765625 10.691406 178.199219 10.691406 C 178.632812 10.691406 179.003906 10.628906 179.316406 10.441406 C 179.625 10.257812 179.875 10.070312 180.058594 9.761719 C 180.246094 9.449219 180.308594 9.078125 180.308594 8.707031 C 180.308594 8.335938 180.246094 7.960938 180.058594 7.652344 C 179.875 7.34375 179.625 7.09375 179.316406 6.96875 C 179.003906 6.785156 178.632812 6.722656 178.199219 6.722656 C 177.765625 6.722656 177.394531 6.785156 177.085938 6.96875 C 176.773438 7.15625 176.464844 7.40625 176.277344 7.714844 C 176.09375 8.023438 176.03125 8.335938 176.03125 8.769531 C 176.03125 9.140625 176.09375 9.511719 176.277344 9.824219 C 176.464844 10.007812 176.773438 10.257812 177.085938 10.441406 Z M 177.085938 10.441406 " fill-opacity="1" fill-rule="nonzero"/><path fill="#b8bcd3" d="M 182.230469 27.683594 L 181.359375 27.683594 C 180.988281 27.683594 180.742188 27.621094 180.554688 27.5 C 180.367188 27.375 180.183594 27.25 180.121094 27.066406 C 179.996094 26.878906 179.996094 26.570312 179.996094 26.195312 L 179.996094 13.792969 L 174.789062 15.09375 L 174.789062 16.398438 L 175.472656 16.460938 C 175.78125 16.519531 176.03125 16.582031 176.277344 16.644531 C 176.464844 16.707031 176.648438 16.894531 176.773438 17.078125 C 176.898438 17.265625 176.898438 17.574219 176.898438 17.886719 L 176.898438 26.195312 C 176.898438 26.570312 176.835938 26.878906 176.773438 27.066406 C 176.648438 27.25 176.523438 27.4375 176.339844 27.5 C 176.152344 27.5625 175.84375 27.621094 175.535156 27.621094 L 174.667969 27.621094 L 174.667969 28.988281 L 182.292969 28.988281 L 182.292969 27.683594 Z M 182.230469 27.683594 " fill-opacity="1" fill-rule="nonzero"/><path fill="#b8bcd3" d="M 185.265625 25.824219 C 185.265625 26.628906 185.390625 27.25 185.699219 27.808594 C 186.011719 28.367188 186.382812 28.738281 186.878906 28.988281 C 187.375 29.234375 187.992188 29.359375 188.675781 29.359375 C 189.296875 29.359375 189.914062 29.234375 190.535156 29.050781 C 191.15625 28.863281 191.835938 28.554688 192.457031 28.179688 L 192.085938 26.941406 C 191.710938 27.125 191.339844 27.25 190.96875 27.3125 C 190.597656 27.4375 190.289062 27.4375 190.039062 27.4375 C 189.605469 27.4375 189.296875 27.375 189.046875 27.1875 C 188.800781 27.066406 188.613281 26.816406 188.550781 26.507812 C 188.425781 26.195312 188.363281 25.824219 188.363281 25.328125 L 188.363281 15.589844 L 192.207031 15.589844 L 192.207031 14.101562 L 188.363281 14.101562 L 188.363281 9.265625 L 185.265625 9.824219 L 185.265625 14.101562 L 182.910156 14.101562 L 182.910156 15.589844 L 185.265625 15.589844 Z M 185.265625 25.824219 " fill-opacity="1" fill-rule="nonzero"/><path fill="#b8bcd3" d="M 194.75 34.507812 C 195.246094 34.691406 195.742188 34.753906 196.238281 34.753906 C 197.289062 34.753906 198.160156 34.445312 198.902344 33.886719 C 199.648438 33.328125 200.203125 32.648438 200.640625 31.839844 C 201.070312 31.035156 201.507812 30.042969 202.003906 28.800781 L 206.277344 17.574219 C 206.464844 17.015625 206.652344 16.644531 206.835938 16.398438 C 207.023438 16.148438 207.210938 15.902344 207.457031 15.777344 C 207.703125 15.652344 208.015625 15.527344 208.449219 15.527344 L 208.449219 14.164062 L 202.746094 14.164062 L 202.746094 15.527344 L 203.800781 15.527344 C 204.171875 15.527344 204.480469 15.652344 204.667969 15.777344 C 204.855469 15.902344 204.976562 16.085938 204.976562 16.335938 C 204.976562 16.582031 204.914062 16.894531 204.792969 17.265625 L 201.816406 25.761719 L 198.777344 17.203125 C 198.65625 16.832031 198.59375 16.519531 198.65625 16.273438 C 198.65625 16.023438 198.777344 15.839844 198.902344 15.714844 C 199.027344 15.589844 199.277344 15.527344 199.585938 15.527344 L 200.390625 15.46875 L 200.390625 14.101562 L 193.449219 14.101562 L 193.449219 15.46875 C 193.882812 15.46875 194.253906 15.589844 194.5 15.714844 C 194.75 15.839844 194.933594 16.023438 195.058594 16.210938 C 195.183594 16.460938 195.371094 16.769531 195.554688 17.203125 L 200.390625 29.484375 C 200.140625 30.164062 199.894531 30.722656 199.648438 31.15625 C 199.398438 31.59375 199.152344 31.902344 198.839844 32.152344 C 198.53125 32.398438 198.222656 32.523438 197.851562 32.523438 C 197.601562 32.523438 197.414062 32.460938 197.230469 32.398438 C 197.042969 32.273438 196.796875 32.152344 196.546875 31.902344 C 196.363281 31.714844 196.175781 31.59375 196.050781 31.53125 C 195.925781 31.40625 195.742188 31.34375 195.554688 31.28125 C 195.371094 31.21875 195.183594 31.15625 194.933594 31.15625 C 194.625 31.15625 194.316406 31.21875 194.070312 31.34375 C 193.820312 31.46875 193.632812 31.652344 193.507812 31.902344 C 193.386719 32.152344 193.324219 32.398438 193.324219 32.707031 C 193.324219 33.203125 193.449219 33.578125 193.757812 33.886719 C 193.882812 34.136719 194.253906 34.320312 194.75 34.507812 Z M 194.75 34.507812 " fill-opacity="1" fill-rule="nonzero"/><path fill="#b8bcd3" d="M 87.886719 42.074219 C 86.957031 41.453125 85.777344 41.082031 84.414062 41.082031 C 82.988281 41.082031 81.8125 41.390625 80.820312 42.011719 C 79.828125 42.632812 79.144531 43.5625 78.648438 44.742188 C 78.152344 45.917969 77.90625 47.285156 77.90625 48.894531 C 77.90625 50.445312 78.152344 51.8125 78.585938 52.988281 C 79.023438 54.167969 79.765625 55.035156 80.757812 55.71875 C 81.75 56.339844 82.925781 56.648438 84.289062 56.648438 C 85.714844 56.648438 86.894531 56.339844 87.824219 55.65625 C 88.816406 55.035156 89.558594 54.105469 89.992188 52.925781 C 90.488281 51.75 90.738281 50.382812 90.738281 48.773438 C 90.738281 47.222656 90.488281 45.855469 89.992188 44.679688 C 89.558594 43.625 88.816406 42.757812 87.886719 42.074219 Z M 87.140625 52.742188 C 86.957031 53.609375 86.644531 54.230469 86.210938 54.664062 C 85.777344 55.097656 85.21875 55.347656 84.539062 55.347656 C 83.792969 55.347656 83.113281 55.097656 82.617188 54.539062 C 82.121094 53.980469 81.75 53.175781 81.5 52.183594 C 81.253906 51.191406 81.128906 49.886719 81.128906 48.339844 C 81.128906 47.035156 81.191406 45.980469 81.378906 45.113281 C 81.5625 44.246094 81.871094 43.625 82.308594 43.191406 C 82.742188 42.757812 83.296875 42.507812 83.980469 42.507812 C 84.722656 42.507812 85.40625 42.757812 85.902344 43.3125 C 86.398438 43.871094 86.769531 44.679688 87.019531 45.671875 C 87.265625 46.726562 87.390625 47.964844 87.390625 49.515625 C 87.390625 50.820312 87.328125 51.875 87.140625 52.742188 Z M 87.140625 52.742188 " fill-opacity="1" fill-rule="nonzero"/><path fill="#b8bcd3" d="M 101.644531 33.824219 C 101.027344 33.640625 100.40625 33.515625 99.726562 33.515625 C 98.484375 33.515625 97.429688 33.824219 96.6875 34.445312 C 95.945312 35.066406 95.386719 35.808594 95.074219 36.800781 C 94.765625 37.792969 94.578125 38.847656 94.578125 40.089844 L 94.578125 41.453125 L 91.976562 41.453125 L 91.976562 42.878906 L 94.578125 42.878906 L 94.578125 53.484375 C 94.578125 53.859375 94.519531 54.167969 94.457031 54.355469 C 94.332031 54.539062 94.207031 54.726562 94.023438 54.789062 C 93.835938 54.851562 93.527344 54.914062 93.214844 54.914062 L 92.347656 54.914062 L 92.347656 56.277344 L 100.53125 56.277344 L 100.53125 54.914062 L 99.105469 54.914062 C 98.734375 54.914062 98.484375 54.851562 98.300781 54.726562 C 98.113281 54.664062 97.925781 54.476562 97.863281 54.292969 C 97.742188 54.105469 97.742188 53.796875 97.742188 53.421875 L 97.742188 42.878906 L 101.585938 42.878906 L 101.585938 41.453125 L 97.742188 41.453125 L 97.742188 38.847656 C 97.742188 38.042969 97.804688 37.359375 97.863281 36.800781 C 97.925781 36.242188 98.113281 35.808594 98.300781 35.4375 C 98.484375 35.066406 98.796875 34.878906 99.230469 34.878906 C 99.414062 34.878906 99.664062 34.941406 99.785156 35.003906 C 99.972656 35.066406 100.097656 35.191406 100.21875 35.375 C 100.34375 35.5 100.46875 35.746094 100.59375 35.996094 C 100.777344 36.304688 100.902344 36.554688 101.027344 36.738281 C 101.152344 36.925781 101.335938 37.113281 101.523438 37.234375 C 101.769531 37.359375 102.019531 37.421875 102.328125 37.421875 C 102.761719 37.421875 103.132812 37.296875 103.382812 37.050781 C 103.628906 36.800781 103.753906 36.429688 103.753906 35.996094 C 103.753906 35.5 103.566406 35.066406 103.195312 34.695312 C 102.699219 34.320312 102.265625 34.011719 101.644531 33.824219 Z M 101.644531 33.824219 " fill-opacity="1" fill-rule="nonzero"/><path fill="#b8bcd3" d="M 126.875 37.917969 L 126.875 36.367188 L 120.613281 36.367188 L 120.613281 37.917969 L 121.730469 37.980469 C 122.164062 37.980469 122.472656 38.105469 122.722656 38.226562 C 122.96875 38.351562 123.03125 38.601562 123.09375 38.847656 C 123.09375 39.160156 123.03125 39.46875 122.90625 39.902344 L 118.878906 51.5 L 114.972656 39.839844 C 114.847656 39.40625 114.789062 39.035156 114.789062 38.785156 C 114.789062 38.539062 114.910156 38.289062 115.097656 38.167969 C 115.285156 38.042969 115.53125 37.980469 115.902344 37.980469 L 116.832031 37.917969 L 116.832031 36.367188 L 109.394531 36.367188 L 109.394531 37.917969 C 109.828125 37.917969 110.136719 37.980469 110.449219 38.167969 C 110.695312 38.289062 110.945312 38.476562 111.070312 38.726562 C 111.191406 38.972656 111.378906 39.28125 111.503906 39.71875 L 117.328125 56.402344 L 118.878906 56.402344 L 124.582031 40.152344 C 124.828125 39.59375 125.015625 39.097656 125.203125 38.847656 C 125.386719 38.539062 125.574219 38.351562 125.820312 38.167969 C 126.070312 37.980469 126.441406 37.917969 126.875 37.917969 Z M 126.875 37.917969 " fill-opacity="1" fill-rule="nonzero"/><path fill="#b8bcd3" d="M 136.667969 44.429688 C 136.296875 43.3125 135.738281 42.507812 134.996094 41.949219 C 134.25 41.390625 133.199219 41.144531 131.957031 41.144531 C 130.53125 41.144531 129.292969 41.453125 128.363281 42.136719 C 127.433594 42.816406 126.6875 43.75 126.253906 44.925781 C 125.820312 46.105469 125.574219 47.53125 125.574219 49.082031 C 125.574219 50.632812 125.820312 51.996094 126.253906 53.175781 C 126.6875 54.355469 127.371094 55.160156 128.300781 55.78125 C 129.230469 56.402344 130.347656 56.710938 131.648438 56.710938 C 132.703125 56.710938 133.570312 56.523438 134.3125 56.152344 C 135.058594 55.78125 135.675781 55.222656 136.109375 54.601562 C 136.542969 53.917969 136.855469 53.113281 137.039062 52.246094 L 135.863281 51.875 C 135.738281 52.371094 135.492188 52.804688 135.242188 53.238281 C 134.996094 53.609375 134.625 53.917969 134.128906 54.105469 C 133.632812 54.292969 133.136719 54.414062 132.453125 54.414062 C 131.523438 54.414062 130.84375 54.167969 130.285156 53.734375 C 129.789062 53.300781 129.355469 52.617188 129.167969 51.8125 C 128.921875 51.003906 128.859375 49.949219 128.859375 48.710938 L 137.226562 48.710938 C 137.164062 46.910156 137.039062 45.484375 136.667969 44.429688 Z M 128.859375 47.222656 C 128.921875 46.476562 128.984375 45.855469 129.105469 45.300781 C 129.292969 44.429688 129.601562 43.6875 130.035156 43.191406 C 130.46875 42.695312 130.964844 42.445312 131.710938 42.445312 C 132.328125 42.445312 132.761719 42.632812 133.074219 43.003906 C 133.382812 43.375 133.632812 43.871094 133.753906 44.554688 C 133.878906 45.238281 133.941406 46.105469 133.941406 47.222656 Z M 128.859375 47.222656 " fill-opacity="1" fill-rule="nonzero"/><path fill="#b8bcd3" d="M 148.199219 41.269531 C 147.515625 41.269531 146.894531 41.453125 146.339844 41.824219 C 145.78125 42.199219 145.285156 42.695312 144.851562 43.375 C 144.417969 44.058594 144.046875 44.863281 143.734375 45.855469 L 143.734375 41.144531 L 138.839844 42.382812 L 138.839844 43.6875 L 139.519531 43.75 C 139.828125 43.808594 140.078125 43.871094 140.324219 43.933594 C 140.511719 44.058594 140.699219 44.183594 140.820312 44.367188 C 140.945312 44.554688 140.945312 44.863281 140.945312 45.175781 L 140.945312 53.484375 C 140.945312 53.859375 140.882812 54.167969 140.820312 54.355469 C 140.699219 54.539062 140.574219 54.726562 140.386719 54.789062 C 140.203125 54.851562 139.890625 54.914062 139.582031 54.914062 L 138.714844 54.914062 L 138.714844 56.277344 L 146.648438 56.277344 L 146.648438 54.914062 L 145.53125 54.914062 C 145.222656 54.914062 144.914062 54.851562 144.726562 54.726562 C 144.539062 54.664062 144.355469 54.476562 144.292969 54.292969 C 144.167969 54.105469 144.167969 53.796875 144.167969 53.421875 L 144.167969 46.601562 C 144.539062 45.855469 145.035156 45.359375 145.65625 44.988281 C 146.277344 44.617188 147.019531 44.429688 147.886719 44.429688 C 148.074219 44.429688 148.320312 44.429688 148.570312 44.429688 C 148.816406 44.429688 149.066406 44.492188 149.375 44.554688 L 149.375 41.328125 C 149.25 41.328125 149.128906 41.269531 148.941406 41.269531 C 148.757812 41.269531 148.382812 41.269531 148.199219 41.269531 Z M 148.199219 41.269531 " fill-opacity="1" fill-rule="nonzero"/><path fill="#b8bcd3" d="M 173.179688 54.851562 C 172.992188 54.726562 172.804688 54.601562 172.742188 54.414062 C 172.621094 54.230469 172.621094 53.917969 172.621094 53.546875 L 172.621094 45.484375 C 172.621094 44.492188 172.496094 43.6875 172.1875 43.003906 C 171.878906 42.382812 171.441406 41.886719 170.886719 41.578125 C 170.328125 41.269531 169.644531 41.144531 168.839844 41.144531 C 167.910156 41.144531 167.105469 41.328125 166.296875 41.765625 C 165.492188 42.199219 164.808594 42.757812 164.128906 43.625 C 163.878906 42.757812 163.445312 42.136719 162.828125 41.765625 C 162.207031 41.390625 161.464844 41.144531 160.59375 41.144531 C 159.664062 41.144531 158.859375 41.328125 158.054688 41.765625 C 157.246094 42.199219 156.503906 42.816406 155.882812 43.625 L 155.882812 41.144531 L 150.988281 42.382812 L 150.988281 43.6875 L 151.667969 43.75 C 151.980469 43.808594 152.226562 43.871094 152.476562 43.933594 C 152.660156 44.058594 152.847656 44.183594 152.972656 44.367188 C 153.09375 44.554688 153.09375 44.863281 153.09375 45.175781 L 153.09375 53.484375 C 153.09375 53.859375 153.03125 54.167969 152.972656 54.355469 C 152.847656 54.539062 152.722656 54.726562 152.535156 54.789062 C 152.351562 54.851562 152.042969 54.914062 151.730469 54.914062 L 150.863281 54.914062 L 150.863281 56.277344 L 158.117188 56.277344 L 158.117188 54.914062 L 157.558594 54.914062 C 157.246094 54.914062 157 54.851562 156.753906 54.726562 C 156.503906 54.601562 156.441406 54.476562 156.316406 54.292969 C 156.195312 54.105469 156.195312 53.796875 156.195312 53.421875 L 156.195312 44.617188 C 156.691406 44.121094 157.125 43.808594 157.621094 43.5625 C 158.117188 43.375 158.613281 43.253906 159.046875 43.253906 C 159.601562 43.253906 160.039062 43.375 160.410156 43.625 C 160.78125 43.871094 161.027344 44.183594 161.152344 44.679688 C 161.277344 45.113281 161.339844 45.671875 161.339844 46.292969 L 161.339844 53.484375 C 161.339844 53.859375 161.277344 54.167969 161.214844 54.355469 C 161.089844 54.539062 160.964844 54.664062 160.78125 54.789062 C 160.59375 54.914062 160.347656 54.914062 160.039062 54.972656 L 159.480469 54.972656 L 159.480469 56.339844 L 166.359375 56.339844 L 166.359375 54.972656 L 165.800781 54.972656 C 165.492188 54.972656 165.183594 54.914062 164.996094 54.789062 C 164.808594 54.726562 164.6875 54.539062 164.5625 54.355469 C 164.4375 54.167969 164.4375 53.859375 164.4375 53.484375 L 164.4375 44.617188 C 164.871094 44.121094 165.367188 43.808594 165.863281 43.5625 C 166.359375 43.375 166.855469 43.253906 167.351562 43.253906 C 167.910156 43.253906 168.34375 43.375 168.714844 43.625 C 169.023438 43.871094 169.273438 44.183594 169.460938 44.679688 C 169.582031 45.113281 169.644531 45.671875 169.644531 46.292969 L 169.644531 53.484375 C 169.644531 53.859375 169.582031 54.167969 169.460938 54.355469 C 169.335938 54.539062 169.210938 54.664062 169.023438 54.789062 C 168.839844 54.851562 168.589844 54.914062 168.21875 54.972656 L 167.660156 54.972656 L 167.660156 56.339844 L 174.851562 56.339844 L 174.851562 54.972656 L 174.046875 54.972656 C 173.613281 54.972656 173.363281 54.914062 173.179688 54.851562 Z M 173.179688 54.851562 " fill-opacity="1" fill-rule="nonzero"/><path fill="#b8bcd3" d="M 185.886719 42.074219 C 184.957031 41.453125 183.777344 41.082031 182.414062 41.082031 C 180.988281 41.082031 179.8125 41.390625 178.820312 42.011719 C 177.828125 42.632812 177.148438 43.5625 176.648438 44.742188 C 176.152344 45.917969 175.90625 47.285156 175.90625 48.894531 C 175.90625 50.445312 176.152344 51.8125 176.585938 52.988281 C 177.085938 54.167969 177.765625 55.035156 178.757812 55.71875 C 179.75 56.339844 180.929688 56.648438 182.292969 56.648438 C 183.71875 56.648438 184.894531 56.339844 185.824219 55.65625 C 186.816406 55.035156 187.558594 54.105469 187.992188 52.925781 C 188.488281 51.75 188.738281 50.382812 188.738281 48.773438 C 188.738281 47.222656 188.488281 45.855469 187.992188 44.679688 C 187.558594 43.625 186.878906 42.757812 185.886719 42.074219 Z M 185.203125 52.742188 C 185.019531 53.609375 184.707031 54.230469 184.273438 54.664062 C 183.839844 55.097656 183.28125 55.347656 182.601562 55.347656 C 181.855469 55.347656 181.175781 55.097656 180.679688 54.539062 C 180.183594 53.980469 179.8125 53.175781 179.5625 52.183594 C 179.316406 51.191406 179.191406 49.886719 179.191406 48.339844 C 179.191406 47.035156 179.253906 45.980469 179.5 45.113281 C 179.75 44.246094 179.996094 43.625 180.429688 43.191406 C 180.867188 42.757812 181.421875 42.507812 182.105469 42.507812 C 182.847656 42.507812 183.53125 42.757812 184.027344 43.3125 C 184.523438 43.871094 184.894531 44.679688 185.140625 45.671875 C 185.390625 46.726562 185.515625 47.964844 185.515625 49.515625 C 185.453125 50.820312 185.390625 51.875 185.203125 52.742188 Z M 185.203125 52.742188 " fill-opacity="1" fill-rule="nonzero"/><path fill="#b8bcd3" d="M 204.542969 54.851562 C 204.359375 54.726562 204.171875 54.601562 204.109375 54.414062 C 203.984375 54.230469 203.984375 53.917969 203.984375 53.546875 L 203.984375 45.484375 C 203.984375 44.492188 203.800781 43.6875 203.488281 43.066406 C 203.179688 42.445312 202.746094 41.949219 202.125 41.640625 C 201.570312 41.328125 200.886719 41.207031 200.078125 41.207031 C 199.152344 41.207031 198.222656 41.390625 197.414062 41.824219 C 196.609375 42.257812 195.867188 42.878906 195.183594 43.6875 L 195.183594 41.207031 L 190.289062 42.445312 L 190.289062 43.75 L 190.96875 43.808594 C 191.28125 43.871094 191.527344 43.933594 191.773438 43.996094 C 191.960938 44.121094 192.144531 44.246094 192.269531 44.429688 C 192.394531 44.617188 192.394531 44.925781 192.394531 45.238281 L 192.394531 53.546875 C 192.394531 53.917969 192.332031 54.230469 192.269531 54.414062 C 192.144531 54.601562 192.023438 54.789062 191.835938 54.851562 C 191.652344 54.910156 191.339844 54.972656 191.03125 54.972656 L 190.164062 54.972656 L 190.164062 56.339844 L 197.351562 56.339844 L 197.351562 54.972656 L 196.796875 54.972656 C 196.484375 54.972656 196.238281 54.910156 196.050781 54.789062 C 195.867188 54.664062 195.679688 54.539062 195.617188 54.355469 C 195.492188 54.167969 195.492188 53.859375 195.492188 53.484375 L 195.492188 44.617188 C 195.925781 44.183594 196.425781 43.808594 196.917969 43.5625 C 197.414062 43.3125 197.972656 43.191406 198.53125 43.191406 C 199.089844 43.191406 199.523438 43.3125 199.894531 43.5625 C 200.265625 43.808594 200.515625 44.121094 200.699219 44.554688 C 200.886719 44.988281 200.949219 45.546875 200.949219 46.167969 L 200.949219 53.421875 C 200.949219 53.796875 200.886719 54.105469 200.761719 54.292969 C 200.640625 54.476562 200.515625 54.601562 200.328125 54.726562 C 200.140625 54.789062 199.894531 54.851562 199.585938 54.910156 L 199.027344 54.910156 L 199.027344 56.277344 L 206.21875 56.277344 L 206.21875 54.910156 L 205.472656 54.910156 C 205.039062 54.972656 204.730469 54.910156 204.542969 54.851562 Z M 204.542969 54.851562 " fill-opacity="1" fill-rule="nonzero"/><path fill="#b8bcd3" d="M 215.390625 54.355469 C 215.019531 54.539062 214.648438 54.664062 214.273438 54.726562 C 213.902344 54.851562 213.59375 54.851562 213.347656 54.851562 C 212.910156 54.851562 212.601562 54.789062 212.355469 54.601562 C 212.105469 54.476562 211.917969 54.230469 211.859375 53.917969 C 211.734375 53.609375 211.671875 53.238281 211.671875 52.742188 L 211.671875 42.941406 L 215.515625 42.941406 L 215.515625 41.453125 L 211.671875 41.453125 L 211.671875 36.617188 L 208.574219 37.175781 L 208.574219 41.453125 L 206.21875 41.453125 L 206.21875 42.941406 L 208.574219 42.941406 L 208.574219 53.175781 C 208.574219 53.980469 208.695312 54.601562 209.007812 55.160156 C 209.316406 55.71875 209.6875 56.089844 210.183594 56.339844 C 210.679688 56.585938 211.300781 56.710938 211.980469 56.710938 C 212.601562 56.710938 213.222656 56.585938 213.839844 56.402344 C 214.460938 56.214844 215.144531 55.90625 215.761719 55.53125 Z M 215.390625 54.355469 " fill-opacity="1" fill-rule="nonzero"/><g clip-path="url(#ffb7cf5175)"><path fill="#b8bcd3" d="M 0.238281 1.636719 L 0.238281 27.933594 C 0.238281 36.679688 4.574219 45.734375 13.128906 54.851562 C 21.375 63.59375 30.300781 68.992188 31.972656 69.984375 L 32.59375 70.355469 L 33.214844 69.984375 C 34.949219 68.992188 43.875 63.65625 52.058594 54.851562 C 60.613281 45.734375 64.949219 36.679688 64.949219 27.933594 L 64.949219 1.636719 Z M 50.753906 19.558594 L 47.285156 19.558594 L 38.917969 43.871094 L 41.332031 43.871094 L 41.332031 51.003906 L 24.101562 51.003906 L 24.101562 43.871094 L 26.519531 43.871094 L 18.152344 19.558594 L 14.679688 19.558594 L 14.679688 12.429688 L 27.695312 12.429688 L 27.695312 19.558594 L 25.277344 19.558594 L 32.71875 41.328125 L 40.21875 19.558594 L 37.800781 19.558594 L 37.800781 12.429688 L 50.816406 12.429688 L 50.816406 19.558594 Z M 50.753906 19.558594 " fill-opacity="1" fill-rule="nonzero"/></g></svg>