<svg width="1028" height="1027" viewBox="0 0 1028 1027" fill="none" xmlns="http://www.w3.org/2000/svg">
<g opacity="0.2">
<mask id="mask0_5451_19733" style="mask-type:alpha" maskUnits="userSpaceOnUse" x="0" y="0" width="1028" height="1027">
<rect x="0.861328" y="0.314453" width="1026.28" height="1026.28" fill="url(#paint0_radial_5451_19733)"/>
</mask>
<g mask="url(#mask0_5451_19733)">
<rect x="0.859375" y="0.314453" width="57.0153" height="57.0153" stroke="#926BE3"/>
<rect x="685.041" y="0.314453" width="57.0153" height="57.0153" stroke="#926BE3"/>
<rect x="171.904" y="0.314453" width="57.0153" height="57.0153" stroke="#926BE3"/>
<rect x="856.09" y="0.314453" width="57.0153" height="57.0153" stroke="#926BE3"/>
<rect x="57.873" y="0.314453" width="57.0153" height="57.0153" stroke="#926BE3"/>
<rect x="742.057" y="0.314453" width="57.0153" height="57.0153" stroke="#926BE3"/>
<rect x="228.918" y="0.314453" width="57.0153" height="57.0153" stroke="#926BE3"/>
<rect x="913.104" y="0.314453" width="57.0153" height="57.0153" stroke="#926BE3"/>
<rect x="114.891" y="0.314453" width="57.0153" height="57.0153" stroke="#926BE3"/>
<rect x="799.076" y="0.314453" width="57.0153" height="57.0153" stroke="#926BE3"/>
<rect x="285.938" y="0.314453" width="57.0153" height="57.0153" stroke="#926BE3"/>
<rect x="970.121" y="0.314453" width="57.0153" height="57.0153" stroke="#926BE3"/>
<rect x="342.953" y="0.314453" width="57.0153" height="57.0153" stroke="#926BE3"/>
<rect x="513.996" y="0.314453" width="57.0153" height="57.0153" stroke="#926BE3"/>
<rect x="399.967" y="0.314453" width="57.0153" height="57.0153" stroke="#926BE3"/>
<rect x="571.01" y="0.314453" width="57.0153" height="57.0153" stroke="#926BE3"/>
<rect x="456.984" y="0.314453" width="57.0153" height="57.0153" stroke="#926BE3"/>
<rect x="628.027" y="0.314453" width="57.0153" height="57.0153" stroke="#926BE3"/>
<rect x="0.859375" y="57.328" width="57.0153" height="57.0153" stroke="#926BE3"/>
<rect x="0.859375" y="114.346" width="57.0153" height="57.0153" stroke="#926BE3"/>
<rect x="0.859375" y="171.359" width="57.0153" height="57.0153" stroke="#926BE3"/>
<rect x="0.859375" y="228.373" width="57.0153" height="57.0153" stroke="#926BE3"/>
<rect x="0.859375" y="285.393" width="57.0153" height="57.0153" stroke="#926BE3"/>
<rect x="0.859375" y="342.408" width="57.0153" height="57.0153" stroke="#926BE3"/>
<rect x="0.859375" y="399.422" width="57.0153" height="57.0153" stroke="#926BE3"/>
<rect x="0.859375" y="456.439" width="57.0153" height="57.0153" stroke="#926BE3"/>
<rect x="0.859375" y="513.453" width="57.0153" height="57.0153" stroke="#926BE3"/>
<rect x="0.859375" y="570.465" width="57.0153" height="57.0153" stroke="#926BE3"/>
<rect x="0.859375" y="627.482" width="57.0153" height="57.0153" stroke="#926BE3"/>
<rect x="0.859375" y="684.496" width="57.0153" height="57.0153" stroke="#926BE3"/>
<rect x="0.859375" y="741.512" width="57.0153" height="57.0153" stroke="#926BE3"/>
<rect x="0.859375" y="798.531" width="57.0153" height="57.0153" stroke="#926BE3"/>
<rect x="0.859375" y="855.545" width="57.0153" height="57.0153" stroke="#926BE3"/>
<rect x="0.859375" y="912.559" width="57.0153" height="57.0153" stroke="#926BE3"/>
<rect x="0.859375" y="969.576" width="57.0153" height="57.0153" stroke="#926BE3"/>
<rect x="685.041" y="57.328" width="57.0153" height="57.0153" stroke="#926BE3"/>
<rect x="685.041" y="114.346" width="57.0153" height="57.0153" stroke="#926BE3"/>
<rect x="685.041" y="171.359" width="57.0153" height="57.0153" stroke="#926BE3"/>
<rect x="685.041" y="228.373" width="57.0153" height="57.0153" stroke="#926BE3"/>
<rect x="685.041" y="285.393" width="57.0153" height="57.0153" stroke="#926BE3"/>
<rect x="685.041" y="342.408" width="57.0153" height="57.0153" stroke="#926BE3"/>
<rect x="685.041" y="399.422" width="57.0153" height="57.0153" stroke="#926BE3"/>
<rect x="685.041" y="456.439" width="57.0153" height="57.0153" stroke="#926BE3"/>
<rect x="685.041" y="513.453" width="57.0153" height="57.0153" stroke="#926BE3"/>
<rect x="685.041" y="570.465" width="57.0153" height="57.0153" stroke="#926BE3"/>
<rect x="685.041" y="627.482" width="57.0153" height="57.0153" stroke="#926BE3"/>
<rect x="685.041" y="684.496" width="57.0153" height="57.0153" stroke="#926BE3"/>
<rect x="685.041" y="741.512" width="57.0153" height="57.0153" stroke="#926BE3"/>
<rect x="685.041" y="798.531" width="57.0153" height="57.0153" stroke="#926BE3"/>
<rect x="685.041" y="855.545" width="57.0153" height="57.0153" stroke="#926BE3"/>
<rect x="685.041" y="912.559" width="57.0153" height="57.0153" stroke="#926BE3"/>
<rect x="685.041" y="969.576" width="57.0153" height="57.0153" stroke="#926BE3"/>
<rect x="171.904" y="57.3281" width="57.0153" height="57.0153" stroke="#926BE3"/>
<rect x="171.904" y="114.346" width="57.0153" height="57.0153" stroke="#926BE3"/>
<rect x="171.904" y="171.359" width="57.0153" height="57.0153" stroke="#926BE3"/>
<rect x="171.904" y="228.373" width="57.0153" height="57.0153" stroke="#926BE3"/>
<rect x="171.904" y="285.393" width="57.0153" height="57.0153" stroke="#926BE3"/>
<rect x="171.904" y="342.408" width="57.0153" height="57.0153" stroke="#926BE3"/>
<rect x="171.904" y="399.422" width="57.0153" height="57.0153" stroke="#926BE3"/>
<rect x="171.904" y="456.439" width="57.0153" height="57.0153" stroke="#926BE3"/>
<rect x="171.904" y="513.453" width="57.0153" height="57.0153" stroke="#926BE3"/>
<rect x="171.904" y="570.465" width="57.0153" height="57.0153" stroke="#926BE3"/>
<rect x="171.904" y="627.482" width="57.0153" height="57.0153" stroke="#926BE3"/>
<rect x="171.904" y="684.496" width="57.0153" height="57.0153" stroke="#926BE3"/>
<rect x="171.904" y="741.512" width="57.0153" height="57.0153" stroke="#926BE3"/>
<rect x="171.904" y="798.531" width="57.0153" height="57.0153" stroke="#926BE3"/>
<rect x="171.904" y="855.545" width="57.0153" height="57.0153" stroke="#926BE3"/>
<rect x="171.904" y="912.559" width="57.0153" height="57.0153" stroke="#926BE3"/>
<rect x="171.904" y="969.576" width="57.0153" height="57.0153" stroke="#926BE3"/>
<rect x="856.09" y="57.3281" width="57.0153" height="57.0153" stroke="#926BE3"/>
<rect x="856.09" y="114.346" width="57.0153" height="57.0153" stroke="#926BE3"/>
<rect x="856.09" y="171.359" width="57.0153" height="57.0153" stroke="#926BE3"/>
<rect x="856.09" y="228.373" width="57.0153" height="57.0153" stroke="#926BE3"/>
<rect x="856.09" y="285.393" width="57.0153" height="57.0153" stroke="#926BE3"/>
<rect x="856.09" y="342.408" width="57.0153" height="57.0153" stroke="#926BE3"/>
<rect x="856.09" y="399.422" width="57.0153" height="57.0153" stroke="#926BE3"/>
<rect x="856.09" y="456.439" width="57.0153" height="57.0153" stroke="#926BE3"/>
<rect x="856.09" y="513.453" width="57.0153" height="57.0153" stroke="#926BE3"/>
<rect x="856.09" y="570.465" width="57.0153" height="57.0153" stroke="#926BE3"/>
<rect x="856.09" y="627.482" width="57.0153" height="57.0153" stroke="#926BE3"/>
<rect x="856.09" y="684.496" width="57.0153" height="57.0153" stroke="#926BE3"/>
<rect x="856.09" y="741.512" width="57.0153" height="57.0153" stroke="#926BE3"/>
<rect x="856.09" y="798.531" width="57.0153" height="57.0153" stroke="#926BE3"/>
<rect x="856.09" y="855.545" width="57.0153" height="57.0153" stroke="#926BE3"/>
<rect x="856.09" y="912.559" width="57.0153" height="57.0153" stroke="#926BE3"/>
<rect x="856.09" y="969.576" width="57.0153" height="57.0153" stroke="#926BE3"/>
<rect x="57.873" y="57.328" width="57.0153" height="57.0153" stroke="#926BE3"/>
<rect x="57.873" y="114.346" width="57.0153" height="57.0153" stroke="#926BE3"/>
<rect x="57.873" y="171.359" width="57.0153" height="57.0153" stroke="#926BE3"/>
<rect x="57.873" y="228.373" width="57.0153" height="57.0153" stroke="#926BE3"/>
<rect x="57.873" y="285.393" width="57.0153" height="57.0153" stroke="#926BE3"/>
<rect x="57.873" y="342.408" width="57.0153" height="57.0153" stroke="#926BE3"/>
<rect x="57.873" y="399.422" width="57.0153" height="57.0153" stroke="#926BE3"/>
<rect x="57.873" y="456.439" width="57.0153" height="57.0153" stroke="#926BE3"/>
<rect x="57.873" y="513.453" width="57.0153" height="57.0153" stroke="#926BE3"/>
<rect x="57.873" y="570.465" width="57.0153" height="57.0153" stroke="#926BE3"/>
<rect x="57.873" y="627.482" width="57.0153" height="57.0153" stroke="#926BE3"/>
<rect x="57.873" y="684.496" width="57.0153" height="57.0153" stroke="#926BE3"/>
<rect x="57.873" y="741.512" width="57.0153" height="57.0153" stroke="#926BE3"/>
<rect x="57.873" y="798.531" width="57.0153" height="57.0153" stroke="#926BE3"/>
<rect x="57.873" y="855.545" width="57.0153" height="57.0153" stroke="#926BE3"/>
<rect x="57.873" y="912.559" width="57.0153" height="57.0153" stroke="#926BE3"/>
<rect x="57.873" y="969.576" width="57.0153" height="57.0153" stroke="#926BE3"/>
<rect x="742.057" y="57.328" width="57.0153" height="57.0153" stroke="#926BE3"/>
<rect x="742.057" y="114.346" width="57.0153" height="57.0153" stroke="#926BE3"/>
<rect x="742.057" y="171.359" width="57.0153" height="57.0153" stroke="#926BE3"/>
<rect x="742.057" y="228.373" width="57.0153" height="57.0153" stroke="#926BE3"/>
<rect x="742.057" y="285.393" width="57.0153" height="57.0153" stroke="#926BE3"/>
<rect x="742.057" y="342.408" width="57.0153" height="57.0153" stroke="#926BE3"/>
<rect x="742.057" y="399.422" width="57.0153" height="57.0153" stroke="#926BE3"/>
<rect x="742.057" y="456.439" width="57.0153" height="57.0153" stroke="#926BE3"/>
<rect x="742.057" y="513.453" width="57.0153" height="57.0153" stroke="#926BE3"/>
<rect x="742.057" y="570.465" width="57.0153" height="57.0153" stroke="#926BE3"/>
<rect x="742.057" y="627.482" width="57.0153" height="57.0153" stroke="#926BE3"/>
<rect x="742.057" y="684.496" width="57.0153" height="57.0153" stroke="#926BE3"/>
<rect x="742.057" y="741.512" width="57.0153" height="57.0153" stroke="#926BE3"/>
<rect x="742.057" y="798.531" width="57.0153" height="57.0153" stroke="#926BE3"/>
<rect x="742.057" y="855.545" width="57.0153" height="57.0153" stroke="#926BE3"/>
<rect x="742.057" y="912.559" width="57.0153" height="57.0153" stroke="#926BE3"/>
<rect x="742.057" y="969.576" width="57.0153" height="57.0153" stroke="#926BE3"/>
<rect x="228.918" y="57.3281" width="57.0153" height="57.0153" stroke="#926BE3"/>
<rect x="228.918" y="114.346" width="57.0153" height="57.0153" stroke="#926BE3"/>
<rect x="228.918" y="171.359" width="57.0153" height="57.0153" stroke="#926BE3"/>
<rect x="228.918" y="228.373" width="57.0153" height="57.0153" stroke="#926BE3"/>
<rect x="228.918" y="285.393" width="57.0153" height="57.0153" stroke="#926BE3"/>
<rect x="228.918" y="342.408" width="57.0153" height="57.0153" stroke="#926BE3"/>
<rect x="228.918" y="399.422" width="57.0153" height="57.0153" stroke="#926BE3"/>
<rect x="228.918" y="456.439" width="57.0153" height="57.0153" stroke="#926BE3"/>
<rect x="228.918" y="513.453" width="57.0153" height="57.0153" stroke="#926BE3"/>
<rect x="228.918" y="570.465" width="57.0153" height="57.0153" stroke="#926BE3"/>
<rect x="228.918" y="627.482" width="57.0153" height="57.0153" stroke="#926BE3"/>
<rect x="228.918" y="684.496" width="57.0153" height="57.0153" stroke="#926BE3"/>
<rect x="228.918" y="741.512" width="57.0153" height="57.0153" stroke="#926BE3"/>
<rect x="228.918" y="798.531" width="57.0153" height="57.0153" stroke="#926BE3"/>
<rect x="228.918" y="855.545" width="57.0153" height="57.0153" stroke="#926BE3"/>
<rect x="228.918" y="912.559" width="57.0153" height="57.0153" stroke="#926BE3"/>
<rect x="228.918" y="969.576" width="57.0153" height="57.0153" stroke="#926BE3"/>
<rect x="913.104" y="57.3281" width="57.0153" height="57.0153" stroke="#926BE3"/>
<rect x="913.104" y="114.346" width="57.0153" height="57.0153" stroke="#926BE3"/>
<rect x="913.104" y="171.359" width="57.0153" height="57.0153" stroke="#926BE3"/>
<rect x="913.104" y="228.373" width="57.0153" height="57.0153" stroke="#926BE3"/>
<rect x="913.104" y="285.393" width="57.0153" height="57.0153" stroke="#926BE3"/>
<rect x="913.104" y="342.408" width="57.0153" height="57.0153" stroke="#926BE3"/>
<rect x="913.104" y="399.422" width="57.0153" height="57.0153" stroke="#926BE3"/>
<rect x="913.104" y="456.439" width="57.0153" height="57.0153" stroke="#926BE3"/>
<rect x="913.104" y="513.453" width="57.0153" height="57.0153" stroke="#926BE3"/>
<rect x="913.104" y="570.465" width="57.0153" height="57.0153" stroke="#926BE3"/>
<rect x="913.104" y="627.482" width="57.0153" height="57.0153" stroke="#926BE3"/>
<rect x="913.104" y="684.496" width="57.0153" height="57.0153" stroke="#926BE3"/>
<rect x="913.104" y="741.512" width="57.0153" height="57.0153" stroke="#926BE3"/>
<rect x="913.104" y="798.531" width="57.0153" height="57.0153" stroke="#926BE3"/>
<rect x="913.104" y="855.545" width="57.0153" height="57.0153" stroke="#926BE3"/>
<rect x="913.104" y="912.559" width="57.0153" height="57.0153" stroke="#926BE3"/>
<rect x="913.104" y="969.576" width="57.0153" height="57.0153" stroke="#926BE3"/>
<rect x="114.891" y="57.3281" width="57.0153" height="57.0153" stroke="#926BE3"/>
<rect x="114.891" y="114.346" width="57.0153" height="57.0153" stroke="#926BE3"/>
<rect x="114.891" y="171.359" width="57.0153" height="57.0153" stroke="#926BE3"/>
<rect x="114.891" y="228.373" width="57.0153" height="57.0153" stroke="#926BE3"/>
<rect x="114.891" y="285.393" width="57.0153" height="57.0153" stroke="#926BE3"/>
<rect x="114.891" y="342.408" width="57.0153" height="57.0153" stroke="#926BE3"/>
<rect x="114.891" y="399.422" width="57.0153" height="57.0153" stroke="#926BE3"/>
<rect x="114.891" y="456.439" width="57.0153" height="57.0153" stroke="#926BE3"/>
<rect x="114.891" y="513.453" width="57.0153" height="57.0153" stroke="#926BE3"/>
<rect x="114.891" y="570.465" width="57.0153" height="57.0153" stroke="#926BE3"/>
<rect x="114.891" y="627.482" width="57.0153" height="57.0153" stroke="#926BE3"/>
<rect x="114.891" y="684.496" width="57.0153" height="57.0153" stroke="#926BE3"/>
<rect x="114.891" y="741.512" width="57.0153" height="57.0153" stroke="#926BE3"/>
<rect x="114.891" y="798.531" width="57.0153" height="57.0153" stroke="#926BE3"/>
<rect x="114.891" y="855.545" width="57.0153" height="57.0153" stroke="#926BE3"/>
<rect x="114.891" y="912.559" width="57.0153" height="57.0153" stroke="#926BE3"/>
<rect x="114.891" y="969.576" width="57.0153" height="57.0153" stroke="#926BE3"/>
<rect x="799.076" y="57.3281" width="57.0153" height="57.0153" stroke="#926BE3"/>
<rect x="799.076" y="114.346" width="57.0153" height="57.0153" stroke="#926BE3"/>
<rect x="799.076" y="171.359" width="57.0153" height="57.0153" stroke="#926BE3"/>
<rect x="799.076" y="228.373" width="57.0153" height="57.0153" stroke="#926BE3"/>
<rect x="799.076" y="285.393" width="57.0153" height="57.0153" stroke="#926BE3"/>
<rect x="799.076" y="342.408" width="57.0153" height="57.0153" stroke="#926BE3"/>
<rect x="799.076" y="399.422" width="57.0153" height="57.0153" stroke="#926BE3"/>
<rect x="799.076" y="456.439" width="57.0153" height="57.0153" stroke="#926BE3"/>
<rect x="799.076" y="513.453" width="57.0153" height="57.0153" stroke="#926BE3"/>
<rect x="799.076" y="570.465" width="57.0153" height="57.0153" stroke="#926BE3"/>
<rect x="799.076" y="627.482" width="57.0153" height="57.0153" stroke="#926BE3"/>
<rect x="799.076" y="684.496" width="57.0153" height="57.0153" stroke="#926BE3"/>
<rect x="799.076" y="741.512" width="57.0153" height="57.0153" stroke="#926BE3"/>
<rect x="799.076" y="798.531" width="57.0153" height="57.0153" stroke="#926BE3"/>
<rect x="799.076" y="855.545" width="57.0153" height="57.0153" stroke="#926BE3"/>
<rect x="799.076" y="912.559" width="57.0153" height="57.0153" stroke="#926BE3"/>
<rect x="799.076" y="969.576" width="57.0153" height="57.0153" stroke="#926BE3"/>
<rect x="285.938" y="57.328" width="57.0153" height="57.0153" stroke="#926BE3"/>
<rect x="285.938" y="114.346" width="57.0153" height="57.0153" stroke="#926BE3"/>
<rect x="285.938" y="171.359" width="57.0153" height="57.0153" stroke="#926BE3"/>
<rect x="285.938" y="228.373" width="57.0153" height="57.0153" stroke="#926BE3"/>
<rect x="285.938" y="285.393" width="57.0153" height="57.0153" stroke="#926BE3"/>
<rect x="285.938" y="342.408" width="57.0153" height="57.0153" stroke="#926BE3"/>
<rect x="285.938" y="399.422" width="57.0153" height="57.0153" stroke="#926BE3"/>
<rect x="285.938" y="456.439" width="57.0153" height="57.0153" stroke="#926BE3"/>
<rect x="285.938" y="513.453" width="57.0153" height="57.0153" stroke="#926BE3"/>
<rect x="285.938" y="570.465" width="57.0153" height="57.0153" stroke="#926BE3"/>
<rect x="285.938" y="627.482" width="57.0153" height="57.0153" stroke="#926BE3"/>
<rect x="285.938" y="684.496" width="57.0153" height="57.0153" stroke="#926BE3"/>
<rect x="285.938" y="741.512" width="57.0153" height="57.0153" stroke="#926BE3"/>
<rect x="285.938" y="798.531" width="57.0153" height="57.0153" stroke="#926BE3"/>
<rect x="285.938" y="855.545" width="57.0153" height="57.0153" stroke="#926BE3"/>
<rect x="285.938" y="912.559" width="57.0153" height="57.0153" stroke="#926BE3"/>
<rect x="285.938" y="969.576" width="57.0153" height="57.0153" stroke="#926BE3"/>
<rect x="970.121" y="57.328" width="57.0153" height="57.0153" stroke="#926BE3"/>
<rect x="970.121" y="114.346" width="57.0153" height="57.0153" stroke="#926BE3"/>
<rect x="970.121" y="171.359" width="57.0153" height="57.0153" stroke="#926BE3"/>
<rect x="970.121" y="228.373" width="57.0153" height="57.0153" stroke="#926BE3"/>
<rect x="970.121" y="285.393" width="57.0153" height="57.0153" stroke="#926BE3"/>
<rect x="970.121" y="342.408" width="57.0153" height="57.0153" stroke="#926BE3"/>
<rect x="970.121" y="399.422" width="57.0153" height="57.0153" stroke="#926BE3"/>
<rect x="970.121" y="456.439" width="57.0153" height="57.0153" stroke="#926BE3"/>
<rect x="970.121" y="513.453" width="57.0153" height="57.0153" stroke="#926BE3"/>
<rect x="970.121" y="570.465" width="57.0153" height="57.0153" stroke="#926BE3"/>
<rect x="970.121" y="627.482" width="57.0153" height="57.0153" stroke="#926BE3"/>
<rect x="970.121" y="684.496" width="57.0153" height="57.0153" stroke="#926BE3"/>
<rect x="970.121" y="741.512" width="57.0153" height="57.0153" stroke="#926BE3"/>
<rect x="970.121" y="798.531" width="57.0153" height="57.0153" stroke="#926BE3"/>
<rect x="970.121" y="855.545" width="57.0153" height="57.0153" stroke="#926BE3"/>
<rect x="970.121" y="912.559" width="57.0153" height="57.0153" stroke="#926BE3"/>
<rect x="970.121" y="969.576" width="57.0153" height="57.0153" stroke="#926BE3"/>
<rect x="342.953" y="57.328" width="57.0153" height="57.0153" stroke="#926BE3"/>
<rect x="342.953" y="114.346" width="57.0153" height="57.0153" stroke="#926BE3"/>
<rect x="342.953" y="171.359" width="57.0153" height="57.0153" stroke="#926BE3"/>
<rect x="342.953" y="228.373" width="57.0153" height="57.0153" stroke="#926BE3"/>
<rect x="342.953" y="285.393" width="57.0153" height="57.0153" stroke="#926BE3"/>
<rect x="342.953" y="342.408" width="57.0153" height="57.0153" stroke="#926BE3"/>
<rect x="342.953" y="399.422" width="57.0153" height="57.0153" stroke="#926BE3"/>
<rect x="342.953" y="456.439" width="57.0153" height="57.0153" stroke="#926BE3"/>
<rect x="342.953" y="513.453" width="57.0153" height="57.0153" stroke="#926BE3"/>
<rect x="342.953" y="570.465" width="57.0153" height="57.0153" stroke="#926BE3"/>
<rect x="342.953" y="627.482" width="57.0153" height="57.0153" stroke="#926BE3"/>
<rect x="342.953" y="684.496" width="57.0153" height="57.0153" stroke="#926BE3"/>
<rect x="342.953" y="741.512" width="57.0153" height="57.0153" stroke="#926BE3"/>
<rect x="342.953" y="798.531" width="57.0153" height="57.0153" stroke="#926BE3"/>
<rect x="342.953" y="855.545" width="57.0153" height="57.0153" stroke="#926BE3"/>
<rect x="342.953" y="912.559" width="57.0153" height="57.0153" stroke="#926BE3"/>
<rect x="342.953" y="969.576" width="57.0153" height="57.0153" stroke="#926BE3"/>
<rect x="513.996" y="57.3281" width="57.0153" height="57.0153" stroke="#926BE3"/>
<rect x="513.996" y="114.346" width="57.0153" height="57.0153" stroke="#926BE3"/>
<rect x="513.996" y="171.359" width="57.0153" height="57.0153" stroke="#926BE3"/>
<rect x="513.996" y="228.373" width="57.0153" height="57.0153" stroke="#926BE3"/>
<rect x="513.996" y="285.393" width="57.0153" height="57.0153" stroke="#926BE3"/>
<rect x="513.996" y="342.408" width="57.0153" height="57.0153" stroke="#926BE3"/>
<rect x="513.996" y="399.422" width="57.0153" height="57.0153" stroke="#926BE3"/>
<rect x="513.996" y="456.439" width="57.0153" height="57.0153" stroke="#926BE3"/>
<rect x="513.996" y="513.453" width="57.0153" height="57.0153" stroke="#926BE3"/>
<rect x="513.996" y="570.465" width="57.0153" height="57.0153" stroke="#926BE3"/>
<rect x="513.996" y="627.482" width="57.0153" height="57.0153" stroke="#926BE3"/>
<rect x="513.996" y="684.496" width="57.0153" height="57.0153" stroke="#926BE3"/>
<rect x="513.996" y="741.512" width="57.0153" height="57.0153" stroke="#926BE3"/>
<rect x="513.996" y="798.531" width="57.0153" height="57.0153" stroke="#926BE3"/>
<rect x="513.996" y="855.545" width="57.0153" height="57.0153" stroke="#926BE3"/>
<rect x="513.996" y="912.559" width="57.0153" height="57.0153" stroke="#926BE3"/>
<rect x="513.996" y="969.576" width="57.0153" height="57.0153" stroke="#926BE3"/>
<rect x="399.967" y="57.3281" width="57.0153" height="57.0153" stroke="#926BE3"/>
<rect x="399.967" y="114.346" width="57.0153" height="57.0153" stroke="#926BE3"/>
<rect x="399.967" y="171.359" width="57.0153" height="57.0153" stroke="#926BE3"/>
<rect x="399.967" y="228.373" width="57.0153" height="57.0153" stroke="#926BE3"/>
<rect x="399.967" y="285.393" width="57.0153" height="57.0153" stroke="#926BE3"/>
<rect x="399.967" y="342.408" width="57.0153" height="57.0153" stroke="#926BE3"/>
<rect x="399.967" y="399.422" width="57.0153" height="57.0153" stroke="#926BE3"/>
<rect x="399.967" y="456.439" width="57.0153" height="57.0153" stroke="#926BE3"/>
<rect x="399.967" y="513.453" width="57.0153" height="57.0153" stroke="#926BE3"/>
<rect x="399.967" y="570.465" width="57.0153" height="57.0153" stroke="#926BE3"/>
<rect x="399.967" y="627.482" width="57.0153" height="57.0153" stroke="#926BE3"/>
<rect x="399.967" y="684.496" width="57.0153" height="57.0153" stroke="#926BE3"/>
<rect x="399.967" y="741.512" width="57.0153" height="57.0153" stroke="#926BE3"/>
<rect x="399.967" y="798.531" width="57.0153" height="57.0153" stroke="#926BE3"/>
<rect x="399.967" y="855.545" width="57.0153" height="57.0153" stroke="#926BE3"/>
<rect x="399.967" y="912.559" width="57.0153" height="57.0153" stroke="#926BE3"/>
<rect x="399.967" y="969.576" width="57.0153" height="57.0153" stroke="#926BE3"/>
<rect x="571.01" y="57.3281" width="57.0153" height="57.0153" stroke="#926BE3"/>
<rect x="571.01" y="114.346" width="57.0153" height="57.0153" stroke="#926BE3"/>
<rect x="571.01" y="171.359" width="57.0153" height="57.0153" stroke="#926BE3"/>
<rect x="571.01" y="228.373" width="57.0153" height="57.0153" stroke="#926BE3"/>
<rect x="571.01" y="285.393" width="57.0153" height="57.0153" stroke="#926BE3"/>
<rect x="571.01" y="342.408" width="57.0153" height="57.0153" stroke="#926BE3"/>
<rect x="571.01" y="399.422" width="57.0153" height="57.0153" stroke="#926BE3"/>
<rect x="571.01" y="456.439" width="57.0153" height="57.0153" stroke="#926BE3"/>
<rect x="571.01" y="513.453" width="57.0153" height="57.0153" stroke="#926BE3"/>
<rect x="571.01" y="570.465" width="57.0153" height="57.0153" stroke="#926BE3"/>
<rect x="571.01" y="627.482" width="57.0153" height="57.0153" stroke="#926BE3"/>
<rect x="571.01" y="684.496" width="57.0153" height="57.0153" stroke="#926BE3"/>
<rect x="571.01" y="741.512" width="57.0153" height="57.0153" stroke="#926BE3"/>
<rect x="571.01" y="798.531" width="57.0153" height="57.0153" stroke="#926BE3"/>
<rect x="571.01" y="855.545" width="57.0153" height="57.0153" stroke="#926BE3"/>
<rect x="571.01" y="912.559" width="57.0153" height="57.0153" stroke="#926BE3"/>
<rect x="571.01" y="969.576" width="57.0153" height="57.0153" stroke="#926BE3"/>
<rect x="456.984" y="57.3281" width="57.0153" height="57.0153" stroke="#926BE3"/>
<rect x="456.984" y="114.346" width="57.0153" height="57.0153" stroke="#926BE3"/>
<rect x="456.984" y="171.359" width="57.0153" height="57.0153" stroke="#926BE3"/>
<rect x="456.984" y="228.373" width="57.0153" height="57.0153" stroke="#926BE3"/>
<rect x="456.984" y="285.393" width="57.0153" height="57.0153" stroke="#926BE3"/>
<rect x="456.984" y="342.408" width="57.0153" height="57.0153" stroke="#926BE3"/>
<rect x="456.984" y="399.422" width="57.0153" height="57.0153" stroke="#926BE3"/>
<rect x="456.984" y="456.439" width="57.0153" height="57.0153" stroke="#926BE3"/>
<rect x="456.984" y="513.453" width="57.0153" height="57.0153" stroke="#926BE3"/>
<rect x="456.984" y="570.465" width="57.0153" height="57.0153" stroke="#926BE3"/>
<rect x="456.984" y="627.482" width="57.0153" height="57.0153" stroke="#926BE3"/>
<rect x="456.984" y="684.496" width="57.0153" height="57.0153" stroke="#926BE3"/>
<rect x="456.984" y="741.512" width="57.0153" height="57.0153" stroke="#926BE3"/>
<rect x="456.984" y="798.531" width="57.0153" height="57.0153" stroke="#926BE3"/>
<rect x="456.984" y="855.545" width="57.0153" height="57.0153" stroke="#926BE3"/>
<rect x="456.984" y="912.559" width="57.0153" height="57.0153" stroke="#926BE3"/>
<rect x="456.984" y="969.576" width="57.0153" height="57.0153" stroke="#926BE3"/>
<rect x="628.027" y="57.3281" width="57.0153" height="57.0153" stroke="#926BE3"/>
<rect x="628.027" y="114.346" width="57.0153" height="57.0153" stroke="#926BE3"/>
<rect x="628.027" y="171.359" width="57.0153" height="57.0153" stroke="#926BE3"/>
<rect x="628.027" y="228.373" width="57.0153" height="57.0153" stroke="#926BE3"/>
<rect x="628.027" y="285.393" width="57.0153" height="57.0153" stroke="#926BE3"/>
<rect x="628.027" y="342.408" width="57.0153" height="57.0153" stroke="#926BE3"/>
<rect x="628.027" y="399.422" width="57.0153" height="57.0153" stroke="#926BE3"/>
<rect x="628.027" y="456.439" width="57.0153" height="57.0153" stroke="#926BE3"/>
<rect x="628.027" y="513.453" width="57.0153" height="57.0153" stroke="#926BE3"/>
<rect x="628.027" y="570.465" width="57.0153" height="57.0153" stroke="#926BE3"/>
<rect x="628.027" y="627.482" width="57.0153" height="57.0153" stroke="#926BE3"/>
<rect x="628.027" y="684.496" width="57.0153" height="57.0153" stroke="#926BE3"/>
<rect x="628.027" y="741.512" width="57.0153" height="57.0153" stroke="#926BE3"/>
<rect x="628.027" y="798.531" width="57.0153" height="57.0153" stroke="#926BE3"/>
<rect x="628.027" y="855.545" width="57.0153" height="57.0153" stroke="#926BE3"/>
<rect x="628.027" y="912.559" width="57.0153" height="57.0153" stroke="#926BE3"/>
<rect x="628.027" y="969.576" width="57.0153" height="57.0153" stroke="#926BE3"/>
</g>
</g>
<defs>
<radialGradient id="paint0_radial_5451_19733" cx="0" cy="0" r="1" gradientUnits="userSpaceOnUse" gradientTransform="translate(513.999 0.314453) rotate(90) scale(1026.28 513.138)">
<stop stop-color="#D9D9D9"/>
<stop offset="1" stop-color="#D9D9D9" stop-opacity="0"/>
</radialGradient>
</defs>
</svg>
