<?xml version="1.0" encoding="UTF-8"?>
<svg id="Layer_1" data-name="Layer 1" xmlns="http://www.w3.org/2000/svg" viewBox="0 0 1060 400">
  <g id="JetsonGroup">
    <g>
      <g id="J">
        <path d="M140.11,50.21c0,20.74-15.44,36.54-35.08,36.54s-35.08-15.8-35.08-36.54,15.43-36.54,35.08-36.54,35.08,15.8,35.08,36.54Z" style="fill: #00ff12;"/>
        <path d="M133,315.61c0,50.92-31.42,70.83-69.12,70.83-12.57,0-21.21-1.91-27.88-4.98v-42.5c6.68,3.06,13.76,3.83,19.66,3.83,16.51,0,26.34-9.96,26.34-29.48V110h51v205.61Z" style="fill: #b8bcd3;"/>
      </g>
      <path id="e" d="M326.46,198.34c0,7.22-.73,15.96-1.47,21.66h-129.33c3.66,33.82,29.68,47.13,58.25,47.13,23.08,0,46.53-8.74,60.09-20.52v46.75c-20.52,13.3-43.97,16.34-66.31,16.34-60.09,0-101.12-39.9-101.12-101.09,0-57.39,37.74-101.85,93.79-101.85s86.1,41.04,86.1,91.59ZM196.05,188h85c-1.83-23.56-17.59-39.52-41.4-39.52s-39.57,15.58-43.6,39.52Z" style="fill: #b8bcd3;"/>
      <path id="t" d="M458,302.55c-7.69,4.56-19.4,7.59-34.77,7.59-38.43,0-62.23-23.54-62.23-65.31v-92.84h-26v-40h28v-44.09l46-12.54v56.63h45v40h-45v86.65c0,19.76,9.8,28.12,27.22,28.12,5.08,0,14.16-1.52,21.78-6.08v41.86Z" style="fill: #b8bcd3;"/>
      <path id="s" d="M607,124v45.58c-15.75-13.3-35.15-21.27-56.03-21.27s-30.03,7.6-30.03,18.23c0,11.78,11.35,17.47,34.42,23.93,30.39,8.36,62.25,19.37,62.25,58.5s-28.2,61.16-74.7,61.16c-25.63,0-49.07-7.22-65.92-19.75v-49c17.58,17.47,37.35,28.11,62.99,28.11,21.97,0,33.32-8.36,33.32-20.13,0-12.92-14.28-17.47-39.18-25.45-28.93-9.12-58.23-21.27-58.23-56.22s28.56-60.4,73.24-60.4c21.61,0,43.94,6.46,57.86,16.71Z" style="fill: #b8bcd3;"/>
      <path id="o" d="M821.76,208.71c0,57.39-41.4,101.47-98.56,101.47s-98.92-44.08-98.92-101.47,41.4-101.47,98.92-101.47,98.56,44.09,98.56,101.47ZM672.27,208.71c0,31.92,21.25,56.25,50.93,56.25s50.56-24.32,50.56-56.25-21.25-56.25-50.56-56.25-50.93,24.32-50.93,56.25Z" style="fill: #b8bcd3;"/>
      <path id="n" d="M934.49,107.44c43.21,0,72.51,30.05,72.51,80.64v117.92h-47v-111.73c0-28.12-16.2-42.57-37.55-42.57-31.66,0-43.45,29.26-43.45,54.35v99.95h-48V112h46v26.25c10.62-18.64,29.3-30.81,57.49-30.81Z" style="fill: #b8bcd3;"/>
    </g>
  </g>
</svg>