<svg xmlns="http://www.w3.org/2000/svg" version="1.1" width="3500px" height="2202px" style="shape-rendering:geometricPrecision; text-rendering:geometricPrecision; image-rendering:optimizeQuality; fill-rule:evenodd; clip-rule:evenodd" xmlns:xlink="http://www.w3.org/1999/xlink">
<g><path style="opacity:1" fill="#a3a6c2" d="M 433.5,9.5 C 1090.51,9.0124 1747.51,9.5124 2404.5,11C 2489.5,12.5997 2571.5,28.933 2650.5,60C 2689.35,77.0862 2725.35,98.7529 2758.5,125C 2775.09,140.92 2790.92,157.42 2806,174.5C 2853.31,238.754 2878.65,311.087 2882,391.5C 2882.67,837.167 2882.67,1282.83 2882,1728.5C 2881.03,1775.15 2876.7,1821.48 2869,1867.5C 2857.89,1937.02 2830.56,1999.02 2787,2053.5C 2779.19,2060.98 2771.69,2068.81 2764.5,2077C 2722.93,2114.15 2675.1,2140.31 2621,2155.5C 2590.1,2164.72 2558.93,2171.06 2527.5,2174.5C 2507.69,2178.22 2487.86,2180.22 2468,2180.5C 2461.92,2180.89 2455.92,2181.56 2450,2182.5C 2300.33,2181.41 2150.66,2181.74 2001,2183.5C 1485.76,2182.65 963.258,2182.32 433.5,2182.5C 531.668,2018.83 629.835,1855.16 728,1691.5C 728.667,1294.83 728.667,898.167 728,501.5C 668.14,401.997 610.307,305.497 554.5,212C 549.577,205.417 545.077,198.583 541,191.5C 529.021,168.873 516.021,146.873 502,125.5C 479.409,86.6457 456.576,47.979 433.5,9.5 Z M 1750.5,43.5 C 1759.57,56.114 1767.73,69.4474 1775,83.5C 1787.31,101.135 1798.31,119.468 1808,138.5C 1810.38,142.088 1812.88,145.588 1815.5,149C 1821.48,160.306 1828.65,171.806 1837,183.5C 1844.72,198.662 1853.05,212.995 1862,226.5C 1871.27,243.937 1880.77,259.437 1890.5,273C 1904.7,297.848 1919.2,323.015 1934,348.5C 1935.67,350.5 1937.33,352.5 1939,354.5C 1967.77,403.73 1996.77,452.73 2026,501.5C 2026.67,898.167 2026.67,1294.83 2026,1691.5C 1996.75,1740.33 1967.75,1789.33 1939,1838.5C 1933.94,1845.23 1929.27,1852.23 1925,1859.5C 1914.33,1878.17 1903.67,1896.83 1893,1915.5C 1889.81,1921.22 1886.15,1926.55 1882,1931.5C 1838.74,2004.36 1795.24,2077.02 1751.5,2149.5C 1724.08,2106.33 1697.91,2062.33 1673,2017.5C 1670.87,2015.91 1669.2,2013.91 1668,2011.5C 1649.69,1978.87 1630.35,1946.87 1610,1915.5C 1599.33,1896.83 1588.67,1878.17 1578,1859.5C 1573.69,1845.21 1569.03,1845.21 1564,1838.5C 1535.24,1789.3 1506.24,1740.3 1477,1691.5C 1476.33,1294.83 1476.33,898.167 1477,501.5C 1487.67,482.833 1498.33,464.167 1509,445.5C 1510.2,443.091 1511.87,441.091 1514,439.5C 1530.92,411.331 1547.59,382.998 1564,354.5C 1578.07,332.699 1591.41,310.365 1604,287.5C 1653.62,206.576 1702.46,125.243 1750.5,43.5 Z"/></g>
<g><path style="opacity:1" fill="#a3a6c2" d="M 2991.5,2003.5 C 2991.9,2002.47 2992.56,2002.31 2993.5,2003C 2992.91,2003.46 2992.24,2003.63 2991.5,2003.5 Z"/></g>
<g><path style="opacity:1" fill="#a3a6c2" d="M 3013.5,2027.5 C 3014.24,2027.37 3014.91,2027.54 3015.5,2028C 3014.77,2029.4 3014.27,2030.9 3014,2032.5C 3013.5,2032 3013,2031.5 3012.5,2031C 3013.34,2029.99 3013.67,2028.82 3013.5,2027.5 Z"/></g>
<g><path style="opacity:1" fill="#a3a6c2" d="M 3012.5,2033.5 C 3013.83,2034.17 3013.83,2034.17 3012.5,2033.5 Z"/></g>
<g><path style="opacity:1" fill="#a3a6c2" d="M 2922.5,2045.5 C 2923.53,2045.9 2923.69,2046.56 2923,2047.5C 2922.54,2046.91 2922.37,2046.24 2922.5,2045.5 Z"/></g>
<g><path style="opacity:1" fill="#a3a6c2" d="M 2921.5,2048.5 C 2922.49,2051.58 2921.99,2054.58 2920,2057.5C 2920.32,2054.55 2920.82,2051.55 2921.5,2048.5 Z"/></g>
</svg>