<svg xmlns="http://www.w3.org/2000/svg" version="1.1" width="450px" height="254px" style="shape-rendering:geometricPrecision; text-rendering:geometricPrecision; image-rendering:optimizeQuality; fill-rule:evenodd; clip-rule:evenodd" xmlns:xlink="http://www.w3.org/1999/xlink">
<g><path style="opacity:0.98" fill="#a3a6c2" d="M 137.5,6.5 C 183.168,6.33334 228.835,6.50001 274.5,7C 285.546,8.42265 293.046,14.256 297,24.5C 298.131,41.6246 298.631,58.7912 298.5,76C 298.616,93.8655 298.116,111.699 297,129.5C 294.716,140.117 288.216,146.284 277.5,148C 230.832,148.452 184.165,148.952 137.5,149.5C 143.117,138.274 149.283,127.274 156,116.5C 156.667,90.5 156.667,64.5 156,38.5C 149.557,27.9419 143.391,17.2753 137.5,6.5 Z M 223.5,9.5 C 229.47,18.9958 235.303,28.6624 241,38.5C 241.667,64.5 241.667,90.5 241,116.5C 235.333,126.167 229.667,135.833 224,145.5C 217.936,136.43 212.269,127.097 207,117.5C 206.333,90.8333 206.333,64.1667 207,37.5C 212.328,28.0193 217.828,18.6859 223.5,9.5 Z"/></g>
<g><path style="opacity:0.584" fill="#a3a6c2" d="M 303.5,135.5 C 312.306,135.464 314.639,139.297 310.5,147C 306.73,149.279 303.396,148.779 300.5,145.5C 298.744,141.248 299.744,137.914 303.5,135.5 Z M 303.5,138.5 C 303.5,140.833 303.5,143.167 303.5,145.5C 300.966,143.084 300.966,140.75 303.5,138.5 Z M 309.5,138.5 C 311.634,140.582 311.634,142.582 309.5,144.5C 309.08,142.674 309.08,140.674 309.5,138.5 Z M 303.5,145.5 C 304.931,145.119 305.764,144.119 306,142.5C 306.465,143.931 307.299,145.097 308.5,146C 306.613,146.78 304.946,146.613 303.5,145.5 Z"/></g>
<g><path style="opacity:0.958" fill="#a3a6c2" d="M 82.5,167.5 C 96.504,167.333 110.504,167.5 124.5,168C 127.667,170.5 130.833,173 134,175.5C 134.667,196.167 134.667,216.833 134,237.5C 131.407,239.549 128.907,241.715 126.5,244C 111.93,245.467 97.2637,245.967 82.5,245.5C 82.5,240.833 82.5,236.167 82.5,231.5C 84.1667,231.5 85.8333,231.5 87.5,231.5C 87.5,214.833 87.5,198.167 87.5,181.5C 85.8333,181.5 84.1667,181.5 82.5,181.5C 82.5,176.833 82.5,172.167 82.5,167.5 Z M 104.5,181.5 C 108.5,181.5 112.5,181.5 116.5,181.5C 116.5,198.167 116.5,214.833 116.5,231.5C 112.5,231.5 108.5,231.5 104.5,231.5C 104.5,214.833 104.5,198.167 104.5,181.5 Z"/></g>
<g><path style="opacity:0.966" fill="#a3a6c2" d="M 149.5,167.5 C 158.5,167.5 167.5,167.5 176.5,167.5C 176.5,172.167 176.5,176.833 176.5,181.5C 174.833,181.5 173.167,181.5 171.5,181.5C 171.5,198.5 171.5,215.5 171.5,232.5C 176.833,232.5 182.167,232.5 187.5,232.5C 187.5,215.5 187.5,198.5 187.5,181.5C 185.5,181.5 183.5,181.5 181.5,181.5C 181.5,176.833 181.5,172.167 181.5,167.5C 190.833,167.5 200.167,167.5 209.5,167.5C 209.5,172.167 209.5,176.833 209.5,181.5C 207.833,181.5 206.167,181.5 204.5,181.5C 204.667,200.17 204.5,218.836 204,237.5C 197.365,244.946 189.032,247.612 179,245.5C 169.6,247.312 161.6,244.979 155,238.5C 154.5,219.503 154.333,200.503 154.5,181.5C 152.833,181.5 151.167,181.5 149.5,181.5C 149.5,176.833 149.5,172.167 149.5,167.5 Z"/></g>
<g><path style="opacity:0.944" fill="#a3a6c2" d="M 224.5,167.5 C 233.833,167.5 243.167,167.5 252.5,167.5C 252.5,172.167 252.5,176.833 252.5,181.5C 250.833,181.5 249.167,181.5 247.5,181.5C 247.334,185.846 247.501,190.179 248,194.5C 252.167,190.333 256.333,186.167 260.5,182C 259.552,181.517 258.552,181.351 257.5,181.5C 257.5,176.833 257.5,172.167 257.5,167.5C 266.833,167.5 276.167,167.5 285.5,167.5C 285.5,172.167 285.5,176.833 285.5,181.5C 283.143,181.337 280.81,181.503 278.5,182C 274.153,187.011 269.82,192.011 265.5,197C 270.597,208.125 275.597,219.292 280.5,230.5C 282.341,231.23 284.175,231.897 286,232.5C 286.499,236.821 286.666,241.154 286.5,245.5C 277.167,245.5 267.833,245.5 258.5,245.5C 258.5,240.833 258.5,236.167 258.5,231.5C 259.873,231.657 261.207,231.49 262.5,231C 258.857,224.214 255.357,217.38 252,210.5C 250.667,211.833 249.333,213.167 248,214.5C 247.501,220.157 247.334,225.824 247.5,231.5C 249.144,231.286 250.644,231.62 252,232.5C 252.499,236.821 252.666,241.154 252.5,245.5C 243.167,245.5 233.833,245.5 224.5,245.5C 224.5,240.833 224.5,236.167 224.5,231.5C 226.167,231.5 227.833,231.5 229.5,231.5C 229.5,214.833 229.5,198.167 229.5,181.5C 227.833,181.5 226.167,181.5 224.5,181.5C 224.5,176.833 224.5,172.167 224.5,167.5 Z"/></g>
<g><path style="opacity:0.955" fill="#a3a6c2" d="M 301.5,167.5 C 319.167,167.5 336.833,167.5 354.5,167.5C 354.5,175.833 354.5,184.167 354.5,192.5C 348.5,192.5 342.5,192.5 336.5,192.5C 336.5,188.833 336.5,185.167 336.5,181.5C 332.167,181.5 327.833,181.5 323.5,181.5C 323.5,186.833 323.5,192.167 323.5,197.5C 328.5,197.5 333.5,197.5 338.5,197.5C 338.5,202.167 338.5,206.833 338.5,211.5C 333.5,211.5 328.5,211.5 323.5,211.5C 323.5,218.167 323.5,224.833 323.5,231.5C 327.833,231.5 332.167,231.5 336.5,231.5C 336.5,228.167 336.5,224.833 336.5,221.5C 342.5,221.5 348.5,221.5 354.5,221.5C 354.5,229.5 354.5,237.5 354.5,245.5C 336.833,245.5 319.167,245.5 301.5,245.5C 301.5,240.833 301.5,236.167 301.5,231.5C 303.167,231.5 304.833,231.5 306.5,231.5C 306.5,214.833 306.5,198.167 306.5,181.5C 304.833,181.5 303.167,181.5 301.5,181.5C 301.5,176.833 301.5,172.167 301.5,167.5 Z"/></g>
<g><path style="opacity:0.561" fill="#a3a6c2" d="M 360.5,234.5 C 367.574,235.482 369.24,238.982 365.5,245C 359.662,246.48 356.829,244.313 357,238.5C 357.69,236.65 358.856,235.316 360.5,234.5 Z M 364.5,239.5 C 366.973,239.947 367.14,240.947 365,242.5C 363.272,241.648 363.105,240.648 364.5,239.5 Z M 361.5,241.5 C 363.332,242.14 363.665,243.14 362.5,244.5C 361.614,243.675 361.281,242.675 361.5,241.5 Z"/></g>
</svg>
