<svg xmlns="http://www.w3.org/2000/svg" version="1.1" width="2400px" height="1597px" style="shape-rendering:geometricPrecision; text-rendering:geometricPrecision; image-rendering:optimizeQuality; fill-rule:evenodd; clip-rule:evenodd" xmlns:xlink="http://www.w3.org/1999/xlink">
<g><path style="opacity:0.995" fill="#a3a6c2" d="M 1070.5,106.5 C 1125.81,102.528 1177.81,113.695 1226.5,140C 1243.35,149.92 1259.68,160.587 1275.5,172C 1427.83,180.266 1575.83,209.933 1719.5,261C 1735.1,266.975 1750.6,273.142 1766,279.5C 1793.79,266.693 1822.62,256.859 1852.5,250C 1876.4,245.204 1900.4,244.538 1924.5,248C 1931.87,249.135 1939.04,250.968 1946,253.5C 1976.31,233.007 2009.81,222.007 2046.5,220.5C 2085.12,221.56 2116.62,236.894 2141,266.5C 2150.83,280.156 2160.16,294.156 2169,308.5C 2174.88,317.38 2182.38,324.546 2191.5,330C 2228.23,337.595 2257.07,356.761 2278,387.5C 2301.18,435.208 2297.18,480.541 2266,523.5C 2259.96,575.885 2241.46,623.218 2210.5,665.5C 2264.57,807.352 2251.07,942.352 2170,1070.5C 2146.33,1105.85 2120,1139.18 2091,1170.5C 2035.94,1225.1 1975.77,1271.26 1910.5,1309C 1788.68,1377.84 1659.01,1426.17 1521.5,1454C 1288.56,1501.58 1055.89,1501.25 823.5,1453C 700.15,1427.55 582.483,1385.55 470.5,1327C 381.648,1280.08 303.481,1219.91 236,1146.5C 194.696,1100.37 162.029,1048.03 138,989.5C 87.9533,855.011 98.9533,725.678 171,601.5C 214.448,530.703 269.281,469.87 335.5,419C 391.321,376.564 450.988,339.898 514.5,309C 547.167,228.333 603.833,171.667 684.5,139C 763.903,113.246 842.903,114.579 921.5,143C 928.182,145.448 934.682,148.282 941,151.5C 980.557,126.037 1023.72,111.037 1070.5,106.5 Z"/></g>
<g><path style="opacity:1" fill="#6c6f83" d="M 1069.5,134.5 C 1134.94,130.103 1193.94,147.27 1246.5,186C 1252.17,190.333 1257.83,194.667 1263.5,199C 1409.94,206.609 1552.6,233.942 1691.5,281C 1712.61,288.722 1733.61,296.722 1754.5,305C 1746.68,309.338 1739.01,313.838 1731.5,318.5C 1606.64,270.87 1477.64,240.703 1344.5,228C 1314.86,225.259 1285.2,222.925 1255.5,221C 1226.89,197.022 1194.89,178.688 1159.5,166C 1088.07,147.072 1021.74,158.072 960.5,199C 956.345,203.684 951.345,206.85 945.5,208.5C 937.665,205.586 929.998,202.086 922.5,198C 857.527,169.336 790.527,163.336 721.5,180C 637.727,206.606 582.394,261.773 555.5,345.5C 466.146,385.637 385.479,438.471 313.5,504C 272.529,542.607 238.029,586.107 210,634.5C 150.344,741.035 141.344,851.701 183,966.5C 207.046,1024.97 240.379,1077.3 283,1123.5C 347.331,1190.06 420.498,1244.56 502.5,1287C 617.181,1345.34 737.847,1386.34 864.5,1410C 1056.04,1445.05 1248.04,1447.72 1440.5,1418C 1566.59,1398.23 1687.59,1361.9 1803.5,1309C 1881.79,1272.73 1953.46,1226.73 2018.5,1171C 2028.01,1162.32 2037.34,1153.49 2046.5,1144.5C 2059.29,1138.61 2071.96,1132.44 2084.5,1126C 2091.28,1121.55 2097.78,1116.72 2104,1111.5C 2104.67,1112.17 2104.67,1112.83 2104,1113.5C 2058.57,1166.42 2007.07,1212.25 1949.5,1251C 1838.16,1323.49 1717.83,1376.15 1588.5,1409C 1313.22,1478.65 1037.88,1478.98 762.5,1410C 646.566,1380.25 537.233,1334.92 434.5,1274C 375.656,1237.78 321.823,1194.95 273,1145.5C 233.656,1104.14 201.322,1057.81 176,1006.5C 116.757,877.672 121.09,751.005 189,626.5C 210.751,588.334 236.418,553 266,520.5C 332.64,451.454 408.473,394.954 493.5,351C 507.711,343.728 522.044,336.728 536.5,330C 560.396,263.106 603.396,212.439 665.5,178C 716.966,152.597 771.299,143.264 828.5,150C 868.965,154.49 907.465,165.656 944,183.5C 981.487,156.059 1023.32,139.726 1069.5,134.5 Z"/></g>
<g><path style="opacity:1" fill="#8c8fa9" d="M 1076.5,239.5 C 1091.9,239.138 1107.23,239.972 1122.5,242C 1131.91,243.802 1140.91,246.802 1149.5,251C 1161.02,257.589 1172.02,264.922 1182.5,273C 1215.53,302.008 1250.53,328.342 1287.5,352C 1291.17,353.667 1294.83,355.333 1298.5,357C 1366.43,368.99 1434.76,377.99 1503.5,384C 1545.61,386.79 1587.61,385.79 1629.5,381C 1655.37,377.155 1680.03,369.488 1703.5,358C 1717.05,348.12 1729.72,337.12 1741.5,325C 1757.28,312.77 1774.62,303.103 1793.5,296C 1826.46,282.283 1860.8,274.783 1896.5,273.5C 1914.63,273.601 1931.79,277.601 1948,285.5C 1972.58,266.959 2000.08,255.126 2030.5,250C 2070.24,245.113 2101.4,258.947 2124,291.5C 2131.94,304.437 2140.27,317.104 2149,329.5C 2157.79,341.631 2168.96,350.797 2182.5,357C 2209.65,361.532 2231.81,374.365 2249,395.5C 2268.92,427.954 2269.59,460.954 2251,494.5C 2246.67,501.167 2242.33,507.833 2238,514.5C 2232.43,569.583 2212.26,618.416 2177.5,661C 2230.83,784.279 2226.33,905.445 2164,1024.5C 2158.41,1033.34 2153.08,1042.34 2148,1051.5C 2099.47,1106.68 2038.64,1139.18 1965.5,1149C 1951.19,1150.38 1936.86,1150.71 1922.5,1150C 1904.48,1146.99 1886.48,1143.99 1868.5,1141C 1847.83,1140.33 1827.17,1140.33 1806.5,1141C 1789.2,1159.66 1768.53,1173.32 1744.5,1182C 1710.38,1193.36 1675.38,1200.36 1639.5,1203C 1604.49,1204.43 1569.49,1204.93 1534.5,1204.5C 1527.92,1215.24 1518.59,1222.41 1506.5,1226C 1457.88,1240.38 1408.22,1248.38 1357.5,1250C 1333.97,1250.91 1310.47,1250.41 1287,1248.5C 1284.5,1248.83 1282,1249.17 1279.5,1249.5C 1278.3,1255.74 1275.63,1261.24 1271.5,1266C 1261.61,1273.3 1250.61,1278.3 1238.5,1281C 1150.91,1302.22 1062.24,1308.22 972.5,1299C 943.18,1295.92 914.847,1288.92 887.5,1278C 880.342,1274.59 873.342,1270.92 866.5,1267C 750.673,1271.63 645.006,1241.3 549.5,1176C 512.873,1149.71 482.039,1117.87 457,1080.5C 442.844,1057.37 432.177,1032.71 425,1006.5C 388.955,982.789 359.288,952.789 336,916.5C 314.528,877.164 320.362,842.331 353.5,812C 374.251,793.737 396.251,777.237 419.5,762.5C 410.663,740.155 404.163,717.155 400,693.5C 395.762,655.77 410.928,629.27 445.5,614C 467.796,605.509 490.796,600.009 514.5,597.5C 510.409,587.642 506.576,577.642 503,567.5C 497.565,548.544 497.232,529.544 502,510.5C 507.678,495.616 516.845,483.449 529.5,474C 564.21,452.821 601.543,437.987 641.5,429.5C 635.631,383.301 646.465,341.634 674,304.5C 699.81,275.175 732.31,258.342 771.5,254C 824.571,249.434 873.238,261.767 917.5,291C 939.826,290.477 962.159,290.477 984.5,291C 1007.98,261.092 1038.65,243.925 1076.5,239.5 Z"/></g>
<g><path style="opacity:1" fill="#a3a6c2" d="M 1090.5,271.5 C 1117.12,270.875 1141.12,278.375 1162.5,294C 1181.78,310.303 1201.78,325.636 1222.5,340C 1229.06,344.446 1236.06,348.113 1243.5,351C 1209,346.705 1174.33,344.039 1139.5,343C 1114.29,328.063 1087.62,316.396 1059.5,308C 1048.81,305.328 1038.15,302.661 1027.5,300C 1045.84,284.495 1066.84,274.995 1090.5,271.5 Z"/></g>
<g><path style="opacity:1" fill="#a3a6c2" d="M 2041.5,283.5 C 2064.6,281.135 2083.44,288.802 2098,306.5C 2103.75,316.997 2109.75,327.33 2116,337.5C 2124.87,347.848 2135.04,356.681 2146.5,364C 2163.98,372.572 2180.98,381.905 2197.5,392C 2210.42,400.923 2219.59,412.756 2225,427.5C 2227.18,436.688 2226.52,445.688 2223,454.5C 2209.38,484.788 2186.88,505.288 2155.5,516C 2150.08,517.352 2144.58,518.185 2139,518.5C 2098.69,512.358 2058.19,510.525 2017.5,513C 1997.3,516.179 1977.96,522.179 1959.5,531C 1903.5,560 1847.5,589 1791.5,618C 1746.62,640.354 1699.62,646.354 1650.5,636C 1610.72,626.964 1571.39,616.297 1532.5,604C 1500.27,594.238 1467.6,592.238 1434.5,598C 1415.36,602.569 1397.36,609.902 1380.5,620C 1348,640.751 1315.66,661.751 1283.5,683C 1258.09,698.731 1232.43,714.065 1206.5,729C 1170.46,748.943 1131.8,758C 1090.5,758C 1061.76,759.559 1033.43,756.892 1005.5,750C 977.958,740.597 950.291,731.597 922.5,723C 897.225,715.945 871.559,710.945 845.5,708C 774.274,701.873 718.108,727.706 677,785.5C 653.561,825.021 644.561,867.688 650,913.5C 651.96,928.952 654.293,944.286 657,959.5C 641.398,972.095 626.065,985.095 611,998.5C 599.254,976.919 589.254,954.586 581,931.5C 574.662,912.47 573.328,893.136 577,873.5C 583.905,855.688 591.905,838.354 601,821.5C 609.839,807.158 618.173,792.492 626,777.5C 627.405,773.928 627.738,770.261 627,766.5C 624.123,765.17 621.289,765.336 618.5,767C 587.484,796.829 564.317,831.996 549,872.5C 541.781,897.141 541.781,921.808 549,946.5C 555.376,967.627 563.71,987.961 574,1007.5C 575.929,1017.45 577.595,1027.45 579,1037.5C 584.6,1050.22 594.1,1054.72 607.5,1051C 618.308,1046.77 627.975,1040.77 636.5,1033C 649.277,1019.88 662.944,1007.88 677.5,997C 708.545,981.156 741.545,973.323 776.5,973.5C 810.966,972.949 842.966,981.449 872.5,999C 891.167,1012.33 909.833,1025.67 928.5,1039C 971.679,1065.98 1016.35,1068.65 1062.5,1047C 1117.27,1017.87 1171.27,987.535 1224.5,956C 1286.45,920.798 1351.45,913.798 1419.5,935C 1464.4,954.117 1509.0784,1553.5,994C 1590.2,1010.79 1628.54,1022.12 1668.5,1028C 1764.1,1040.3 1859.77,1040.63 1955.5,1029C 1997.6,1023.91 2038.6,1014.25 2078.5,1000C 2088.07,996.214 2097.41,991.88 2106.5,987C 2123.7,981.536 2129.87,987.703 2125,1005.5C 2118.78,1026.44 2107.61,1044.27 2091.5,1059C 2059.1,1088.37 2021.44,1108.03 1978.5,1118C 1966.78,1120.34 1954.95,1121.51 1943,1121.5C 1908.49,1119.48 1873.99,1117.31 1839.5,1115C 1787.17,1115.14 1734.83,1115.14 1682.5,1115C 1645.61,1113.16 1608.77,1110.66 1572,1107.5C 1564.83,1107.67 1557.67,1107.83 1550.5,1108C 1421.89,1123.01 1292.89,1128.01 1163.5,1123C 1155.72,1123.93 1148.38,1126.26 1141.5,1130C 1105.94,1156.95 1066.94,1177.95 1024.5,1193C 970.378,1214.2 914.378,1227.53 856.5,1233C 762.287,1235.93 674.953,1212.93 594.5,1164C 553.221,1138.39 518.721,1105.56 491,1065.5C 460.109,1016.59 447.776,963.261 454,905.5C 459.013,829.792 482.347,760.459 524,697.5C 548.342,662.489 578.509,633.656 614.5,611C 617.893,608.637 621.56,606.804 625.5,605.5C 626.938,605.719 628.271,606.219 629.5,607C 637.608,616.114 646.608,624.114 656.5,631C 671.006,637.151 674.172,633.318 666,619.5C 643.996,594.825 635.996,566.158 642,533.5C 647.572,511.695 656.406,491.361 668.5,472.5C 676.065,479.568 684.065,486.068 692.5,492C 701.042,497.104 704.542,494.938 703,485.5C 682.368,452.739 674.701,417.072 680,378.5C 685.555,340.296 706.055,313.796 741.5,299C 803.329,276.26 859.996,285.26 911.5,326C 939.958,351.465 969.292,375.798 999.5,399C 1016.57,410.952 1035.07,420.119 1055,426.5C 1063.39,425.727 1065.22,422.06 1060.5,415.5C 1033.25,398.747 1007.25,380.247 982.5,360C 972.454,350.795 964.121,340.295 957.5,328.5C 1011.85,327.338 1062.85,339.838 1110.5,366C 1115.95,368.595 1121.62,370.595 1127.5,372C 1202.23,373.533 1276.56,379.866 1350.5,391C 1392.37,398.533 1434.37,405.2 1476.5,411C 1531.93,414.989 1587.26,413.989 1642.5,408C 1653.32,405.959 1663.99,403.626 1674.5,401C 1669.24,408.263 1663.24,414.93 1656.5,421C 1642.89,431.942 1628.72,442.109 1614,451.5C 1611.55,456.892 1613.38,458.892 1619.5,457.5C 1625.81,457.255 1631.81,455.755 1637.5,453C 1658.22,443.647 1676.89,431.314 1693.5,416C 1707.83,400.333 1722.83,385.333 1738.5,371C 1774.94,343.117 1815.61,323.783 1860.5,313C 1885.57,307.393 1910.24,308.726 1934.5,317C 1941.69,320.205 1948.36,324.205 1954.5,329C 1968.87,343.034 1983.53,356.7 1998.5,370C 2027.57,393.366 2060.57,408.366 2097.5,415C 2103.06,416.098 2108.23,415.265 2113,412.5C 2113.67,410.833 2113.67,409.167 2113,407.5C 2110.15,403.989 2107.32,400.489 2104.5,397C 2110.82,385.128 2107.32,379.295 2094,379.5C 2083.97,381.039 2073.97,382.706 2064,384.5C 2058.14,384.326 2052.64,382.826 2047.5,380C 2037.98,374.141 2029.48,366.974 2022,358.5C 2012.62,347.455 2003.62,336.121 1995,324.5C 1990.13,319.3 1984.97,314.467 1979.5,310C 1998.19,296.387 2018.85,287.554 2041.5,283.5 Z"/></g>
<g><path style="opacity:1" fill="#8c8fa9" d="M 1240.5,305.5 C 1369.02,309.476 1494.69,330.976 1617.5,370C 1572.5,374.667 1527.5,374.667 1482.5,370C 1423.99,363.022 1365.66,355.022 1307.5,346C 1298.57,343.704 1290.24,340.038 1282.5,335C 1268.07,325.725 1254.07,315.892 1240.5,305.5 Z"/></g>
<g><path style="opacity:1" fill="#8c8fa9" d="M 812.5,359.5 C 828.078,357.751 842.078,361.584 854.5,371C 870.418,385.582 884.918,401.416 898,418.5C 917.771,439.799 940.937,456.299 967.5,468C 979.912,472.682 992.745,475.182 1006,475.5C 1018.52,474.233 1031.02,473.066 1043.5,472C 1050.35,473.965 1052.19,478.132 1049,484.5C 1046.44,486.727 1043.6,488.561 1040.5,490C 1029.19,492.461 1017.86,494.795 1006.5,497C 981.178,529.663 949.511,553.997 911.5,570C 876.789,582.913 841.123,586.58 804.5,581C 801.382,580.127 798.382,578.961 795.5,577.5C 792.421,573.02 793.754,570.52 799.5,570C 809.791,568.828 820.124,568.161 830.5,568C 851.01,567.059 869.01,560.059 884.5,547C 836.104,545.596 807.937,521.096 800,473.5C 796.687,445.987 799.52,419.154 808.5,393C 805.028,391.42 801.362,391.087 797.5,392C 785.955,395.772 774.622,400.105 763.5,405C 757.333,406.833 755.167,404.667 757,398.5C 771.026,378.95 789.526,365.95 812.5,359.5 Z"/></g>
<g><path style="opacity:1" fill="#8c8fa9" d="M 1865.5,386.5 C 1877.39,385.736 1889.05,386.903 1900.5,390C 1902.5,391 1904.5,392 1906.5,393C 1919.64,412.136 1937.3,425.136 1959.5,432C 1969.47,434.46 1979.47,436.793 1989.5,439C 1993.77,439.912 1995.6,442.412 1995,446.5C 1989.76,448.715 1984.26,449.715 1978.5,449.5C 1947.48,448.332 1920.15,437.832 1896.5,418C 1893.06,415.944 1889.39,414.444 1885.5,413.5C 1882.23,414.47 1879.23,415.97 1876.5,418C 1860.75,434.745 1842.09,447.078 1820.5,455C 1813.18,457.501 1806.18,456.834 1799.5,453C 1797.62,451.457 1796.12,449.624 1795,447.5C 1793.23,439.648 1794.9,432.648 1800,426.5C 1818.48,407.482 1840.32,394.149 1865.5,386.5 Z"/></g>
<g><path style="opacity:1" fill="#8c8fa9" d="M 625.5,408.5 C 627.423,412.029 628.089,416.029 627.5,420.5C 588.106,429.701 551.439,445.201 517.5,467C 490.314,491.22 479.814,521.386 486,557.5C 488.364,567.257 491.53,576.757 495.5,586C 495.095,586.945 494.428,587.612 493.5,588C 469.645,591.73 446.978,599.063 425.5,610C 391.118,633.968 378.952,666.468 389,707.5C 393.496,724.64 398.163,741.64 403,758.5C 378.941,773.882 356.608,791.548 336,811.5C 304.589,847.097 301.255,885.097 326,925.5C 349.245,961.412 378.578,991.412 414,1015.5C 428.088,1063.03 452.422,1104.36 487,1139.5C 547.336,1197.61 618.169,1238.11 699.5,1261C 752.226,1276.99 806.06,1283.15 861,1279.5C 884.684,1292.28 909.85,1301.12 936.5,1306C 987.122,1315.04 1038.12,1318.04 1089.5,1315C 1148.04,1312.73 1205.37,1303.4 1261.5,1287C 1273.74,1282.09 1282.74,1273.76 1288.5,1262C 1353.2,1266.05 1417.2,1261.05 1480.5,1247C 1498.02,1242.83 1514.69,1236.49 1530.5,1228C 1534.83,1225 1538.5,1221.33 1541.5,1217C 1584.6,1218.7 1627.6,1217.37 1670.5,1213C 1707.68,1208.39 1743.01,1197.72 1776.5,1181C 1789.48,1173.52 1801.15,1164.35 1811.5,1153.5C 1827.16,1152.33 1842.82,1152.17 1858.5,1153C 1867.7,1153.62 1876.7,1154.95 1885.5,1157C 1818.05,1204.06 1745.38,1241.73 1667.5,1270C 1540.05,1315.62 1408.72,1342.29 1273.5,1350C 1092.96,1361.79 915.962,1342.13 742.5,1291C 645.251,1261.7 554.584,1219.04 470.5,1163C 415.77,1125.86 368.604,1080.69 329,1027.5C 290.323,974.486 267.989,915.153 262,849.5C 258.457,786.673 271.79,727.673 302,672.5C 320.181,639.985 341.848,609.985 367,582.5C 420.423,527.387 480.923,481.887 548.5,446C 573.737,432.38 599.404,419.88 625.5,408.5 Z"/></g>
<g><path style="opacity:1" fill="#a3a6c2" d="M 834.5,414.5 C 843.385,417.943 851.719,422.443 859.5,428C 868.941,434.442 877.441,441.942 885,450.5C 883.946,466.273 877.279,479.273 865,489.5C 861.454,496.59 863.62,499.924 871.5,499.5C 891.188,497.742 907.022,489.075 919,473.5C 931.636,481.485 944.97,488.151 959,493.5C 960.257,493.85 960.591,494.517 960,495.5C 944.768,517.26 923.768,527.593 897,526.5C 844.523,526.692 820.523,500.692 825,448.5C 827.24,436.871 830.406,425.538 834.5,414.5 Z"/></g>
<g><path style="opacity:1" fill="#a3a6c2" d="M 626.5,464.5 C 627.376,464.369 628.043,464.702 628.5,465.5C 609.127,499.991 599.627,536.991 600,576.5C 587.296,588.206 574.296,599.54 561,610.5C 548.471,593.78 538.804,575.447 532,555.5C 524.762,533.942 529.595,515.776 546.5,501C 571.088,484.205 597.755,472.038 626.5,464.5 Z"/></g>
<g><path style="opacity:1" fill="#a3a6c2" d="M 2204.5,534.5 C 2206.17,534.5 2207.83,534.5 2209.5,534.5C 2208.83,549.195 2205.33,563.195 2199,576.5C 2184.32,605.876 2166.66,633.209 2146,658.5C 2134.65,671.413 2121.15,681.246 2105.5,688C 2101.83,688.667 2098.17,688.667 2094.5,688C 2092.56,685.847 2092.06,683.347 2093,680.5C 2108.27,656.308 2122.27,631.308 2135,605.5C 2142.25,590.253 2146.75,574.253 2148.5,557.5C 2157.74,558.032 2166.74,556.865 2175.5,554C 2185.36,547.607 2195.03,541.107 2204.5,534.5 Z"/></g>
<g><path style="opacity:1" fill="#a3a6c2" d="M 2059.5,546.5 C 2081.51,545.244 2103.18,547.244 2124.5,552.5C 2117.38,582.353 2106.21,610.687 2091,637.5C 2074.77,668.446 2054.27,696.279 2029.5,721C 2023.25,726.593 2016.08,730.426 2008,732.5C 2005.97,732.646 2004.3,731.98 2003,730.5C 2002.33,727.5 2002.33,724.5 2003,721.5C 2022.58,685.747 2037.25,648.08 2047,608.5C 2051.97,588.997 2053.13,569.33 2050.5,549.5C 2053.42,548.047 2056.42,547.047 2059.5,546.5 Z"/></g>
<g><path style="opacity:1" fill="#a3a6c2" d="M 2013.5,549.5 C 2015.86,549.337 2018.19,549.503 2020.5,550C 2021.89,551.171 2022.73,552.671 2023,554.5C 2024.14,570.643 2023.14,586.643 2020,602.5C 2004.81,664.748 1974.31,717.914 1928.5,762C 1920.19,769.496 1910.85,775.496 1900.5,780C1888.64,784.753 1882.31,780.92 1881.5,768.5C 1889.91,727.952 1893.41,686.952 1892,645.5C 1891.16,633.736 1889.66,622.069 1887.5,610.5C 1899,604.748 1910.67,598.914 1922.5,593C 1938.64,582.205 1955.31,572.205 1972.5,563C 1985.72,556.786 1999.39,552.286 2013.5,549.5 Z"/></g>
<g><path style="opacity:1" fill="#a3a6c2" d="M 534.5,626.5 C 536.857,626.337 539.19,626.503 541.5,627C 502.627,664.227 472.794,707.727 452,757.5C 442.18,735.372 435.18,712.372 431,688.5C 429.887,665.611 440.054,650.111 461.5,642C 485.277,633.546 509.611,628.38 534.5,626.5 Z"/></g>
<g><path style="opacity:1" fill="#a3a6c2" d="M 1450.5,629.5 C 1457.67,629.012 1464.67,629.845 1471.5,632C 1472.67,632.5 1473.5,633.333 1474,634.5C 1474.02,677.955 1458.52,714.789 1427.5,745C 1397.44,768.547 1385.61,761.381 1392,723.5C 1388.14,703.657 1378.47,687.323 1363,674.5C 1362.33,673.5 1362.33,672.5 1363,671.5C 1388.23,649.3 1417.4,635.3 1450.5,629.5 Z"/></g>
<g><path style="opacity:1" fill="#a3a6c2" d="M 1831.5,637.5 C 1826.28,686.285 1807.11,728.951 1774,765.5C 1767.13,772.041 1759.96,778.207 1752.5,784C 1748.11,786.861 1743.45,789.194 1738.5,791C 1726.96,793.464 1721.63,788.797 1722.5,777C 1726.05,756.655 1727.21,736.155 1726,715.5C 1724.9,702.61 1721.4,690.443 1715.5,679C 1751.79,675.012 1786.13,664.679 1818.5,648C 1823.31,645.015 1827.64,641.515 1831.5,637.5 Z"/></g>
<g><path style="opacity:1" fill="#a3a6c2" d="M 1544.5,644.5 C 1544.74,643.903 1545.24,643.57 1546,643.5C 1568.7,651.067 1591.53,658.233 1614.5,665C 1627.64,668.785 1640.97,671.618 1654.5,673.5C 1651.39,689.059 1644.55,702.726 1634,714.5C 1615.48,735.036 1593.65,750.869 1568.5,762C 1560.9,764.557 1553.73,763.724 1547,759.5C 1545.16,756.963 1544.33,754.129 1544.5,751C 1549.91,725.455 1552.08,699.621 1551,673.5C 1549.66,664.438 1547.99,655.438 1546,646.5C 1545.72,645.584 1545.22,644.918 1544.5,644.5 Z"/></g>
<g><path style="opacity:1" fill="#a3a6c2" d="M 2159.5,678.5 C 2161.89,679.219 2163.39,680.885 2164,683.5C 2206.17,790.423 2202.5,895.756 2153,999.5C 2152.5,994.988 2152.67,990.488 2153.5,986C 2153.02,969.518 2144.52,961.018 2128,960.5C 2118.57,961.418 2109.41,963.418 2100.5,966.5C 2102.43,946.135 2098.93,926.802 2090,908.5C 2087.14,904.131 2083.81,900.131 2080,896.5C 2081.87,883.915 2083.54,871.249 2085,858.5C 2088.5,822.374 2085.84,786.707 2077,751.5C 2078.12,740.135 2081.29,729.302 2086.5,719C 2098.51,718.498 2109.84,715.498 2120.5,710C 2135.03,701.4 2148.03,690.9 2159.5,678.5 Z"/></g>
<g><path style="opacity:1" fill="#a3a6c2" d="M 1301.5,703.5 C 1303.16,704.949 1304,706.949 1304,709.5C 1305.59,757.151 1288.42,796.651 1252.5,828C 1248.76,830.785 1244.6,832.618 1240,833.5C 1233.49,832.981 1230.66,829.481 1231.5,823C 1235.14,805.032 1233.64,787.532 1227,770.5C 1224.25,764.358 1221.59,758.358 1219,752.5C 1246.18,740.168 1272.01,725.668 1296.5,709C 1298.37,707.296 1300.04,705.463 1301.5,703.5 Z"/></g>
<g><path style="opacity:1" fill="#a3a6c2" d="M 803.5,729.5 C 815.838,729.333 828.171,729.5 840.5,730C 846.899,730.518 852.565,732.684 857.5,736.5C 840.868,765.702 832.035,797.035 831,830.5C 823.874,834.466 816.707,834.3 809.5,830C 791.903,819.318 779.07,804.485 771,785.5C 766.327,773.49 762.827,761.157 760.5,748.5C 760.39,746.626 761.056,745.126 762.5,744C 775.305,736.455 788.972,731.622 803.5,729.5 Z"/></g>
<g><path style="opacity:1" fill="#a3a6c2" d="M 1324.5,745.5 C 1339.18,746.834 1353.84,748.168 1368.5,749.5C 1372.57,776.537 1387.57,785.704 1413.5,777C 1423.96,772.608 1433.62,766.941 1442.5,760C 1444.37,759.015 1446.37,758.515 1448.5,758.5C 1478.68,763.169 1508.01,771.003 1536.5,782C 1593.67,803.919 1649.67,828.585 1704.5,856C 1719.27,862.719 1734.27,868.886 1749.5,874.5C 1750.52,875.002 1750.69,875.668 1750,876.5C 1717.69,924.269 1673.53,955.603 1617.5,970.5C 1616.71,937.368 1611.21,905.035 1601,873.5C 1597.26,861.35 1591.92,850.016 1585,839.5C 1576.88,829.192 1566.38,823.192 1553.5,821.5C 1545.31,821.51 1538.81,824.843 1534,831.5C 1529.59,843.732 1524.59,855.732 1519,867.5C 1509.55,883.287 1497.05,896.12 1481.5,906C 1475.23,909.703 1468.56,912.537 1461.5,914.5C 1460.56,914.392 1459.72,914.059 1459,913.5C 1441.22,865.399 1411.72,826.233 1370.5,796C 1360.59,788.919 1349.59,785.919 1337.5,787C 1327.45,789.72 1321.61,796.22 1320,806.5C 1322.03,832.73 1315.36,856.397 1300,877.5C 1295.8,882.034 1291.3,886.201 1286.5,890C 1276.14,894.786 1265.48,898.786 1254.5,902C 1249.38,904.644 1244.21,907.144 1239,909.5C 1221.12,888.161 1199.95,870.994 1175.5,858C 1164.65,852.716 1154.32,853.383 1144.5,860C 1141.74,863.361 1139.9,867.195 1139,871.5C 1137.45,896.445 1132.79,920.778 1125,944.5C 1117.31,966.732 1104.15,984.898 1085.5,999C 1080.87,1001.9 1076.04,1004.4 1071,1006.5C 1067.65,984.774 1062.65,963.441 1056,942.5C 1047.57,920.07 1032.4,904.237 1010.5,895C 994.721,890.299 984.887,895.799 981,911.5C 982.684,931.773 977.684,950.106 966,966.5C 960.38,972.955 953.546,977.622 945.5,980.5C 930.83,962.843 919.996,942.843 913,920.5C 912.206,917.529 911.539,914.529 911,911.5C 910.667,901.5 910.333,891.5 910,881.5C 905.453,862.467 893.619,855.633 874.5,861C 862.436,867.064 852.936,875.897 846,887.5C 837.83,902.345 831.83,918.011 828,934.5C 821.046,928.538 816.046,921.204 813,912.5C 808.827,898.304 805.16,883.971 802,869.5C 797.328,855.077 787.495,849.244 772.5,852C 759.363,855.153 748.53,861.987 740,872.5C 721.186,894.799 710.02,920.465 706.5,949.5C 699.708,950.198 693.041,951.531 686.5,953.5C 685.749,952.624 685.249,951.624 685,950.5C 679.103,919.985 678.103,889.319 682,858.5C 685.77,829.13 697.937,803.964 718.5,783C 724.734,777.63 731.567,773.13 739,769.5C 747.884,795.053 762.384,816.886 782.5,835C 794.734,844.913 808.734,850.413 824.5,851.5C 833.7,851.98 841.533,848.98 848,842.5C 850.184,839.134 851.517,835.467 852,831.5C 851.643,802.407 859.476,775.74 875.5,751.5C 892.634,752.781 909.301,756.615 925.5,763C 928.586,764.093 931.086,765.926 933,768.5C 932.881,781.651 930.214,794.318 925,806.5C 921.333,814.5 917.667,822.5 914,830.5C 908.574,846.737 914.074,857.237 930.5,862C 939.631,862.993 948.631,862.326 957.5,860C 996.57,846.48 1029.9,824.48 1057.5,794C 1060.07,791.541 1063.07,790.541 1066.5,791C 1067,791.5 1067.5,792 1068,792.5C 1068.78,803.202 1068.44,813.869 1067,824.5C 1063.63,838.611 1059.46,852.444 1054.5,866C 1057.07,879.642 1065.4,886.142 1079.5,885.5C 1092.59,884.457 1104.59,880.29 1115.5,873C 1149.73,851.442 1172.56,821.276 1184,782.5C 1187.97,779.098 1192.47,776.598 1197.5,775C 1199.83,774.333 1202.17,774.333 1204.5,775C 1210.98,783.729 1213.98,793.562 1213.5,804.5C 1213.07,812.021 1212.4,819.521 1211.5,827C 1212.68,843.012 1221.35,851.512 1237.5,852.5C 1250.46,850.855 1261.79,845.688 1271.5,837C 1298.06,811.72 1315.73,781.22 1324.5,745.5 Z"/></g>
<g><path style="opacity:1" fill="#a3a6c2" d="M 958.5,758.5 C 984.143,769.245 1010.81,776.245 1038.5,779.5C 1028.03,798.475 1013.36,813.308 994.5,824C 979.175,833.163 962.842,839.83 945.5,844C 939.924,845.472 935.091,844.305 931,840.5C 930.333,837.833 930.333,835.167 931,832.5C 942.888,815.387 951.555,796.72 957,776.5C 958.162,770.555 958.662,764.555 958.5,758.5 Z"/></g>
<g><path style="opacity:1" fill="#a3a6c2" d="M 1159.5,771.5 C 1160.83,771.5 1162.17,771.5 1163.5,771.5C 1160.44,792.95 1151.94,811.95 1138,828.5C 1129.83,838 1121,846.833 1111.5,855C 1104.78,860.031 1097.44,864.031 1089.5,867C 1085.83,867.667 1082.17,867.667 1078.5,867C 1076.34,865.839 1075.34,864.006 1075.5,861.5C 1078.04,853.413 1080.87,845.413 1084,837.5C 1087.98,819.381 1089.48,801.048 1088.5,782.5C 1103.92,782.548 1119.26,781.381 1134.5,779C 1143.18,777.252 1151.51,774.752 1159.5,771.5 Z"/></g>
<g><path style="opacity:1" fill="#a3a6c2" d="M 439.5,788.5 C 440.376,788.369 441.043,788.702 441.5,789.5C 424.769,844.56 416.935,900.893 418,958.5C 399.294,944.128 382.961,927.461 369,908.5C 348.574,880.783 351.407,855.616 377.5,833C 396.675,815.977 417.341,801.144 439.5,788.5 Z"/></g>
<g><path style="opacity:1" fill="#a3a6c2" d="M 1344.5,807.5 C 1351.47,808.316 1357.8,810.816 1363.5,815C 1392.29,841.111 1415.79,871.278 1434,905.5C 1434.69,907.722 1435.53,909.889 1436.5,912C 1436.17,912.5 1435.83,913 1435.5,913.5C 1418.05,903.963 1399.39,898.13 1379.5,896C 1357.08,893.007 1334.75,893.007 1312.5,896C 1335.78,872.491 1345.28,844.324 1341,811.5C 1341.69,809.65 1342.86,808.316 1344.5,807.5 Z"/></g>
<g><path style="opacity:1" fill="#a3a6c2" d="M 1554.5,846.5 C 1559.81,845.74 1563.65,847.74 1566,852.5C 1571.36,861.567 1575.36,871.233 1578,881.5C 1582.77,902.702 1586.77,924.036 1590,945.5C 1590.67,952.167 1590.67,958.833 1590,965.5C 1589.95,970.032 1589.12,974.366 1587.5,978.5C 1577.16,970.992 1566.16,964.492 1554.5,959C 1530.7,948.43 1506.7,938.43 1482.5,929C 1501.98,922.856 1517.48,911.356 1529,894.5C 1538.27,882.539 1544.93,869.206 1549,854.5C 1550.27,851.403 1552.11,848.736 1554.5,846.5 Z"/></g>
<g><path style="opacity:1" fill="#a3a6c2" d="M 770.5,871.5 C 778.783,870.215 783.95,873.548 786,881.5C 787.986,903.792 795.319,924.126 808,942.5C 809.833,944.333 811.667,946.167 813.5,948C 784.975,942.528 756.642,943.694 728.5,951.5C 730.851,921.967 742.518,896.8 763.5,876C 765.898,874.476 768.231,872.976 770.5,871.5 Z"/></g>
<g><path style="opacity:1" fill="#a3a6c2" d="M 1159.5,873.5 C 1163.75,873.178 1167.75,874.011 1171.5,876C 1187.46,886.286 1201.96,898.452 1215,912.5C 1218.24,916.744 1221.08,921.244 1223.5,926C 1202.92,935.619 1182.26,945.286 1161.5,955C 1153.05,960.181 1144.72,965.181 1136.5,970C 1151.14,940.935 1157.97,910.101 1157,877.5C 1157.66,876.016 1158.5,874.683 1159.5,873.5 Z"/></g>
<g><path style="opacity:1" fill="#a3a6c2" d="M 880.5,877.5 C 885.181,876.456 888.348,878.123 890,882.5C 887.82,909.289 893.486,934.289 907,957.5C 914.341,967.506 920.674,978.173 926,989.5C 928.448,994.948 929.448,1000.61 929,1006.5C 927.207,1003.7 925.04,1001.2 922.5,999C 898.848,982.003 873.515,967.836 846.5,956.5C 845.308,950.146 845.475,943.813 847,937.5C 851.263,919.646 858.263,902.98 868,887.5C 871.512,883.134 875.679,879.801 880.5,877.5 Z"/></g>
<g><path style="opacity:1" fill="#a3a6c2" d="M 1773.5,888.5 C 1780.73,887.893 1784.9,891.226 1786,898.5C 1786.67,922.5 1786.67,946.5 1786,970.5C 1785.65,978.583 1784.65,986.583 1783,994.5C 1782.51,997.982 1781.34,1001.15 1779.5,1004C 1739.89,1005.98 1700.56,1003.65 1661.5,997C 1654.91,995.77 1648.58,993.77 1642.5,991C 1684.46,977.953 1720.29,955.453 1750,923.5C 1756.09,914.995 1761.42,905.995 1766,896.5C 1768.03,893.308 1770.53,890.641 1773.5,888.5 Z"/></g>
<g><path style="opacity:1" fill="#a3a6c2" d="M 1928.5,890.5 C 1935.12,890.609 1939.29,893.942 1941,900.5C 1944.84,921.713 1945.51,943.046 1943,964.5C 1941.99,975.211 1940.66,985.878 1939,996.5C 1938.53,997.931 1937.7,999.097 1936.5,1000C 1919.16,1004.5 1901.49,1006.84 1883.5,1007C 1859.07,1008.17 1834.74,1007.17 1810.5,1004C 1849.06,983.449 1881.56,955.616 1908,920.5C 1912,913.167 1916,905.833 1920,898.5C 1922.07,894.923 1924.91,892.256 1928.5,890.5 Z"/></g>
<g><path style="opacity:1" fill="#a3a6c2" d="M 1810.5,895.5 C 1834.11,901.986 1857.78,908.319 1881.5,914.5C 1866.19,934.311 1848.19,951.144 1827.5,965C 1823.19,967.988 1818.52,970.155 1813.5,971.5C 1815.5,946.041 1814.5,920.708 1810.5,895.5 Z"/></g>
<g><path style="opacity:1" fill="#a3a6c2" d="M 2064.5,910.5 C 2068.28,910.974 2071.45,912.641 2074,915.5C 2082.45,933.455 2083.45,951.788 2077,970.5C 2072.34,976.756 2066.18,980.922 2058.5,983C 2047.99,985.52 2037.32,986.687 2026.5,986.5C 2029.71,975.018 2032.21,963.352 2034,951.5C 2045.37,941.093 2054.04,928.76 2060,914.5C 2061.4,912.93 2062.9,911.596 2064.5,910.5 Z"/></g>
<g><path style="opacity:1" fill="#a3a6c2" d="M 1975.5,994.5 C 1971.83,994.5 1968.17,994.5 1964.5,994.5C 1964.5,993.5 1964.5,992.5 1964.5,991.5C 1966.33,975.22 1967.49,958.886 1968,942.5C 1973.05,933.451 1978.89,924.951 1985.5,917C 1992.22,910.842 1998.72,911.008 2005,917.5C 2011.8,930.717 2014.13,944.717 2012,959.5C 2010.41,968.257 2008.41,976.924 2006,985.5C 2005.65,987.848 2004.49,989.681 2002.5,991C 1993.58,992.775 1984.58,993.941 1975.5,994.5 Z"/></g>
<g><path style="opacity:1" fill="#b3b6cf" d="M 1964.5,991.5 C 1964.5,992.5 1964.5,993.5 1964.5,994.5C 1968.17,994.5 1971.83,994.5 1975.5,994.5C 1971.7,995.483 1967.7,995.817 1963.5,995.5C 1963.23,993.901 1963.57,992.568 1964.5,991.5 Z"/></g>
<g><path style="opacity:1" fill="#a3a6c2" d="M 1571.5,1133.5 C 1601.67,1137.93 1632,1140.76 1662.5,1142C 1698.83,1142.08 1735.17,1142.08 1771.5,1142C 1751.04,1157.72 1728.04,1168.05 1702.5,1173C 1652.76,1183.52 1602.76,1185.19 1552.5,1178C 1535.29,1174.71 1518.96,1169.04 1503.5,1161C 1496.04,1151.53 1498.37,1145.2 1510.5,1142C 1531.1,1140.05 1551.43,1137.22 1571.5,1133.5 Z"/></g>
<g><path style="opacity:1" fill="#a3a6c2" d="M 1439.5,1147.5 C 1454.41,1146.19 1468.08,1149.69 1480.5,1158C 1493.84,1166.34 1504.84,1177 1513.5,1190C 1513.37,1191.63 1512.87,1193.13 1512,1194.5C 1508.92,1197.29 1505.42,1199.46 1501.5,1201C 1459.94,1214.71 1417.28,1222.38 1373.5,1224C 1326.89,1228.62 1280.89,1225.29 1235.5,1214C 1216.62,1209.04 1198.95,1201.38 1182.5,1191C 1173.29,1185.46 1167.62,1177.46 1165.5,1167C 1165.67,1159 1169.67,1154.83 1177.5,1154.5C 1209.14,1156.49 1240.8,1156.99 1272.5,1156C 1328.4,1154.6 1384.06,1151.77 1439.5,1147.5 Z"/></g>
<g><path style="opacity:1" fill="#a3a6c2" d="M 1096.5,1202.5 C 1129.78,1202.99 1162.11,1208.82 1193.5,1220C 1213.05,1226.44 1232.38,1233.44 1251.5,1241C 1255.5,1244 1255.5,1247 1251.5,1250C 1248.04,1252.05 1244.37,1253.71 1240.5,1255C 1152.04,1277.56 1062.37,1284.56 971.5,1276C 950.409,1273.31 930.076,1267.98 910.5,1260C 942.524,1253.41 974.191,1245.41 1005.5,1236C 1036.23,1225.48 1066.56,1214.32 1096.5,1202.5 Z"/></g>
</svg>
