<svg xmlns="http://www.w3.org/2000/svg" version="1.1" width="2168px" height="1634px" style="shape-rendering:geometricPrecision; text-rendering:geometricPrecision; image-rendering:optimizeQuality; fill-rule:evenodd; clip-rule:evenodd" xmlns:xlink="http://www.w3.org/1999/xlink">
<g><path style="opacity:1" fill="#A3A6C2" d="M 1761.5,843.5 C 1765.04,822.309 1769.54,801.309 1775,780.5C 1789.81,730.732 1803.81,680.732 1817,630.5C 1822.28,605.603 1825.44,580.77 1826.5,556C 1826.13,532.24 1825.63,507.74 1825,482.5C 1824.47,478.057 1823.47,473.723 1822,469.5C 1818.06,462.564 1813.73,455.897 1809,449.5C 1802.12,433.747 1798.62,417.58 1798.5,401C 1787.51,402.135 1776.84,404.801 1766.5,409C 1690.88,441.143 1616.21,475.477 1542.5,512C 1473.11,548.806 1412.61,596.973 1361,656.5C 1354.77,663.175 1353.11,670.842 1356,679.5C 1377.82,718.678 1405.66,753.178 1439.5,783C 1455.5,795.667 1471.5,808.333 1487.5,821C 1531.5,853.333 1575.5,885.667 1619.5,918C 1628.5,923.779 1638.34,926.946 1649,927.5C 1700.11,919.95 1751.28,910.783 1802.5,900C 1823.22,896.071 1843.72,892.904 1864,890.5C 1864.33,890.833 1864.67,891.167 1865,891.5C 1879.5,889.896 1892.16,889.229 1903,889.5C 1938.43,891.602 1974.09,894.269 2010,897.5C 2011,897.167 2012,896.833 2013,896.5C 2020.67,897.167 2028.33,897.833 2036,898.5C 2037.67,898.167 2039.33,897.833 2041,897.5C 2061.77,898.28 2081.44,898.947 2100,899.5C 2117.28,895.633 2134.45,891.133 2151.5,886C 2153.93,884.368 2156.43,882.868 2159,881.5C 2160.17,882.009 2161,882.842 2161.5,884C 2134.13,900.679 2104.47,911.012 2072.5,915C 2055.3,916.746 2038.13,918.246 2021,919.5C 1989.17,919.426 1958.17,919.426 1928,919.5C 1914.18,918.401 1900.34,917.068 1886.5,915.5C 1885.03,916.436 1884.03,917.77 1883.5,919.5C 1889.28,924.563 1895.28,929.396 1901.5,934C 1927.63,948.732 1954.96,960.732 1983.5,970C 2028.96,989.117 2065.79,1018.95 2094,1059.5C 2107.78,1080.71 2120.28,1102.71 2131.5,1125.5C 2130.5,1126.83 2129.5,1128.17 2128.5,1129.5C 2104.1,1102.93 2079.1,1076.76 2053.5,1051C 2015.51,1014.99 1972.18,986.989 1923.5,967C 1883.88,953.043 1843.38,945.209 1802,943.5C 1784.61,943.539 1766.94,943.539 1749,943.5C 1726,945.866 1702.67,948.2 1679,950.5C 1673.89,950.32 1668.89,949.653 1664,948.5C 1661.1,959.905 1663.43,970.238 1671,979.5C 1707.17,1015.98 1739.17,1055.65 1767,1098.5C 1770.88,1105.6 1774.21,1112.93 1777,1120.5C 1782.18,1138.88 1787.51,1157.21 1793,1175.5C 1798,1184.5 1803,1193.5 1808,1202.5C 1813.69,1217.28 1815.69,1232.28 1814,1247.5C 1808.29,1321.55 1769.45,1368.05 1697.5,1387C 1687.09,1389.82 1676.59,1391.98 1666,1393.5C 1638.12,1395.07 1610.28,1391.9 1582.5,1384C 1504.67,1360.75 1430.67,1328.75 1360.5,1288C 1289.9,1246.88 1222.24,1201.55 1157.5,1152C 1122.81,1119.3 1085.81,1089.63 1046.5,1063C 1008.1,1036.94 969.438,1011.27 930.5,986C 927.298,984.517 923.964,984.183 920.5,985C 879.607,1018.31 852.774,1060.81 840,1112.5C 835.961,1136.77 832.294,1161.11 829,1185.5C 825.035,1243.96 837.368,1299.29 866,1351.5C 876.667,1367.5 887.333,1383.5 898,1399.5C 917.305,1429.75 928.138,1461.92 930.5,1496C 926.401,1536.58 906.068,1565.58 869.5,1583C 834.886,1596.57 799.219,1606.24 762.5,1612C 749.748,1613.69 737.248,1614.86 725,1615.5C 712.329,1614.49 697.996,1614.15 682,1614.5C 670.543,1615.88 658.709,1616.54 646.5,1616.5C 622.154,1615.59 597.987,1613.26 574,1609.5C 567.067,1609.77 560.4,1609.77 554,1609.5C 527.667,1610.31 502.167,1616.14 477.5,1627C 460.271,1632.55 442.938,1632.88 425.5,1628C 404.059,1619.65 382.225,1616.49 360,1618.5C 345.07,1621.02 330.237,1624.19 315.5,1628C 309.217,1628.23 303.717,1628.73 299,1629.5C 292.293,1628.53 285.793,1626.7 279.5,1624C 258.064,1610.52 234.898,1603.35 210,1602.5C 194.708,1600.83 178.708,1599.83 162,1599.5C 130.698,1599.35 98.8651,1595.19 66.5,1587C 52.4732,1584.25 41.9732,1576.75 35,1564.5C 26.8349,1538.01 20.8349,1511.01 17,1483.5C -18.1405,1281.57 10.8595,1085.23 104,894.5C 136.227,830.338 173.227,769.338 215,711.5C 235.283,684.215 255.95,657.215 277,630.5C 355.667,531.833 434.333,433.167 513,334.5C 533.178,306.648 552.178,277.981 570,248.5C 602.554,197.277 645.387,157.11 698.5,128C 752.585,97.9713 810.252,78.3046 871.5,69C 915.441,68.3118 956.941,67.8118 996,67.5C 1020.04,68.5436 1044.21,71.3769 1068.5,76C 1077.79,76.8081 1086.46,74.8081 1094.5,70C 1125.07,45.0521 1159.73,28.0521 1198.5,19C 1246.46,5.52213 1294.29,-0.311201 1342,1.5C 1384.2,4.12086 1426.7,9.28753 1469.5,17C 1503.19,25.383 1537.03,32.883 1571,39.5C 1572,39.1667 1573,38.8333 1574,38.5C 1591.33,38.9086 1609.33,39.9086 1628,41.5C 1630.33,41.1667 1632.67,40.8333 1635,40.5C 1652.15,41.7822 1668.82,42.7822 1685,43.5C 1686,43.1667 1687,42.8333 1688,42.5C 1697.85,43.8712 1707.51,44.8712 1717,45.5C 1717.33,45.1667 1717.67,44.8333 1718,44.5C 1754.68,50.0584 1791.35,55.7251 1828,61.5C 1837.33,61.5 1846.67,61.5 1856,61.5C 1888.94,57.0319 1921.94,53.0319 1955,49.5C 1992.93,46.0219 2030.09,51.1886 2066.5,65C 2081.01,71.1767 2092.84,80.6767 2102,93.5C 2107.19,101.88 2111.86,110.546 2116,119.5C 2130.18,156.047 2143.18,193.047 2155,230.5C 2157.53,237.117 2159.03,243.95 2159.5,251C 2159.21,260.573 2155.21,268.24 2147.5,274C 2136.9,280.273 2126.56,286.939 2116.5,294C 2110.76,299.654 2107.26,306.487 2106,314.5C 2105.3,322.824 2104.8,329.991 2104.5,336C 2105.3,341.126 2106.13,346.292 2107,351.5C 2116.87,380.197 2120.2,407.864 2117,434.5C 2115.32,448.608 2112.98,462.608 2110,476.5C 2109.65,485.813 2109.49,494.647 2109.5,503C 2110.17,509.333 2110.83,515.667 2111.5,522C 2111.56,540.075 2111.39,558.909 2111,578.5C 2100.87,658.716 2070.54,730.049 2020,792.5C 2012.11,799.198 2003.61,805.031 1994.5,810C 1992.63,810.711 1991.13,810.211 1990,808.5C 1994.09,766.061 1997.92,723.895 2001.5,682C 2001.17,681 2000.83,680 2000.5,679C 2001.67,661.17 2002.67,642.837 2003.5,624C 2003.29,604.767 2003.29,584.767 2003.5,564C 2002.22,542.603 2000.22,521.27 1997.5,500C 1997.08,485.555 1990.08,475.222 1976.5,469C 1970.8,465.932 1966.96,467.432 1965,473.5C 1960.33,486.167 1955.67,498.833 1951,511.5C 1941.86,572.076 1925.86,630.743 1903,687.5C 1885.79,732.797 1859.95,772.297 1825.5,806C 1811.73,818.386 1796.73,829.052 1780.5,838C 1774.28,840.303 1767.95,842.137 1761.5,843.5 Z"/></g>
<g><path style="opacity:1" fill="#696B85" d="M 1549.5,50.5 C 1559.19,50.1682 1568.86,50.5016 1578.5,51.5C 1574.32,63.594 1565.99,71.094 1553.5,74C 1524.75,77.9248 1495.92,81.0915 1467,83.5C 1460.04,82.8877 1453.21,81.7211 1446.5,80C 1442.96,76.6132 1441.63,72.4466 1442.5,67.5C 1452.87,67.7256 1463.2,67.2256 1473.5,66C 1498.96,60.795 1524.3,55.6284 1549.5,50.5 Z"/></g>
<g><path style="opacity:1" fill="#696B85" d="M 580.5,449.5 C 580.832,439.81 580.498,430.144 579.5,420.5C 578.893,420.624 578.56,420.957 578.5,421.5C 573.394,423.093 569.227,426.093 566,430.5C 561.734,440.202 556.567,449.368 550.5,458C 545.607,462.244 539.94,463.577 533.5,462C 525.253,457.089 518.253,450.755 512.5,443C 511.5,442.5 510.5,442 509.5,441.5C 509.167,442.167 508.833,442.833 508.5,443.5C 509.182,447.138 509.682,450.805 510,454.5C 512.278,459.881 514.112,465.381 515.5,471C 511.797,482.307 508.63,493.807 506,505.5C 500.79,521.969 504.623,535.802 517.5,547C 523.167,550.833 528.833,554.667 534.5,558.5C 530.272,563.897 525.272,568.397 519.5,572C 514.113,571.822 509.113,570.156 504.5,567C 496.913,561.957 489.413,556.79 482,551.5C 480.664,548.991 479.83,546.324 479.5,543.5C 481.723,532.608 482.723,521.608 482.5,510.5C 459.48,514.114 436.48,517.948 413.5,522C 411.671,522.273 410.171,523.107 409,524.5C 408.333,523.167 408.333,521.833 409,520.5C 452,456.5 495,392.5 538,328.5C 564.113,290.61 591.447,253.61 620,217.5C 684.52,147.152 764.353,105.652 859.5,93C 916.813,84.3978 973.813,86.0645 1030.5,98C 1052.38,104.178 1074.55,109.345 1097,113.5C 1098.11,113.415 1099.11,113.081 1100,112.5C 1121.31,64.4188 1158.15,44.4188 1210.5,52.5C 1206.96,74.8864 1194.63,90.3864 1173.5,99C 1167.35,99.785 1161.35,99.1183 1155.5,97C 1149.09,93.9186 1142.42,91.752 1135.5,90.5C 1135.14,109.633 1144.48,117.466 1163.5,114C 1182.9,112.716 1199.07,104.883 1212,90.5C 1217,82.5 1222,74.5 1227,66.5C 1233.34,58.6099 1241.5,55.4433 1251.5,57C 1267.29,58.8173 1279.45,66.3173 1288,79.5C 1291.93,88.4591 1295.76,97.4591 1299.5,106.5C 1290.26,115.115 1279.26,119.948 1266.5,121C 1233.82,119.524 1202.48,125.191 1172.5,138C 1155.03,145.461 1143.2,157.961 1137,175.5C 1140.66,173.613 1144.49,172.113 1148.5,171C 1162.22,163.142 1176.22,155.808 1190.5,149C 1227.06,135.018 1264.4,132.684 1302.5,142C 1321.98,144.17 1340.98,142.17 1359.5,136C 1372.23,130.801 1384.56,124.801 1396.5,118C 1413.03,111.105 1429.7,110.772 1446.5,117C 1493.25,132.473 1539.92,148.139 1586.5,164C 1590.17,166.333 1593.83,168.667 1597.5,171C 1582.79,173.046 1568.12,172.713 1553.5,170C 1516.82,161.665 1480.15,153.332 1443.5,145C 1412.63,138.447 1384.63,144.447 1359.5,163C 1346.3,168.178 1332.64,169.845 1318.5,168C 1289.73,164.922 1260.89,162.755 1232,161.5C 1199.78,160.796 1171.28,170.629 1146.5,191C 1097.5,236.667 1048.5,282.333 999.5,328C 975.981,348.859 951.314,368.193 925.5,386C 878.012,416.372 826.012,429.539 769.5,425.5C 768.593,418.89 770.093,412.89 774,407.5C 779.634,400.864 785.634,394.531 792,388.5C 793.64,386.421 794.806,384.088 795.5,381.5C 776.165,373.387 756.498,366.054 736.5,359.5C 736.167,359.167 735.833,358.833 735.5,358.5C 739.015,351.81 742.182,345.144 745,338.5C 740.174,338.91 735.674,340.41 731.5,343C 726.339,350.98 726.172,359.147 731,367.5C 732.873,369.709 735.04,371.542 737.5,373C 749.073,378.797 760.74,384.297 772.5,389.5C 764.123,397.043 756.29,405.043 749,413.5C 746.548,419.452 747.548,424.785 752,429.5C 778.5,452.75 809,460.25 843.5,452C 861.922,446.969 879.588,439.969 896.5,431C 912.01,422.081 927.01,412.415 941.5,402C 979.451,372.027 1018.12,343.027 1057.5,315C 1088.02,298.163 1113.52,303.663 1134,331.5C 1138.91,339.538 1140.91,348.205 1140,357.5C 1136.29,369.198 1130.12,379.365 1121.5,388C 1112.83,395.555 1102.83,398.222 1091.5,396C 1090.33,395.581 1089.33,394.915 1088.5,394C 1093.12,384.579 1098.62,375.745 1105,367.5C 1109.26,355.929 1106.42,346.429 1096.5,339C 1082.22,340.568 1068.22,343.734 1054.5,348.5C 1060.09,356.001 1064.92,364.001 1069,372.5C 1070.12,379.43 1067.62,384.597 1061.5,388C 1045.69,394.237 1029.69,399.904 1013.5,405C 1008.25,409.242 1006.25,414.742 1007.5,421.5C 1026.87,418.383 1046.2,415.049 1065.5,411.5C 1066.83,411.833 1068.17,412.167 1069.5,412.5C 1064.67,425.504 1056.33,435.671 1044.5,443C 1017.59,458.162 990.592,458.329 963.5,443.5C 962.208,446.002 961.541,448.669 961.5,451.5C 963.979,479.707 951.645,497.873 924.5,506C 918.167,506.667 911.833,506.667 905.5,506C 900.787,504.81 896.453,502.81 892.5,500C 888.594,498.566 884.594,498.233 880.5,499C 871.952,504.775 862.952,509.775 853.5,514C 845.881,515.549 838.881,514.216 832.5,510C 825.52,503.358 819.687,495.858 815,487.5C 801.693,497.402 786.86,503.902 770.5,507C 762.522,508.217 754.856,507.217 747.5,504C 740.177,498.217 737.344,490.717 739,481.5C 740.016,474.909 741.85,468.575 744.5,462.5C 743.21,461.592 741.877,461.759 740.5,463C 733.43,467.614 727.597,473.447 723,480.5C 717.75,493.687 720.916,504.187 732.5,512C 751.776,519.819 771.776,524.819 792.5,527C 818.5,527.333 844.5,527.667 870.5,528C 867.247,532.59 862.914,535.59 857.5,537C 844.59,539.265 831.59,540.932 818.5,542C 816.122,542.511 813.788,543.178 811.5,544C 804.414,548.209 797.081,551.876 789.5,555C 780.162,556.716 771.496,555.05 763.5,550C 758.442,545.943 753.108,542.276 747.5,539C 743.833,538.333 740.167,538.333 736.5,539C 730.442,541.741 724.109,543.574 717.5,544.5C 706.323,541.987 700.656,534.987 700.5,523.5C 687.98,522.076 676.646,517.576 666.5,510C 658.663,502.833 654.829,494 655,483.5C 657.739,480.882 660.573,478.382 663.5,476C 675.333,470.278 687.333,464.945 699.5,460C 703.171,457.095 705.671,453.595 707,449.5C 705.874,448.056 704.374,447.39 702.5,447.5C 691.586,449.731 680.586,450.898 669.5,451C 658.941,446.771 652.275,439.105 649.5,428C 649.785,426.11 650.785,424.777 652.5,424C 661.425,419.399 670.092,414.399 678.5,409C 692.369,407.939 706.202,407.105 720,406.5C 720.456,405.256 719.956,404.423 718.5,404C 705.085,402.417 692.418,398.417 680.5,392C 669.912,383.457 669.912,374.791 680.5,366C 692.658,357.087 704.992,348.421 717.5,340C 719.831,337.8 719.831,335.8 717.5,334C 705.282,328.447 692.615,325.114 679.5,324C 670.627,322.628 666.293,317.461 666.5,308.5C 666.295,305.205 667.128,302.205 669,299.5C 673.673,293.923 679.173,289.423 685.5,286C 690.201,281.634 694.534,276.967 698.5,272C 698.167,271.667 697.833,271.333 697.5,271C 692.428,270.322 687.428,269.322 682.5,268C 667.419,267.532 652.419,266.199 637.5,264C 634.417,263.214 632.251,261.381 631,258.5C 631.968,244.123 626.135,240.29 613.5,247C 611.445,247.687 609.779,248.854 608.5,250.5C 612.207,262.374 619.874,270.541 631.5,275C 637.899,277.767 644.565,279.267 651.5,279.5C 647.315,293.557 642.815,307.557 638,321.5C 637.107,322.081 636.107,322.415 635,322.5C 622.428,319.066 609.928,315.399 597.5,311.5C 601.31,303.07 604.31,294.403 606.5,285.5C 595.134,284.081 587.968,288.747 585,299.5C 580.614,315.296 586.114,325.463 601.5,330C 618.5,330.333 635.5,330.667 652.5,331C 654.65,332.411 656.984,333.245 659.5,333.5C 659.66,335.199 659.494,336.866 659,338.5C 650.092,351.072 641.592,363.906 633.5,377C 639.43,383.758 644.764,390.924 649.5,398.5C 643.294,409.545 636.461,420.212 629,430.5C 625.742,439.983 628.242,447.483 636.5,453C 642.55,455.05 646.55,459.05 648.5,465C 643.903,474.365 639.403,483.865 635,493.5C 632.99,503.651 636.157,511.818 644.5,518C 654.084,523.708 663.584,529.541 673,535.5C 675,540.833 675,546.167 673,551.5C 671.011,554.665 668.178,556.332 664.5,556.5C 648.512,554.589 633.512,549.756 619.5,542C 610.391,534.999 606.558,525.833 608,514.5C 612.459,501.414 618.626,489.248 626.5,478C 613.634,472.601 600.634,467.601 587.5,463C 582.904,459.64 580.571,455.14 580.5,449.5 Z"/></g>
<g><path style="opacity:1" fill="#696B85" d="M 1715.5,77.5 C 1726.63,76.9213 1737.63,77.7546 1748.5,80C 1752.53,81.6776 1756.2,83.8443 1759.5,86.5C 1757.85,95.31 1753.85,102.81 1747.5,109C 1741.12,112.574 1734.45,115.574 1727.5,118C 1723.78,121.385 1719.78,124.385 1715.5,127C 1726.08,129.663 1736.75,132.33 1747.5,135C 1758.32,137.812 1762.49,144.645 1760,155.5C 1754.18,168.477 1747.35,180.811 1739.5,192.5C 1735.71,196.446 1731.87,196.446 1728,192.5C 1723.74,184.319 1719.74,175.986 1716,167.5C 1710.2,158.698 1702.37,152.531 1692.5,149C 1685.21,146.816 1677.87,144.816 1670.5,143C 1662.8,139.624 1660.3,133.791 1663,125.5C 1667.17,108.673 1676.67,95.8398 1691.5,87C 1699.34,83.1143 1707.34,79.9477 1715.5,77.5 Z"/></g>
<g><path style="opacity:1" fill="#696B85" d="M 1939.5,85.5 C 1974.99,83.8209 1986.15,99.4876 1973,132.5C 1968.43,142.739 1961.93,151.572 1953.5,159C 1944.32,166.094 1935.32,173.427 1926.5,181C 1942.49,192.406 1956.99,190.906 1970,176.5C 1973,171.833 1976,167.167 1979,162.5C 1987.43,145.313 1996.09,128.313 2005,111.5C 2016.14,97.102 2029.64,94.602 2045.5,104C 2058.47,111.974 2066.3,123.474 2069,138.5C 2069.65,148.561 2069.15,158.561 2067.5,168.5C 2063.36,168.854 2059.36,168.354 2055.5,167C 2048.55,158.721 2040.89,151.054 2032.5,144C 2031.67,143.312 2031,143.479 2030.5,144.5C 2027.84,150.658 2025.67,156.991 2024,163.5C 2022.14,179.143 2020.47,194.81 2019,210.5C 2016.13,230.559 2008.13,248.226 1995,263.5C 1993.7,265.402 1993.03,267.402 1993,269.5C 2010.72,274.023 2027.22,271.19 2042.5,261C 2044.49,259.681 2045.65,257.848 2046,255.5C 2042.55,226.512 2051.72,202.345 2073.5,183C 2081.64,174.253 2089.48,174.42 2097,183.5C 2105.85,197.355 2115.85,210.355 2127,222.5C 2129.39,226.328 2130.55,230.495 2130.5,235C 2129.9,240.58 2128.9,246.08 2127.5,251.5C 2117.39,252.193 2108.89,248.86 2102,241.5C 2096.59,230.343 2090.92,219.343 2085,208.5C 2079.11,211.061 2074.44,215.061 2071,220.5C 2069.97,225.28 2070.97,229.613 2074,233.5C 2080.47,239.608 2085.3,246.775 2088.5,255C 2088.2,257.923 2086.87,260.257 2084.5,262C 2065.23,270.199 2045.57,277.199 2025.5,283C 1959.81,301.204 1893.15,314.538 1825.5,323C 1830.78,315.381 1836.45,308.048 1842.5,301C 1859.92,301.963 1876.92,299.963 1893.5,295C 1911.27,290.937 1929.27,288.937 1947.5,289C 1961.78,284.559 1971.78,275.392 1977.5,261.5C 1965.85,260.667 1954.18,260.167 1942.5,260C 1937.76,258.932 1934.6,256.099 1933,251.5C 1932.83,237.668 1935,224.168 1939.5,211C 1933.47,206.864 1928.63,208.03 1925,214.5C 1917.84,235.305 1909.51,255.639 1900,275.5C 1895.85,281.823 1890.02,284.823 1882.5,284.5C 1871.57,283.548 1860.91,281.381 1850.5,278C 1840.54,275.947 1832.71,279.113 1827,287.5C 1819.68,299.494 1810.85,310.327 1800.5,320C 1789.45,328.201 1777.45,330.368 1764.5,326.5C 1771.29,311.624 1777.79,296.624 1784,281.5C 1792.97,258.324 1792.64,235.324 1783,212.5C 1776.21,234.732 1769.55,257.065 1763,279.5C 1754.75,300.397 1739.25,311.064 1716.5,311.5C 1711.84,311.424 1708.34,309.424 1706,305.5C 1703.27,293.37 1700.11,281.37 1696.5,269.5C 1692.43,275.294 1688.6,281.294 1685,287.5C 1678.67,301.833 1672.33,316.167 1666,330.5C 1652.49,352.68 1632.65,364.18 1606.5,365C 1605.38,352.898 1604.38,340.732 1603.5,328.5C 1602.83,328.167 1602.17,327.833 1601.5,327.5C 1596.86,332.773 1592.69,338.44 1589,344.5C 1578.58,363.68 1566.92,382.013 1554,399.5C 1547.14,406.698 1539.97,413.532 1532.5,420C 1526.63,423.436 1520.63,426.603 1514.5,429.5C 1513.19,428.687 1512.02,427.687 1511,426.5C 1511.18,420.745 1512.18,415.078 1514,409.5C 1516.73,404.034 1518.9,398.367 1520.5,392.5C 1519.17,385.7 1515.17,381.867 1508.5,381C 1501.67,388.5 1494.83,396 1488,403.5C 1477.55,418.283 1466.72,432.783 1455.5,447C 1445.04,454.29 1433.37,457.79 1420.5,457.5C 1419.36,446.31 1417.53,435.31 1415,424.5C 1407.96,431.871 1401.29,439.538 1395,447.5C 1388,459.167 1381,470.833 1374,482.5C 1360.85,499.828 1343.68,505.495 1322.5,499.5C 1322.9,487.828 1323.06,476.161 1323,464.5C 1322.69,463.692 1322.19,463.025 1321.5,462.5C 1308.47,469.36 1298.64,479.36 1292,492.5C 1286.76,503.98 1280.76,514.98 1274,525.5C 1261.4,539.038 1245.9,543.872 1227.5,540C 1226.68,528.91 1226.18,517.743 1226,506.5C 1225,505.833 1224,505.167 1223,504.5C 1218,508.833 1213,513.167 1208,517.5C 1198.67,529.5 1189.33,541.5 1180,553.5C 1164.68,572.579 1144.84,582.079 1120.5,582C 1117.9,581.117 1115.73,579.617 1114,577.5C 1109.77,568.295 1105.27,559.295 1100.5,550.5C 1091.17,562.669 1082.01,575.002 1073,587.5C 1064.69,598.787 1054.52,600.62 1042.5,593C 1035.72,588.666 1033.22,582.499 1035,574.5C 1037.94,562.345 1042.44,550.845 1048.5,540C 1049.83,539.333 1051.17,538.667 1052.5,538C 1063.86,537.759 1075.2,537.092 1086.5,536C 1135.26,520.976 1183.93,505.643 1232.5,490C 1240.66,487.057 1248.66,483.724 1256.5,480C 1274.85,470.3 1293.19,460.633 1311.5,451C 1331.06,451.394 1350.06,448.394 1368.5,442C 1374.82,439.174 1380.82,435.841 1386.5,432C 1394.46,425.706 1402.13,419.04 1409.5,412C 1422.45,404.432 1436.45,401.099 1451.5,402C 1457.25,401.127 1462.58,399.127 1467.5,396C 1507.12,373.389 1541.62,344.556 1571,309.5C 1582.17,294.497 1591.84,278.497 1600,261.5C 1607.39,241.316 1614.39,220.983 1621,200.5C 1623.46,190.184 1629.96,184.351 1640.5,183C 1649.37,177.732 1658.37,172.732 1667.5,168C 1683.51,165.421 1694.68,171.588 1701,186.5C 1705.05,214.894 1695.89,238.061 1673.5,256C 1661.16,262.017 1649,261.517 1637,254.5C 1627.17,270.815 1617.84,287.482 1609,304.5C 1608.33,306.167 1608.33,307.833 1609,309.5C 1652.12,281.69 1694.29,252.523 1735.5,222C 1755.64,204.563 1768.14,182.729 1773,156.5C 1773.9,141.473 1774.9,126.473 1776,111.5C 1780.79,99.6788 1789.62,93.6788 1802.5,93.5C 1813.75,93.5418 1821.25,98.8752 1825,109.5C 1828.13,122.186 1826.46,134.186 1820,145.5C 1810.67,154.167 1801.33,162.833 1792,171.5C 1791.52,172.448 1791.35,173.448 1791.5,174.5C 1803.81,177.673 1813.98,174.34 1822,164.5C 1826.76,157.989 1830.76,150.989 1834,143.5C 1840.47,127.752 1847.14,112.085 1854,96.5C 1860.11,89.9083 1867.61,87.7417 1876.5,90C 1891.22,94.7914 1896.06,104.625 1891,119.5C 1886.26,133.906 1877.43,145.072 1864.5,153C 1870.63,155.27 1876.63,157.937 1882.5,161C 1884.71,162.873 1886.54,165.04 1888,167.5C 1887.07,193.613 1878.24,216.78 1861.5,237C 1852.58,242.935 1843.58,242.935 1834.5,237C 1825.3,230.969 1815.97,225.135 1806.5,219.5C 1804.54,242.374 1814.87,256.207 1837.5,261C 1856.04,263.042 1871.88,257.542 1885,244.5C 1890.84,236.818 1894.5,228.152 1896,218.5C 1897.64,201.197 1900.14,184.03 1903.5,167C 1903.39,164.268 1902.55,161.768 1901,159.5C 1897.3,155.465 1893.3,151.798 1889,148.5C 1888.5,147.5 1888,146.5 1887.5,145.5C 1897.08,129.759 1907.24,114.426 1918,99.5C 1924.16,93.1787 1931.32,88.512 1939.5,85.5 Z"/></g>
<g><path style="opacity:1" fill="#A3A6C2" d="M 873.5,103.5 C 882.072,103.605 887.572,107.605 890,115.5C 887.533,117.802 884.7,119.469 881.5,120.5C 874.5,119.419 867.834,117.419 861.5,114.5C 864.294,109.366 868.294,105.699 873.5,103.5 Z"/></g>
<g><path style="opacity:1" fill="#A3A6C2" d="M 978.5,118.5 C 981.607,118.351 984.607,118.851 987.5,120C 996.426,127.381 1005.26,134.881 1014,142.5C 1015.14,145.901 1013.97,147.901 1010.5,148.5C 1002.88,147.071 995.212,145.904 987.5,145C 982.953,143.785 978.62,142.118 974.5,140C 969.702,131.67 971.035,124.504 978.5,118.5 Z"/></g>
<g><path style="opacity:1" fill="#A3A6C2" d="M 835.5,146.5 C 834.448,148.256 832.781,148.923 830.5,148.5C 818.9,148.774 807.567,147.274 796.5,144C 794.494,140.983 792.494,137.983 790.5,135C 793.086,130.872 796.753,129.206 801.5,130C 813.166,134.832 824.499,140.332 835.5,146.5 Z"/></g>
<g><path style="opacity:1" fill="#925630" d="M 835.5,146.5 C 836.404,147.209 836.737,148.209 836.5,149.5C 834.265,149.795 832.265,149.461 830.5,148.5C 832.781,148.923 834.448,148.256 835.5,146.5 Z"/></g>
<g><path style="opacity:1" fill="#A3A6C2" d="M 908.5,149.5 C 911.32,149.248 913.986,149.748 916.5,151C 928.349,160.093 940.016,169.426 951.5,179C 942.277,181.229 932.943,181.895 923.5,181C 915.398,179.367 908.564,175.534 903,169.5C 898.258,160.768 900.091,154.101 908.5,149.5 Z"/></g>
<g><path style="opacity:1" fill="#A3A6C2" d="M 738.5,154.5 C 740.451,154.227 741.951,154.893 743,156.5C 746.018,167.576 749.184,178.576 752.5,189.5C 743.085,190.806 734.419,188.972 726.5,184C 718.182,175.541 718.515,167.541 727.5,160C 731.192,158.058 734.858,156.224 738.5,154.5 Z"/></g>
<g><path style="opacity:1" fill="#A3A6C2" d="M 842.5,174.5 C 844.017,174.511 845.184,175.177 846,176.5C 850.767,189.963 860.267,196.63 874.5,196.5C 888.579,195.642 902.579,194.809 916.5,194C 921.725,195.279 926.391,197.612 930.5,201C 940.439,212.869 953.105,217.869 968.5,216C 989.732,213.317 1010.57,208.817 1031,202.5C 1031.5,202.667 1032,202.833 1032.5,203C 1029.87,209.058 1027.54,215.224 1025.5,221.5C 1044.4,223.653 1062.4,220.653 1079.5,212.5C 1075.92,220.904 1069.59,227.071 1060.5,231C 1057.12,231.875 1053.78,232.875 1050.5,234C 1027.49,235.49 1004.49,237.156 981.5,239C 969.468,239.777 957.468,239.443 945.5,238C 930.841,233.839 919.174,225.505 910.5,213C 908.913,212.138 907.246,211.471 905.5,211C 898.904,211.6 892.238,212.267 885.5,213C 868.21,215.676 852.21,212.343 837.5,203C 831.83,199.272 829.997,194.106 832,187.5C 835.029,182.77 838.529,178.437 842.5,174.5 Z"/></g>
<g><path style="opacity:1" fill="#696B85" d="M 1430.5,161.5 C 1432.72,162.598 1434.89,162.598 1437,161.5C 1437.75,162.126 1438.58,162.626 1439.5,163C 1441.19,190.044 1436.69,216.544 1426,242.5C 1425.16,247.379 1424.33,252.212 1423.5,257C 1423.83,257.333 1424.17,257.667 1424.5,258C 1423.06,273.465 1422.4,289.298 1422.5,305.5C 1421.07,305.421 1419.74,305.754 1418.5,306.5C 1412.93,295.86 1408.93,284.693 1406.5,273C 1406.53,245.391 1406.53,218.057 1406.5,191C 1406.3,182.507 1408.47,174.673 1413,167.5C 1418.41,163.976 1424.24,161.976 1430.5,161.5 Z"/></g>
<g><path style="opacity:1" fill="#A3A6C2" d="M 688.5,197.5 C 689.552,197.351 690.552,197.517 691.5,198C 689.444,204.178 687.777,210.511 686.5,217C 686.833,217.833 687.167,218.667 687.5,219.5C 696.955,225.453 707.289,229.12 718.5,230.5C 717.754,231.736 717.421,233.07 717.5,234.5C 701.788,233.125 686.122,231.292 670.5,229C 660.864,223.933 658.698,216.767 664,207.5C 670.658,200.302 678.825,196.969 688.5,197.5 Z"/></g>
<g><path style="opacity:1" fill="#696B85" d="M 1573.5,210.5 C 1579.43,258.177 1563.09,296.677 1524.5,326C 1480.08,355.239 1431.75,363.906 1379.5,352C 1350.78,345.311 1325.45,332.311 1303.5,313C 1278.6,286.704 1267.77,255.538 1271,219.5C 1284.66,244.827 1299.33,269.494 1315,293.5C 1339.76,324.133 1371.93,340.966 1411.5,344C 1472.88,350.897 1518.05,327.397 1547,273.5C 1556.52,252.75 1565.36,231.75 1573.5,210.5 Z"/></g>
<g><path style="opacity:1" fill="#696B85" d="M 975.5,303.5 C 979.371,303.185 983.038,303.518 986.5,304.5C 981.222,311.981 973.888,316.147 964.5,317C 960.5,317.667 956.5,317.667 952.5,317C 928.353,310.061 904.353,302.728 880.5,295C 878.5,293.667 876.5,292.333 874.5,291C 869.5,285.333 864.5,279.667 859.5,274C 857.913,273.138 856.246,272.471 854.5,272C 837.5,271.667 820.5,271.333 803.5,271C 781.446,264.394 774.946,250.561 784,229.5C 789.207,222.898 795.873,218.565 804,216.5C 804.667,217.833 804.667,219.167 804,220.5C 800.63,226.611 798.463,233.111 797.5,240C 797.013,244.7 799.013,247.7 803.5,249C 812.772,250.553 822.105,250.886 831.5,250C 849.828,247.112 868.161,244.112 886.5,241C 891.664,240.09 896.664,240.59 901.5,242.5C 895.142,250.357 888.975,258.357 883,266.5C 882.48,268.289 882.813,269.956 884,271.5C 889.548,275.348 895.715,276.515 902.5,275C 927.168,272.826 950.835,266.826 973.5,257C 976.814,255.835 978.814,257.002 979.5,260.5C 969.313,270.165 957.646,277.665 944.5,283C 939.696,287.616 939.196,292.783 943,298.5C 944.214,300.049 945.714,301.215 947.5,302C 956.752,303.417 966.085,303.917 975.5,303.5 Z"/></g>
<g><path style="opacity:1" fill="#A3A6C2" d="M 746.5,258.5 C 748.924,258.192 751.257,258.526 753.5,259.5C 746.833,270.5 740.167,281.5 733.5,292.5C 742.691,300.233 753.358,304.233 765.5,304.5C 786.021,299.537 806.688,295.204 827.5,291.5C 829.948,299.428 828.282,306.261 822.5,312C 816.566,314.075 811.233,317.075 806.5,321C 814,334.504 825.333,339.837 840.5,337C 858.87,330.765 877.204,324.765 895.5,319C 896.687,320.019 897.687,321.186 898.5,322.5C 895.023,327.145 891.356,331.645 887.5,336C 880.626,339.937 873.626,343.603 866.5,347C 863.65,349.682 860.984,352.516 858.5,355.5C 861.974,362.151 867.307,366.317 874.5,368C 885.224,368.764 895.89,368.264 906.5,366.5C 907.5,366.833 908.5,367.167 909.5,367.5C 906.683,369.817 904.016,372.317 901.5,375C 898.911,376.197 896.244,377.197 893.5,378C 882.561,379.992 871.561,380.992 860.5,381C 853.5,376 846.5,371 839.5,366C 825.799,359.659 812.132,353.326 798.5,347C 793.95,342.4 791.116,336.9 790,330.5C 788.833,329.333 787.667,328.167 786.5,327C 773.555,325.914 760.555,324.914 747.5,324C 727.493,317.311 718.993,303.478 722,282.5C 726.111,270.221 734.278,262.221 746.5,258.5 Z"/></g>
<g><path style="opacity:1" fill="#696B85" d="M 1148.5,263.5 C 1166.64,260.668 1182.14,265.668 1195,278.5C 1199.12,296.903 1196.12,314.237 1186,330.5C 1179.93,339.747 1171.43,345.08 1160.5,346.5C 1157.6,316.385 1141.93,296.051 1113.5,285.5C 1122.16,273.338 1133.83,266.004 1148.5,263.5 Z"/></g>
<g><path style="opacity:1" fill="#824f2f" d="M 986.5,304.5 C 983.038,303.518 979.371,303.185 975.5,303.5C 980.053,302.563 984.719,302.063 989.5,302C 988.627,303.045 987.627,303.878 986.5,304.5 Z"/></g>
<g><path style="opacity:1" fill="#696B85" d="M 2082.5,302.5 C 2083.83,302.5 2085.17,302.5 2086.5,302.5C 2093.67,335.873 2100.01,369.373 2105.5,403C 2102.11,429.077 2088.11,447.077 2063.5,457C 2044.6,462.946 2025.26,464.946 2005.5,463C 1989.53,461.461 1975.7,455.294 1964,444.5C 1961.22,440.821 1960.05,436.654 1960.5,432C 1961.26,420.257 1962.26,408.591 1963.5,397C 1961.74,394.517 1959.57,394.017 1957,395.5C 1951.05,409.337 1946.72,423.671 1944,438.5C 1942.5,440 1941,441.5 1939.5,443C 1934.2,444.347 1929.04,444.847 1924,444.5C 1916.3,443.145 1909.63,442.479 1904,442.5C 1891.31,443.593 1878.64,444.926 1866,446.5C 1865.67,446.167 1865.33,445.833 1865,445.5C 1854.8,448.244 1844.64,448.077 1834.5,445C 1827.21,441.024 1823.04,434.857 1822,426.5C 1818.88,413.786 1818.88,401.119 1822,388.5C 1826.45,379.055 1833.28,371.888 1842.5,367C 1882.91,347.087 1925.24,332.753 1969.5,324C 2007.26,316.598 2044.93,309.432 2082.5,302.5 Z"/></g>
<g><path style="opacity:1" fill="#696B85" d="M 1744.5,329.5 C 1748.17,329.5 1751.83,329.5 1755.5,329.5C 1751.96,348.037 1740.96,359.37 1722.5,363.5C 1709.04,359.912 1704.54,351.579 1709,338.5C 1710.95,336.106 1713.45,334.606 1716.5,334C 1725.97,332.488 1735.3,330.988 1744.5,329.5 Z"/></g>
<g><path style="opacity:1" fill="#A3A6C2" d="M 579.5,337.5 C 588.102,336.536 595.769,338.703 602.5,344C 590.437,348.108 579.937,354.608 571,363.5C 570.093,371.294 572.926,377.461 579.5,382C 590.343,387.922 601.343,393.589 612.5,399C 596.696,404.591 581.363,403.591 566.5,396C 553.227,386.956 547.394,374.456 549,358.5C 551.392,352.774 555.226,348.274 560.5,345C 566.776,342.03 573.109,339.53 579.5,337.5 Z"/></g>
<g><path style="opacity:1" fill="#696B85" d="M 1689.5,341.5 C 1689.56,340.957 1689.89,340.624 1690.5,340.5C 1691.8,342.973 1691.8,345.307 1690.5,347.5C 1690.79,345.265 1690.46,343.265 1689.5,341.5 Z"/></g>
<g><path style="opacity:1" fill="#696B85" d="M 1689.5,341.5 C 1690.46,343.265 1690.79,345.265 1690.5,347.5C 1687.25,372.598 1673.91,390.098 1650.5,400C 1627.7,409.706 1607.37,406.039 1589.5,389C 1609.43,388.436 1627.76,382.769 1644.5,372C 1659.18,361.328 1674.18,351.162 1689.5,341.5 Z"/></g>
<g><path style="opacity:1" fill="#A3A6C2" d="M 2071.5,352.5 C 2079.54,362.314 2083.21,373.48 2082.5,386C 2084.88,395.507 2084.38,405.341 2081,415.5C 2076.33,422.826 2069.83,427.993 2061.5,431C 2052.74,435.792 2043.41,437.792 2033.5,437C 2032.27,435.817 2032.27,434.651 2033.5,433.5C 2045.37,425.802 2057.37,418.302 2069.5,411C 2074.82,407.528 2076.65,402.695 2075,396.5C 2071.85,382.331 2069.85,368.331 2069,354.5C 2069.99,353.934 2070.83,353.267 2071.5,352.5 Z"/></g>
<g><path style="opacity:1" fill="#696B85" d="M 1575.5,412.5 C 1576.79,425.084 1571.79,434.584 1560.5,441C 1551.2,446.325 1541.2,449.158 1530.5,449.5C 1532.08,440.736 1536.41,433.57 1543.5,428C 1553.63,421.435 1564.29,416.268 1575.5,412.5 Z"/></g>
<g><path style="opacity:1" fill="#845130" d="M 578.5,421.5 C 578.56,420.957 578.893,420.624 579.5,420.5C 580.498,430.144 580.832,439.81 580.5,449.5C 579.833,440.167 579.167,430.833 578.5,421.5 Z"/></g>
<g><path style="opacity:1" fill="#696B85" d="M 1495.5,439.5 C 1498.74,449.411 1497.91,459.077 1493,468.5C 1491.83,469.667 1490.67,470.833 1489.5,472C 1472.68,481.431 1455.01,487.931 1436.5,491.5C 1435.67,490.549 1435.51,489.549 1436,488.5C 1450.17,475.667 1464.33,462.833 1478.5,450C 1484.07,446.24 1489.74,442.74 1495.5,439.5 Z"/></g>
<g><path style="opacity:1" fill="#696B85" d="M 1867.5,462.5 C 1889.72,461.212 1912.05,463.712 1934.5,470C 1940.67,471.99 1946.34,474.824 1951.5,478.5C 1946.33,488.167 1941.17,497.833 1936,507.5C 1927.89,567.959 1912.89,626.625 1891,683.5C 1878.1,719.334 1859.1,751.334 1834,779.5C 1817.16,796.665 1797.83,810.331 1776,820.5C 1789.23,783.155 1801.89,745.488 1814,707.5C 1837.32,628.288 1846.48,548.288 1841.5,467.5C 1850.43,466.579 1859.1,464.913 1867.5,462.5 Z"/></g>
<g><path style="opacity:1" fill="#696B85" d="M 2078.5,469.5 C 2081.17,469.5 2083.83,469.5 2086.5,469.5C 2096.97,526.949 2094.81,586.616 2080,648.5C 2066.29,701.258 2041.63,747.925 2006,788.5C 2007.32,771.609 2009.15,754.775 2011.5,738C 2011.17,737.667 2010.83,737.333 2010.5,737C 2011.17,733 2011.83,729 2012.5,725C 2012.17,724.667 2011.83,724.333 2011.5,724C 2013.21,707.417 2014.54,691.083 2015.5,675C 2016.66,610.493 2016.66,546.326 2015.5,482.5C 2036.75,478.784 2057.75,474.451 2078.5,469.5 Z"/></g>
<g><path style="opacity:1" fill="#696B85" d="M 534.5,477.5 C 536.857,477.337 539.19,477.503 541.5,478C 559.063,483.798 576.729,489.298 594.5,494.5C 589.635,508.572 584.469,522.572 579,536.5C 576.464,539.766 573.131,541.1 569,540.5C 552.358,539.843 538.358,533.51 527,521.5C 520.746,508.2 521.412,495.2 529,482.5C 530.812,480.7 532.645,479.033 534.5,477.5 Z"/></g>
<g><path style="opacity:1" fill="#696B85" d="M 1405.5,479.5 C 1408.76,484.168 1409.92,489.501 1409,495.5C 1397.47,505.685 1384.97,514.519 1371.5,522C 1368.4,523.068 1365.23,523.901 1362,524.5C 1360.29,524.561 1358.96,523.894 1358,522.5C 1359.68,513.994 1363.84,506.827 1370.5,501C 1377.55,494.951 1384.88,489.284 1392.5,484C 1396.71,481.763 1401.05,480.263 1405.5,479.5 Z"/></g>
<g><path style="opacity:1" fill="#696B85" d="M 1327.5,517.5 C 1328.5,517.5 1329.5,517.5 1330.5,517.5C 1331.07,525.984 1328.73,533.484 1323.5,540C 1301.68,548.333 1280.01,557.166 1258.5,566.5C 1255.75,557.233 1258.42,550.067 1266.5,545C 1287.06,536.101 1307.39,526.935 1327.5,517.5 Z"/></g>
<g><path style="opacity:1" fill="#696B85" d="M 1699.5,1139.5 C 1715.23,1139.86 1730.9,1140.86 1746.5,1142.5C 1748.27,1159.12 1746.11,1176.46 1740,1194.5C 1726.21,1223.27 1704.21,1238.6 1674,1240.5C 1666.32,1239.56 1658.82,1237.73 1651.5,1235C 1606,1212.59 1562,1187.59 1519.5,1160C 1517.24,1158.29 1515.07,1156.45 1513,1154.5C 1504.89,1143.39 1495.72,1133.22 1485.5,1124C 1480.7,1121.29 1475.7,1118.95 1470.5,1117C 1456.66,1112.79 1443,1108.13 1429.5,1103C 1428.33,1101.83 1427.17,1100.67 1426,1099.5C 1421.79,1088.95 1414.96,1080.45 1405.5,1074C 1391.19,1066.12 1376.19,1059.78 1360.5,1055C 1350.58,1051.08 1342.42,1044.91 1336,1036.5C 1330.45,1018.95 1319.28,1006.45 1302.5,999C 1291.57,994.866 1280.9,990.199 1270.5,985C 1268.64,983.442 1267.14,981.609 1266,979.5C 1263.17,969.013 1257.67,960.179 1249.5,953C 1193.68,916.84 1138.68,879.507 1084.5,841C 1061.35,822.516 1040.18,802.016 1021,779.5C 1007.38,760.636 999.713,739.636 998,716.5C 1001.92,704.248 1009.75,695.415 1021.5,690C 1042.41,680.111 1063.58,676.944 1085,680.5C 1199.67,696.756 1299.83,743.589 1385.5,821C 1381.97,824.869 1378.13,828.369 1374,831.5C 1373.49,832.996 1373.99,834.163 1375.5,835C 1404.38,852.109 1434.38,867.109 1465.5,880C 1467.46,880.953 1469.12,882.287 1470.5,884C 1471.5,884.667 1472.5,884.667 1473.5,884C 1445.54,847.038 1413.2,814.371 1376.5,786C 1353.17,768.333 1329.83,750.667 1306.5,733C 1287.31,717.462 1275.15,697.628 1270,673.5C 1265.46,641.08 1275.63,614.247 1300.5,593C 1333.3,566.055 1370.96,550.389 1413.5,546C 1390.76,567.41 1367.43,588.076 1343.5,608C 1330.16,619 1320.32,632.5 1314,648.5C 1309.5,665.15 1311.83,680.817 1321,695.5C 1361.87,744.702 1407.04,789.535 1456.5,830C 1483.17,851.333 1509.83,872.667 1536.5,894C 1541.94,899.713 1546.77,905.88 1551,912.5C 1551.68,916.472 1550.02,918.472 1546,918.5C 1527.58,917.09 1508.75,914.59 1489.5,911C 1470.16,906.164 1450.82,901.331 1431.5,896.5C 1428.49,896.258 1425.99,897.258 1424,899.5C 1409.37,938.917 1411.7,977.584 1431,1015.5C 1449.62,1046.79 1473.79,1072.95 1503.5,1094C 1508.13,1096.99 1513.13,1098.82 1518.5,1099.5C 1516.79,1091.52 1513.62,1084.18 1509,1077.5C 1497.67,1062.83 1486.33,1048.17 1475,1033.5C 1470.3,1027.44 1466.64,1020.78 1464,1013.5C 1463.33,1010.83 1463.33,1008.17 1464,1005.5C 1465.48,1001.87 1467.48,998.534 1470,995.5C 1477.29,988.199 1485.62,982.532 1495,978.5C 1497.96,979.286 1500.79,980.452 1503.5,982C 1524.43,1002.94 1540.6,1027.11 1552,1054.5C 1566.84,1080.83 1585.51,1104.17 1608,1124.5C 1613.43,1132.35 1618.09,1140.68 1622,1149.5C 1624.12,1153.46 1627.29,1156.12 1631.5,1157.5C 1633.2,1157.1 1634.86,1156.6 1636.5,1156C 1648.34,1148.92 1660,1141.58 1671.5,1134C 1673.57,1133.46 1675.4,1133.96 1677,1135.5C 1672.48,1159.77 1667.31,1183.93 1661.5,1208C 1678.49,1211.19 1694.49,1207.52 1709.5,1197C 1715.25,1192.15 1719.25,1186.15 1721.5,1179C 1721.14,1177.78 1720.64,1176.61 1720,1175.5C 1713.85,1173 1707.68,1170.5 1701.5,1168C 1697.23,1165.24 1695.23,1161.24 1695.5,1156C 1696.05,1150.46 1696.89,1144.96 1698,1139.5C 1698.69,1138.26 1699.19,1138.26 1699.5,1139.5 Z"/></g>
<g><path style="opacity:1" fill="#696B85" d="M 648.5,604.5 C 648.5,598.167 648.5,591.833 648.5,585.5C 646.265,585.205 644.265,585.539 642.5,586.5C 628.227,585.934 622.394,592.6 625,606.5C 628.405,613.119 629.739,620.119 629,627.5C 625.183,633.683 619.683,637.849 612.5,640C 607.436,643.953 604.269,649.12 603,655.5C 602.118,660.839 601.285,666.173 600.5,671.5C 588.566,671.288 579.4,666.288 573,656.5C 570.477,649.431 571.143,642.764 575,636.5C 584.667,627.5 594.333,618.5 604,609.5C 604.49,608.207 604.657,606.873 604.5,605.5C 589.496,605.667 574.496,605.5 559.5,605C 541.713,599.255 536.546,587.755 544,570.5C 549.329,564.75 555.829,560.916 563.5,559C 573.372,556.625 583.372,555.958 593.5,557C 610.615,565.151 628.615,567.818 647.5,565C 684.731,554.691 715.731,564.191 740.5,593.5C 719.386,615.055 693.719,626.222 663.5,627C 652.655,623.495 647.655,615.995 648.5,604.5 Z"/></g>
<g><path style="opacity:1" fill="#696B85" d="M 1210.5,556.5 C 1215.23,556.223 1219.9,556.557 1224.5,557.5C 1226.96,571.56 1220.96,579.06 1206.5,580C 1199.73,580.8 1193.07,580.3 1186.5,578.5C 1191.07,567.253 1199.07,559.92 1210.5,556.5 Z"/></g>
<g><path style="opacity:1" fill="#696B85" d="M 1008.5,557.5 C 1012.11,557.211 1015.61,557.544 1019,558.5C 1021.04,569.022 1018.7,578.356 1012,586.5C 1003.08,597.373 991.916,604.873 978.5,609C 969.719,610.627 961.553,609.127 954,604.5C 953.367,582.127 963.867,567.961 985.5,562C 993.398,560.91 1001.06,559.41 1008.5,557.5 Z"/></g>
<g><path style="opacity:1" fill="#696B85" d="M 941.5,564.5 C 942.239,564.369 942.906,564.536 943.5,565C 937.509,588.66 924.176,606.993 903.5,620C 890.884,627.659 877.217,630.825 862.5,629.5C 862.896,621.747 862.396,614.08 861,606.5C 859.309,602.787 856.475,601.621 852.5,603C 840.51,611.792 837.677,622.959 844,636.5C 845.938,639.106 848.438,640.939 851.5,642C 864.293,642.718 876.959,644.384 889.5,647C 887.159,652.688 883.826,657.688 879.5,662C 875.782,664.298 871.782,664.965 867.5,664C 844.099,651.415 820.766,651.415 797.5,664C 786.109,671.368 775.442,679.701 765.5,689C 754.289,700.68 752.455,713.847 760,728.5C 763.131,732.633 766.631,736.466 770.5,740C 776.833,744.833 783.167,749.667 789.5,754.5C 785.521,760.313 780.687,765.313 775,769.5C 772.101,773.937 771.768,778.603 774,783.5C 777.834,788.497 781.167,793.83 784,799.5C 785.672,805.658 783.838,810.491 778.5,814C 763.682,823.5 748.682,823.833 733.5,815C 725.362,807.597 716.029,802.264 705.5,799C 696.674,797.92 688.007,798.587 679.5,801C 669.925,800.943 660.592,799.276 651.5,796C 643.208,792.914 640.041,787.081 642,778.5C 643.355,773.62 645.855,769.453 649.5,766C 652.5,765.333 655.5,765.333 658.5,766C 673.124,772.889 688.457,777.056 704.5,778.5C 714.45,778.012 723.784,775.346 732.5,770.5C 733.833,769.167 733.833,767.833 732.5,766.5C 713.786,763.66 695.119,760.494 676.5,757C 662.972,751.794 655.305,741.961 653.5,727.5C 633.352,733.364 613.018,734.031 592.5,729.5C 594.836,718.161 597.169,706.827 599.5,695.5C 626.372,700.174 653.372,704.007 680.5,707C 705.765,711.456 725.432,703.122 739.5,682C 721.767,684.122 703.934,685.289 686,685.5C 672.997,686.067 660.164,684.9 647.5,682C 642.585,679.506 639.919,675.506 639.5,670C 643.186,648.327 655.52,640.66 676.5,647C 698.049,654.11 719.382,661.776 740.5,670C 745.167,670.667 749.833,670.667 754.5,670C 756.781,668.149 756.781,666.482 754.5,665C 742.217,656.385 730.217,647.385 718.5,638C 725.825,627.831 735.492,620.831 747.5,617C 756.267,614.809 764.934,612.309 773.5,609.5C 771.774,605.047 769.774,600.714 767.5,596.5C 787.52,595.897 807.52,595.064 827.5,594C 832.56,592.486 837.56,590.819 842.5,589C 848.933,584.899 855.599,581.232 862.5,578C 868.373,577.049 874.04,577.715 879.5,580C 902.194,582.66 922.861,577.493 941.5,564.5 Z"/></g>
<g><path style="opacity:1" fill="#696B85" d="M 411.5,573.5 C 429.867,572.097 443.367,579.43 452,595.5C 450.809,624.962 464.309,643.795 492.5,652C 499.5,652.667 506.5,652.667 513.5,652C 523.832,648.999 533.832,645.166 543.5,640.5C 543.833,640.833 544.167,641.167 544.5,641.5C 541.574,648.277 539.241,655.277 537.5,662.5C 538.327,669.825 541.827,675.492 548,679.5C 552.741,685.391 554.408,692.058 553,699.5C 545.408,711.53 545.741,723.196 554,734.5C 558.745,738.122 563.578,741.622 568.5,745C 573.416,748.999 576.083,754.166 576.5,760.5C 572.942,772.027 574.108,783.027 580,793.5C 583.916,798.996 587.582,804.663 591,810.5C 591.667,813.833 591.667,817.167 591,820.5C 574.68,841.064 553.513,848.897 527.5,844C 518.518,839.042 514.184,831.375 514.5,821C 514.172,815.482 515.338,810.315 518,805.5C 531.199,790.633 545.366,776.8 560.5,764C 559.601,762.764 558.434,761.93 557,761.5C 539.837,767.223 522.337,768.723 504.5,766C 487.522,759.415 482.355,747.582 489,730.5C 499.579,713.425 510.745,696.758 522.5,680.5C 522,680.167 521.5,679.833 521,679.5C 493.198,690.648 476.198,710.982 470,740.5C 466.586,761.841 474.42,777.341 493.5,787C 497.242,791.517 498.409,796.684 497,802.5C 494.842,811.755 493.009,821.088 491.5,830.5C 491.541,844.798 497.208,856.298 508.5,865C 512.333,867.5 516.167,870 520,872.5C 522.828,876.302 523.161,880.302 521,884.5C 513.247,896.34 505.247,908.007 497,919.5C 484.998,935.17 470.165,938.67 452.5,930C 446.707,926.716 443.04,921.883 441.5,915.5C 445.784,892.123 449.951,868.79 454,845.5C 446.251,841.377 438.751,836.877 431.5,832C 424.716,825.023 422.882,816.857 426,807.5C 432.397,790.041 440.397,773.374 450,757.5C 450.667,754.5 450.667,751.5 450,748.5C 444.941,741.772 440.274,734.772 436,727.5C 431.037,716.623 431.37,705.956 437,695.5C 440.285,690.546 443.952,685.88 448,681.5C 449.436,678.526 450.436,675.526 451,672.5C 435.209,682.985 418.042,690.152 399.5,694C 390.518,694.88 381.518,695.38 372.5,695.5C 369.208,677.916 375.541,665.416 391.5,658C 402.093,654.803 412.76,651.803 423.5,649C 431.933,644.703 439.767,639.536 447,633.5C 447.72,631.888 447.554,630.388 446.5,629C 436.415,626.942 426.415,624.609 416.5,622C 407.928,618.799 400.428,613.966 394,607.5C 388.81,596.034 391.31,586.534 401.5,579C 404.767,576.871 408.101,575.038 411.5,573.5 Z"/></g>
<g><path style="opacity:1" fill="#696B85" d="M 493.5,583.5 C 502.395,582.4 510.728,583.9 518.5,588C 522.912,593.329 526.412,599.163 529,605.5C 539.5,613.333 548.667,622.5 556.5,633C 537.088,632.315 519.088,626.982 502.5,617C 500,614.5 497.5,612 495,609.5C 492.337,601.369 490.837,593.036 490.5,584.5C 491.791,584.737 492.791,584.404 493.5,583.5 Z"/></g>
<g><path style="opacity:1" fill="#696B85" d="M 642.5,586.5 C 644.265,585.539 646.265,585.205 648.5,585.5C 648.5,591.833 648.5,598.167 648.5,604.5C 647.51,598.69 647.177,592.69 647.5,586.5C 645.833,586.5 644.167,586.5 642.5,586.5 Z"/></g>
<g><path style="opacity:1" fill="#696B85" d="M 1108.5,601.5 C 1099.68,602.493 1090.68,602.827 1081.5,602.5C 1080.21,601.458 1080.21,600.292 1081.5,599C 1086.86,594.651 1092.86,591.984 1099.5,591C 1103.11,594.103 1106.11,597.603 1108.5,601.5 Z"/></g>
<g><path style="opacity:1" fill="#696B85" d="M 1015.5,601.5 C 1024.61,600.152 1032.95,601.985 1040.5,607C 1035.2,613.302 1029.53,619.302 1023.5,625C 999.567,637.8 975.234,649.8 950.5,661C 929.817,674.372 916.984,693.205 912,717.5C 908.55,738.409 910.55,758.742 918,778.5C 934.825,810.329 958.325,836.162 988.5,856C 1019.56,877.392 1050.89,898.392 1082.5,919C 1115.25,941.751 1143.42,969.251 1167,1001.5C 1177.62,1012.46 1189.12,1022.29 1201.5,1031C 1238.9,1055.39 1276.57,1079.39 1314.5,1103C 1333.01,1116.76 1351.35,1130.76 1369.5,1145C 1393.54,1155.18 1416.54,1167.18 1438.5,1181C 1481.23,1210.06 1524.23,1238.73 1567.5,1267C 1597.06,1284.95 1628.72,1297.61 1662.5,1305C 1693.92,1311.4 1722.59,1305.4 1748.5,1287C 1758.63,1277.76 1769.97,1270.26 1782.5,1264.5C 1784.05,1265.21 1785.05,1266.38 1785.5,1268C 1777.7,1292.14 1763.36,1311.48 1742.5,1326C 1714.74,1344.61 1684.07,1354.61 1650.5,1356C 1595.65,1358.26 1543.31,1347.93 1493.5,1325C 1432.55,1295.64 1373.88,1262.64 1317.5,1226C 1222.84,1162.67 1129.84,1097 1038.5,1029C 1000.35,1001.75 960.685,976.75 919.5,954C 881.5,933.667 843.5,913.333 805.5,893C 783.5,879.667 761.5,866.333 739.5,853C 738.483,851.951 738.316,850.784 739,849.5C 741.592,846.238 744.759,843.738 748.5,842C 758.86,841.026 769.193,840.026 779.5,839C 781.709,837.127 783.542,834.96 785,832.5C 786.194,816.815 794.361,807.148 809.5,803.5C 805.149,798.315 800.316,793.649 795,789.5C 791.581,784.553 790.747,779.22 792.5,773.5C 794,773.167 795.5,772.833 797,772.5C 811.165,774.1 825.331,775.267 839.5,776C 837.455,767.927 833.122,761.26 826.5,756C 812.043,748.852 797.71,741.518 783.5,734C 778.108,728.543 773.442,722.543 769.5,716C 778.58,707.626 789.246,702.793 801.5,701.5C 805.236,701.528 808.903,702.028 812.5,703C 815.48,704.634 818.48,706.3 821.5,708C 833.359,720.858 845.525,733.358 858,745.5C 858.376,734.724 855.709,724.724 850,715.5C 841.598,703.095 832.431,691.262 822.5,680C 840.833,679.667 859.167,679.333 877.5,679C 888.976,678.012 898.476,673.179 906,664.5C 909.651,657.198 913.318,649.864 917,642.5C 922.359,633.474 930.192,627.974 940.5,626C 948.173,625.522 955.84,625.689 963.5,626.5C 971.819,626.67 979.486,624.503 986.5,620C 995.587,612.798 1005.25,606.631 1015.5,601.5 Z"/></g>
<g><path style="opacity:1" fill="#696B85" d="M 1108.5,601.5 C 1109.04,601.56 1109.38,601.893 1109.5,602.5C 1100.01,603.822 1090.67,603.822 1081.5,602.5C 1090.68,602.827 1099.68,602.493 1108.5,601.5 Z"/></g>
<g><path style="opacity:1" fill="#696B85" d="M 333.5,642.5 C 340.833,641.837 347.166,644.004 352.5,649C 346.875,668.333 340.708,687.499 334,706.5C 326.404,721.893 313.904,729.56 296.5,729.5C 294.191,721.652 292.525,713.652 291.5,705.5C 291.629,697.572 293.796,690.239 298,683.5C 306.769,673.399 314.769,662.732 322,651.5C 325.161,647.491 328.994,644.491 333.5,642.5 Z"/></g>
<g><path style="opacity:1" fill="#696B85" d="M 344.5,708.5 C 362.836,708.333 381.17,708.5 399.5,709C 404.91,710.743 408.744,714.243 411,719.5C 416.276,736.048 422.109,752.381 428.5,768.5C 407.899,784.776 398.399,806.109 400,832.5C 401.615,838.884 405.115,844.051 410.5,848C 419.089,852.542 427.256,857.709 435,863.5C 435.652,866.594 435.318,869.594 434,872.5C 427.294,884.245 421.961,896.578 418,909.5C 414.077,933.395 420.743,953.729 438,970.5C 439.941,974.048 441.607,977.714 443,981.5C 443.134,997.531 443.801,1013.53 445,1029.5C 447.424,1040.92 454.257,1048.09 465.5,1051C 474.788,1052.28 484.121,1052.78 493.5,1052.5C 489.447,1075.72 475.78,1089.55 452.5,1094C 447.5,1094.67 442.5,1094.67 437.5,1094C 436.422,1093.33 435.755,1092.33 435.5,1091C 437.247,1075.78 438.747,1060.61 440,1045.5C 425.333,1061.5 410.667,1077.5 396,1093.5C 382.521,1070.5 378.521,1045.83 384,1019.5C 388.031,1000.38 392.531,981.376 397.5,962.5C 397.167,962.167 396.833,961.833 396.5,961.5C 394.37,962.467 392.37,963.634 390.5,965C 384.874,972.294 378.874,979.294 372.5,986C 368.392,989.203 363.725,990.703 358.5,990.5C 356.57,983.269 357.736,976.603 362,970.5C 370.925,962.238 380.425,954.738 390.5,948C 396.244,942.927 401.244,937.26 405.5,931C 404.845,929.513 403.845,928.347 402.5,927.5C 387.442,933.53 372.775,940.363 358.5,948C 355.134,949.879 351.8,949.879 348.5,948C 346.014,944.863 344.181,941.363 343,937.5C 339.428,923.96 338.761,910.294 341,896.5C 345.929,882.242 355.095,871.742 368.5,865C 377.625,861.935 386.625,858.601 395.5,855C 384.895,848.447 374.061,842.28 363,836.5C 361.395,837.101 360.062,838.101 359,839.5C 353.924,847.247 348.091,854.413 341.5,861C 336.143,866.183 329.81,868.183 322.5,867C 318.942,865.108 316.442,862.275 315,858.5C 313.538,851.215 312.871,843.882 313,836.5C 345.125,813.852 376.625,790.352 407.5,766C 396.449,763.486 385.449,760.486 374.5,757C 352.446,748.409 342.446,732.242 344.5,708.5 Z"/></g>
<g><path style="opacity:1" fill="#696B85" d="M 322.5,738.5 C 331.214,746.716 339.048,755.716 346,765.5C 354.29,780.293 350.79,791.127 335.5,798C 323.881,799.361 312.214,799.861 300.5,799.5C 297.56,775.31 304.893,754.976 322.5,738.5 Z"/></g>
<g><path style="opacity:1" fill="#696B85" d="M 373.5,1272.5 C 365.14,1272.17 356.807,1272.5 348.5,1273.5C 348.624,1274.11 348.957,1274.44 349.5,1274.5C 351.739,1278.64 354.239,1282.64 357,1286.5C 357.749,1287.64 357.583,1288.64 356.5,1289.5C 337.5,1307.33 318.5,1325.17 299.5,1343C 297.887,1343.09 296.72,1342.26 296,1340.5C 294.254,1336.67 292.254,1333.01 290,1329.5C 282.412,1343.01 275.079,1356.67 268,1370.5C 263.782,1377.72 257.948,1383.22 250.5,1387C 247.667,1387.17 244.833,1387.33 242,1387.5C 233.662,1387.13 225.495,1385.8 217.5,1383.5C 217.666,1392.84 217.5,1402.17 217,1411.5C 215.036,1424.79 207.869,1433.96 195.5,1439C 188.626,1440.97 181.626,1442.31 174.5,1443C 172.275,1443.56 170.275,1444.56 168.5,1446C 164.167,1455.84 159.667,1465.67 155,1475.5C 144.202,1494.98 127.702,1503.48 105.5,1501C 91.4186,1473.51 93.9186,1447.68 113,1423.5C 121.232,1414.6 130.066,1406.43 139.5,1399C 147.337,1394.96 155.67,1392.62 164.5,1392C 172.4,1388.81 178.567,1383.65 183,1376.5C 187.918,1358.8 198.418,1345.64 214.5,1337C 240.327,1329.17 261.16,1314.34 277,1292.5C 292.756,1270.66 308.756,1248.99 325,1227.5C 328.104,1222.56 329.104,1217.23 328,1211.5C 317.513,1173.18 305.846,1135.18 293,1097.5C 289.394,1090.62 286.061,1083.62 283,1076.5C 282.116,1072.89 281.616,1069.22 281.5,1065.5C 283.071,1057.72 284.404,1049.88 285.5,1042C 285.456,1038.43 284.956,1034.93 284,1031.5C 277.667,1023.17 271.333,1014.83 265,1006.5C 252.368,985.81 246.202,963.31 246.5,939C 247.294,930.171 247.461,921.338 247,912.5C 245.97,909.05 244.637,905.717 243,902.5C 229.943,888.019 222.276,871.019 220,851.5C 217.223,827.807 219.89,804.807 228,782.5C 234.526,767.474 245.026,756.141 259.5,748.5C 284.014,770.56 289.848,796.893 277,827.5C 268,844.166 254.833,856.333 237.5,864C 236.941,864.725 236.608,865.558 236.5,866.5C 239.881,875.721 246.381,881.055 256,882.5C 258.253,882.369 260.419,881.869 262.5,881C 270.917,875.708 279.417,870.541 288,865.5C 296.333,893.764 297.666,922.431 292,951.5C 290.793,956.668 289.126,961.668 287,966.5C 279.986,973.681 272.819,980.681 265.5,987.5C 272.871,1005.34 284.205,1008.17 299.5,996C 305.373,989.073 310.873,981.906 316,974.5C 319.192,975.424 321.858,977.091 324,979.5C 331.637,1002.9 334.304,1026.9 332,1051.5C 329.408,1066.68 323.075,1080.01 313,1091.5C 312.501,1095.15 312.335,1098.82 312.5,1102.5C 318.049,1102.91 323.382,1102.08 328.5,1100C 337.644,1093.02 346.644,1085.86 355.5,1078.5C 372.731,1119.85 368.231,1158.52 342,1194.5C 341.383,1195.45 341.549,1196.28 342.5,1197C 349.076,1196.39 355.076,1194.05 360.5,1190C 366.5,1183.33 372.5,1176.67 378.5,1170C 382.411,1166.4 386.744,1165.74 391.5,1168C 405.262,1182.71 411.929,1200.21 411.5,1220.5C 411.6,1234.68 408.433,1248.01 402,1260.5C 394.297,1268.77 384.797,1272.77 373.5,1272.5 Z"/></g>
<g><path style="opacity:1" fill="#696B85" d="M 956.5,783.5 C 967.791,782.09 978.457,783.924 988.5,789C 1022.33,820.168 1057.33,849.835 1093.5,878C 1111.01,887.256 1128.68,896.256 1146.5,905C 1152.7,911.217 1157.53,918.383 1161,926.5C 1164.17,929.667 1167.33,932.833 1170.5,936C 1183.83,943 1197.17,950 1210.5,957C 1222.17,969.333 1233.83,981.667 1245.5,994C 1257.18,998.34 1268.18,1004.01 1278.5,1011C 1287.8,1019.3 1296.8,1027.97 1305.5,1037C 1334.13,1060.62 1362.46,1084.62 1390.5,1109C 1408.96,1122.06 1429.29,1131.06 1451.5,1136C 1460.24,1138.4 1466.07,1143.9 1469,1152.5C 1469.96,1160.8 1474.12,1166.96 1481.5,1171C 1509.1,1177.47 1534.43,1188.8 1557.5,1205C 1575.25,1221.07 1594.92,1234.41 1616.5,1245C 1644.17,1256.28 1671.83,1256.28 1699.5,1245C 1720.84,1234.11 1742.34,1223.61 1764,1213.5C 1758.85,1247.64 1739.35,1268.14 1705.5,1275C 1671.03,1277.84 1638.03,1272.17 1606.5,1258C 1580.78,1246.31 1555.78,1233.31 1531.5,1219C 1428.91,1159.71 1331.24,1093.37 1238.5,1020C 1186.44,985.643 1138.78,945.643 1095.5,900C 1068.74,877.442 1039.74,858.108 1008.5,842C 994.78,831.953 981.946,820.786 970,808.5C 965.475,800.113 960.975,791.779 956.5,783.5 Z"/></g>
<g><path style="opacity:1" fill="#A3A6C2" d="M 823.5,807.5 C 843.771,807.652 863.438,811.152 882.5,818C 878.736,822.216 874.069,824.883 868.5,826C 857.833,826.333 847.167,826.667 836.5,827C 829.199,828.503 827.699,832.337 832,838.5C 839.231,844.531 846.731,850.198 854.5,855.5C 855.326,856.451 855.492,857.451 855,858.5C 850.909,862.305 846.076,863.472 840.5,862C 828.433,859.386 818.267,853.553 810,844.5C 806.276,836.104 805.276,827.437 807,818.5C 810.988,812.432 816.488,808.765 823.5,807.5 Z"/></g>
<g><path style="opacity:1" fill="#696B85" d="M 897.5,809.5 C 914.545,815.381 925.712,827.048 931,844.5C 935.143,859.071 938.976,873.737 942.5,888.5C 941.085,895.75 936.751,900.25 929.5,902C 911.046,907.229 893.713,904.896 877.5,895C 873.167,892 869.5,888.333 866.5,884C 880.401,881.524 894.401,879.857 908.5,879C 912.553,876.461 914.553,872.795 914.5,868C 910.4,847.971 904.734,828.471 897.5,809.5 Z"/></g>
<g><path style="opacity:1" fill="#696B85" d="M 617.5,816.5 C 618.5,816.5 619.5,816.5 620.5,816.5C 628.954,843.577 640.288,869.411 654.5,894C 642.397,900.572 629.73,901.905 616.5,898C 605.369,890.733 597.036,881.066 591.5,869C 582.13,868.702 577.964,873.202 579,882.5C 584.446,896.673 590.946,910.34 598.5,923.5C 582.047,938.53 562.714,944.03 540.5,940C 537.667,938.5 535.5,936.333 534,933.5C 532.146,916.873 532.146,900.207 534,883.5C 562.177,861.508 590.01,839.174 617.5,816.5 Z"/></g>
<g><path style="opacity:0.345" fill="#5d5855" d="M 1761.5,843.5 C 1760.83,844.167 1760.83,844.167 1761.5,843.5 Z"/></g>
<g><path style="opacity:1" fill="#A3A6C2" d="M 971.5,865.5 C 993.434,877.31 1006.6,895.643 1011,920.5C 1013.18,930.74 1013.85,941.073 1013,951.5C 1011.06,954.106 1008.56,955.939 1005.5,957C 982.442,963.413 961.608,959.246 943,944.5C 941.291,941.582 939.458,938.748 937.5,936C 949.548,935.891 961.548,935.225 973.5,934C 983.847,929.974 988.014,922.474 986,911.5C 980.661,896.317 975.828,880.983 971.5,865.5 Z"/></g>
<g><path style="opacity:1" fill="#696B85" d="M 732.5,899.5 C 739.647,899.179 746.647,900.012 753.5,902C 796.599,921.55 839.932,940.55 883.5,959C 887.833,961.833 892.167,964.667 896.5,967.5C 889.758,976.466 882.424,984.966 874.5,993C 868.472,996.265 862.472,996.265 856.5,993C 836.641,975.604 813.641,968.937 787.5,973C 792.476,977.487 797.809,981.487 803.5,985C 815.93,990.275 828.596,994.942 841.5,999C 847.762,1001.38 853.262,1004.88 858,1009.5C 863.41,1016.63 862.576,1022.8 855.5,1028C 845.949,1033.97 835.616,1035.97 824.5,1034C 817.014,1032.5 809.681,1030.5 802.5,1028C 782.574,1017.01 761.241,1012.68 738.5,1015C 746.212,1021.71 754.212,1028.05 762.5,1034C 779.833,1042.33 797.167,1050.67 814.5,1059C 826.076,1069.23 826.409,1079.89 815.5,1091C 811.522,1093.49 807.189,1094.66 802.5,1094.5C 785.056,1092.31 767.723,1089.47 750.5,1086C 737.462,1085.15 724.462,1085.48 711.5,1087C 717.508,1096.33 725.841,1102.67 736.5,1106C 756.401,1109.28 776.401,1111.94 796.5,1114C 806.784,1118.09 811.95,1125.59 812,1136.5C 802.068,1146.22 790.235,1152.38 776.5,1155C 747.161,1155.17 717.828,1155.67 688.5,1156.5C 696.52,1167.01 707.186,1172.51 720.5,1173C 736.856,1173.68 753.19,1174.68 769.5,1176C 778.154,1177.33 786.154,1180.33 793.5,1185C 800.44,1192.73 802.274,1201.56 799,1211.5C 796.736,1214.43 793.902,1216.6 790.5,1218C 754.124,1218.09 717.791,1217.09 681.5,1215C 674.758,1217.09 669.092,1220.75 664.5,1226C 670.564,1237.05 679.898,1243.72 692.5,1246C 721.829,1246.85 751.162,1247.52 780.5,1248C 797.318,1247.44 805.318,1255.61 804.5,1272.5C 804.65,1281.71 800.316,1287.55 791.5,1290C 748.9,1293.48 706.234,1295.65 663.5,1296.5C 663.468,1302.19 663.134,1307.86 662.5,1313.5C 671.761,1315.32 681.094,1316.82 690.5,1318C 718.003,1318.6 745.503,1318.43 773,1317.5C 789.244,1317.43 805.411,1318.43 821.5,1320.5C 823.52,1343.99 812.853,1357.83 789.5,1362C 768.95,1365.64 748.283,1368.64 727.5,1371C 721.617,1373.55 716.95,1377.55 713.5,1383C 715.769,1387.6 719.102,1391.27 723.5,1394C 739.861,1394.83 756.194,1394.5 772.5,1393C 792.074,1388.19 811.74,1383.86 831.5,1380C 840.649,1378.44 849.316,1379.78 857.5,1384C 861.466,1391.13 861.3,1398.29 857,1405.5C 840.297,1423.11 820.13,1434.94 796.5,1441C 781.385,1444.62 766.385,1448.62 751.5,1453C 748.5,1454.5 745.5,1456 742.5,1457.5C 741.447,1458.44 740.78,1459.6 740.5,1461C 748.279,1467.31 757.279,1470.15 767.5,1469.5C 779.528,1468.77 791.195,1466.27 802.5,1462C 821.619,1452.94 841.286,1445.27 861.5,1439C 882.622,1431.7 895.789,1438.87 901,1460.5C 907.243,1479.77 905.243,1498.1 895,1515.5C 876.046,1544.56 849.879,1563.72 816.5,1573C 765.22,1582.51 713.553,1585.84 661.5,1583C 636.584,1581.72 612.584,1576.39 589.5,1567C 576,1561.5 566.5,1552 561,1538.5C 557.853,1531.11 559.353,1524.94 565.5,1520C 569.443,1517.2 573.777,1515.2 578.5,1514C 603.703,1509.26 629.036,1505.26 654.5,1502C 662.385,1499.39 670.052,1496.22 677.5,1492.5C 678.363,1490.23 678.363,1487.9 677.5,1485.5C 648.102,1484.62 618.769,1482.79 589.5,1480C 572.822,1477.08 557.989,1470.24 545,1459.5C 538.316,1450.07 535.982,1439.74 538,1428.5C 539.579,1426.96 541.413,1425.79 543.5,1425C 572.302,1425.34 600.969,1427.51 629.5,1431.5C 630.925,1420.85 626.592,1413.68 616.5,1410C 597.808,1404.61 578.808,1400.61 559.5,1398C 538.084,1391.91 522.918,1378.74 514,1358.5C 511.698,1350.42 513.865,1343.92 520.5,1339C 527.121,1335.35 534.121,1332.68 541.5,1331C 561.251,1327.38 580.918,1323.38 600.5,1319C 603.941,1317.22 607.108,1315.06 610,1312.5C 608.734,1304.22 604.567,1297.72 597.5,1293C 583.181,1291.7 568.848,1290.37 554.5,1289C 534.057,1285.27 524.89,1273.1 527,1252.5C 528.605,1246.56 532.438,1243.06 538.5,1242C 559.229,1241.5 579.896,1240.16 600.5,1238C 611.68,1234.08 622.346,1229.08 632.5,1223C 623.565,1215.37 613.231,1210.7 601.5,1209C 589.388,1208.52 577.388,1207.18 565.5,1205C 546.057,1195.99 540.39,1181.66 548.5,1162C 557.06,1157.03 566.06,1153.03 575.5,1150C 582.167,1149.33 588.833,1149.33 595.5,1150C 603.505,1154.17 611.839,1157.5 620.5,1160C 628.439,1161.03 636.106,1160.03 643.5,1157C 643.929,1147.31 640.596,1138.98 633.5,1132C 629.159,1128.83 624.492,1126.16 619.5,1124C 606.991,1119.83 594.658,1115.16 582.5,1110C 579.557,1105.29 578.724,1100.12 580,1094.5C 582.04,1089.12 585.873,1085.96 591.5,1085C 616.186,1081.21 640.853,1077.38 665.5,1073.5C 665.901,1062.05 660.568,1054.55 649.5,1051C 638.438,1048.9 627.771,1045.57 617.5,1041C 613.275,1037.28 609.608,1033.11 606.5,1028.5C 614.961,1016.82 626.461,1012.15 641,1014.5C 653.16,1015.4 665.327,1015.56 677.5,1015C 685.293,1012.88 691.793,1008.71 697,1002.5C 697.667,1001.5 697.667,1000.5 697,999.5C 689.375,992.956 680.542,989.122 670.5,988C 665.211,984.38 660.211,980.38 655.5,976C 659.212,970.621 663.879,966.287 669.5,963C 699.632,957.696 729.799,952.863 760,948.5C 760.277,943.211 758.444,938.711 754.5,935C 746.214,933.214 737.881,931.547 729.5,930C 719.775,926.03 714.942,918.864 715,908.5C 720.566,904.801 726.399,901.801 732.5,899.5 Z"/></g>
<g><path style="opacity:1" fill="#696B85" d="M 665.5,901.5 C 666.239,901.369 666.906,901.536 667.5,902C 658.918,922.249 644.585,936.915 624.5,946C 617.274,949.294 609.94,951.961 602.5,954C 608.277,943.213 615.944,933.879 625.5,926C 638.396,917.055 651.73,908.888 665.5,901.5 Z"/></g>
<g><path style="opacity:1" fill="#A3A6C2" d="M 1046.5,923.5 C 1062.05,931.56 1072.89,943.893 1079,960.5C 1083.95,975.081 1085.79,990.081 1084.5,1005.5C 1076.83,1006.19 1069.16,1007.02 1061.5,1008C 1044.38,1010.72 1029.38,1006.38 1016.5,995C 1027.43,993.102 1038.43,991.102 1049.5,989C 1055.16,987.653 1059.33,984.487 1062,979.5C 1062.64,973.374 1061.97,967.374 1060,961.5C 1055.21,948.919 1050.71,936.253 1046.5,923.5 Z"/></g>
<g><path style="opacity:1" fill="#696B85" d="M 501.5,952.5 C 513.476,951.326 524.143,954.493 533.5,962C 538.379,964.071 543.379,965.737 548.5,967C 564.348,968.974 580.014,971.808 595.5,975.5C 586.083,989.998 576.916,1004.67 568,1019.5C 557.739,1037.62 551.073,1056.95 548,1077.5C 547.182,1090.22 547.682,1102.88 549.5,1115.5C 548.975,1123.38 545.642,1129.88 539.5,1135C 522.64,1141.88 515.473,1154.38 518,1172.5C 518.993,1181.29 520.493,1189.96 522.5,1198.5C 521.503,1208.69 516.836,1216.85 508.5,1223C 495.211,1229.28 486.711,1239.45 483,1253.5C 482.182,1259.9 482.516,1266.24 484,1272.5C 486.806,1279.45 490.139,1286.11 494,1292.5C 496.373,1298.52 495.706,1304.18 492,1309.5C 484.252,1318.99 478.585,1329.66 475,1341.5C 472.89,1353.02 474.89,1363.68 481,1373.5C 485.591,1380.09 490.924,1386.09 497,1391.5C 500.266,1396.74 501.266,1402.41 500,1408.5C 493.417,1421.67 488.917,1435.5 486.5,1450C 486.615,1454.68 488.115,1458.85 491,1462.5C 496.978,1468.81 503.312,1474.81 510,1480.5C 511.608,1483.38 512.941,1486.38 514,1489.5C 513.146,1499.1 512.646,1508.77 512.5,1518.5C 512.667,1526.01 513,1533.51 513.5,1541C 513.58,1552.51 508.913,1561.51 499.5,1568C 478.634,1582.23 455.634,1587.23 430.5,1583C 426.176,1582.13 421.842,1581.3 417.5,1580.5C 425,1570.17 432.5,1559.83 440,1549.5C 442.495,1545.52 443.662,1541.18 443.5,1536.5C 438.627,1536.77 433.96,1537.93 429.5,1540C 413.074,1561.41 394.074,1564.07 372.5,1548C 361.279,1536.35 355.946,1522.35 356.5,1506C 357.564,1488.58 361.231,1471.75 367.5,1455.5C 367.167,1455.17 366.833,1454.83 366.5,1454.5C 359.677,1461.16 352.677,1467.66 345.5,1474C 332.365,1483.88 320.865,1482.38 311,1469.5C 303.687,1455.93 298.354,1441.59 295,1426.5C 294.088,1422.21 293.421,1417.87 293,1413.5C 280.365,1425.15 276.032,1439.49 280,1456.5C 286.257,1477.35 296.424,1496.02 310.5,1512.5C 305.131,1523.75 297.131,1532.59 286.5,1539C 268.298,1541.14 255.798,1533.64 249,1516.5C 246.479,1502.6 244.645,1488.6 243.5,1474.5C 238.614,1472.6 234.447,1473.6 231,1477.5C 227.668,1494.16 224.335,1510.83 221,1527.5C 216.184,1548.97 203.018,1558.14 181.5,1555C 171.561,1550.39 162.728,1544.22 155,1536.5C 155.086,1533.3 156.086,1530.3 158,1527.5C 176.15,1502.01 195.817,1477.68 217,1454.5C 249.597,1418.23 284.431,1384.4 321.5,1353C 322.449,1352.38 323.282,1352.55 324,1353.5C 326.408,1364.47 329.742,1375.14 334,1385.5C 344.925,1407.88 362.759,1416.88 387.5,1412.5C 388.231,1426.25 389.731,1439.92 392,1453.5C 399.926,1481.51 418.093,1498.18 446.5,1503.5C 452.312,1503.73 457.645,1502.23 462.5,1499C 467.649,1495.02 472.315,1490.52 476.5,1485.5C 431.946,1483.75 412.779,1460.75 419,1416.5C 422.679,1398.09 426.679,1379.76 431,1361.5C 431.465,1360.07 432.299,1358.9 433.5,1358C 432.833,1357.33 432.167,1357.33 431.5,1358C 422.803,1366.36 414.469,1375.03 406.5,1384C 398.25,1389.19 389.583,1389.85 380.5,1386C 356.68,1375.16 350.847,1357.99 363,1334.5C 367.416,1324.66 373.083,1315.66 380,1307.5C 391.167,1317.33 402.333,1327.17 413.5,1337C 434.199,1350.47 452.699,1347.97 469,1329.5C 469.334,1327.15 469.167,1324.82 468.5,1322.5C 454.775,1322.03 441.108,1321.86 427.5,1322C 421.175,1319.2 417.341,1314.37 416,1307.5C 412.72,1295.66 414.387,1284.66 421,1274.5C 440.93,1262.12 460.43,1249.12 479.5,1235.5C 478.926,1233.94 478.26,1232.44 477.5,1231C 467.167,1230.67 456.833,1230.33 446.5,1230C 443.898,1229.12 441.731,1227.62 440,1225.5C 429.235,1197.64 416.568,1170.64 402,1144.5C 398.437,1133.05 398.77,1121.72 403,1110.5C 404.353,1105.6 406.186,1100.94 408.5,1096.5C 420.209,1105.26 431.375,1114.59 442,1124.5C 442.958,1126.2 443.458,1128.03 443.5,1130C 441.843,1136.96 440.51,1143.96 439.5,1151C 439.989,1161.82 444.989,1169.82 454.5,1175C 470.506,1182.91 487.173,1184.58 504.5,1180C 493.868,1175.34 483.201,1170.67 472.5,1166C 469.667,1164.5 467.5,1162.33 466,1159.5C 464.464,1153.25 464.13,1146.92 465,1140.5C 468.308,1128.91 472.975,1117.91 479,1107.5C 481.917,1105.61 485.084,1105.11 488.5,1106C 497.586,1111.21 506.919,1115.88 516.5,1120C 519.817,1120.5 523.15,1120.67 526.5,1120.5C 526.66,1118.8 526.494,1117.13 526,1115.5C 518.685,1110.18 512.018,1104.18 506,1097.5C 503.69,1092.73 503.023,1087.73 504,1082.5C 514.333,1062.84 526.999,1044.84 542,1028.5C 547.167,1020.83 552.333,1013.17 557.5,1005.5C 555.235,1004.35 552.902,1004.19 550.5,1005C 539.911,1007.97 529.911,1012.31 520.5,1018C 515.311,1020.4 509.977,1022.4 504.5,1024C 496.627,1025.5 489.294,1024.17 482.5,1020C 477.3,1015.13 472.467,1009.97 468,1004.5C 463.084,995.593 463.417,986.927 469,978.5C 478.206,967.52 489.039,958.854 501.5,952.5 Z"/></g>
<g><path style="opacity:1" fill="#696B85" d="M 1561.5,962.5 C 1566.68,962.775 1572.18,962.775 1578,962.5C 1605,963.727 1629.5,972.56 1651.5,989C 1678.26,1011.74 1699.76,1038.58 1716,1069.5C 1723.91,1084.91 1731.25,1100.58 1738,1116.5C 1738.98,1120.3 1738.15,1123.63 1735.5,1126.5C 1725.55,1117.26 1716.05,1107.6 1707,1097.5C 1696.18,1083.35 1684.02,1070.52 1670.5,1059C 1662.92,1054.63 1655.42,1050.13 1648,1045.5C 1645.06,1040.29 1643.73,1034.62 1644,1028.5C 1641.38,1016.55 1634.88,1007.39 1624.5,1001C 1612.53,995.349 1600.69,989.515 1589,983.5C 1588.48,985.289 1588.81,986.956 1590,988.5C 1602.66,999.157 1614.66,1010.49 1626,1022.5C 1628.38,1029.36 1630.38,1036.36 1632,1043.5C 1638.03,1057.19 1648.19,1066.36 1662.5,1071C 1672.85,1077.01 1682.35,1084.18 1691,1092.5C 1695.89,1099.75 1697.72,1107.75 1696.5,1116.5C 1680.5,1121.13 1664.67,1125.13 1649,1128.5C 1646.83,1127.75 1644.66,1126.91 1642.5,1126C 1621.16,1103.67 1601.33,1080.17 1583,1055.5C 1563.33,1028.66 1548.83,999.157 1539.5,967C 1539.91,966.055 1540.57,965.388 1541.5,965C 1548.33,964.27 1555,963.437 1561.5,962.5 Z"/></g>
<g><path style="opacity:1" fill="#696B85" d="M 1112.5,981.5 C 1128.12,987.623 1138.96,998.623 1145,1014.5C 1150.39,1028.11 1151.72,1042.11 1149,1056.5C 1145.98,1060.09 1142.15,1062.26 1137.5,1063C 1118.39,1066.41 1102.72,1060.74 1090.5,1046C 1098.53,1045.66 1106.53,1045 1114.5,1044C 1127.13,1039.23 1130.96,1030.39 1126,1017.5C 1121.21,1005.59 1116.71,993.588 1112.5,981.5 Z"/></g>
<g><path style="opacity:1" fill="#A3A6C2" d="M 1194.5,1042.5 C 1216.96,1058.7 1227.46,1080.7 1226,1108.5C 1223.44,1112.87 1219.61,1115.37 1214.5,1116C 1200.98,1116.94 1188.65,1113.6 1177.5,1106C 1174.27,1103.27 1171.6,1100.11 1169.5,1096.5C 1181.38,1094.24 1193.38,1092.91 1205.5,1092.5C 1202.15,1075.77 1198.49,1059.11 1194.5,1042.5 Z"/></g>
<g><path style="opacity:1" fill="#696B85" d="M 116.5,1049.5 C 117.376,1049.37 118.043,1049.7 118.5,1050.5C 127.605,1068.38 136.439,1086.38 145,1104.5C 140.002,1130.66 127.168,1152.16 106.5,1169C 100.488,1173.01 94.155,1176.51 87.5,1179.5C 86.3391,1175.2 86.1725,1170.87 87,1166.5C 88.5774,1152.7 90.9107,1139.04 94,1125.5C 100.628,1099.91 108.128,1074.58 116.5,1049.5 Z"/></g>
<g><path style="opacity:1" fill="#A3A6C2" d="M 1282.5,1117.5 C 1286.24,1116.97 1289.41,1117.97 1292,1120.5C 1296.12,1135.16 1300.62,1149.66 1305.5,1164C 1294.19,1165.3 1282.86,1165.64 1271.5,1165C 1267.72,1163.94 1264.38,1162.11 1261.5,1159.5C 1267.83,1155.33 1274.17,1151.17 1280.5,1147C 1286.17,1141.68 1288,1135.18 1286,1127.5C 1284.91,1124.06 1283.74,1120.73 1282.5,1117.5 Z"/></g>
<g><path style="opacity:1" fill="#a3a6c2" d="M 2131.5,1125.5 C 2134.01,1130.02 2136.68,1134.52 2139.5,1139C 2138.5,1139.5 2137.5,1140 2136.5,1140.5C 2133.57,1136.95 2130.9,1133.28 2128.5,1129.5C 2129.5,1128.17 2130.5,1126.83 2131.5,1125.5 Z"/></g>
<g><path style="opacity:1" fill="#A3A6C2" d="M 1746.5,1142.5 C 1730.9,1140.86 1715.23,1139.86 1699.5,1139.5C 1714.72,1139.4 1729.88,1139.07 1745,1138.5C 1746.19,1139.56 1746.69,1140.9 1746.5,1142.5 Z"/></g>
<g><path style="opacity:1" fill="#A3A6C2" d="M 1341.5,1153.5 C 1355.96,1160.82 1365.13,1172.48 1369,1188.5C 1370.72,1196.07 1371.56,1203.74 1371.5,1211.5C 1360.37,1214.69 1349.04,1215.86 1337.5,1215C 1331.08,1213.37 1325.91,1209.87 1322,1204.5C 1320.99,1202.98 1320.49,1201.31 1320.5,1199.5C 1328.26,1199.05 1335.93,1197.88 1343.5,1196C 1345.62,1194.88 1347.46,1193.38 1349,1191.5C 1349.67,1187.5 1349.67,1183.5 1349,1179.5C 1346.19,1170.9 1343.69,1162.24 1341.5,1153.5 Z"/></g>
<g><path style="opacity:1" fill="#A3A6C2" d="M 1411.5,1207.5 C 1421.13,1212.3 1427.29,1219.97 1430,1230.5C 1431.69,1237.41 1432.86,1244.41 1433.5,1251.5C 1433.18,1252.65 1432.52,1253.48 1431.5,1254C 1427.11,1255.13 1422.77,1256.46 1418.5,1258C 1403.92,1261.12 1392.26,1256.79 1383.5,1245C 1395.67,1243.16 1407.17,1239.33 1418,1233.5C 1418.67,1231.83 1418.67,1230.17 1418,1228.5C 1415.52,1221.57 1413.35,1214.57 1411.5,1207.5 Z"/></g>
<g><path style="opacity:1" fill="#696B85" d="M 1478.5,1234.5 C 1479.55,1234.35 1480.55,1234.52 1481.5,1235C 1499.63,1249.72 1506.46,1268.55 1502,1291.5C 1500.46,1293.38 1498.62,1294.88 1496.5,1296C 1485.69,1297.5 1476.02,1294.84 1467.5,1288C 1472,1284.92 1476.67,1282.08 1481.5,1279.5C 1486.04,1275.84 1487.54,1271.17 1486,1265.5C 1482.53,1256.26 1479.36,1246.93 1476.5,1237.5C 1477.19,1236.48 1477.86,1235.48 1478.5,1234.5 Z"/></g>
<g><path style="opacity:1" fill="#b1632d" d="M 373.5,1272.5 C 365.5,1273.17 357.5,1273.83 349.5,1274.5C 348.957,1274.44 348.624,1274.11 348.5,1273.5C 356.807,1272.5 365.14,1272.17 373.5,1272.5 Z"/></g>
<g><path style="opacity:1" fill="#A3A6C2" d="M 1574.5,1295.5 C 1581.78,1313.08 1575.78,1323.58 1556.5,1327C 1550.87,1328.2 1545.2,1328.53 1539.5,1328C 1551.62,1317.61 1563.29,1306.78 1574.5,1295.5 Z"/></g>
<g><path style="opacity:1" fill="#696B85" d="M 1646.5,1312.5 C 1649.42,1317.87 1651.42,1323.71 1652.5,1330C 1651.97,1338.2 1647.63,1342.87 1639.5,1344C 1632.87,1345.3 1626.21,1345.64 1619.5,1345C 1628.33,1334 1637.33,1323.17 1646.5,1312.5 Z"/></g>
<g><path style="opacity:1" fill="#696B85" d="M 325.5,1532.5 C 334.811,1545.77 344.144,1559.1 353.5,1572.5C 334.568,1590.72 316.735,1589.72 300,1569.5C 297.247,1565.67 296.914,1561.67 299,1557.5C 308.031,1549.3 316.864,1540.97 325.5,1532.5 Z"/></g>
</svg>
