<svg xmlns="http://www.w3.org/2000/svg" version="1.1" width="2400px" height="2400px" style="shape-rendering:geometricPrecision; text-rendering:geometricPrecision; image-rendering:optimizeQuality; fill-rule:evenodd; clip-rule:evenodd" xmlns:xlink="http://www.w3.org/1999/xlink">
<g><path style="opacity:0.982" fill="#a3a6c2" d="M 1200.5,458.5 C 1285.86,458.774 1371.2,459.107 1456.5,459.5C 1456.5,603.5 1456.5,747.5 1456.5,891.5C 1376.17,891.667 1295.83,891.5 1215.5,891C 1213.5,890.333 1211.5,889.667 1209.5,889C 1137,826.239 1054,782.572 960.5,758C 843.473,730.043 730.806,742.709 622.5,796C 558.918,829.248 507.751,876.081 469,936.5C 417.416,1024.42 409.75,1116.08 446,1211.5C 468.604,1263.53 502.771,1306.37 548.5,1340C 641.918,1405.52 745.918,1437.36 860.5,1435.5C 921.369,1436.69 980.369,1426.85 1037.5,1406C 1090.81,1385.53 1135.81,1353.53 1172.5,1310C 1095.17,1309.5 1017.83,1309.33 940.5,1309.5C 940.5,1177.5 940.5,1045.5 940.5,913.5C 1415.17,913.5 1889.83,913.5 2364.5,913.5C 2364.5,1045.5 2364.5,1177.5 2364.5,1309.5C 2285.83,1309.5 2207.17,1309.5 2128.5,1309.5C 2121.95,1273.54 2115.62,1237.54 2109.5,1201.5C 2026.5,1201.5 1943.5,1201.5 1860.5,1201.5C 1860.5,1350.5 1860.5,1499.5 1860.5,1648.5C 1902.83,1648.5 1945.17,1648.5 1987.5,1648.5C 1987.5,1737.17 1987.5,1825.83 1987.5,1914.5C 1788.83,1914.5 1590.17,1914.5 1391.5,1914.5C 1391.5,1826.5 1391.5,1738.5 1391.5,1650.5C 1436.5,1650.5 1481.5,1650.5 1526.5,1650.5C 1526.5,1500.83 1526.5,1351.17 1526.5,1201.5C 1509.5,1201.5 1492.5,1201.5 1475.5,1201.5C 1475.5,1341.5 1475.5,1481.5 1475.5,1621.5C 1384.5,1621.67 1293.5,1621.5 1202.5,1621C 1201.68,1611.58 1201.18,1602.08 1201,1592.5C 1073.75,1646.98 941.086,1679.31 803,1689.5C 801.094,1688.87 799.094,1688.54 797,1688.5C 671.861,1696.02 550.694,1676.85 433.5,1631C 330.435,1589.24 242.269,1526.74 169,1443.5C 110.83,1375.17 70.4971,1297.17 48,1209.5C 16.352,1063.4 42.0186,928.069 125,803.5C 159.06,755.753 197.894,711.92 241.5,672C 318.012,602.374 404.678,548.374 501.5,510C 635.823,461.122 773.49,448.789 914.5,473C 1013.51,489.837 1107.51,521.337 1196.5,567.5C 1197.5,531.506 1197.83,495.506 1197.5,459.5C 1198.79,459.737 1199.79,459.404 1200.5,458.5 Z M 1192.5,1203.5 C 1205.18,1203.17 1217.85,1203.5 1230.5,1204.5C 1218.22,1242.41 1199.72,1276.74 1175,1307.5C 1180.63,1272.84 1186.46,1238.18 1192.5,1203.5 Z"/></g>
<g><path style="opacity:1" fill="#b3b6cf" d="M 1437.5,478.5 C 1437.5,609.833 1437.5,741.167 1437.5,872.5C 1364.5,872.667 1291.5,872.5 1218.5,872C 1165.38,827.934 1107.05,792.267 1043.5,765C 943.153,724.754 839.82,715.087 733.5,736C 641.32,756.665 562.487,800.832 497,868.5C 457.387,911.711 429.721,961.711 414,1018.5C 408.795,1038.47 405.961,1058.81 405.5,1079.5C 404.167,1089.17 404.167,1098.83 405.5,1108.5C 409.624,1200.57 446.291,1276.74 515.5,1337C 565.77,1378.31 622.104,1408.98 684.5,1429C 721.571,1441.18 759.571,1448.85 798.5,1452C 866.332,1458.36 933.332,1453.7 999.5,1438C 1094.65,1413.71 1167.82,1359.88 1219,1276.5C 1235.57,1248.04 1247.07,1217.71 1253.5,1185.5C 1228.17,1185.5 1202.83,1185.5 1177.5,1185.5C 1170.76,1220.42 1164.43,1255.42 1158.5,1290.5C 1092.17,1290.5 1025.83,1290.5 959.5,1290.5C 959.5,1171.17 959.5,1051.83 959.5,932.5C 1421.5,932.5 1883.5,932.5 2345.5,932.5C 2345.5,1051.83 2345.5,1171.17 2345.5,1290.5C 2278.17,1290.5 2210.83,1290.5 2143.5,1290.5C 2137.29,1254.55 2131.29,1218.55 2125.5,1182.5C 2030.83,1182.5 1936.17,1182.5 1841.5,1182.5C 1841.5,1343.83 1841.5,1505.17 1841.5,1666.5C 1883.83,1666.5 1926.17,1666.5 1968.5,1666.5C 1968.5,1743.17 1968.5,1819.83 1968.5,1896.5C 1782.5,1896.5 1596.5,1896.5 1410.5,1896.5C 1410.5,1820.83 1410.5,1745.17 1410.5,1669.5C 1454.83,1669.5 1499.17,1669.5 1543.5,1669.5C 1544.83,1588.67 1545.5,1507.5 1545.5,1426C 1545.5,1344.67 1545.17,1263.5 1544.5,1182.5C 1515.5,1182.5 1486.5,1182.5 1457.5,1182.5C 1456.5,1322.33 1456.17,1462.33 1456.5,1602.5C 1377.83,1602.5 1299.17,1602.5 1220.5,1602.5C 1220.5,1590.17 1220.5,1577.83 1220.5,1565.5C 1190.41,1577.04 1160.41,1588.88 1130.5,1601C 1056.24,1627.56 980.244,1647.23 902.5,1660C 828.158,1670.96 753.491,1673.96 678.5,1669C 557.637,1659.48 444.97,1624.48 340.5,1564C 248.952,1508.79 175.785,1435.29 121,1343.5C 97.0386,1299.25 78.7053,1252.92 66,1204.5C 39.9127,1084.92 54.9127,970.923 111,862.5C 141.885,807.257 180.052,757.424 225.5,713C 427.75,515.215 668.417,443.548 947.5,498C 1027.65,515.158 1104.31,541.824 1177.5,578C 1190.36,584.925 1203.02,592.092 1215.5,599.5C 1216.5,559.337 1216.83,519.003 1216.5,478.5C 1290.17,478.5 1363.83,478.5 1437.5,478.5 Z M 1192.5,1203.5 C 1186.46,1238.18 1180.63,1272.84 1175,1307.5C 1199.72,1276.74 1218.22,1242.41 1230.5,1204.5C 1217.85,1203.5 1205.18,1203.17 1192.5,1203.5 Z"/></g>
<g><path style="opacity:1" fill="#8c8fa9" d="M 1437.5,478.5 C 1363.83,478.5 1290.17,478.5 1216.5,478.5C 1216.83,519.003 1216.5,559.337 1215.5,599.5C 1215.5,558.833 1215.5,518.167 1215.5,477.5C 1289.67,477.167 1363.67,477.501 1437.5,478.5 Z"/></g>
<g><path style="opacity:1" fill="#c5c8df" d="M 2345.5,1290.5 C 2345.5,1171.17 2345.5,1051.83 2345.5,932.5C 1883.5,932.5 1421.5,932.5 959.5,932.5C 959.5,1051.83 959.5,1171.17 959.5,1290.5C 958.5,1171 958.167,1051.33 958.5,931.5C 1421.17,931.5 1883.83,931.5 2346.5,931.5C 2346.83,1051.33 2346.5,1171 2345.5,1290.5 Z"/></g>
<g><path style="opacity:1" fill="#6c6f83" d="M 405.5,1079.5 C 405.5,1085.5 405.5,1091.5 405.5,1097.5C 416.167,1097.83 416.167,1098.17 405.5,1098.5C 405.5,1101.83 405.5,1105.17 405.5,1108.5C 404.167,1098.83 404.167,1089.17 405.5,1079.5 Z"/></g>
<g><path style="opacity:1" fill="#c5c8df" d="M 1544.5,1182.5 C 1545.17,1263.5 1545.5,1344.67 1545.5,1426C 1545.5,1507.5 1544.83,1588.67 1543.5,1669.5C 1544.5,1507.24 1544.83,1344.9 1544.5,1182.5 Z"/></g>
<g><path style="opacity:1" fill="#c5c8df" d="M 1457.5,1182.5 C 1457.5,1322.83 1457.5,1463.17 1457.5,1603.5C 1378.33,1603.83 1299.33,1603.5 1220.5,1602.5C 1299.17,1602.5 1377.83,1602.5 1456.5,1602.5C 1456.17,1462.33 1456.5,1322.33 1457.5,1182.5 Z"/></g>
</svg>