<svg xmlns="http://www.w3.org/2000/svg" version="1.1" width="1600px" height="1007px" style="shape-rendering:geometricPrecision; text-rendering:geometricPrecision; image-rendering:optimizeQuality; fill-rule:evenodd; clip-rule:evenodd" xmlns:xlink="http://www.w3.org/1999/xlink">
<g><path style="opacity:1" fill="#a3a6c2" d="M 764.5,48.5 C 896.204,44.7546 1023.54,63.4213 1146.5,104.5C 1223.48,131.111 1294.81,169.111 1360.5,218.5C 1401.89,251.207 1437.22,289.54 1466.5,333.5C 1535.74,447.351 1535.74,560.518 1466.5,673C 1439.93,713.214 1408.27,748.548 1371.5,779C 1307.79,829.67 1237.46,869.003 1160.5,897C 1058.78,933.06 954.449,953.06 847.5,957C 721.671,962.489 599.004,947.155 479.5,911C 406.233,887.74 337.233,855.073 272.5,813C 262.72,805.555 252.72,798.221 242.5,791C 199.772,757.734 163.105,718.4 132.5,673C 63.2662,560.658 63.2662,447.492 132.5,333.5C 162.61,287.741 199.61,248.574 243.5,216C 266.236,197.187 290.403,181.02 316,167.5C 326.105,161.33 336.438,155.33 347,149.5C 452.975,97.6844 564.808,66.1844 682.5,55C 682.167,54.6667 681.833,54.3333 681.5,54C 709.387,52.5612 737.054,50.7279 764.5,48.5 Z"/></g>
<g><path style="opacity:1" fill="#fefefe" d="M 899.5,82.5 C 903.98,83.5206 908.647,84.1873 913.5,84.5C 1029.63,95.1881 1139.63,126.355 1243.5,178C 1300.63,207.661 1351.8,245.495 1397,291.5C 1434.56,330.967 1461.56,376.634 1478,428.5C 1497.58,503.224 1488.58,574.224 1451,641.5C 1426.8,682.39 1396.63,718.557 1360.5,750C 1307.39,793.979 1248.89,829.146 1185,855.5C 1100.86,889.446 1013.36,911.446 922.5,921.5C 915.309,921.681 908.309,922.348 901.5,923.5C 891.825,924.065 882.159,924.731 872.5,925.5C 865.604,925.294 858.937,925.961 852.5,927.5C 724.174,933.232 598.841,917.066 476.5,879C 396.158,853 322.491,814.666 255.5,764C 216.769,733.601 183.936,697.767 157,656.5C 105.178,573.455 97.1778,486.455 133,395.5C 154.446,347.465 184.613,305.632 223.5,270C 279.862,219.325 343.195,179.658 413.5,151C 550.741,96.3037 693.741,72.3037 842.5,79C 861.496,80.3037 880.496,81.4703 899.5,82.5 Z"/></g>
<g><path style="opacity:1" fill="#b3b6cf" d="M 899.5,82.5 C 903.182,82.3347 906.848,82.5014 910.5,83C 911.737,83.2321 912.737,83.7321 913.5,84.5C 908.647,84.1873 903.98,83.5206 899.5,82.5 Z"/></g>
<g><path style="opacity:1" fill="#8c8fa9" d="M 849.5,248.5 C 849.082,247.778 848.416,247.278 847.5,247C 843.848,246.501 840.182,246.335 836.5,246.5C 792.925,242.624 749.925,245.958 707.5,256.5C 704.772,256.171 702.438,256.837 700.5,258.5C 637.537,274.649 581.87,304.482 533.5,348C 457.262,423.695 446.429,508.195 501,601.5C 535.048,653.107 580.548,690.941 637.5,715C 684.243,733.737 732.91,742.904 783.5,742.5C 801.364,742.875 819.031,742.208 836.5,740.5C 882.971,736.597 927.638,725.764 970.5,708C 1028.39,681.948 1071.39,640.448 1099.5,583.5C 957.168,582.5 814.835,582.167 672.5,582.5C 672.5,542.167 672.5,501.833 672.5,461.5C 930.903,461.168 1189.24,461.501 1447.5,462.5C 1456.23,527.701 1443.06,588.034 1408,643.5C 1377.63,688.873 1340.13,727.373 1295.5,759C 1226.23,805.654 1151.23,839.988 1070.5,862C 950.669,893.909 829.002,905.409 705.5,896.5C 697.701,895.183 689.701,894.517 681.5,894.5C 577.351,885.298 478.685,857.132 385.5,810C 323.136,777.647 268.969,734.814 223,681.5C 189.551,641.499 166.551,596.166 154,545.5C 143.668,499.536 147.335,454.869 165,411.5C 179.958,376.91 199.958,345.577 225,317.5C 277.485,262.162 338.652,218.995 408.5,188C 486.543,152.992 567.876,129.825 652.5,118.5C 658.461,118.387 664.128,117.387 669.5,115.5C 671.5,115.5 673.5,115.5 675.5,115.5C 681.021,115.218 686.354,114.551 691.5,113.5C 698.611,111.977 705.944,111.31 713.5,111.5C 721.686,111.298 729.686,110.631 737.5,109.5C 880.399,98.7954 1018.73,119.295 1152.5,171C 1220.57,197.527 1282.24,234.527 1337.5,282C 1365.57,307.214 1388.91,336.047 1407.5,368.5C 1301.5,369.667 1195.5,369.833 1089.5,369C 1033.08,314.785 967.084,277.118 891.5,256C 877.586,252.799 863.586,250.299 849.5,248.5 Z"/></g>
<g><path style="opacity:1" fill="#8c8fa9" d="M 737.5,109.5 C 729.686,110.631 721.686,111.298 713.5,111.5C 721.271,109.845 729.271,109.178 737.5,109.5 Z"/></g>
<g><path style="opacity:1" fill="#8c8fa9" d="M 691.5,113.5 C 686.354,114.551 681.021,115.218 675.5,115.5C 680.568,113.822 685.902,113.156 691.5,113.5 Z"/></g>
<g><path style="opacity:1" fill="#8c8fa9" d="M 669.5,115.5 C 664.128,117.387 658.461,118.387 652.5,118.5C 657.94,116.939 663.606,115.939 669.5,115.5 Z"/></g>
<g><path style="opacity:1" fill="#8c8fa9" d="M 836.5,246.5 C 840.182,246.335 843.848,246.501 847.5,247C 848.416,247.278 849.082,247.778 849.5,248.5C 844.99,248.116 840.657,247.449 836.5,246.5 Z"/></g>
<g><path style="opacity:1" fill="#8c8fa9" d="M 707.5,256.5 C 705.401,257.612 703.067,258.279 700.5,258.5C 702.438,256.837 704.772,256.171 707.5,256.5 Z"/></g>
<g><path style="opacity:1" fill="#8c8fa9" d="M 1447.5,462.5 C 1189.24,461.501 930.903,461.168 672.5,461.5C 672.5,501.833 672.5,542.167 672.5,582.5C 671.501,542.003 671.168,501.337 671.5,460.5C 930.502,459.834 1189.17,460.501 1447.5,462.5 Z"/></g>
<g><path style="opacity:1" fill="#8c8fa9" d="M 836.5,740.5 C 819.031,742.208 801.364,742.875 783.5,742.5C 800.993,741.433 818.66,740.767 836.5,740.5 Z"/></g>
<g><path style="opacity:1" fill="#8c8fa9" d="M 681.5,894.5 C 689.701,894.517 697.701,895.183 705.5,896.5C 697.284,896.677 689.284,896.01 681.5,894.5 Z"/></g>
<g><path style="opacity:1" fill="#8c8fa9" d="M 922.5,921.5 C 915.73,923.075 908.73,923.741 901.5,923.5C 908.309,922.348 915.309,921.681 922.5,921.5 Z"/></g>
<g><path style="opacity:1" fill="#8c8fa9" d="M 872.5,925.5 C 866.041,926.813 859.374,927.479 852.5,927.5C 858.937,925.961 865.604,925.294 872.5,925.5 Z"/></g>
</svg>