<svg fill="none" height="40" viewBox="0 0 82 40" width="82" xmlns="http://www.w3.org/2000/svg"><path d="m73.365 19.71c0 2.904-2.241 5.31-5.27 5.31-3.03 0-5.228-2.406-5.228-5.31 0-2.905 2.199-5.312 5.228-5.312s5.27 2.407 5.27 5.311z" fill="#ffd43d"/><path d="m48.764 19.544c0 2.946-2.323 5.145-5.27 5.145-2.904 0-5.227-2.2-5.227-5.145 0-2.947 2.323-5.104 5.228-5.104 2.946 0 5.27 2.158 5.27 5.104z" fill="#ff0c81"/><path d="m20.074 25.02c3.029 0 5.27-2.406 5.27-5.31 0-2.905-2.241-5.312-5.27-5.312-3.03 0-5.228 2.407-5.228 5.311 0 2.905 2.199 5.312 5.228 5.312z" fill="#11eefc"/><path d="m68.095 30.54c-6.307 0-11.12-4.897-11.12-10.872 0-5.934 4.855-10.83 11.12-10.83 6.349 0 11.162 4.938 11.162 10.83 0 5.975-4.855 10.871-11.162 10.871zm0-5.52c3.03 0 5.27-2.406 5.27-5.31 0-2.905-2.24-5.312-5.27-5.312-3.029 0-5.228 2.407-5.228 5.311 0 2.905 2.199 5.312 5.228 5.312zm-25.015 14.98c-4.813 0-8.506-2.116-10.373-5.934l4.896-2.655c.913 1.784 2.614 3.195 5.394 3.195 3.486 0 5.85-2.448 5.85-6.473v-.374c-1.12 1.411-3.111 2.49-6.016 2.49-5.768 0-10.373-4.481-10.373-10.581 0-5.934 4.813-10.788 11.12-10.788 6.431 0 11.162 4.605 11.162 10.788v8.299c0 7.303-4.98 12.033-11.66 12.033zm.415-15.311c2.946 0 5.27-2.2 5.27-5.145 0-2.947-2.324-5.104-5.27-5.104-2.905 0-5.228 2.158-5.228 5.104s2.323 5.145 5.228 5.145zm-23.421 5.851c-6.307 0-11.12-4.897-11.12-10.872 0-5.934 4.854-10.83 11.12-10.83 6.348 0 11.162 4.938 11.162 10.83 0 5.975-4.855 10.871-11.162 10.871zm0-5.52c3.029 0 5.27-2.406 5.27-5.31 0-2.905-2.241-5.312-5.27-5.312-3.03 0-5.228 2.407-5.228 5.311 0 2.905 2.199 5.312 5.228 5.312zm-20.074-25.02h5.892v30h-5.892zm82 6.5a2.5 2.5 0 1 1 -5 0 2.5 2.5 0 0 1 5 0z" fill="#171a26"/></svg>