<svg xmlns="http://www.w3.org/2000/svg" version="1.1" width="1200px" height="865px" style="shape-rendering:geometricPrecision; text-rendering:geometricPrecision; image-rendering:optimizeQuality; fill-rule:evenodd; clip-rule:evenodd" xmlns:xlink="http://www.w3.org/1999/xlink">
<g><path style="opacity:0.98" fill="#a3a6c2" d="M 3.5,4.5 C 124.835,4.16668 246.168,4.50001 367.5,5.5C 445.167,112.833 522.833,220.167 600.5,327.5C 678.61,220.126 756.61,112.626 834.5,5C 955.5,4.5 1076.5,4.33333 1197.5,4.5C 1197.5,89.8333 1197.5,175.167 1197.5,260.5C 1167.83,260.5 1138.17,260.5 1108.5,260.5C 1108.5,376.167 1108.5,491.833 1108.5,607.5C 1138.17,607.5 1167.83,607.5 1197.5,607.5C 1197.5,692.833 1197.5,778.167 1197.5,863.5C 1043.5,863.5 889.5,863.5 735.5,863.5C 735.5,778.167 735.5,692.833 735.5,607.5C 767.5,607.5 799.5,607.5 831.5,607.5C 831.667,541.499 831.5,475.499 831,409.5C 754.066,514.383 676.899,619.049 599.5,723.5C 522.856,619.559 446.69,515.226 371,410.5C 370.5,476.166 370.333,541.832 370.5,607.5C 402.5,607.5 434.5,607.5 466.5,607.5C 466.5,692.833 466.5,778.167 466.5,863.5C 312.167,863.5 157.833,863.5 3.5,863.5C 3.5,778.167 3.5,692.833 3.5,607.5C 33.5,607.5 63.5,607.5 93.5,607.5C 93.5,491.833 93.5,376.167 93.5,260.5C 63.5,260.5 33.5,260.5 3.5,260.5C 3.5,175.167 3.5,89.8333 3.5,4.5 Z"/></g>
<g><path style="opacity:1" fill="#b3b6cf" d="M 1088.5,626.5 C 1118,627.498 1147.66,627.831 1177.5,627.5C 1177.5,699.5 1177.5,771.5 1177.5,843.5C 1036.83,843.5 896.167,843.5 755.5,843.5C 755.5,771.5 755.5,699.5 755.5,627.5C 787.338,627.832 819.004,627.498 850.5,626.5C 851.832,534.332 851.832,441.999 850.5,349.5C 849.893,349.624 849.56,349.957 849.5,350.5C 766.577,464.096 683.244,577.429 599.5,690.5C 516.913,577.648 434.579,464.648 352.5,351.5C 352.217,350.711 351.717,350.044 351,349.5C 350.5,441.833 350.333,534.166 350.5,626.5C 381.996,627.498 413.662,627.832 445.5,627.5C 445.5,699.5 445.5,771.5 445.5,843.5C 304.833,843.5 164.167,843.5 23.5,843.5C 23.5,771.167 23.5,698.833 23.5,626.5C 53.1667,626.5 82.8333,626.5 112.5,626.5C 112.5,497.833 112.5,369.167 112.5,240.5C 82.8333,240.5 53.1667,240.5 23.5,240.5C 23.5,168.167 23.5,95.8333 23.5,23.5C 134.501,23.3333 245.501,23.5 356.5,24C 437.64,136.64 518.973,249.14 600.5,361.5C 681.833,249.167 763.167,136.833 844.5,24.5C 955.831,23.5 1067.16,23.1667 1178.5,23.5C 1178.5,95.8333 1178.5,168.167 1178.5,240.5C 1148.5,240.5 1118.5,240.5 1088.5,240.5C 1088.5,369.167 1088.5,497.833 1088.5,626.5 Z"/></g>
<g><path style="opacity:1" fill="#6c6f83" d="M 352.5,351.5 C 351.501,442.998 351.167,534.665 351.5,626.5C 351.167,626.5 350.833,626.5 350.5,626.5C 350.333,534.166 350.5,441.833 351,349.5C 351.717,350.044 352.217,350.711 352.5,351.5 Z"/></g>
<g><path style="opacity:1" fill="#8c8fa9" d="M 849.5,350.5 C 849.56,349.957 849.893,349.624 850.5,349.5C 851.832,441.999 851.832,534.332 850.5,626.5C 850.833,534.332 850.499,442.332 849.5,350.5 Z"/></g>
<g><path style="opacity:1" fill="#c5c8df" d="M 350.5,626.5 C 350.833,626.5 351.167,626.5 351.5,626.5C 383.167,626.5 414.833,626.5 446.5,626.5C 446.833,699.002 446.499,771.335 445.5,843.5C 445.5,771.5 445.5,699.5 445.5,627.5C 413.662,627.832 381.996,627.498 350.5,626.5 Z"/></g>
<g><path style="opacity:1" fill="#8c8fa9" d="M 850.5,626.5 C 819.004,627.498 787.338,627.832 755.5,627.5C 755.5,699.5 755.5,771.5 755.5,843.5C 754.501,771.335 754.167,699.002 754.5,626.5C 786.5,626.5 818.5,626.5 850.5,626.5 Z"/></g>
<g><path style="opacity:1" fill="#b3b6cf" d="M 1088.5,626.5 C 1118.5,626.5 1148.5,626.5 1178.5,626.5C 1178.83,699.002 1178.5,771.335 1177.5,843.5C 1177.5,771.5 1177.5,699.5 1177.5,627.5C 1147.66,627.831 1118,627.498 1088.5,626.5 Z"/></g>
</svg>
