<svg width="56" height="56" viewBox="0 0 56 56" fill="none" xmlns="http://www.w3.org/2000/svg">
<path fill-rule="evenodd" clip-rule="evenodd" d="M27.9643 50.3328C40.317 50.3328 50.3309 40.3189 50.3309 27.9662C50.3309 15.6135 40.317 5.59961 27.9643 5.59961C15.6115 5.59961 5.59766 15.6135 5.59766 27.9662C5.59766 40.3189 15.6115 50.3328 27.9643 50.3328Z" stroke="#50F5AC" stroke-width="0.5" stroke-linecap="round" stroke-linejoin="round"/>
<path fill-rule="evenodd" clip-rule="evenodd" d="M27.9638 42.2C35.8246 42.2 42.1971 35.8275 42.1971 27.9667C42.1971 20.1059 35.8246 13.7334 27.9638 13.7334C20.1029 13.7334 13.7305 20.1059 13.7305 27.9667C13.7305 35.8275 20.1029 42.2 27.9638 42.2Z" stroke="#50F5AC" stroke-width="0.5" stroke-linecap="round" stroke-linejoin="round"/>
<path fill-rule="evenodd" clip-rule="evenodd" d="M27.9633 34.0662C31.3322 34.0662 34.0632 31.3351 34.0632 27.9662C34.0632 24.5973 31.3322 21.8662 27.9633 21.8662C24.5943 21.8662 21.8633 24.5973 21.8633 27.9662C21.8633 31.3351 24.5943 34.0662 27.9633 34.0662Z" stroke="#50F5AC" stroke-width="0.5" stroke-linecap="round" stroke-linejoin="round"/>
<path d="M27.7166 28.2793L4.47656 51.5193" stroke="#50F5AC" stroke-width="0.5" stroke-linecap="round" stroke-linejoin="round"/>
<path d="M25.7578 26.8799H29.1178V30.2399" stroke="#50F5AC" stroke-width="0.5" stroke-linecap="round" stroke-linejoin="round"/>
<path d="M1.11719 51.5195H4.47719V54.8795" stroke="#50F5AC" stroke-width="0.5" stroke-linecap="round" stroke-linejoin="round"/>
</svg>
