<svg width="692" height="1599" viewBox="0 0 692 1599" fill="none" xmlns="http://www.w3.org/2000/svg">
<path fill-rule="evenodd" clip-rule="evenodd" d="M623 51C609.193 51 598 39.8071 598 26C598 12.1929 609.193 1 623 1C636.807 1 648 12.1929 648 26C648 39.8071 636.807 51 623 51ZM623 52C608.808 52 597.271 40.6287 597.005 26.5H435.5C386.071 26.5 346 66.5705 346 116V375.5C346 425.482 305.482 466 255.5 466H209V465H255.5C304.929 465 345 424.93 345 375.5V116C345 66.0182 385.518 25.5 435.5 25.5H597.005C597.271 11.3713 608.808 0 623 0C637.359 0 649 11.6406 649 26C649 40.3594 637.359 52 623 52ZM157 466C157 451.641 168.641 440 183 440C197.359 440 209 451.641 209 466C209 480.359 197.359 492 183 492C168.641 492 157 480.359 157 466ZM157 466H26.5V465H157V466ZM183 491C169.193 491 158 479.807 158 466C158 452.193 169.193 441 183 441C196.807 441 208 452.193 208 466C208 479.807 196.807 491 183 491ZM431 698C431 711.807 442.193 723 456 723C469.807 723 481 711.807 481 698C481 684.193 469.807 673 456 673C442.193 673 431 684.193 431 698ZM430 698C430 712.359 441.641 724 456 724H455.5V806H456C448.82 806 443 811.82 443 819C443 826.18 448.82 832 456 832C463.18 832 469 826.18 469 819C469 811.82 463.18 806 456 806H456.5V724H456C470.359 724 482 712.359 482 698C482 683.641 470.359 672 456 672H457V264C457 214.571 497.07 174.5 546.5 174.5H913V173.5H546.5C496.518 173.5 456 214.018 456 264V672C441.641 672 430 683.641 430 698ZM913 522.5V521.5H636.5C587.071 521.5 547 481.43 547 432V357.5C547 308.071 587.071 268 636.5 268H649.171C649.058 268.984 649 269.985 649 271C649 285.359 660.641 297 675 297C689.359 297 701 285.359 701 271C701 270.497 700.986 269.996 700.957 269.5H741V269C741 275.627 746.373 281 753 281C759.627 281 765 275.627 765 269C765 262.373 759.627 257 753 257C746.373 257 741 262.373 741 269V268.5H700.881C699.623 255.313 688.516 245 675 245C662.001 245 651.23 254.54 649.306 267H636.5C586.518 267 546 307.518 546 357.5V432C546 477.22 579.166 514.694 622.5 521.424V1038C622.5 1087.43 582.429 1127.5 533 1127.5H380.5C330.518 1127.5 290 1168.02 290 1218V1547C275.641 1547 264 1558.64 264 1573C264 1587.36 275.641 1599 290 1599C304.359 1599 316 1587.36 316 1573C316 1558.98 304.896 1547.54 291 1547.02V1218C291 1168.57 331.07 1128.5 380.5 1128.5H438V1230.02C424.104 1230.54 413 1241.98 413 1256C413 1270.36 424.641 1282 439 1282V1321C439 1370.98 479.518 1411.5 529.5 1411.5H712.009C712.272 1418.45 717.988 1424 725 1424C732.18 1424 738 1418.18 738 1411C738 1403.82 732.18 1398 725 1398C717.988 1398 712.272 1403.55 712.009 1410.5H529.5C480.071 1410.5 440 1370.43 440 1321V1281.98C453.896 1281.46 465 1270.02 465 1256C465 1241.64 453.359 1230 439 1230V1128.5H533C582.982 1128.5 623.5 1087.98 623.5 1038V521.573C627.745 522.184 632.086 522.5 636.5 522.5H913ZM439 1281C425.193 1281 414 1269.81 414 1256C414 1242.19 425.193 1231 439 1231C452.807 1231 464 1242.19 464 1256C464 1269.81 452.807 1281 439 1281ZM290 1548C303.807 1548 315 1559.19 315 1573C315 1586.81 303.807 1598 290 1598C276.193 1598 265 1586.81 265 1573C265 1559.19 276.193 1548 290 1548ZM675 296C661.193 296 650 284.807 650 271C650 257.193 661.193 246 675 246C688.807 246 700 257.193 700 271C700 284.807 688.807 296 675 296ZM742 269C742 275.075 746.925 280 753 280C759.075 280 764 275.075 764 269C764 262.925 759.075 258 753 258C746.925 258 742 262.925 742 269ZM13 478C6.37256 478 1 472.627 1 466C1 459.373 6.37256 454 13 454C19.6274 454 25 459.373 25 466C25 472.627 19.6274 478 13 478ZM13 479C5.82031 479 0 473.18 0 466C0 458.82 5.82031 453 13 453C20.1797 453 26 458.82 26 466C26 473.18 20.1797 479 13 479ZM444 819C444 825.627 449.373 831 456 831C462.627 831 468 825.627 468 819C468 812.373 462.627 807 456 807C449.373 807 444 812.373 444 819ZM725 1423C718.373 1423 713 1417.63 713 1411C713 1404.37 718.373 1399 725 1399C731.627 1399 737 1404.37 737 1411C737 1417.63 731.627 1423 725 1423ZM650.5 26.5H781V26C781 33.1797 786.82 39 794 39C801.18 39 807 33.1797 807 26C807 18.8203 801.18 13 794 13C786.82 13 781 18.8203 781 26V25.5H650.5V26.5ZM782 26C782 32.6274 787.373 38 794 38C800.627 38 806 32.6274 806 26C806 19.3726 800.627 14 794 14C787.373 14 782 19.3726 782 26Z" fill="url(#paint0_linear_346_398)"/>
<defs>
<linearGradient id="paint0_linear_346_398" x1="456.5" y1="0" x2="456.5" y2="1599" gradientUnits="userSpaceOnUse">
<stop stop-color="#FF0077"/>
<stop offset="1" stop-color="#8974B5"/>
</linearGradient>
</defs>
</svg>
