<svg width="692" height="1599" viewBox="0 0 692 1599" fill="none" xmlns="http://www.w3.org/2000/svg">
<path fill-rule="evenodd" clip-rule="evenodd" d="M69 51C82.8071 51 94 39.8071 94 26C94 12.1929 82.8071 1 69 1C55.1929 1 44 12.1929 44 26C44 39.8071 55.1929 51 69 51ZM69 52C83.1924 52 94.7288 40.6287 94.9953 26.5H256.5C305.929 26.5 346 66.5705 346 116V375.5C346 425.482 386.518 466 436.5 466H483V465H436.5C387.071 465 347 424.93 347 375.5V116C347 66.0182 306.482 25.5 256.5 25.5H94.9953C94.7288 11.3713 83.1924 0 69 0C54.6406 0 43 11.6406 43 26C43 40.3594 54.6406 52 69 52ZM535 466C535 451.641 523.359 440 509 440C494.641 440 483 451.641 483 466C483 480.359 494.641 492 509 492C523.359 492 535 480.359 535 466ZM535 466H665.5V465H535V466ZM509 491C522.807 491 534 479.807 534 466C534 452.193 522.807 441 509 441C495.193 441 484 452.193 484 466C484 479.807 495.193 491 509 491ZM261 698C261 711.807 249.807 723 236 723C222.193 723 211 711.807 211 698C211 684.193 222.193 673 236 673C249.807 673 261 684.193 261 698ZM262 698C262 712.359 250.359 724 236 724H236.5V806H236C243.18 806 249 811.82 249 819C249 826.18 243.18 832 236 832C228.82 832 223 826.18 223 819C223 811.82 228.82 806 236 806H235.5V724H236C221.641 724 210 712.359 210 698C210 683.641 221.641 672 236 672H235V264C235 214.571 194.93 174.5 145.5 174.5H-221V173.5H145.5C195.482 173.5 236 214.018 236 264V672C250.359 672 262 683.641 262 698ZM-221 522.5V521.5H55.5C104.929 521.5 145 481.43 145 432V357.5C145 308.071 104.929 268 55.5 268H42.8288C42.9419 268.984 43 269.985 43 271C43 285.359 31.3594 297 17 297C2.64062 297 -9 285.359 -9 271C-9 270.497 -8.98572 269.996 -8.95746 269.5H-49V269C-49 275.627 -54.3726 281 -61 281C-67.6274 281 -73 275.627 -73 269C-73 262.373 -67.6274 257 -61 257C-54.3726 257 -49 262.373 -49 269V268.5H-8.88135C-7.62335 255.313 3.48389 245 17 245C29.9991 245 40.7702 254.54 42.6942 267H55.5C105.482 267 146 307.518 146 357.5V432C146 477.22 112.834 514.694 69.5 521.424V1038C69.5 1087.43 109.571 1127.5 159 1127.5H311.5C361.482 1127.5 402 1168.02 402 1218V1547C416.359 1547 428 1558.64 428 1573C428 1587.36 416.359 1599 402 1599C387.641 1599 376 1587.36 376 1573C376 1558.98 387.104 1547.54 401 1547.02V1218C401 1168.57 360.93 1128.5 311.5 1128.5H254V1230.02C267.896 1230.54 279 1241.98 279 1256C279 1270.36 267.359 1282 253 1282V1321C253 1370.98 212.482 1411.5 162.5 1411.5H-20.0095C-20.2722 1418.45 -25.9877 1424 -33 1424C-40.1797 1424 -46 1418.18 -46 1411C-46 1403.82 -40.1797 1398 -33 1398C-25.9877 1398 -20.2722 1403.55 -20.0095 1410.5H162.5C211.929 1410.5 252 1370.43 252 1321V1281.98C238.104 1281.46 227 1270.02 227 1256C227 1241.64 238.641 1230 253 1230V1128.5H159C109.018 1128.5 68.5 1087.98 68.5 1038V521.573C64.2548 522.184 59.9143 522.5 55.5 522.5H-221ZM253 1281C266.807 1281 278 1269.81 278 1256C278 1242.19 266.807 1231 253 1231C239.193 1231 228 1242.19 228 1256C228 1269.81 239.193 1281 253 1281ZM402 1548C388.193 1548 377 1559.19 377 1573C377 1586.81 388.193 1598 402 1598C415.807 1598 427 1586.81 427 1573C427 1559.19 415.807 1548 402 1548ZM17 296C30.8071 296 42 284.807 42 271C42 257.193 30.8071 246 17 246C3.19287 246 -8 257.193 -8 271C-8 284.807 3.19287 296 17 296ZM-50 269C-50 275.075 -54.9249 280 -61 280C-67.0751 280 -72 275.075 -72 269C-72 262.925 -67.0751 258 -61 258C-54.9249 258 -50 262.925 -50 269ZM679 478C685.627 478 691 472.627 691 466C691 459.373 685.627 454 679 454C672.373 454 667 459.373 667 466C667 472.627 672.373 478 679 478ZM679 479C686.18 479 692 473.18 692 466C692 458.82 686.18 453 679 453C671.82 453 666 458.82 666 466C666 473.18 671.82 479 679 479ZM248 819C248 825.627 242.627 831 236 831C229.373 831 224 825.627 224 819C224 812.373 229.373 807 236 807C242.627 807 248 812.373 248 819ZM-33 1423C-26.3726 1423 -21 1417.63 -21 1411C-21 1404.37 -26.3726 1399 -33 1399C-39.6274 1399 -45 1404.37 -45 1411C-45 1417.63 -39.6274 1423 -33 1423ZM41.5 26.5H-89V26C-89 33.1797 -94.8203 39 -102 39C-109.18 39 -115 33.1797 -115 26C-115 18.8203 -109.18 13 -102 13C-94.8203 13 -89 18.8203 -89 26V25.5H41.5V26.5ZM-90 26C-90 32.6274 -95.3726 38 -102 38C-108.627 38 -114 32.6274 -114 26C-114 19.3726 -108.627 14 -102 14C-95.3726 14 -90 19.3726 -90 26Z" fill="url(#paint0_linear_346_348)"/>
<defs>
<linearGradient id="paint0_linear_346_348" x1="235.5" y1="0" x2="235.5" y2="1599" gradientUnits="userSpaceOnUse">
<stop stop-color="#56F699"/>
<stop offset="1" stop-color="#56F699"/>
</linearGradient>
</defs>
</svg>
