<svg width="722" height="1599" viewBox="0 0 722 1599" fill="none" xmlns="http://www.w3.org/2000/svg">
<path fill-rule="evenodd" clip-rule="evenodd" d="M99 1548C112.807 1548 124 1559.19 124 1573C124 1586.81 112.807 1598 99 1598C85.1929 1598 74 1586.81 74 1573C74 1559.19 85.1929 1548 99 1548ZM99 1547C84.8076 1547 73.2712 1558.37 73.0047 1572.5H-59V1573V1573.5H73.0047C73.2712 1587.63 84.8076 1599 99 1599C113.192 1599 124.729 1587.63 124.995 1573.5H286.5C336.482 1573.5 377 1532.98 377 1483V1223.5C377 1174.07 417.071 1134 466.5 1134H513V1133H466.5C416.518 1133 376 1173.52 376 1223.5V1483C376 1532.43 335.929 1572.5 286.5 1572.5H124.995C124.729 1558.37 113.192 1547 99 1547ZM565 1133C565 1118.64 553.359 1107 539 1107C524.641 1107 513 1118.64 513 1133C513 1147.36 524.641 1159 539 1159C553.359 1159 565 1147.36 565 1133ZM565 1133V1134H696.038C696.549 1140.71 702.157 1146 709 1146C716.18 1146 722 1140.18 722 1133C722 1125.82 716.18 1120 709 1120C701.82 1120 696 1125.82 696 1133H565ZM-59 1573C-59 1565.82 -64.8203 1560 -72 1560C-79.1797 1560 -85 1565.82 -85 1573C-85 1580.18 -79.1797 1586 -72 1586C-64.8203 1586 -59 1580.18 -59 1573ZM539 1108C552.807 1108 564 1119.19 564 1133C564 1146.81 552.807 1158 539 1158C525.193 1158 514 1146.81 514 1133C514 1119.19 525.193 1108 539 1108ZM291 901C291 887.193 279.807 876 266 876C252.193 876 241 887.193 241 901C241 914.807 252.193 926 266 926C279.807 926 291 914.807 291 901ZM292 901C292 886.641 280.359 875 266 875C251.641 875 240 886.641 240 901C240 915.359 251.641 927 266 927C280.359 927 292 915.359 292 901ZM266 793H266.5V875H266H265.5V793H266ZM266 793C258.82 793 253 787.18 253 780C253 772.82 258.82 767 266 767C273.18 767 279 772.82 279 780C279 787.18 273.18 793 266 793ZM266 1335V927H265V1335C265 1384.43 224.93 1424.5 175.5 1424.5H-191V1425.5H175.5C225.482 1425.5 266 1384.98 266 1335ZM-191 1076.5H85.5C89.9143 1076.5 94.2548 1076.82 98.5 1077.43V561C98.5 511.018 139.018 470.5 189 470.5H283V369C268.641 369 257 357.359 257 343C257 328.975 268.104 317.544 282 317.019V278C282 228.571 241.929 188.5 192.5 188.5H9.99054C9.72778 195.448 4.01227 201 -3 201C-10.1797 201 -16 195.18 -16 188C-16 180.82 -10.1797 175 -3 175C4.01227 175 9.72778 180.552 9.99054 187.5H192.5C242.482 187.5 283 228.018 283 278V317C297.359 317 309 328.641 309 343C309 357.025 297.896 368.456 284 368.981V470.5H341.5C390.93 470.5 431 430.429 431 381V51.9811C417.104 51.4556 406 40.0245 406 26C406 11.6406 417.641 0 432 0C446.359 0 458 11.6406 458 26C458 40.3594 446.359 52 432 52V381C432 430.982 391.482 471.5 341.5 471.5H189C139.571 471.5 99.5 511.571 99.5 561V1077.58C142.834 1084.31 176 1121.78 176 1167V1241.5C176 1291.48 135.482 1332 85.5 1332H72.6942C70.7702 1344.46 59.9991 1354 47 1354C33.4839 1354 22.3766 1343.69 21.1187 1330.5H-19V1330C-19 1336.63 -24.3726 1342 -31 1342C-37.6274 1342 -43 1336.63 -43 1330C-43 1323.37 -37.6274 1318 -31 1318C-24.3726 1318 -19 1323.37 -19 1330V1329.5H21.0425C21.0143 1329 21 1328.5 21 1328C21 1313.64 32.6406 1302 47 1302C61.3594 1302 73 1313.64 73 1328C73 1329.01 72.9419 1330.02 72.8288 1331H85.5C134.929 1331 175 1290.93 175 1241.5V1167C175 1117.57 134.929 1077.5 85.5 1077.5H-191V1076.5ZM283 318C296.807 318 308 329.193 308 343C308 356.807 296.807 368 283 368C269.193 368 258 356.807 258 343C258 329.193 269.193 318 283 318ZM432 51C418.193 51 407 39.8071 407 26C407 12.1929 418.193 1 432 1C445.807 1 457 12.1929 457 26C457 39.8071 445.807 51 432 51ZM47 1303C60.8071 1303 72 1314.19 72 1328C72 1341.81 60.8071 1353 47 1353C33.1929 1353 22 1341.81 22 1328C22 1314.19 33.1929 1303 47 1303ZM-20 1330C-20 1323.92 -24.9249 1319 -31 1319C-37.0751 1319 -42 1323.92 -42 1330C-42 1336.08 -37.0751 1341 -31 1341C-24.9249 1341 -20 1336.08 -20 1330ZM709 1121C715.627 1121 721 1126.37 721 1133C721 1139.63 715.627 1145 709 1145C702.373 1145 697 1139.63 697 1133C697 1126.37 702.373 1121 709 1121ZM278 780C278 773.373 272.627 768 266 768C259.373 768 254 773.373 254 780C254 786.627 259.373 792 266 792C272.627 792 278 786.627 278 780ZM-3 176C3.62744 176 9 181.373 9 188C9 194.627 3.62744 200 -3 200C-9.62744 200 -15 194.627 -15 188C-15 181.373 -9.62744 176 -3 176ZM-60 1573C-60 1566.37 -65.3726 1561 -72 1561C-78.6274 1561 -84 1566.37 -84 1573C-84 1579.63 -78.6274 1585 -72 1585C-65.3726 1585 -60 1579.63 -60 1573Z" fill="url(#paint0_linear_346_373)"/>
<defs>
<linearGradient id="paint0_linear_346_373" x1="265.5" y1="0" x2="265.5" y2="1599" gradientUnits="userSpaceOnUse">
<stop stop-color="#56F699"/>
<stop offset="1" stop-color="#56F699"/>
</linearGradient>
</defs>
</svg>
