<svg width="796" height="41" viewBox="0 0 796 41" fill="none" xmlns="http://www.w3.org/2000/svg">
<path fill-rule="evenodd" clip-rule="evenodd" d="M377.756 21.2671L0.609374 21.2671L0.609374 20.2671L377.756 20.2671C378.022 9.45242 386.871 0.767073 397.75 0.767072C408.784 0.767072 417.731 9.7023 417.75 20.7318L417.75 20.2666L795.39 20.2665L795.39 21.2665L417.75 21.2666L417.75 20.8024C417.731 31.8318 408.784 40.7671 397.75 40.7671C386.871 40.7671 378.022 32.0817 377.756 21.2671ZM397.75 1.76707C408.243 1.76707 416.75 10.2737 416.75 20.7671C416.75 31.2605 408.243 39.7671 397.75 39.7671C387.257 39.7671 378.75 31.2605 378.75 20.7671C378.75 10.2737 387.257 1.76707 397.75 1.76707Z" fill="url(#paint0_linear_382_1875)"/>
<defs>
<linearGradient id="paint0_linear_382_1875" x1="0.609374" y1="20.7671" x2="795.39" y2="20.7671" gradientUnits="userSpaceOnUse">
<stop stop-color="#56F699"/>
<stop offset="1" stop-color="#56F699"/>
</linearGradient>
</defs>
</svg>
