<svg width="56" height="56" viewBox="0 0 56 56" fill="none" xmlns="http://www.w3.org/2000/svg">
<path d="M44.616 34.718C47.6446 37.7467 47.318 42.8543 43.6406 45.4373C41.3003 47.08 38.0313 47.08 35.691 45.4373C32.0113 42.8567 31.687 37.7467 34.7156 34.718C37.4503 31.9833 41.8836 31.9833 44.616 34.718" stroke="#50F5AC" stroke-width="0.5" stroke-linecap="round" stroke-linejoin="round"/>
<path d="M48.9999 48.9999L44.6133 44.6133" stroke="#50F5AC" stroke-width="0.5" stroke-linecap="round" stroke-linejoin="round"/>
<path d="M13.5646 11.8105C12.9587 11.8105 12.5547 12.2146 12.5547 12.8205C12.5547 13.4265 12.9587 13.8305 13.5646 13.8305C14.1706 13.8305 14.5746 13.4265 14.5746 12.8205C14.5746 12.2146 14.1706 11.8105 13.5646 11.8105Z" stroke="#50F5AC" stroke-width="0.5" stroke-linecap="round" stroke-linejoin="round"/>
<path d="M19.5021 11.8105C18.8962 11.8105 18.4922 12.2146 18.4922 12.8205C18.4922 13.4265 19.0981 13.8305 19.5021 13.8305C20.108 13.8305 20.512 13.4265 20.512 12.8205C20.512 12.2146 20.108 11.8105 19.5021 11.8105Z" stroke="#50F5AC" stroke-width="0.5" stroke-linecap="round" stroke-linejoin="round"/>
<path d="M25.424 11.8105C24.818 11.8105 24.4141 12.2146 24.4141 12.8205C24.4141 13.4265 24.818 13.8305 25.424 13.8305C26.0299 13.8305 26.4339 13.4265 26.4339 12.8205C26.4339 12.2146 26.0299 11.8105 25.424 11.8105Z" stroke="#50F5AC" stroke-width="0.5" stroke-linecap="round" stroke-linejoin="round"/>
<path d="M49 25.6667V11.6667C49 9.08833 46.9117 7 44.3333 7H11.6667C9.08833 7 7 9.08833 7 11.6667V44.3333C7 46.9117 9.08833 49 11.6667 49H25.6667" stroke="#50F5AC" stroke-width="0.5" stroke-linecap="round" stroke-linejoin="round"/>
<path d="M7.08594 18.667H49.0019" stroke="#50F5AC" stroke-width="0.5" stroke-linecap="round" stroke-linejoin="round"/>
</svg>
