<svg width="186" height="124" viewBox="0 0 186 124" fill="none" xmlns="http://www.w3.org/2000/svg">
<path d="M152.314 56.6709H185.5V123.5H101.955V56.3034C101.955 45.9422 103.881 37.2413 107.707 30.1783L107.708 30.1761C111.548 22.999 116.605 17.2313 122.877 12.8633C129.163 8.48567 136.326 5.33037 144.372 3.40074C152.276 1.50533 160.349 0.538697 168.591 0.501139V38.7431C166.927 38.8615 165.157 39.1672 163.284 39.6573L163.279 39.6587C161.279 40.2055 159.418 41.1166 157.697 42.3885L157.697 42.3883L157.687 42.3963C156.033 43.6863 154.626 45.47 153.455 47.7271L153.452 47.7342C152.349 49.9459 151.814 52.7676 151.814 56.1709V56.6709H152.314ZM50.8594 56.6709H84.0454V123.5H0.5V56.3034C0.5 45.9422 2.42635 37.2413 6.25215 30.1783L6.25336 30.1761C10.0935 22.999 15.15 17.2313 21.4221 12.8633C27.708 8.48567 34.8713 5.33037 42.9177 3.40074C50.8215 1.50533 58.8941 0.538697 67.1364 0.501139V38.7431C65.4723 38.8615 63.7029 39.1672 61.8294 39.6573L61.8294 39.6573L61.8241 39.6587C59.8249 40.2055 57.9638 41.1166 56.2426 42.3885L56.2425 42.3883L56.2323 42.3963C54.5785 43.6863 53.1711 45.47 52.0007 47.7271L52.0007 47.7271L51.9971 47.7342C50.8944 49.9459 50.3594 52.7676 50.3594 56.1709V56.6709H50.8594Z" stroke="#1D3F3E"/>
</svg>
