<svg width="89" height="13" viewBox="0 0 89 13" fill="none" xmlns="http://www.w3.org/2000/svg">
<path d="M7.22155 9.56645L10.3595 8.83663L11.6705 12.5449L7.22155 9.56645ZM14.4431 4.77336H8.91947L7.22155 0L5.52362 4.77336H0L4.47048 7.73206L2.77256 12.5054L7.24304 9.54672L9.99411 7.73206L14.4431 4.77336Z" fill="#B8BBD3"/>
<path d="M25.6649 9.56645L28.8028 8.83663L30.1139 12.5449L25.6649 9.56645ZM32.8865 4.77336H27.3628L25.6649 0L23.967 4.77336H18.4434L22.9138 7.73206L21.2159 12.5054L25.6864 9.54672L28.4375 7.73206L32.8865 4.77336Z" fill="#B8BBD3"/>
<path d="M44.1083 9.56645L47.2462 8.83663L48.5573 12.5449L44.1083 9.56645ZM51.3298 4.77336H45.8062L44.1083 0L42.4103 4.77336H36.8867L41.3572 7.73206L39.6593 12.5054L44.1298 9.54672L46.8808 7.73206L51.3298 4.77336Z" fill="#B8BBD3"/>
<path d="M62.5516 9.56645L65.6896 8.83663L67.0006 12.5449L62.5516 9.56645ZM69.7732 4.77336H64.2495L62.5516 0L60.8537 4.77336H55.3301L59.8006 7.73206L58.1026 12.5054L62.5731 9.54672L65.3242 7.73206L69.7732 4.77336Z" fill="#B8BBD3"/>
<path d="M80.993 9.56645L84.131 8.83663L85.442 12.5449L80.993 9.56645ZM88.2146 4.77336H82.691L80.993 0L79.2951 4.77336H73.7715L78.242 7.73206L76.544 12.5054L81.0145 9.54672L83.7656 7.73206L88.2146 4.77336Z" fill="#B8BBD3"/>
</svg>
