<svg width="52" height="38" viewBox="0 0 52 38" fill="none" xmlns="http://www.w3.org/2000/svg">
<path fill-rule="evenodd" clip-rule="evenodd" d="M45.429 0.461914H6.38401C3.11279 0.461914 0.460938 3.11376 0.460938 6.38499V31.4611C0.460938 34.7323 3.11279 37.3842 6.38402 37.3842H45.429C48.7002 37.3842 51.3521 34.7323 51.3521 31.4611V6.38499C51.3521 3.11377 48.7002 0.461914 45.429 0.461914ZM1.46094 6.38499C1.46094 3.66605 3.66507 1.46191 6.38401 1.46191H45.429C48.1479 1.46191 50.3521 3.66605 50.3521 6.38499V31.4611C50.3521 34.18 48.1479 36.3842 45.429 36.3842H6.38402C3.66508 36.3842 1.46094 34.18 1.46094 31.4611V6.38499ZM10.5528 9.83785C10.3575 9.64259 10.0409 9.64259 9.84566 9.83785C9.6504 10.0331 9.6504 10.3497 9.84566 10.545L22.0795 22.7788C24.1974 24.8967 27.6311 24.8967 29.7489 22.7788L41.9828 10.545C42.1781 10.3497 42.1781 10.0331 41.9828 9.83785C41.7875 9.64259 41.4709 9.64259 41.2757 9.83785L29.0418 22.0717C27.3145 23.799 24.514 23.799 22.7866 22.0717L10.5528 9.83785ZM33.4532 19.4047C33.2376 19.5772 33.2026 19.8919 33.3751 20.1075L40.3596 28.8381C40.5321 29.0537 40.8467 29.0887 41.0623 28.9162C41.278 28.7436 41.3129 28.429 41.1404 28.2134L34.156 19.4828C33.9835 19.2672 33.6688 19.2322 33.4532 19.4047ZM17.5741 20.1073C17.7466 19.8916 17.7116 19.577 17.496 19.4045C17.2804 19.232 16.9657 19.2669 16.7932 19.4826L9.80878 28.2131C9.63628 28.4288 9.67124 28.7434 9.88687 28.9159C10.1025 29.0884 10.4171 29.0535 10.5897 28.8378L17.5741 20.1073Z" fill="#50F5AC"/>
</svg>
