<svg width="40" height="40" viewBox="0 0 40 40" fill="none" xmlns="http://www.w3.org/2000/svg">
<path d="M30.0205 39.4615C30.0111 39.4599 30.0017 39.4586 29.9923 39.4576C26.9807 39.13 23.4677 37.4794 20.1847 35.3889C16.9137 33.3061 13.9278 30.8234 11.9803 28.8972C11.9799 28.8969 11.9796 28.8966 11.9792 28.8962L11.0768 27.9932C11.0765 27.9929 11.0762 27.9926 11.0759 27.9923C9.10569 25.9983 6.59104 22.9657 4.50432 19.6541C2.40991 16.3302 0.784947 12.785 0.52311 9.7541C0.354558 7.68384 1.11321 5.65004 2.64469 4.11762L4.86553 1.89539C5.7658 0.994559 6.99695 0.5 8.2737 0.5C9.5935 0.5 10.78 0.992986 11.6819 1.89539L15.1264 5.34211C16.1186 6.33485 16.6571 7.65814 16.6571 9.0703C16.6571 10.4824 16.1186 11.8057 15.1264 12.7985L13.6761 14.2497C13.5325 14.3935 13.4901 14.6098 13.5689 14.7971C13.7775 15.2929 14.2545 16.0392 15.0261 17.0115C15.8054 17.9934 16.9065 19.2322 18.3897 20.7163L19.0217 21.3486C19.0221 21.349 19.0225 21.3495 19.023 21.3499C20.5744 22.925 21.8803 24.0949 22.9125 24.92C23.9345 25.7369 24.7151 26.2379 25.2118 26.4472C25.3992 26.5261 25.6158 26.4837 25.7596 26.3398L27.5272 24.5711C28.4275 23.6703 29.6586 23.1757 30.9353 23.1757C32.2551 23.1757 33.4417 23.6687 34.3435 24.5711L38.1053 28.3353C39.0072 29.2377 39.5 30.4251 39.5 31.746C39.5 33.0669 39.0072 34.2543 38.1053 35.1568L35.8845 37.379C34.5266 38.7377 32.7044 39.5 30.7994 39.5C30.4738 39.5 30.2444 39.4988 30.0205 39.4615Z" stroke="#50F5AC" stroke-linejoin="round"/>
</svg>
